<?xml version="1.0" encoding="UTF-8"?><svg id="Layer_1" xmlns="http://www.w3.org/2000/svg" xmlns:xlink="http://www.w3.org/1999/xlink" viewBox="0 0 1294.67 1200.99"><defs><style>.cls-1{clip-path:url(#clippath);}.cls-2,.cls-3,.cls-4,.cls-5,.cls-6{stroke-width:0px;}.cls-2,.cls-7,.cls-8,.cls-9,.cls-10{fill:none;}.cls-11,.cls-12,.cls-13,.cls-14,.cls-15,.cls-16,.cls-17,.cls-18,.cls-19,.cls-20,.cls-21,.cls-22,.cls-23,.cls-24,.cls-25,.cls-26,.cls-27,.cls-28,.cls-29,.cls-30,.cls-31,.cls-32,.cls-33,.cls-34,.cls-35,.cls-36,.cls-37,.cls-7,.cls-8,.cls-9,.cls-10{stroke-linejoin:round;}.cls-11,.cls-12,.cls-13,.cls-15,.cls-32,.cls-35,.cls-37,.cls-7,.cls-8,.cls-9,.cls-10,.cls-38{stroke-width:1.7px;}.cls-11,.cls-13,.cls-14,.cls-16,.cls-17,.cls-18,.cls-19,.cls-20,.cls-21,.cls-22,.cls-23,.cls-24,.cls-25,.cls-26,.cls-27,.cls-28,.cls-29,.cls-30,.cls-31,.cls-32,.cls-33,.cls-34,.cls-36,.cls-37,.cls-8,.cls-38{stroke:#000;}.cls-11,.cls-14,.cls-16,.cls-17,.cls-18,.cls-19,.cls-20,.cls-21,.cls-22,.cls-23,.cls-24,.cls-25,.cls-26,.cls-27,.cls-28,.cls-29,.cls-30,.cls-31,.cls-32,.cls-33,.cls-34,.cls-35,.cls-36,.cls-4{fill:#fff;}.cls-12,.cls-13,.cls-14,.cls-15,.cls-16,.cls-17,.cls-18,.cls-19,.cls-20,.cls-21,.cls-22,.cls-23,.cls-24,.cls-25,.cls-26,.cls-27,.cls-28,.cls-29,.cls-30,.cls-31,.cls-32,.cls-33,.cls-34,.cls-35,.cls-36,.cls-7,.cls-8,.cls-9,.cls-10,.cls-38{stroke-linecap:round;}.cls-12,.cls-35,.cls-9{stroke:#fff;}.cls-14{stroke-width:1.71px;}.cls-15,.cls-7{stroke:#020202;}.cls-15,.cls-5{fill:#fefefe;}.cls-16{stroke-width:1.7px;}.cls-17{stroke-width:1.7px;}.cls-18{stroke-width:1.7px;}.cls-19{stroke-width:1.7px;}.cls-20{stroke-width:1.7px;}.cls-21{stroke-width:1.7px;}.cls-22{stroke-width:1.7px;}.cls-23{stroke-width:1.7px;}.cls-24{stroke-width:1.7px;}.cls-25{stroke-width:1.7px;}.cls-26{stroke-width:1.7px;}.cls-27{stroke-width:1.7px;}.cls-28{stroke-width:1.7px;}.cls-29{stroke-width:1.7px;}.cls-30{stroke-width:1.7px;}.cls-31{stroke-width:1.7px;}.cls-33{stroke-width:1.7px;}.cls-34{stroke-width:1.7px;}.cls-36{stroke-width:1.69px;}.cls-10{stroke:#fefefe;}.cls-6{fill:#020202;}.cls-38{fill:#ffd800;stroke-miterlimit:10;}</style><clipPath id="clippath"><path class="cls-2" d="m586.64,627.5c-.26.74-.52,1.49-.79,2.24-2.46,7.35-5.72,14.42-9.72,21.06-3.69,6-7.42,12.12-12.74,16.67-10.61,9.03-20.09,19.21-33.21,24.03-12.94,4.79-23,10.74-39.9,10-13.16-.61-24.56-1.58-38.92-5.21-22.29-5.64-37.22-16.42-50.33-32.43-3.06-3.74-7.54-11.31-9.79-15.6-3.55-6.74-5.47-9.76-7.29-14.74-5.55-15.22-7.16-30-5.64-46.67.74-8.15,1.73-18.12,4.35-26.11,2.32-7.62,5.54-14.94,9.6-21.8,3.56-5.96,7.5-11.68,11.81-17.13,10-12.36,19.42-21,33.82-27.8,15.68-7.37,43.29-7.59,51.53-7.23,19.29.86,38,6.88,54.18,17.42,7.2,4.7,14.73,10.2,20.08,17,3.92,5,9.35,11.07,12.75,16.41,10.7,16.84,17.88,44.42,16.58,65.43-.49,8.4-3.57,16.46-6.37,24.46Z"/></clipPath></defs><path class="cls-4" d="m1196.43,1056.55H228.97c-8.77,0-15.88-6.79-15.88-15.16V368.05c0-8.37,7.11-15.16,15.88-15.16h967.46c8.77,0,15.88,6.79,15.88,15.16v359.61c.18,7.55.24,15.15.32,22.7,1.1,30,1.1,58.06,0,88.54-.07,7.11-.12,14.12-.29,21.08v181.41c-.03,8.37-7.14,15.16-15.91,15.16Z"/><path class="cls-7" d="m1213.12,443.62v244.88c1.43,63.73,1.43,125,0,190.06v152.21c-.09,14.32-11.74,25.86-26.06,25.83H239.16c-14.32.04-25.98-11.51-26.07-25.83V443.62"/><path class="cls-6" d="m226.98,352.89h973.33c7.67,0,13.89,6.22,13.89,13.89h0v76.84H213.09v-76.85c0-7.67,6.22-13.88,13.89-13.88Z"/><path class="cls-38" d="m881.42,587.44c-21.48-1.09-43.92,2.11-64-.38-5.14-.09-10.29-.15-15.46-.21-36.18-.37-73-.07-109.34.93-4.93-.51-9.87-.87-14.85-1.09-54.72-2.49-114.13,10.66-164.38-9.39-6.68-6.65-10.43-15.7-10.41-25.13h0c.01-14.29,8.57-27.18,21.73-32.75,56.32-8.41,112.43-.4,167.85-2.53,5.63-.07,11.26-.15,16.9-.25,34.9-2.12,71.17-1.16,106.93-.34l15.29.34c23.46.78,47.5-7.23,69.95,5.59,9.61,6.41,14.42,17.63,16,28.85,1.61,14.43-9.61,27.25-22.08,33.49-4.48,1.87-9.28,2.85-14.13,2.87Z"/><path class="cls-7" d="m559.52,550.8c37.71-3.62,76,.78,114,1.68,4.75.11,9.5.17,14.26.14,39.06.07,77.53-3.14,115.26-.89"/><path class="cls-7" d="m855.72,547.04c1,5.65-2.19,10.45-7,13.66-9.62,6.41-22.44-3.21-22.44-12.82,0-11.22,16-19.24,25-10.93,2.8,2.61,4.4,6.26,4.44,10.09Z"/><path class="cls-7" d="m851.44,557.19c5.29,5.11,10.1,9.92,14.6,14.07"/><path class="cls-38" d="m961.33,865.88v98.12c0,6.71-5.44,12.15-12.15,12.15h-5.19c-5.49,0-11-.07-16.53-.09-38.67-.2-77.17-.2-115.51,0h-5.15c-6.7.03-12.16-5.39-12.19-12.09,0-.02,0-.04,0-.06v-7c-.39-27.61-.39-56.46,0-84.13v-7c0-6.71,5.44-12.15,12.15-12.15h23.86c24.51.31,46.95.31,71.75.13,4,0,8-.04,12-.13h34.82c6.71,0,12.15,5.45,12.14,12.16,0,.03,0,.06,0,.09Z"/><path class="cls-7" d="m795.1,962.21c21.56-23.21,47.21-42.45,80.87-40.85,14.42,0,22.44-22.44,38.47-30.45,8-4.81,14.43,1.6,20.58,5.12,3.08,2.17,6.29,4.62,9.51,7s6.43,4.65,9.52,6.49l6.89,4.21"/><path class="cls-7" d="m846.38,885.8c-.87,8.31-7.28,11.52-15.29,9.92-9.62-3.21-8-20.84,4.74-20,5.63-.19,10.35,4.21,10.54,9.84,0,.08,0,.16,0,.24Z"/><g id="ui_play"><path class="cls-15" d="m1115.34,828.6h-123.37c-18.22-.2-35.85-.2-53.94,0h-123.38c-11.58-.03-20.97-9.42-21-21v-81.2c.6-10.07.6-20.17,0-30.24v-51.82c-1-11,12.24-7.07,19.17-8.66.84-.17,1.7-.26,2.56-.24h25.08c22.7.6,43.54.6,66,.45h10.68c7.09-.07,14.11-.2,20.91-.4h189.47c4.92,0,8.9,3.98,8.9,8.9h0s0,7,.21,18.45c.65,40.57.65,79-.1,119.14-.09,7.27-.11,13.92-.11,19.53v6.09c-.03,11.62-9.46,21.02-21.08,21Z"/><path class="cls-6" d="m1040.88,732c-1.41,9.83-3,19.45-7.11,28.64-2.07,4.49-4.53,8.8-7.35,12.86-14.08,20.29-37.24,34.06-62.29,34.06-19.74-.18-38.61-8.15-52.49-22.19-22.39-22.3-29.46-55.75-18-85.2,8-17.64,24-30.46,42-37.72,4.58-1.9,9.33-3.35,14.19-4.35,5.01-1.02,10.1-1.53,15.21-1.53,15.03,0,29.71,4.5,42.15,12.93,4.01,2.71,7.75,5.79,11.17,9.21,9.89,11.88,17.9,24.7,21,38.35,1.05,4.91,1.56,9.92,1.52,14.94Z"/><path class="cls-4" d="m1003.52,729.28c-13.44-7.66-27.19-15.2-41-22.7l-10.4-5.63c-4-.79-7.21-4-10.41-5.6-3.21,16,0,32.06-1.56,48,.16,4,.28,8.05.3,12.06s-.08,8-.34,12c14.42-9.62,28.85-22.44,46.69-29.52,9.54-5.01,16.72-8.61,16.72-8.61Z"/></g><path class="cls-15" d="m677.52,661.7c0,6.71-5.44,12.15-12.15,12.15h-104.35c-10.1.13-20.29.24-30.56.32l-15.44.1c-36.58.24-71.85.24-108.51-.42h-104.21c-6.71,0-12.15-5.44-12.15-12.15h0v-14.11c0-6.71,5.44-12.15,12.15-12.15h97.34c54.75.6,107.65.6,161.45,0,3.8.15,7.63.26,11.49.34,11.56.22,23.31.11,34.24-.34h58.57c6.7.01,12.13,5.45,12.13,12.15v14.11Z"/><path class="cls-7" d="m328.95,654.65h69.09c58,.62,114.06.62,171.58,0h69.12"/><path class="cls-15" d="m677.52,709.5c0,6.71-5.44,12.15-12.15,12.15h-116.63c-4.05,0-8.13-.02-12.23-.05h-.76c-49.55-3.72-97.52-2.12-147.67,0-3.69.06-7.24.08-10.9.12h-74.88c-6.71,0-12.15-5.44-12.15-12.15,0-.02,0-.05,0-.07v-14.16c0-6.71,5.44-12.15,12.15-12.15h92.22c40.62-.67,80.69-.67,120.58-.48,5.08.08,10.23.12,15.36.16,10.27.08,20.47.19,30.6.32h104.33c6.7.01,12.13,5.45,12.13,12.15v14.16Z"/><path class="cls-7" d="m328.95,702.39h39.1c57.49-.63,115.19-3.84,173.07-.2,5.75.06,11.52.13,17.31.2h80.31"/><path class="cls-15" d="m677.52,757.2c0,6.71-5.44,12.15-12.15,12.15h-129.21c-15.39-.55-30.77-.94-46.16-1.16-5.12-.07-10.24-.12-15.35-.16-15.45-.52-29.88-.52-46,.16-5.09.08-10.17.17-15.26.28-10.16.22-20.29.51-30.4.88h-80.69c-6.71,0-12.15-5.44-12.15-12.15h0v-14.11c0-6.71,5.44-12.15,12.15-12.15h73.14c57.19-3.49,114.54-3.49,171.73,0h118.22c6.7.01,12.13,5.45,12.13,12.15v14.11Z"/><path class="cls-7" d="m328.95,750.14h39.1c55.89-.29,110.39-5.1,166.83-.12,3.94.09,7.92.11,11.85.12h92"/><path class="cls-15" d="m677.52,804.94c0,6.71-5.44,12.15-12.15,12.15h-95.04c-34.19.08-66.25.08-100.42.06h-15.48c-25.74,0-51.47-.02-77.18-.06h-75c-6.71,0-12.15-5.44-12.15-12.15h0v-14.11c0-6.71,5.44-12.15,12.15-12.15h80.65c4.58,0,9.18-.03,13.8-.08s9.27-.12,13.94-.21c32.48-1.28,66.14-1.28,98.75-.54,4.67.19,9.33.43,14,.74,4.19.07,8.42.1,12.62.1h129.3c6.71-.03,12.18,5.38,12.21,12.09,0,.02,0,.03,0,.05v14.11Z"/><path class="cls-7" d="m328.95,797.89h69.21c41.8.05,81.88.05,124.09,0h116.49"/><path class="cls-15" d="m677.52,852.69c0,6.71-5.44,12.15-12.15,12.15h-55.31c-41.64.29-84,.38-125.72.37h-17.82c-45.76.06-90.64.06-136.47-.36h-27.75c-6.71,0-12.15-5.44-12.15-12.15h0v-14.11c0-6.71,5.44-12.15,12.15-12.15h58.58c29.12.18,58.51.27,87.84.27h17.74c40.83.1,80.9.1,120.52-.26h78.41c6.69.01,12.12,5.44,12.13,12.13v14.11Z"/><path class="cls-7" d="m328.95,845.64h39.1c17.72.11,35.62.19,53.56.24h18c53.23.11,107.73.11,160-.28h39.09"/><path class="cls-15" d="m679.13,910.24c-.43-6.38-5.74-11.33-12.14-11.32-15.63,0-32.17.14-48,.69h-18.4l-14.49-.16c-19.49-.52-38.73-.52-57.9-.36h-31.79c-59.64-1.71-120.55-1.71-180,.58h-14.11c-6.71,0-12.15,5.44-12.15,12.15h0v52.24c0,6.71,5.44,12.15,12.15,12.15h21.58c47.39-2.62,93.5-1.47,139.84-.61,5.23.09,10.46.19,15.85.27,39.6,0,78.19,0,117.06.15h16.71c18.25,1.23,36.68-1.8,55.13-2,6.64-.1,11.96-5.53,11.93-12.17,0-14.6-.16-28.72-.77-44.13-.18-2.74-.35-5.22-.5-7.48Z"/><circle class="cls-4" cx="248.27" cy="389.87" r="11.49"/><circle class="cls-4" cx="291.48" cy="389.87" r="11.49"/><circle class="cls-4" cx="334.69" cy="389.87" r="11.49"/><g id="Artwork_2869"><path class="cls-32" d="m1071.38,138.63s-1.91-16.64,0-32.25c2.18-17.9,4.74-30,4.67-37.59,0-5.35-.75-12.05,1.64-18.58,4.67-12.32,14.72-21.82,27.29-25.78,21.92-6.86,45.33-2.55,56.23,11.39,5.45,7,6.32,12.69,8,22.16s.45,20.36.94,29.22c.44,8.09,3.07,16.14,5.51,34.77,1.14,8.72,2.79,16.7,2.79,16.7-7.75,1.79-15.68,2.7-23.63,2.72-14.5.14-30.91.18-47.41,0-5.94-.07-11.31-3.31-16.32-3.47-10.69-.33-17.81,1.58-19.71.71Z"/><circle class="cls-32" cx="1122.22" cy="127.63" r="10.91"/><circle id="C" class="cls-32" cx="1122.22" cy="150.27" r="10.91"/><polyline class="cls-4" points="1111.33 150.94 1111.28 127.79 1133.13 127.67 1133.13 150.51"/><line class="cls-8" x1="1133.13" y1="127.67" x2="1133.13" y2="150.51"/><line class="cls-8" x1="1111.33" y1="150.94" x2="1111.28" y2="127.79"/><path class="cls-32" d="m1088.26,36.43c-10.85,7.51-14.24,16.59-13.83,29.77.49,15.9-5.12,28.87,3.29,45.95,8,16.28,22,19.89,34.94,20.11s33.25-11.53,38.64-29.1,7.59-21.82,7.32-39.88-12.89-29.75-40.21-32.52c-11.08-1.13-23.68,1.18-30.15,5.67Z"/><path class="cls-8" d="m1100.52,98.92s-5.59.12-5.68-3.2c0-1.29.85-2.52,3-4.75,1.12-1.14,3.06-3.34,3.28-4.92"/><path class="cls-8" d="m1092.52,105.31s1.65,3.75,6.77,3.56c4.73-.18,7.94-5,7.94-5"/><ellipse class="cls-13" cx="1084.87" cy="87.2" rx="2" ry="3.04"/><ellipse class="cls-13" cx="1118.4" cy="87.57" rx="1.72" ry="2.62"/><path class="cls-3" d="m1074.05,76.11c-.63-1.08,2.28-4.28,6.73-5.2s10.09-.2,9.16,1.37-7.76,1.94-10.2,3-5.17,1.72-5.69.83Z"/><path class="cls-3" d="m1130.25,76.5c.39-.72-2.29-4.28-6.73-5.2s-10.1-.2-9.17,1.37,7.76,1.94,10.21,3,5.3,1.49,5.69.83Z"/><path class="cls-32" d="m1148.66,84.1s5.74-8,13.17-3.42c8.92,5.54-2.87,25-10.26,22.42-1.08-.45-2.06-1.08-2.91-1.88-1.12-1.01-1.72-2.49-1.6-4l.18-2.58"/><path class="cls-32" d="m1155.68,87.91l-3.9,3.92s1.77.29,2.7,3.1"/><path class="cls-32" d="m1068.11,68.5s4.3.2,8.27-4.31c8.53-9.7,9.36-22.36,9.36-22.36,0,0,6.23,6.86,21.5,18.16,25,18.51,63.67,24,63.67,24,0,0,7.58-70.89-72.94-58.43-32.89,5.13-29.86,42.94-29.86,42.94Z"/><path class="cls-13" d="m1130.83,15.61c-1.98.11-3.94-.34-5.68-1.29,0,0-5-9.3,1.81-12.49,2-1,4.6-1.65,7.4.17,7.44,4.88-1.74,13.99-3.53,13.61Z"/><path class="cls-13" d="m1070.9,48.39s-10.59-8.94-4-19.59c7.53-12.18,10.72-9.16,19-14.85s19.08-10.13,26.51-8,10.92,6.39,14.91,8.18,10.92-1,24.07,5.23,22.53,15.74,26.62,26.76c3.44,9.29,3.16,19.54-.77,28.63-1.2,2.74-3.11,5.11-5.55,6.84,0,0-1.08-4-9.75-12.76-7.39-7.46-26.8-19.84-49.19-26.41s-39.89-6.87-41.85,5.97Z"/></g><circle id="C-2" class="cls-13" cx="1170.81" cy="438.88" r="16.68"/><path class="cls-13" d="m1186.93,443.5l-10.19,26.11c-1.24,3.21-4.84,4.81-8.05,3.57-.83-.32-1.59-.82-2.22-1.46l-.11-.12c-2.66-2.79-5.57-9.51-8.09-17.37-1.51-4.71-2.68-7.91-4-12.41"/><path class="cls-13" d="m1186.86,443.5l-6.91,17.87-3.22,8.26c-1.24,3.2-4.84,4.79-8.05,3.55-.83-.32-1.57-.81-2.19-1.44l-.11-.12s2.51-5.11,3.08-6.7c1-2.79,3.59-10.56,3.59-10.56l4.39-11.35,9.42.49Z"/><circle id="C-3" class="cls-2" cx="1152.15" cy="389" r="15.85"/><path class="cls-13" d="m1154.71,441.42c-5.19-17.47-10.82-37.18-10.82-37.18,0,0,6.89-11.69,19.58-8.72,10.36,2.41-4.7-20.93-4.7-20.93,0,0-1.28-3.63,7.79-1.78,2.57.52,7.89,2.58,12,3.94,4.35,1.46,8.38,2,11.64,3.13,4.46,1.5,7.68,3.35,10.39,4.28h0c6.46,2.24-16.77,43.3-16.77,43.3l-6.35,15.57"/><line class="cls-7" x1="1150.26" y1="424.8" x2="1157.85" y2="421.39"/><line class="cls-7" x1="1147.15" y1="415.55" x2="1155.32" y2="411.72"/><path class="cls-13" d="m1208.98,387.16l-22,56.37-9.49-.49s4-11.58,5.15-14.42c2.07-5.37,7.65-18.26,10-23,6.69-13.84,8-21.44,8-21.44h0c6.38,2.23,8.34,2.98,8.34,2.98Z"/><path class="cls-7" d="m1181.18,377.63c-1.2,4.85-1.11,9.93.25,14.73,1.56,5,3.33,11.11,11.11,13.24"/><circle class="cls-32" cx="1152.14" cy="389.01" r="15.85"/><circle id="C-4" class="cls-32" cx="1012.14" cy="334.67" r="28.34"/><polyline class="cls-32" points="1146.89 403.96 1045.33 364.53 1058.51 335.99 1157.4 374.05"/><path class="cls-32" d="m1001.52,360.94s36.55,16.89,45.45,21.3c6.14,3,57.51,29.44,105.62,62.49,6.7-3.44,12.4-8.55,16.53-14.85,3.4-5.2,11.53-19.25,16.59-28.88,7.85-15,12.41-25.71,12.41-25.71-1.11-.47-105.93-41.84-107.12-42.35-7.85-3.36-32.28-10.76-46.4-16.18-15.52-6-21.84-8.36-21.84-8.36"/><circle id="C-5" class="cls-32" cx="1106.23" cy="336.2" r="33.03"/><path class="cls-4" d="m1107.04,369.23s-37-3.4-61.62-4.1c-10.54-.3-33.7-2.11-33.7-2.11l-1.39-56.71s31.13-1.92,41.51-2.3c10-.38,8.72-.67,18.71-.93,8.88-.23,4,.23,17.91-.47,3.52-.17,7.59,1.06,10.17.93,4.18-.21,6.8-.36,6.8-.36l1.61,66.05Z"/><path class="cls-32" d="m1010.33,306.3s31.13-1.91,41.51-2.3c10-.37,16.6-1,26.6-1.3,14.73-.38,27,.48,27,.48"/><path class="cls-32" d="m1107.04,369.22s-36.41-.86-61.62-4.09"/><circle class="cls-32" cx="1156.54" cy="336.19" r="33.03"/><circle id="C-6" class="cls-32" cx="1132" cy="295.97" r="45.48"/><path class="cls-4" d="m1073.25,334.93s-.75-8.54,3.52-19.4,9.75-21.93,9.75-21.93c0,0,7.32-.87,45.23.26s45.68,0,45.68,0c0,0,3,12.46,6.64,21.07,6.24,14.61,5.44,21.13,5.44,21.13,0,0-28.21,11.67-61.13,10.82-13.69-.35-36-5.36-46-7.89-8.78-2.26-9.13-4.06-9.13-4.06Z"/><path class="cls-32" d="m1073.25,334.93s-.75-8.54,3.52-19.4,9.75-21.93,9.75-21.93l90.91.23c0,.13,2.75,12.56,6.64,21.07,5.38,11.78,5.44,21.13,5.44,21.13"/><circle id="C-7" class="cls-13" cx="1012.58" cy="516.05" r="16.68"/><path class="cls-13" d="m1013.52,532.7l-27.57-.17c-3.44-.01-6.22-2.82-6.2-6.26,0-.89.2-1.77.57-2.58.03-.05.05-.1.07-.15,1.67-3.48,6.91-8.58,13.36-13.74,3.86-3.09,6.44-5.32,10.18-8.13"/><path class="cls-13" d="m1013.52,532.7l-18.73-.09-8.87-.08c-3.43-.02-6.2-2.81-6.18-6.24,0-.89.2-1.76.57-2.57l.07-.15s5.68.53,7.36.49c3-.06,11.15-.39,11.15-.39l12.17.06,2.46,8.97Z"/><circle id="C-8" class="cls-2" cx="1052.56" cy="480.87" r="15.85"/><path class="cls-13" d="m1004.52,501.91c14.48-11.06,30.89-23.34,30.89-23.34,0,0,13.38,2.28,15.12,15.2,1.43,10.54,17.89-11.84,17.89-11.84,0,0,2.93-2.49,4.43,6.65.43,2.59.4,8.29.57,12.56.19,4.59,1.07,8.57,1.21,12,.19,4.7-.39,8.37-.3,11.23h0c.21,6.84-46.43-.26-46.43-.26l-16.26-.16"/><line class="cls-7" x1="1018.43" y1="491.84" x2="1024.31" y2="497.72"/><line class="cls-7" x1="1025.96" y1="485.64" x2="1032.45" y2="491.91"/><path class="cls-13" d="m1074.52,533.33l-61-.63-1.21-8.65s11-.66,14.06-.64c5.75,0,19.78.65,25.05,1.11,15.32,1.33,22.88-.15,22.88-.15h0c.22,6.86.22,8.96.22,8.96Z"/><path class="cls-7" d="m1073.52,503.95c-4.96.61-9.67,2.49-13.67,5.48-4.14,3.24-9.2,7.06-8.42,15.09"/><circle class="cls-32" cx="1052.55" cy="480.87" r="15.85"/><circle id="C-9" class="cls-32" cx="1053.53" cy="330.69" r="28.34"/><polyline class="cls-32" points="1036.7 481.27 1037.43 372.33 1068.79 374.5 1068.4 480.46"/><path class="cls-32" d="m1025.2,330.11s-2.78,40.17-3.74,50c-.67,6.83-7.06,64.22-20.83,121,5.59,5.04,12.4,8.54,19.76,10.16,6.06,1.33,22.09,3.93,32.89,5.23,16.77,2,28.44,2.46,28.44,2.46,0-1.2,1.43-113.89,1.48-115.18.35-8.53-1.43-34-1.38-49.12.06-16.64,0-23.38,0-23.38"/><circle id="C-10" class="cls-4" cx="1156.54" cy="336.19" r="17.29"/><path class="cls-4" d="m1155.83,369.21s-46.46.65-73.75-.21c-10.54-.33-30.27-2.3-30.27-2.3l1.2-64.42,37.63.29c10,.08,21.72,0,31.71.19,8.88.18,4.81.55,18.79.49h16.1l-1.41,65.96Z"/><path class="cls-32" d="m1053.02,302.27s28.36,0,38.75.09c10,.08,28.88.44,38.88.64,14.74.3,26.59.16,26.59.16"/><path class="cls-32" d="m1155.83,369.21s-41,.66-73.75-.21c-10.54-.28-30.27-2.3-30.27-2.3"/><circle class="cls-32" cx="1074.95" cy="268.28" r="14.14"/><circle class="cls-32" cx="1078.93" cy="174.33" r="16.47"/><circle id="C-11" class="cls-2" cx="1078.93" cy="174.33" r="10.15"/><path class="cls-4" d="m1095.4,174.65l-6.42,91.85-28.15.87s-.42-42.07-.6-52.18c-.24-13.56,2.24-41.2,2.24-41.2"/><path class="cls-8" d="m1060.83,267.39s0-41.78-.6-52.18c-.64-13.77.11-27.58,2.24-41.2"/><line class="cls-8" x1="1095.4" y1="174.65" x2="1088.98" y2="266.52"/><ellipse id="C-12" class="cls-36" cx="950.29" cy="270.07" rx="2.5" ry="2.43" transform="translate(200.24 913.04) rotate(-56.47)"/><path class="cls-32" d="m951.43,264.38c-.76,1.38-1.42,2.81-2,4.27-.49,2.14,1.46,3.37,3,2.36,1.25-1.26,2.35-2.66,3.28-4.17"/><ellipse id="C-13" class="cls-31" cx="957.43" cy="260.05" rx="2.83" ry="2.76" transform="translate(170.16 863.8) rotate(-52.68)"/><path class="cls-4" d="m955.68,266.78c1.5-2,2.92-3.82,4-5.15-1.5-1.06-3-2.19-4.44-3.27-1.32,1.94-2.52,3.91-3.66,5.81.94.63,3.65,2.33,4.1,2.61Z"/><path class="cls-8" d="m955.68,266.78c1.5-2,2.92-3.82,4-5.15"/><path class="cls-8" d="m955.21,258.36c-1.32,1.94-2.52,3.91-3.66,5.81"/><ellipse id="C-14" class="cls-30" cx="966.25" cy="259.21" rx="3.24" ry="3.15" transform="translate(-29.4 161.64) rotate(-9.42)"/><path class="cls-4" d="m957.75,262.81c2.83-.32,8.57-.51,8.57-.51l-.57-6.25s-5.62.54-9,1.27c.37,1.83.64,3.65,1,5.49Z"/><path class="cls-8" d="m957.75,262.81c2.83-.32,8.57-.51,8.57-.51"/><path class="cls-8" d="m965.75,256.05s-5.62.54-9,1.27"/><ellipse id="C-15" class="cls-34" cx="954.2" cy="269.83" rx="2.51" ry="2.44" transform="translate(203.21 917.38) rotate(-56.56)"/><path class="cls-32" d="m952.05,268.76c-.76,1.38-1.43,2.8-2,4.27-.5,2.14,1.45,3.37,3,2.36,1.25-1.26,2.35-2.66,3.27-4.17"/><ellipse id="C-16" class="cls-31" cx="958.04" cy="264.43" rx="2.83" ry="2.76" transform="translate(166.92 866.01) rotate(-52.68)"/><path class="cls-4" d="m956.3,271.16c1.5-2,2.92-3.82,4-5.15-1.5-1.06-3-2.19-4.44-3.27-1.33,1.94-2.52,3.91-3.66,5.81.92.63,3.65,2.31,4.1,2.61Z"/><path class="cls-8" d="m956.3,271.16c1.5-2,2.92-3.82,4-5.15"/><path class="cls-8" d="m955.83,262.74c-1.33,1.94-2.52,3.91-3.66,5.81"/><ellipse id="C-17" class="cls-30" cx="966.86" cy="263.6" rx="3.24" ry="3.15" transform="translate(-30.11 161.8) rotate(-9.42)"/><path class="cls-4" d="m958.37,267.19c2.83-.32,8.56-.51,8.56-.51l-.56-6.25s-5.62.54-9,1.27c.37,1.8.63,3.65,1,5.49Z"/><path class="cls-8" d="m958.37,267.19c2.83-.32,8.56-.51,8.56-.51"/><path class="cls-8" d="m966.37,260.43s-5.62.54-9,1.27"/><ellipse id="C-18" class="cls-34" cx="956.29" cy="274.37" rx="2.51" ry="2.44" transform="translate(200.36 921.16) rotate(-56.56)"/><path class="cls-32" d="m954.13,273.28c-.75,1.38-1.42,2.81-2,4.27-.49,2.15,1.46,3.38,3,2.37,1.25-1.26,2.35-2.67,3.28-4.18"/><ellipse id="C-19" class="cls-31" cx="960.13" cy="268.97" rx="2.83" ry="2.76" transform="translate(164.14 869.46) rotate(-52.68)"/><path class="cls-4" d="m958.38,275.69c1.5-2,2.92-3.82,4-5.15-1.5-1.06-2.95-2.19-4.44-3.27-1.32,1.94-2.52,3.91-3.65,5.81.92.63,3.64,2.3,4.09,2.61Z"/><path class="cls-8" d="m958.38,275.69c1.5-2,2.92-3.82,4-5.15"/><path class="cls-8" d="m957.91,267.27c-1.32,1.94-2.52,3.91-3.65,5.81"/><ellipse id="C-20" class="cls-30" cx="968.95" cy="268.12" rx="3.24" ry="3.15" transform="translate(-30.82 162.2) rotate(-9.42)"/><path class="cls-4" d="m960.45,271.72c2.83-.32,8.57-.51,8.57-.51l-.57-6.25s-5.62.54-9,1.26c.37,1.84.64,3.66,1,5.5Z"/><path class="cls-8" d="m960.45,271.72c2.83-.32,8.57-.51,8.57-.51"/><path class="cls-8" d="m959.52,266.22c3.35-.72,9-1.26,9-1.26"/><circle id="C-21" class="cls-8" cx="977.69" cy="274.9" r="3.91"/><circle id="C-22" class="cls-32" cx="990.52" cy="265.8" r="8.93"/><path class="cls-4" d="m969.02,271.21l3.84-.09,4.39-.11.21,7.79c3.42-.19,6.81-.85,10.06-1.94,2.94-1.08,8.48-4,8.48-4,0,0-4.28-4.27-4.91-7.94-.42-2.67-.1-5.41.92-7.91,0,0-10-1-12.93-1.08-3.36-.12-13,.09-13,.09,0,0,1.19,5.12,1.54,7.12.8,4.45,1.4,8.07,1.4,8.07Z"/><polyline class="cls-8" points="969.02 271.21 972.86 271.12 977.25 271.01"/><path class="cls-8" d="m992.01,257s-10.51-1-14.63-1.17c-4.53-.18-11.28.18-11.28.18"/><path class="cls-8" d="m977.46,278.8c3.42-.25,6.79-.9,10.06-1.94,3-.94,5.85-2.28,8.48-4"/><circle id="C-23" class="cls-32" cx="969.07" cy="275.11" r="3.04"/><path class="cls-32" d="m968.72,272.09c-3.31.25-7.35.75-7.41,3.37,0,2.12,4.43,2.57,7.93,2.69"/><circle id="C-24" class="cls-4" cx="977.69" cy="274.9" r="2.09"/><path class="cls-4" d="m968.91,272.08c.14,1.58.1,5.61.14,6.07l3.33.31c2.58.21,5.08.34,5.08.34l-.21-7.79s-2.73.29-6.61.81c-.12.02-1.62.26-1.73.26Z"/><path class="cls-8" d="m977.25,271.01s-2.76.24-6.14.74c-.82.13-2.09.33-2.2.33"/><path class="cls-8" d="m969.05,278.15l3.33.31c2.58.21,5.08.34,5.08.34"/><path class="cls-4" d="m1072.89,254.29l-32.33.49-22.49.39-25.72,1.9s-1.46,2.56-1.78,8.17c-.19,3.16-.11,6.33.24,9.48,0,0,2.06,1.74,19.8,3.23,11.84,1,23.28,2.49,34.08,3.67,10.41,1,20.87,1.25,31.31.77"/><path class="cls-8" d="m990.81,274.72s3.71,1.87,18.62,3.13c13.9,1.17,29.44,3.33,42.45,4.41,8.03.59,16.09.63,24.12.13"/><path class="cls-8" d="m1072.89,254.29s-14.12.06-18.81.24c-3.84.14-30,.48-34.9.58-9,.2-26.83,2-26.83,2"/><circle id="C-25" class="cls-35" cx="1074.95" cy="268.28" r="6.78"/><circle class="cls-32" cx="1183.14" cy="174.91" r="16.47"/><circle id="C-26" class="cls-2" cx="1132.01" cy="295.97" r="45.48"/><path class="cls-4" d="m1081.52,293.34l-1.86-22.45-8.86-110.88s8.67-5,26.88-7.9c6.07-.95,13-1.76,20.65-2.22,4.14-.24,8.49-.38,13-.39,2.85,0,5.75.1,8.67.28,4.8.29,9.65.8,14.34,1.44,19.53,2.64,32.37,7.62,32.37,7.62l-2.64,108.18-1.55,26.57-101-.25Z"/><path class="cls-8" d="m1133.15,149.68c7.1.16,14.18.67,21.23,1.54,12.01,1.66,23.82,4.53,35.26,8.56"/><path class="cls-8" d="m1070.8,160.01s8.67-5,26.88-7.9c6.07-.95,8.31-1.41,13.64-1.84"/><polyline class="cls-8" points="1185.96 191.14 1184.11 267.02 1182.48 293.59"/><polyline class="cls-8" points="1081.52 293.34 1079.66 270.89 1072.78 195.5"/><path class="cls-3" d="m1115,212.5l6.71-7.39,8.38-9.22,17.91-17.1s3.72,4.23,10,12.6c2.91,3.88,14,17.37,17.06,20.32,9,8.61,10.21,7.39,10.21,7.39l-.53,38.07-109.43-.17s-7.38-27.38-2.54-40.47c2.26-6.32,4.85-12.52,7.77-18.56,3.44-6.65,7.33-13.07,11.63-19.2l12.19,18,10.64,15.73Z"/><polyline class="cls-32" points="1091.06 153.33 1091.79 161.9 1092.66 174.33 1092.29 180.74"/><polyline class="cls-32" points="1152.86 151.03 1150.16 161.18 1148.63 174.33 1147.81 180.24"/><path class="cls-3" d="m1060.52,302.26l14.84-45.27,77.71.12,31.72.05,15,47.15s-7.13,3.18-23.55,0c-15.53-3-33.84,7.1-49.12,2.13-10.49-3.42-24.14-5.13-32.66-3.42-9.23,1.86-18.06,4.71-21.54,3.72s-12.4-4.48-12.4-4.48Z"/><circle class="cls-32" cx="1172.38" cy="268.32" r="14.14"/><circle class="cls-2" cx="1183.14" cy="174.91" r="16.47"/><circle id="C-27" class="cls-4" cx="1183.18" cy="174.96" r="10.15" transform="translate(395.18 1074.73) rotate(-57.2)"/><path class="cls-4" d="m1166.83,172.65l-8,91.74,27.66,5.33s7-41.55,8.77-51.5c2.36-13.37,4.23-41.05,4.23-41.05"/><path class="cls-8" d="m1186.45,269.72s6.52-41.33,8.77-51.5c2.78-13.51,4.2-27.26,4.23-41.05"/><line class="cls-8" x1="1166.13" y1="180.58" x2="1158.79" y2="264.39"/><circle id="C-28" class="cls-32" cx="1047.42" cy="262.94" r="2.36"/><path class="cls-32" d="m1047.52,265.3c-3,.47-6,1.2-6.81,1-1.07-.08-1.87-1.02-1.78-2.09.05-.59.36-1.13.86-1.46,2.33-.93,4.74-1.65,7.19-2.17"/><circle id="C-29" class="cls-32" cx="1054.77" cy="262.33" r="2.66"/><path class="cls-4" d="m1047.25,260.59c2.32-.3,5.68-.67,7.25-.91.18,1.77.42,3.53.62,5.29-2.2.17-5.57.3-7.65.33-.07-1.1-.18-4.19-.22-4.71Z"/><path class="cls-8" d="m1047.25,260.59c2.32-.3,5.68-.67,7.25-.91"/><path class="cls-8" d="m1055.12,264.97c-2.2.17-5.57.3-7.65.33"/><circle id="C-30" class="cls-32" cx="1061.26" cy="263.34" r="3.04"/><path class="cls-4" d="m1055.3,259.72c2.65.3,6.47.62,6.47.62l-1,6s-3.28-.68-6.43-1.38c.32-1.78.6-3.46.96-5.24Z"/><path class="cls-8" d="m1055.3,259.72c2.65.3,6.47.62,6.47.62"/><path class="cls-8" d="m1060.75,266.34s-3.28-.68-6.43-1.38"/><ellipse id="C-31" class="cls-25" cx="1047.82" cy="269.16" rx="2.33" ry="2.26" transform="translate(14.78 590.4) rotate(-31.68)"/><path class="cls-32" d="m1046.45,267.5c-1.13.92-5.33,3.81-5.8,4.42-1.25,1.61-.1,3.4,1.58,3.15.7-.1,5.24-2.91,6.8-3.86"/><ellipse id="C-32" class="cls-21" cx="1053.16" cy="266.14" rx="2.63" ry="2.55" transform="translate(-2.57 521.9) rotate(-27.8)"/><path class="cls-4" d="m1049.08,271.15c2-1.09,3.94-2.08,5.34-2.78-.84-1.48-1.63-3-2.45-4.48-1.87,1.11-3.65,2.3-5.34,3.45.55.9,2.19,3.37,2.45,3.81Z"/><path class="cls-8" d="m1049.08,271.15c2-1.09,3.94-2.08,5.34-2.78"/><path class="cls-8" d="m1051.97,263.89c-1.87,1.11-3.65,2.3-5.34,3.45"/><ellipse id="C-33" class="cls-26" cx="1061.41" cy="266.16" rx="3" ry="2.92" transform="translate(-14.79 68.11) rotate(-3.65)"/><path class="cls-4" d="m1053.2,268.7c2.64,0,8.39.37,8.39.37l-.37-5.82s-5.27,0-8.43.35c.15,1.73.24,3.37.41,5.1Z"/><path class="cls-8" d="m1053.2,268.7c2.64,0,8.39.37,8.39.37"/><path class="cls-8" d="m1061.22,263.25s-5.27,0-8.43.35"/><ellipse id="C-34" class="cls-25" cx="1050.14" cy="273.13" rx="2.33" ry="2.26" transform="translate(13.03 592.2) rotate(-31.68)"/><path class="cls-32" d="m1048.76,271.44c-1.13.92-5.33,3.82-5.8,4.43-1.25,1.61-.1,3.4,1.58,3.15.7-.11,5.24-2.92,6.8-3.87"/><ellipse id="C-35" class="cls-21" cx="1055.47" cy="270.11" rx="2.63" ry="2.55" transform="translate(-4.15 523.43) rotate(-27.8)"/><path class="cls-4" d="m1051.39,275.12c2-1.08,3.94-2.07,5.34-2.78-.84-1.48-1.63-3-2.45-4.48-1.87,1.12-3.65,2.31-5.34,3.46.58.9,2.19,3.37,2.45,3.8Z"/><path class="cls-8" d="m1051.39,275.12c2-1.08,3.94-2.07,5.34-2.78"/><path class="cls-8" d="m1054.28,267.86c-1.87,1.12-3.65,2.31-5.34,3.46"/><ellipse id="C-36" class="cls-26" cx="1063.72" cy="270.15" rx="3" ry="2.92" transform="translate(-15.04 68.27) rotate(-3.65)"/><path class="cls-4" d="m1055.52,272.67c2.64,0,8.39.38,8.39.38l-.37-5.82s-5.27,0-8.43.35c.14,1.73.23,3.37.41,5.09Z"/><path class="cls-8" d="m1055.52,272.67c2.64,0,8.39.38,8.39.38"/><path class="cls-8" d="m1063.52,267.23s-5.27,0-8.43.35"/><ellipse id="C-37" class="cls-18" cx="1054.02" cy="276.07" rx="2.06" ry="2" transform="translate(-28.41 400.6) rotate(-21.24)"/><path class="cls-32" d="m1053.09,274.32c-1.13.62-5.3,3.07-5.81,3.52-.75.51-.95,1.52-.45,2.28.3.44.79.71,1.32.72.63,0,5.09-2.3,6.6-2.88"/><ellipse id="C-38" class="cls-29" cx="1059.15" cy="274.3" rx="2.32" ry="2.26" transform="translate(-33.6 328.52) rotate(-17.36)"/><path class="cls-4" d="m1054.8,277.94c1.94-.61,3.76-1.17,5.09-1.56-.5-1.42-.94-2.86-1.42-4.29-1.8.67-3.54,1.42-5.2,2.15.34.87,1.37,3.26,1.53,3.7Z"/><path class="cls-8" d="m1054.8,277.94c1.94-.61,3.76-1.17,5.09-1.56"/><path class="cls-8" d="m1058.52,272.09c-1.8.67-3.54,1.42-5.2,2.15"/><ellipse id="C-39" class="cls-22" cx="1066.38" cy="275.62" rx="2.58" ry="2.65" transform="translate(666.61 1301.93) rotate(-83.21)"/><path class="cls-4" d="m1058.77,276.5c2.3.4,7.25,1.67,7.25,1.67l.61-5.12s-4.59-.85-7.4-1c-.14,1.45-.33,2.9-.46,4.45Z"/><path class="cls-8" d="m1058.77,276.5c2.3.4,7.25,1.67,7.25,1.67"/><path class="cls-8" d="m1066.63,273.02s-4.59-.85-7.4-1"/><circle id="C-40" class="cls-32" cx="1080.29" cy="272.16" r="8.93"/><path class="cls-4" d="m1081.75,263.35s-3.45-.45-6.2-.88c-3.75-.58-7.13-1.06-7.13-1.06l-6.65-1.07.44,5.49s1,3.56,1.57,5.34c.26.74,1.09,3.45,1.36,3.91.64.87.75,2.02.31,3,1.67,1.03,3.47,1.81,5.35,2.34,2.91.68,5.9.91,8.88.69,0,0-2.28-5.16-2.31-9s4.38-8.76,4.38-8.76Z"/><path class="cls-8" d="m1065.45,278.04c1.7.96,3.49,1.74,5.35,2.34,2.94.92,8.56.61,9.53.71"/><path class="cls-8" d="m1081.12,263.27s-5.53-.75-10.13-1.46c-2.6-.4-9.22-1.47-9.22-1.47"/><path class="cls-4" d="m1170.91,254.67l-32.19,3.07-22.45,1.41-34.6,4.18s-1.29,2.65-1.24,8.26c.01,3.17.3,6.33.85,9.45,0,0,11.24,1,29,1.32,11.88.22,23.39,1,34.24,1.43,10.45.31,20.91-.12,31.3-1.29"/><path class="cls-8" d="m1081.28,281.04s12.9,1,27.85,1.3c14,.25,29.59,1.39,42.65,1.62,8.05.07,16.1-.42,24.08-1.46"/><path class="cls-8" d="m1170.91,254.67s-14.08,1-18.75,1.47c-3.83.4-15.19,1.82-15.19,1.82,0,0-14.71.63-19.6,1.06-8.95.78-35.7,4.31-35.7,4.31"/><circle id="C-41" class="cls-35" cx="1173.88" cy="268.49" r="6.78"/><g id="laptop_computer_hamakargich"><path class="cls-11" d="m1034.73,219.09c2.94.05,5.46,2.12,6.09,5,2.37,13.2,5.59,26.39,8.92,39.56,2.22,8.78,3.6,24.73,5.11,35.65.26,1.85.52,3.55.79,5.05.48,2.2-.92,4.37-3.12,4.85-.11.02-.22.04-.34.06,2.37,0,4.74.07,7.12.07,2.28.14,4.25-1.59,4.39-3.87.02-.38,0-.76-.08-1.13-.27-1.5-.53-3.2-.79-5.05-1.51-10.92-2.89-26.87-5.11-35.65-3.33-13.17-6.55-26.36-8.92-39.56-.63-2.88-3.15-4.95-6.09-5l-7.97.02Z"/><path class="cls-11" d="m1062.82,299.17c3.36,0,27.36.12,30.73.15,3.13,0,6.25,0,9.35-.13,2.25-.11,4.46.57,6.27,1.91,1.36,1.01,2.2,2.58,2.28,4.28.25,5.14-5.87,3.91-9.55,3.91h-89.16"/><path class="cls-37" d="m919.27,224.06c1.64,26,10.24,48.35,14,75.21.49,4.63,1.39,9.89,6.93,10,37.48,0,74.51.47,112-.07,8.17-.37-2.49-40.35-2.44-45.61-4.87-9.66-4.8-43.84-15-44.54-24.51-1.13-51-1.83-76.25-1.5-7.06,2.04-41.37-2.51-39.24,6.51Z"/><path class="cls-11" d="m981.96,263.13c0,3.3,1.7,6,5,6s6-2.69,6-6-2.19-5.13-5.49-5.13-5.51,1.83-5.51,5.13Z"/></g><g id="magnifying_glass_loop_lupa_xoshoracuyc"><path class="cls-13" d="m621.67,629.31c-4.66,14.25-23.06,52.83-32.68,63.9-13.77,15.83-31.72,24.29-49.31,32.29-33.07,15-71.69,8.4-97.82-.15-72.44-23.75-120.05-104.85-88.24-174.13,32.69-71.22,98.44-115.85,170.55-91.15,33.54,11.49,52.35,28.18,78.19,62.43,23.35,31,32.33,67,19.31,106.81Z"/><path class="cls-13" d="m219.95,830.39c-4.5-3.87-5.42-9.08-4.13-15.71s6.76-13.18,10.19-16.18c4.64-4,8-6.66,11.89-10.18l7.38-6.61c5.82-5.22,14.44-11.79,20.27-17,6.65-6,10.49-11.57,17.14-17.54,7-6.28,14.3-10,21.94-17.54,6.6-6.48,12.88-12.66,19.77-18.84,6.31-5.66,15.2-12.66,21.5-18.31,5.25-4.71,7.92-8.07,13.17-12.78l11.18-10,5.2-4.66.2-.18,25.79,28.76c-.34-.38-17.15,15.4-21.22,20-25.73,28.81-52.46,46.39-62.85,56.06-9.22,8.58-19.43,17-35.34,30.47-4.33,3.68-11.89,12.59-16.11,16.4-6.8,6.14-12.6,12.89-20.86,17.23-1.9,1.01-3.91,1.77-6,2.27-1.89.36-3.82.41-5.72.13-4.99-.34-9.72-2.39-13.39-5.79Z"/><path class="cls-9" d="m244.52,782.43s4.3,4.06,5.65,5.49c3,3.16,7.74,8.71,12.43,14.21,2.72,3.1,5.6,6.06,8.62,8.87"/><path class="cls-9" d="m233.29,792.55s3.65,4.67,5,6.16c3.18,3.65,13.77,13.91,16.74,17.33,1.28,1.49,5,6.07,5,6.07"/><path class="cls-32" d="m382.26,715.79c-.95-.95-1.85-1.95-2.7-3-2.25-3.14-9.35-10-11.49-12.43-1.64-1.87-2.84-3.82-4.38-5.77-2.27-3.18-5.04-5.96-8.2-8.26-3-2.28-4-6.3-4.75-10-1-4.84,1.85-9.47,3.24-10.09,2.47-1.26,5.28-1.66,8-1.12,6.89.77,9.88,5.75,11.22,7.52,2.2,2.94,7.25,8.58,9.33,11.21,1.41,1.78,7.45,8.68,10.31,11.79,2.69,2.93,6.09,5.07,7.56,8.93,1.29,3.4,2.06,7.41-2.21,11.11-3.34,2.91-7.64,3.82-9.56,3.49-2.4-.49-4.61-1.67-6.37-3.38Z"/><path class="cls-4" d="m586.64,627.5c-.26.74-.52,1.49-.79,2.24-2.46,7.35-5.72,14.42-9.72,21.06-3.69,6-7.42,12.12-12.74,16.67-10.61,9.03-20.09,19.21-33.21,24.03-12.94,4.79-23,10.74-39.9,10-13.16-.61-24.56-1.58-38.92-5.21-22.29-5.64-37.22-16.42-50.33-32.43-3.06-3.74-7.54-11.31-9.79-15.6-3.55-6.74-5.47-9.76-7.29-14.74-5.55-15.22-7.16-30-5.64-46.67.74-8.15,1.73-18.12,4.35-26.11,2.32-7.62,5.54-14.94,9.6-21.8,3.56-5.96,7.5-11.68,11.81-17.13,10-12.36,19.42-21,33.82-27.8,15.68-7.37,43.29-7.59,51.53-7.23,19.29.86,38,6.88,54.18,17.42,7.2,4.7,14.73,10.2,20.08,17,3.92,5,9.35,11.07,12.75,16.41,10.7,16.84,17.88,44.42,16.58,65.43-.49,8.4-3.57,16.46-6.37,24.46Z"/><g class="cls-1"><path class="cls-4" d="m1273.24,1112.5H151.87c-10.17,0-18.41-7.87-18.41-17.58V314.5c0-9.7,8.24-17.57,18.41-17.57h1121.37c10.16,0,18.4,7.87,18.4,17.57v416.81c.2,8.75.27,17.56.37,26.31,1.27,34.73,1.27,67.29,0,102.62-.09,8.25-.15,16.37-.34,24.44v210.26c-.03,9.71-8.27,17.56-18.43,17.56Z"/><path class="cls-7" d="m1292.58,402.08v283.78c1.65,73.87,1.65,144.88,0,220.3v176.42c-.08,16.61-13.6,30.01-30.21,29.94H163.68c-16.61.08-30.14-13.33-30.22-29.94h0V402.08"/><path class="cls-6" d="m149.52,296.92h1128.2c8.89,0,16.1,7.21,16.1,16.1v89.07H133.46v-89.08c0-8.87,7.19-16.07,16.06-16.09Z"/><path class="cls-38" d="m908.11,568.78c-24.9-1.26-50.91,2.45-74.19-.44-5.96-.1-11.93-.18-17.92-.24-41.93-.43-84.61-.09-126.73,1.07-5.72-.59-11.46-1.01-17.22-1.26-63.42-2.88-132.28,12.36-190.53-10.88-7.74-7.71-12.08-18.19-12.06-29.12h0c-.01-10.93,4.33-21.41,12.06-29.13,3.77-3.76,8.22-6.76,13.12-8.84,65.29-9.75,130.32-.46,194.56-2.92l19.58-.3c40.45-2.46,82.49-1.34,123.94-.39l17.72.39c27.2.91,55.07-8.38,81.08,6.48,11.15,7.43,16.72,20.44,18.58,33.44,1.86,16.72-11.15,31.59-25.6,38.81-5.19,2.18-10.76,3.31-16.39,3.33Z"/><path class="cls-7" d="m535.01,526.32c43.72-4.2,88.13.9,132.19,1.94,5.5.13,11,.2,16.53.17,45.27.07,89.86-3.65,133.59-1"/><path class="cls-7" d="m878.33,521.95c1.17,6.55-2.55,12.12-8.12,15.84-11.15,7.43-26-3.72-26-14.86,0-13,18.58-22.3,29-12.67,3.23,3.04,5.07,7.26,5.12,11.69Z"/><path class="cls-7" d="m873.36,533.73c6.14,5.92,11.71,11.49,16.92,16.3"/><path class="cls-6" d="m1000.74,891.5v113.73c0,7.78-6.3,14.08-14.08,14.08h-6.01l-19.16-.11c-44.83-.22-89.46-.22-133.89,0h-6c-7.77.03-14.1-6.24-14.13-14.01,0-.02,0-.05,0-.07v-8.09c-.45-32-.45-65.45,0-97.51v-8.02c0-7.78,6.3-14.08,14.08-14.08h27.66c28.41.36,54.42.36,83.16.16,4.67-.04,9.3-.09,13.9-.15h40.36c7.78-.02,14.09,6.27,14.11,14.05v.02Z"/><path class="cls-10" d="m808.06,1003.17c25-26.9,54.71-49.2,93.73-47.34,16.72,0,26-26,44.59-35.3,9.29-5.58,16.72,1.86,23.86,5.93,3.56,2.52,7.29,5.35,11,8.09s7.46,5.39,11,7.53l8,4.88"/><path class="cls-5" d="m867.52,914.6c-1,9.64-8.44,13.36-17.73,11.5-11.15-3.71-9.29-24.15,5.49-23.14,6.54-.22,12.01,4.9,12.23,11.43,0,.07,0,.14,0,.21Z"/><g id="ui_play-2"><path class="cls-15" d="m1179.25,848.3h-143c-21.11-.22-41.55-.22-62.52,0h-143c-13.47,0-24.39-10.92-24.39-24.39h0v-94.06c.7-11.68.7-23.38,0-35.06v-60.06c-1.13-12.78,14.18-8.19,22.22-10,.99-.21,1.99-.31,3-.28h29.07c26.32.69,50.47.69,76.5.52,4.13,0,8.27,0,12.38-.06,8.22-.07,16.36-.23,24.23-.46h219.61c5.7,0,10.31,4.62,10.31,10.32,0,0,0,8.14.24,21.38.76,47,.76,91.62-.11,138.09-.11,8.42-.13,16.14-.13,22.64v7.06c-.02,13.47-10.94,24.37-24.41,24.36Z"/><path class="cls-6" d="m1092.93,736.34c-1.63,11.4-3.49,22.55-8.24,33.2-2.39,5.21-5.24,10.19-8.51,14.89-16.32,23.52-43.17,39.48-72.2,39.48-22.88-.21-44.75-9.45-60.84-25.72-25.98-25.84-34.19-64.61-20.91-98.76,9.29-20.44,27.87-35.3,48.68-43.71,5.31-2.19,10.82-3.87,16.45-5,28.8-5.96,58.67,2.98,79.47,23.78,11.47,13.76,20.76,28.63,24.34,44.44,1.23,5.72,1.82,11.55,1.76,17.4Z"/><path class="cls-4" d="m1049.64,733.19c-15.58-8.88-31.51-17.62-47.55-26.32l-12-6.52c-4.64-.92-8.36-4.63-12.07-6.49-3.72,18.58,0,37.16-1.81,55.7.18,4.67.32,9.32.34,14s-.08,9.29-.39,13.94c16.72-11.15,33.44-26,54.12-34.22,11.03-5.93,19.36-10.09,19.36-10.09Z"/></g><path class="cls-15" d="m671.8,654.86c0,7.78-6.3,14.08-14.08,14.08h-121c-11.71.15-23.52.27-35.43.37l-17.88.11c-42.41.28-83.29.28-125.77-.48h-120.77c-7.78,0-14.08-6.3-14.08-14.08h0v-16.36c0-7.78,6.3-14.08,14.08-14.08h112.82c63.46.69,124.77.69,187.14,0,4.4.18,8.84.31,13.31.39,13.4.26,27,.13,39.68-.39h67.9c7.77,0,14.07,6.31,14.08,14.08v16.36Z"/><path class="cls-7" d="m267.75,646.68h80.09c67.17.73,132.2.73,198.87,0h80.12"/><path class="cls-15" d="m671.8,710.2c0,7.78-6.3,14.08-14.08,14.08h-150.26c-57.43-4.31-113-2.46-171.16,0-4.28.06-8.39.09-12.64.13h-86.79c-7.78,0-14.08-6.3-14.08-14.08h0v-16.48c0-7.78,6.3-14.08,14.08-14.08h106.91c47.07-.77,93.52-.77,139.75-.55,5.9.09,11.86.14,17.82.19,11.9.09,23.72.22,35.46.37h120.91c7.78,0,14.08,6.3,14.08,14.08h0v16.34Z"/><path class="cls-7" d="m267.75,702.02h45.32c66.64-.73,133.52-4.45,200.6-.24l20.07.24h93.09"/><path class="cls-15" d="m671.8,765.55c0,7.77-6.31,14.07-14.08,14.08h-149.78c-17.85-.67-35.68-1.11-53.5-1.34-5.94-.09-11.87-.15-17.8-.2-17.91-.59-34.63-.59-53.27.19-5.9.09-11.8.19-17.69.32-11.77.26-23.51.59-35.23,1h-93.58c-7.78,0-14.08-6.3-14.08-14.08h0v-16.33c0-7.78,6.3-14.08,14.08-14.08h84.76c66.27-4.05,132.73-4.05,199,0h137.09c7.78,0,14.08,6.3,14.08,14.08h0v16.36Z"/><path class="cls-7" d="m267.75,757.37h45.32c64.78-.34,128-5.92,193.37-.14,4.57.1,9.19.13,13.73.14h106.66"/><path class="cls-15" d="m671.8,820.89c0,7.77-6.31,14.07-14.08,14.08h-110.2c-39.62.09-76.78.09-116.39.07h-17.93c-29.84,0-59.66-.02-89.47-.07h-86.86c-7.78,0-14.08-6.3-14.08-14.08h0v-16.39c.04-7.74,6.33-14,14.08-14h93.48c5.3,0,10.64,0,16-.09s10.75-.14,16.15-.25c37.65-1.48,76.67-1.48,114.46-.62,5.44.22,10.86.51,16.26.86,4.86.08,9.77.11,14.64.12h149.86c7.74,0,14.02,6.25,14.08,13.98v16.39Z"/><path class="cls-7" d="m267.75,812.71h80.22c48.46.06,94.91.06,143.83,0h135"/><path class="cls-15" d="m671.8,876.23c0,7.78-6.3,14.08-14.08,14.08h-64.13c-48.28.34-97.35.45-145.73.43h-20.68c-53,.07-105.07.07-158.19-.42h-32.12c-7.78,0-14.08-6.3-14.08-14.08v-16.36c0-7.78,6.3-14.08,14.08-14.08h67.89c33.76.21,67.82.32,101.81.32h20.57c47.32.12,93.77.12,139.7-.3h90.88c7.77,0,14.07,6.31,14.08,14.08v16.33Z"/><path class="cls-7" d="m267.75,868.05h45.32c20.55.14,41.29.23,62.09.29h20.88c61.7.12,124.87.12,185.48-.33h45.31"/><path class="cls-15" d="m673.64,942.94c-.51-7.4-6.66-13.14-14.07-13.13-18.12,0-37.29.17-55.65.81h-21.32l-16.81-.18c-22.58-.6-44.88-.6-67.1-.42h-36.85c-69.13-2-139.73-2-208.63.68h-16.34c-7.78,0-14.08,6.3-14.08,14.08v60.55c0,7.78,6.3,14.08,14.08,14.08h25c54.93-3,108.37-1.7,162.08-.71,6.06.11,12.12.22,18.38.31,45.89,0,90.62.06,135.68.18h19.37c21.15,1.43,42.5-2.09,63.89-2.35,7.71-.09,13.89-6.4,13.83-14.11,0-16.92-.19-33.29-.89-51.15-.2-3.15-.4-6.08-.57-8.64Z"/><circle class="cls-4" cx="174.24" cy="339.78" r="13.32"/><circle class="cls-4" cx="224.33" cy="339.78" r="13.32"/><circle class="cls-4" cx="274.41" cy="339.78" r="13.32"/></g><path class="cls-8" d="m586.64,627.5c-.26.74-.52,1.49-.79,2.24-2.46,7.35-5.72,14.42-9.72,21.06-3.69,6-7.42,12.12-12.74,16.67-10.61,9.03-20.09,19.21-33.21,24.03-12.94,4.79-23,10.74-39.9,10-13.16-.61-24.56-1.58-38.92-5.21-22.29-5.64-37.22-16.42-50.33-32.43-3.06-3.74-7.54-11.31-9.79-15.6-3.55-6.74-5.47-9.76-7.29-14.74-5.55-15.22-7.16-30-5.64-46.67.74-8.15,1.73-18.12,4.35-26.11,2.32-7.62,5.54-14.94,9.6-21.8,3.56-5.96,7.5-11.68,11.81-17.13,10-12.36,19.42-21,33.82-27.8,15.68-7.37,43.29-7.59,51.53-7.23,19.29.86,38,6.88,54.18,17.42,7.2,4.7,14.73,10.2,20.08,17,3.92,5,9.35,11.07,12.75,16.41,10.7,16.84,17.88,44.42,16.58,65.43-.49,8.4-3.57,16.46-6.37,24.46Z"/><path class="cls-7" d="m424.89,533.72c11.94-12.65,26.78-23.15,44.19-25.79,29.51-4.48,58.74,8.87,79.1,27.85"/></g><g id="Artwork_2805"><circle class="cls-32" cx="109.28" cy="589.51" r="12.01"/><circle id="C-42" class="cls-32" cx="109.27" cy="614.45" r="12.01"/><polyline class="cls-4" points="121.27 615.2 121.34 589.7 97.27 589.55 97.26 614.72"/><line class="cls-8" x1="97.27" y1="589.55" x2="97.26" y2="614.72"/><line class="cls-8" x1="121.27" y1="615.2" x2="121.34" y2="589.7"/><path class="cls-32" d="m97.28,589.33c-1.6-2.27-3.54-4.27-5.76-5.93-7.71-5.38-14.27-12.23-19.33-20.15-10.81-16.37-12.2-34.1-9.48-51.14,3.46-21.66,17.83-27.71,51-31.08,13.46-1.36,26.6-7,34.47-1.54,13.16,9.13,13.32,20.66,12.82,36.67-.6,19.31,10.37,35.38,1.32,56.65-7.92,18.61-25.88,25.9-47.43,23.28"/><path class="cls-13" d="m107.64,591.03c-1.97.14-3.95.11-5.91-.08-5.14-.48-5-2.7-8.77-6.26-.66-.63-1.19-1.11-1.4-1.29-7.27-6.31-19-13.41-24.72-22-10.81-16.36-13.81-26.09-13.74-47.49.08-21.93,20.24-41.78,53.41-45.15,8.18-.83,13.19-.34,23.81.89,13,1.51,22.21,7.55,26.61,15.28,4.65,8.17-1.64,5.1-4.24,4.87-4.55-.4-8,2.23-13,10.49-8,13.24-2.84,31.42-2.2,36.91,1.17,9.89-4.33,12.23-6.95,13.67-.53.3-1.04.64-1.53,1,1.17,1.38,1.9,2.36,1.72,3-1.3,4.28-5.15,1.19-7,7.36,1.35,4.15,1.35,8.63,0,12.78-1.69,4.94-5.41,9.83-7.09,11.18-2.59,2-5.9,4.16-9,4.84Z"/><path class="cls-3" d="m89.61,504.24c9.28-2.14,11.16-7.24,11.16-7.24,0,0-.3,4.41,9.71,7.5s16.85-5,16.85-5c0,0,6.26,5.45,11.84,9.25,6.88,4.68,15.36,7.75,20.94,5.92,13.9-4.55,7.34-17.44,7.34-17.44,0,0,11.66,1.07,15.42-7.25s-9.66-14.88-9.66-14.88c0,0,12.31-5.74,3.22-14.6s-21.09-3.22-21.09-3.22c0,0,17.3-14.76,2.09-18.52s-26.61,0-26.61,0c0,0,2.52-9.66-9-8.31s-22.12,12.61-22.12,12.61c0,0,2.94-14.63-12.08-9.39-8.79,2.97-15.85,9.63-19.31,18.24,0,0-3.65-11.13-13.63-4s-.54,51.91-.54,51.91c0,0,26.2,6.57,35.47,4.42Z"/><path class="cls-35" d="m165.95,555.58s4.56-.89,4.08-4.33c-.11-.81-.58-1.84-2.11-3.78s-2.52-3-3.34-5.35c-.96,2.5-1.51,5.14-1.63,7.82.04,2.25,1.16,4.35,3,5.64Z"/><path class="cls-8" d="m164.58,542.12c.82,2.35.9,3.44,2.62,5.39,2.16,2.45,2.72,2.93,2.83,3.74.48,3.44-4.08,4.72-4.08,4.72l-.17-3.94"/><ellipse class="cls-13" cx="158.23" cy="541.61" rx="2.09" ry="3.18"/><path class="cls-3" d="m148.27,530.36c-.32-.97.01-2.04.83-2.65,2.95-2.03,6.62-2.76,10.12-2,1.02.14,1.93.71,2.49,1.57.66,1.27.42,2.82-.59,3.83h0c-.54.45-1.89-.16-2.37-.39-1.23-.57-2.58-.84-3.93-.81-2.91-.19-5.4,2.31-6.55.45Z"/><path class="cls-13" d="m136.88,542.12s2.85,1.77,13.72,25.21c3.11,6.71,9.35-.26,11.49-3.35,1.55-2.53,2.84-5.21,3.86-8-.91,6.75-1.37,13.56-1.37,20.38,0,17.35-18.15,30.15-24.85,17.82-7.65-14.07-3.2-50.19-3.2-50.19l.35-1.87Z"/><path class="cls-32" d="m138.6,550.75c-.17-1.95-.93-3.81-2.19-5.31-2.8-3.33-8.29-8.11-14.53-4.24-10.84,6.74,3.49,30.39,12.45,27.24,1.17-.48,2.24-1.15,3.17-2,1.4-1.2,2.15-3,2-4.84l-.24-3.13-.66-7.72Z"/><path class="cls-32" d="m129.35,550l4.73,4.76s-2.15.34-3.27,3.76"/></g><ellipse id="C-43" class="cls-24" cx="189.9" cy="743.97" rx="2.69" ry="2.77" transform="translate(-442.73 308.84) rotate(-41.16)"/><path class="cls-32" d="m192.07,742.5c1.04,1.39,2,2.85,2.86,4.36.85,2.26-1.09,3.89-2.9,3-1.55-1.2-2.96-2.56-4.2-4.07"/><ellipse id="C-44" class="cls-33" cx="184.89" cy="738.67" rx="3.04" ry="3.12" transform="translate(-468.37 347.43) rotate(-45.03)"/><path class="cls-4" d="m187.79,745.76c-1.93-1.94-3.76-3.74-5.1-5,1.48-1.39,2.9-2.83,4.36-4.23,1.74,1.93,3.34,3.9,4.86,5.8-.95.8-3.68,3.03-4.12,3.43Z"/><path class="cls-8" d="m187.79,745.76c-1.93-1.94-3.76-3.74-5.1-5"/><path class="cls-8" d="m187.05,736.5c1.74,1.93,3.34,3.9,4.86,5.8"/><ellipse id="C-45" class="cls-16" cx="175.1" cy="739" rx="3.47" ry="3.56" transform="translate(-568.79 891.97) rotate(-88.29)"/><path class="cls-4" d="m184.94,741.73c-3.13.07-9.42.72-9.42.72l-.31-6.91s6.21-.24,10,.05c-.12,2.06-.14,4.09-.27,6.14Z"/><path class="cls-8" d="m184.94,741.73c-3.13.07-9.42.72-9.42.72"/><path class="cls-8" d="m175.21,735.5s6.21-.24,10,.05"/><ellipse id="C-46" class="cls-24" cx="189.87" cy="748.85" rx="2.69" ry="2.77" transform="translate(-445.94 310.02) rotate(-41.16)"/><path class="cls-32" d="m192.04,747.38c1.05,1.39,2,2.85,2.86,4.36.86,2.27-1.09,3.89-2.9,3-1.55-1.19-2.95-2.56-4.19-4.07"/><ellipse id="C-47" class="cls-33" cx="184.87" cy="743.55" rx="3.04" ry="3.12" transform="translate(-471.83 348.85) rotate(-45.03)"/><path class="cls-4" d="m187.76,750.64c-1.93-1.95-3.75-3.74-5.09-5,1.48-1.38,2.9-2.82,4.36-4.23,1.73,1.93,3.33,3.9,4.85,5.8-.95.79-3.67,3.02-4.12,3.43Z"/><path class="cls-8" d="m187.76,750.64c-1.93-1.95-3.75-3.74-5.09-5"/><path class="cls-8" d="m187.03,741.37c1.73,1.93,3.33,3.9,4.85,5.8"/><ellipse id="C-48" class="cls-16" cx="175.08" cy="743.87" rx="3.47" ry="3.56" transform="translate(-573.69 896.68) rotate(-88.29)"/><path class="cls-4" d="m184.92,746.6c-3.14.07-9.42.72-9.42.72l-.31-6.91s6.21-.24,10,.05c-.13,2.04-.15,4.09-.27,6.14Z"/><path class="cls-8" d="m184.92,746.6c-3.14.07-9.42.72-9.42.72"/><path class="cls-8" d="m175.19,740.41s6.21-.24,10,.05"/><ellipse id="C-49" class="cls-24" cx="188.27" cy="754.09" rx="2.69" ry="2.77" transform="translate(-449.79 310.27) rotate(-41.16)"/><path class="cls-32" d="m190.44,752.63c1.04,1.39,2,2.85,2.86,4.36.85,2.27-1.09,3.89-2.9,3-1.55-1.19-2.96-2.56-4.2-4.07"/><ellipse id="C-50" class="cls-33" cx="183.26" cy="748.8" rx="3.04" ry="3.12" transform="translate(-476.01 349.25) rotate(-45.03)"/><path class="cls-4" d="m186.16,755.89c-1.93-1.95-3.76-3.74-5.1-5,1.48-1.38,2.9-2.82,4.36-4.23,1.74,1.93,3.34,3.9,4.86,5.8-.95.79-3.68,3.04-4.12,3.43Z"/><path class="cls-8" d="m186.16,755.89c-1.93-1.95-3.76-3.74-5.1-5"/><path class="cls-8" d="m185.42,746.62c1.74,1.93,3.34,3.9,4.86,5.8"/><ellipse id="C-51" class="cls-16" cx="173.47" cy="749.12" rx="3.47" ry="3.56" transform="translate(-580.5 900.16) rotate(-88.29)"/><path class="cls-4" d="m183.31,751.85c-3.13.07-9.42.72-9.42.72l-.31-6.91s6.21-.24,10,.05c-.12,2.06-.14,4.09-.27,6.14Z"/><path class="cls-8" d="m183.31,751.85c-3.13.07-9.42.72-9.42.72"/><path class="cls-8" d="m183.52,745.71c-3.77-.29-10-.05-10-.05"/><circle id="C-52" class="cls-8" cx="164.96" cy="757.87" r="4.3"/><circle id="C-53" class="cls-32" cx="149.62" cy="749.84" r="9.83"/><path class="cls-4" d="m173.89,752.57l-4.21.46-4.81.53.93,8.54c-3.77.31-7.56.11-11.28-.6-3.37-.73-9.85-3.11-9.85-3.11,0,0,4-5.3,4.19-9.39.06-2.98-.69-5.92-2.17-8.51,0,0,10.8-2.54,13.94-3.08,3.65-.63,14.18-1.82,14.18-1.82,0,0-.53,5.76-.62,8-.18,4.91-.3,8.98-.3,8.98Z"/><polyline class="cls-8" points="173.89 752.57 169.68 753.03 164.87 753.56"/><path class="cls-8" d="m146.7,740.5s11.32-2.65,15.79-3.43c4.91-.86,12.33-1.47,12.33-1.47"/><path class="cls-8" d="m165.8,762.1c-3.77.24-7.56.04-11.28-.6-3.41-.58-6.73-1.62-9.85-3.11"/><circle id="C-54" class="cls-32" cx="174.4" cy="756.84" r="3.35"/><path class="cls-32" d="m174.35,753.5c3.64-.23,8.12-.27,8.57,2.57.37,2.31-4.45,3.46-8.24,4.11"/><circle id="C-55" class="cls-4" cx="164.96" cy="757.87" r="2.31"/><path class="cls-4" d="m174.14,753.5c.08,1.75.71,6.14.74,6.65-1.06.23-3,.69-3.59.82-2.78.62-5.49,1.13-5.49,1.13l-.93-8.54s3-.08,7.34-.08c.12.02,1.81.02,1.93.02Z"/><path class="cls-8" d="m164.87,753.56s3-.14,6.82-.09h2.45"/><path class="cls-8" d="m174.88,760.15c-1.06.23-3,.69-3.59.82-2.78.62-5.49,1.13-5.49,1.13"/><circle class="cls-32" cx="46.43" cy="746.42" r="15.57"/><path class="cls-4" d="m49.61,731.17l35.48,3.18,24.73,1.4,38.14,4.37s1.43,2.91,1.41,9.09c0,3.49-.29,6.97-.87,10.41,0,0-12.37,1.18-32,1.65-13.08.32-25.75,1.22-37.7,1.8-11.51.42-23.03.01-34.48-1.21"/><path class="cls-8" d="m148.52,759.62s-14.2,1.22-30.66,1.62c-15.37.37-32.59,1.73-47,2.06-8.87.13-17.73-.35-26.53-1.44"/><path class="cls-8" d="m49.61,731.17s15.52,1,20.67,1.5c4.21.41,16.73,1.9,16.73,1.9,0,0,16.21.6,21.59,1,9.87.8,39.36,4.51,39.36,4.51"/><circle id="C-56" class="cls-35" cx="46.43" cy="746.42" r="7.46"/><circle class="cls-2" cx="46.43" cy="746.42" r="15.57"/><circle class="cls-13" cx="53.52" cy="643.1" r="18.14"/><circle id="C-57" class="cls-13" cx="53.52" cy="643.1" r="11.17" transform="translate(-591.76 650.9) rotate(-85.93)"/><path class="cls-4" d="m35.46,641.44l-4.18,101.34,30.71,4.45s5.59-46.06,7-57.1c1.92-14.82,2.57-45.37,2.57-45.37"/><path class="cls-8" d="m61.99,747.23s5.07-45.8,7-57.1c3.9-22.59,2.57-45.37,2.57-45.37"/><line class="cls-8" x1="35.46" y1="641.44" x2="31.28" y2="742.78"/><path class="cls-13" d="m71.58,641.4c1.12,6.99,1.85,14.03,2.17,21.1.54,13.15,3,30.51,2.49,38.3-3.87,1.18-18.73,3-27.33,2.87-16.61-.32-22.33-2.78-23-2.7l9.51-59.57"/><circle id="C-58" class="cls-32" cx="107.44" cy="776.31" r="50.09"/><path class="cls-4" d="m57.35,776.31l-13.36-148.63s15.4-6.62,25.31-8.89c7.59-1.75,15.31-2.87,23.08-3.36,4.55-.27,9.35-.43,14.36-.43,3.13,0,6.33.1,9.54.3,5.29.32,10.63.88,15.8,1.58,21.51,2.91,36.08,9.82,36.08,9.82l-10.64,149.61H57.35Z"/><path class="cls-13" d="m42.22,776.31v-23.18l1-21.88-.58-26.53.17-28.42.12-19.58.17-27.85s8.13-5.41,26.19-10.08c8.59-2.02,17.35-3.28,26.16-3.78,4.56-.27,6.27,0,11.28,0,3.13,0,9.53.09,12.75.29,5.29.32,7.42.89,12.59,1.59,21.52,2.9,35.45,8.61,35.45,8.61l2.28,85.68,1.56,32.44v17.53l-.84,15.16c-7.94.81-15.91,1.21-23.89,1.19-17.8-.25-49.93,2-62.39,2.1-13.72.15-42.02-3.29-42.02-3.29Z"/><polyline class="cls-12" points="42.65 704.72 42.82 676.3 42.94 656.72"/><circle id="C-59" class="cls-32" cx="302.03" cy="743.8" r="2.6"/><path class="cls-32" d="m301.63,746.37c3.22.82,6.5,1.94,7.36,1.85,2.27-.24,2.86-2.62,1.38-3.81-2.46-1.26-5.02-2.3-7.66-3.12"/><circle id="C-60" class="cls-32" cx="294.03" cy="742.37" r="2.93"/><path class="cls-4" d="m302.46,741.24c-2.51-.57-6.16-1.32-7.86-1.75-.38,1.92-.82,3.83-1.22,5.74,2.39.42,6.07.9,8.35,1.15.19-1.2.63-4.57.73-5.14Z"/><path class="cls-8" d="m302.46,741.24c-2.51-.57-6.16-1.32-7.86-1.75"/><path class="cls-8" d="m293.38,745.23c2.39.42,6.07.9,8.35,1.15"/><circle id="C-61" class="cls-32" cx="286.82" cy="742.81" r="3.35"/><path class="cls-4" d="m293.72,739.5c-2.94.06-7.15,0-7.15,0l.49,6.68s3.67-.41,7.19-.85c-.19-2.01-.32-3.9-.53-5.83Z"/><path class="cls-8" d="m293.72,739.5c-2.94.06-7.15,0-7.15,0"/><path class="cls-8" d="m287.06,746.15s3.67-.41,7.19-.85"/><ellipse id="C-62" class="cls-28" cx="300.9" cy="750.75" rx="2.49" ry="2.56" transform="translate(-479.58 538.57) rotate(-52.95)"/><path class="cls-32" d="m302.63,748.86c1.15,1.13,5.45,4.74,5.91,5.45,1.2,1.9-.25,3.74-2.06,3.29-.76-.18-5.45-3.73-7.06-4.94"/><ellipse id="C-63" class="cls-23" cx="295.4" cy="746.73" rx="2.81" ry="2.89" transform="translate(-491.27 585.44) rotate(-56.83)"/><path class="cls-4" d="m299.36,752.63c-2.11-1.4-4.11-2.68-5.57-3.6,1.08-1.54,2.1-3.12,3.16-4.66,1.93,1.41,3.75,2.9,5.49,4.34-.7.93-2.75,3.47-3.08,3.92Z"/><path class="cls-8" d="m299.36,752.63c-2.11-1.4-4.11-2.68-5.57-3.6"/><path class="cls-8" d="m296.95,744.37c1.93,1.41,3.75,2.9,5.49,4.34"/><ellipse id="C-64" class="cls-19" cx="286.36" cy="745.89" rx="3.21" ry="3.3" transform="translate(-495.2 911.77) rotate(-80.98)"/><path class="cls-4" d="m295.1,749.5c-2.89-.31-9.24-.46-9.24-.46l1-6.34s5.78.54,9.21,1.25c-.34,1.9-.61,3.69-.97,5.55Z"/><path class="cls-8" d="m295.1,749.5c-2.89-.31-9.24-.46-9.24-.46"/><path class="cls-8" d="m286.86,742.72s5.78.54,9.21,1.25"/><ellipse id="C-65" class="cls-28" cx="297.96" cy="754.88" rx="2.49" ry="2.56" transform="translate(-484.05 537.86) rotate(-52.95)"/><path class="cls-32" d="m299.69,752.99c1.14,1.12,5.45,4.73,5.9,5.45,1.21,1.89-.25,3.74-2.05,3.29-.76-.19-5.45-3.74-7.07-4.94"/><ellipse id="C-66" class="cls-14" cx="296.65" cy="752.17" rx="2.82" ry="2.9" transform="translate(-495.13 588.33) rotate(-56.78)"/><path class="cls-4" d="m296.42,756.75c-2.12-1.4-4.11-2.68-5.57-3.6,1.08-1.54,2.09-3.11,3.15-4.66,1.94,1.42,3.76,2.9,5.5,4.34-.7.93-2.75,3.47-3.08,3.92Z"/><path class="cls-8" d="m296.42,756.75c-2.12-1.4-4.11-2.68-5.57-3.6"/><path class="cls-8" d="m294,748.5c1.94,1.42,3.76,2.9,5.5,4.34"/><ellipse id="C-67" class="cls-19" cx="283.42" cy="750.01" rx="3.21" ry="3.3" transform="translate(-501.75 912.34) rotate(-80.98)"/><path class="cls-4" d="m292.16,753.64c-2.89-.31-9.25-.46-9.25-.46l1-6.34s5.78.54,9.21,1.26c-.33,1.87-.6,3.67-.96,5.54Z"/><path class="cls-8" d="m292.16,753.64c-2.89-.31-9.25-.46-9.25-.46"/><path class="cls-8" d="m283.92,746.84s5.78.54,9.21,1.26"/><ellipse id="C-68" class="cls-17" cx="293.44" cy="757.57" rx="2.21" ry="2.27" transform="translate(-515.33 680.6) rotate(-63.39)"/><path class="cls-32" d="m294.63,755.69c1.18.79,5.5,3.91,6,4.46,1.35,1.46.38,3.3-1.26,3.2-.69-.05-5.34-3.05-6.93-3.84"/><ellipse id="C-69" class="cls-27" cx="288.01" cy="754.95" rx="2.49" ry="2.56" transform="translate(-519.59 728.88) rotate(-67.27)"/><path class="cls-4" d="m292.4,759.5c-2.07-.88-4-1.67-5.43-2.24.69-1.51,1.32-3,2-4.56,1.91.92,3.73,1.92,5.48,2.9-.46.9-1.84,3.45-2.05,3.9Z"/><path class="cls-8" d="m292.4,759.5c-2.07-.88-4-1.67-5.43-2.24"/><path class="cls-8" d="m288.97,752.69c1.91.92,3.73,1.92,5.48,2.9"/><ellipse id="C-70" class="cls-20" cx="280.04" cy="755.69" rx="2.92" ry="2.84" transform="translate(-18.64 7.17) rotate(-1.42)"/><path class="cls-4" d="m288.19,757.5c-2.56.19-8.12,1.08-8.12,1.08l-.14-5.68s5.12-.46,8.21-.38c.01,1.65.06,3.26.05,4.98Z"/><path class="cls-8" d="m288.19,757.5c-2.56.19-8.12,1.08-8.12,1.08"/><path class="cls-8" d="m279.93,752.87s5.12-.46,8.21-.38"/><circle id="C-71" class="cls-32" cx="265.03" cy="750.52" r="9.83"/><path class="cls-4" d="m264.34,740.71s3.84-.13,6.9-.32c4.16-.26,7.92-.44,7.92-.44l7.41-.48-1.06,6s-1.42,3.8-2.27,5.69c-.36.79-1.54,3.68-1.89,4.15-.78.88-1.02,2.1-.64,3.21-1.94.95-4,1.62-6.12,2-3.26.45-6.56.39-9.8-.16,0,0,3-5.42,3.45-9.63.44-4.38-3.9-10.02-3.9-10.02Z"/><path class="cls-8" d="m280.71,758.5c-1.97.87-4.02,1.54-6.12,2-3.31.71-9.44-.21-10.51-.2"/><path class="cls-8" d="m265.05,740.69s6.14-.25,11.25-.56c2.9-.17,10.27-.66,10.27-.66"/><circle class="cls-32" cx="162.23" cy="746.82" r="15.57"/><path class="cls-4" d="m165.45,731.58l35.47,3.26,24.73,1.46,38.12,4.47s1.43,2.91,1.4,9.09c0,3.49-.31,6.97-.9,10.41,0,0-12.38,1.15-32,1.58-13.08.28-25.76,1.15-37.71,1.7-11.51.38-23.02-.05-34.47-1.29"/><path class="cls-8" d="m264.27,760.27s-14.2,1.19-30.67,1.55c-15.37.33-32.59,1.64-47,1.94-8.86.1-17.72-.4-26.52-1.5"/><path class="cls-8" d="m165.45,731.58s15.51,1,20.66,1.55c4.21.42,16.73,1.94,16.73,1.94,0,0,16.21.64,21.59,1.09,9.87.83,39.34,4.61,39.34,4.61"/><circle id="C-72" class="cls-35" cx="162.23" cy="746.82" r="7.46"/><circle class="cls-2" cx="162.23" cy="746.82" r="15.57"/><circle class="cls-13" cx="163.96" cy="643.27" r="18.14"/><circle id="C-73" class="cls-13" cx="163.96" cy="643.27" r="11.17"/><path class="cls-4" d="m181.93,646.96l-4.3,97.54-31,1.81s-1.64-46.36-2.13-57.49c-.65-14.93,1.31-45.42,1.31-45.42"/><path class="cls-8" d="m146.65,746.3s-1.13-46.06-2.13-57.49c-1.95-22.83,1.31-45.42,1.31-45.42"/><line class="cls-8" x1="182.1" y1="643.16" x2="177.63" y2="744.49"/><path class="cls-13" d="m146.07,640.26s-2.1,11.37-3.6,23.36c-.72,5.82-.77,16.63-1.38,22.43-.71,6.77-2.68,10.42-2.77,14.39,3.75,1.51,16.49,3,25.07,3.61,5.51.43,11.05.46,16.56.08,4.31-.34,6.21-.88,6.55-.81l-4.4-60.16"/><path class="cls-12" d="m143.96,653.33c-.48,2.94-1,6.42-1.49,10.29-.72,5.82-.77,16.63-1.38,22.43-.71,6.77-2.68,10.42-2.77,14.39,2.71.86,5.49,1.47,8.31,1.81"/><circle id="C-74" class="cls-32" cx="73.57" cy="982.29" r="20.32"/><circle class="cls-32" cx="72.89" cy="1151.32" r="16.45" transform="translate(-1080.22 1185.86) rotate(-88.09)"/><polyline class="cls-4" points="53.23 982.23 51.17 1037.39 56.08 1131.7 56.27 1141.31 56.49 1152.73 89.27 1152.83 89.58 1141.41 89.83 1131.8 93.9 1034.86 93.89 982.35"/><path class="cls-32" d="m70.81,1110.01c-5.3,0-10.6.07-15.9,0l-.24-4.6c12.17-.78,24.19,1.43,36.31,0l-.22,4.93c-6.57.81-13.37-.31-19.95-.33Z"/><path class="cls-32" d="m55.38,1118.64l-.33-6.12c5.38.07,10.76,0,16.14,0,6.45,0,13,1,19.47.29l-.22,4.89c-11.69-.06-23.38,1.41-35.06.94Z"/><path class="cls-32" d="m83.07,1125.66c-3.38-.29-6.75-.52-10.14-.73-4.29-.25-8.58-.27-12.88-.3-1.46,0-2.91-.11-4.36-.18l-.18-3.28c11.61.45,23.21-1,34.82-.92l-.22,5.16c-2.16.78-4.89.44-7.04.25Z"/><path class="cls-32" d="m89.77,1134.44c-5.17.12-10.34-.06-15.49-.55-3.82-.34-7.66-.74-11.49-1-2.25-.05-4.49-.29-6.7-.72v-.47l-.26-4.81c1.92.09,3.85.27,5.72.27,4.28,0,8.55.14,12.82.38,3.25.19,6.48.51,9.72.73,1.97.2,3.97.13,5.92-.22l-.16,3.75-.08,2.64Z"/><path class="cls-32" d="m89.52,1142.24c-5.67.49-11.44-.6-17.07-1.26-5.39-.54-10.82-.61-16.23-.2l-.12-6c1.88.34,3.79.54,5.7.61,3.82.24,7.64.65,11.45,1,5.45.52,10.93.72,16.41.62l-.12,4.46-.02.77Z"/><path class="cls-32" d="m64.68,1150.56c3.73.17,7.46.06,11.19.22,4.5.3,8.97.85,13.41,1.65v.4l-32.78-.1-.05-2.86c2.72.34,5.47.56,8.23.69Z"/><path class="cls-32" d="m76.35,1148.28c-3.73-.19-7.46-.07-11.19-.23-2.93-.12-5.86-.34-8.77-.72l-.08-4c5.54-.41,11.1-.33,16.62.25,5.49.66,11.06,1.62,16.56,1.21l-.14,5.15c-4.3-.78-8.64-1.33-13-1.66Z"/><path class="cls-32" d="m89.27,1152.83l.31-11.42.26-9.61s3.45-75.18,4.06-96.94c.41-14.86,0-52.51,0-52.51"/><path class="cls-8" d="m53.23,982.23s-2.27,36.84-2.06,47.47c.5,26,4.91,102,4.91,102l.19,9.61.22,11.42"/><circle class="cls-32" cx="73.89" cy="840.98" r="24.79"/><polygon class="cls-4" points="49.09 841.58 51.42 942.6 53.24 982.2 93.9 982.33 96.15 935.23 98.68 841.06 49.09 841.58"/><path class="cls-32" d="m93.9,982.33s1.76-34,2.21-45.69c.13-3.17,0-11.94.18-16.57.87-28.74,2.39-79,2.39-79"/><path class="cls-32" d="m49.09,841.58s1.33,67.12,2.08,91.85c.15,5,.57,24,.72,29,.14,4.71,1.35,19.75,1.35,19.75"/><circle id="C-75" class="cls-32" cx="78.92" cy="824.22" r="35.54"/><path class="cls-32" d="m114.46,824.31s1.07,22.35,1.64,29.78c.79,10.34,3,31,3.6,41.31s1,42.9,1,42.9H47.88s-1.27-8-1.83-27.91c-.75-26.18-2.69-86.11-2.69-86.11"/><circle class="cls-13" cx="116.49" cy="1181.05" r="18.37"/><path class="cls-32" d="m129.92,1193.56c-6.91,7.42-18.53,7.83-25.95.91-6.13-5.71-7.61-14.85-3.61-22.2,10.57,6.11,12.87,10.08,29.56,21.29Z"/><circle id="C-76" class="cls-13" cx="116.49" cy="1181.05" r="8.48"/><path class="cls-13" d="m114.86,1199.5l30.88-.1c3.79,0,6.86-3.07,6.86-6.86,0-.98-.21-1.96-.62-2.85l-.08-.16c-1.81-3.84,2.42-9-5.95-17.21-7-6.9-15.75-3.89-19.85-7"/><path class="cls-9" d="m151.9,1189.5c-1.81-3.84,2.42-9-5.95-17.21-7-6.9-15.75-3.89-19.85-7"/><path class="cls-32" d="m114.89,1199.38h30.87c3.78,0,6.84-3.06,6.84-6.84,0-.98-.21-1.94-.61-2.83,0-.06-.05-.11-.07-.17s-6.26.55-8.11.5c-3.26-.08-12.27-.5-12.27-.5h-13.41"/><path class="cls-13" d="m126.1,1165.26c-15.88-12.27-33.89-25.88-33.89-25.88,0,0-14.69,2.43-16.69,16.65-1.63,11.6-19.63-13.14-19.63-13.14,0,0-3.22-2.76-4.92,7.3-.49,2.84-.49,9.12-.7,13.83-.23,5-1.23,9.43-1.41,13.2-.23,5.18.39,9.22.27,12.37h0c-.27,7.53,51.14,0,51.14,0l17.91-.08"/><path class="cls-9" d="m126.1,1165.26c-15.88-12.27-33.89-25.88-33.89-25.88"/><line class="cls-9" x1="110.79" y1="1154.08" x2="104.28" y2="1160.53"/><line class="cls-9" x1="102.53" y1="1147.21" x2="95.35" y2="1154.08"/><path class="cls-32" d="m117.35,1189.59s-12.11-.78-15.47-.78c-6.33,0-21.79.61-27.6,1.08-16.87,1.38-25.2-.3-25.2-.3h0c-.27,7.53-.27,9.84-.27,9.84h65.31"/><circle id="C-77" class="cls-2" cx="72.89" cy="1151.32" r="16.45" transform="translate(-1080.22 1185.86) rotate(-88.09)"/><circle id="C-78" class="cls-32" cx="132.12" cy="982.29" r="20.32"/><circle class="cls-32" cx="131.43" cy="1151.32" r="16.45"/><polyline class="cls-4" points="111.78 982.23 109.72 1037.39 114.63 1131.7 114.82 1141.31 115.04 1152.73 147.82 1152.83 148.13 1141.41 148.39 1131.8 152.45 1034.86 152.44 982.35"/><path class="cls-32" d="m129.36,1110.01c-5.3,0-10.6.07-15.9,0l-.25-4.6c12.18-.78,24.2,1.43,36.32,0l-.22,4.93c-6.57.81-13.37-.31-19.95-.33Z"/><path class="cls-32" d="m113.93,1118.64l-.33-6.12c5.38.07,10.76,0,16.14,0,6.45,0,13,1,19.46.29l-.21,4.89c-11.69-.06-23.38,1.41-35.06.94Z"/><path class="cls-32" d="m141.62,1125.66c-3.38-.29-6.75-.52-10.14-.73-4.29-.25-8.58-.27-12.88-.3-1.46,0-2.91-.11-4.36-.18l-.18-3.28c11.61.45,23.21-1,34.82-.92l-.22,5.16c-2.14.78-4.89.44-7.04.25Z"/><path class="cls-32" d="m148.31,1134.44c-5.17.12-10.34-.06-15.48-.55-3.82-.34-7.66-.74-11.49-1-2.25-.05-4.49-.29-6.7-.72v-.47l-.26-4.81c1.92.09,3.85.27,5.72.27,4.28,0,8.55.14,12.82.38,3.25.19,6.48.51,9.72.73,1.97.2,3.97.13,5.92-.22l-.17,3.75-.08,2.64Z"/><path class="cls-32" d="m148.11,1142.24c-5.67.49-11.44-.6-17.07-1.26-5.39-.54-10.82-.61-16.23-.2l-.12-6c1.88.34,3.79.54,5.7.61,3.82.24,7.64.65,11.45,1,5.45.52,10.93.72,16.41.62l-.12,4.46-.02.77Z"/><path class="cls-32" d="m123.23,1150.56c3.73.17,7.46.06,11.19.22,4.5.3,8.97.85,13.41,1.65v.4l-32.78-.1v-2.86c2.67.34,5.47.56,8.18.69Z"/><path class="cls-32" d="m134.9,1148.28c-3.73-.19-7.46-.07-11.19-.23-2.93-.12-5.86-.34-8.77-.72l-.08-4c5.54-.41,11.1-.33,16.62.25,5.49.66,11.06,1.62,16.56,1.21l-.14,5.15c-4.3-.78-8.64-1.33-13-1.66Z"/><path class="cls-32" d="m147.82,1152.83l.31-11.42.25-9.61s3.46-75.18,4.07-96.94c.41-14.86,0-52.51,0-52.51"/><path class="cls-8" d="m111.78,982.23s-2.27,36.84-2.06,47.47c.5,26,4.91,102,4.91,102l.19,9.61.22,11.42"/><circle class="cls-32" cx="132.44" cy="840.98" r="24.79"/><polygon class="cls-4" points="107.64 841.58 109.97 942.6 111.79 982.2 152.45 982.33 154.7 935.23 157.23 841.06 107.64 841.58"/><path class="cls-32" d="m152.45,982.33s1.76-34,2.21-45.69c.13-3.17,0-11.94.18-16.57.87-28.74,2.39-79,2.39-79"/><path class="cls-32" d="m107.64,841.58s1.33,67.12,2.08,91.85c.15,5,.56,24,.71,29,.15,4.71,1.36,19.75,1.36,19.75"/><circle id="C-79" class="cls-32" cx="137.47" cy="824.22" r="35.54"/><path class="cls-32" d="m173.01,824.31s1.07,22.35,1.64,29.78c.79,10.34,3,31,3.6,41.31s1,42.9,1,42.9h-72.82s-1.27-8-1.84-27.91c-.74-26.18-2.68-86.11-2.68-86.11"/><circle class="cls-13" cx="175.03" cy="1181.05" r="18.37"/><path class="cls-32" d="m188.52,1193.56c-6.91,7.42-18.53,7.83-25.95.91-6.13-5.71-7.61-14.85-3.61-22.2,10.56,6.11,12.82,10.08,29.56,21.29Z"/><circle id="C-80" class="cls-13" cx="175.03" cy="1181.05" r="8.48"/><path class="cls-13" d="m173.41,1199.5l30.88-.1c3.79,0,6.86-3.07,6.86-6.86,0-.98-.21-1.96-.62-2.85l-.08-.16c-1.81-3.84,2.42-9-5.95-17.21-7-6.9-15.75-3.89-19.85-7"/><path class="cls-32" d="m173.44,1199.38h30.84c3.78,0,6.84-3.06,6.84-6.84,0-.98-.21-1.94-.61-2.83,0-.06,0-.11-.07-.17s-6.26.55-8.11.5c-3.26-.08-12.27-.5-12.27-.5h-13.38"/><path class="cls-13" d="m184.65,1165.26c-15.89-12.27-33.9-25.88-33.9-25.88,0,0-14.73,2.43-16.73,16.65-1.64,11.6-19.63-13.14-19.63-13.14,0,0-3.22-2.76-4.93,7.3-.48,2.84-.48,9.12-.69,13.83-.23,5-1.23,9.43-1.41,13.2-.23,5.18.39,9.22.27,12.37h0c-.27,7.53,51.14,0,51.14,0l17.91-.08"/><line class="cls-9" x1="169.34" y1="1154.08" x2="162.83" y2="1160.53"/><line class="cls-9" x1="161.08" y1="1147.21" x2="153.9" y2="1154.08"/><path class="cls-32" d="m175.9,1189.59s-12.11-.78-15.47-.78c-6.33,0-21.79.61-27.6,1.08-16.87,1.38-25.2-.3-25.2-.3h0c-.27,7.53-.27,9.84-.27,9.84h65.31"/><circle id="C-81" class="cls-2" cx="131.43" cy="1151.32" r="16.45"/><circle id="C-82" class="cls-2" cx="107.47" cy="776.31" r="50.09"/><path class="cls-4" d="m43.58,820.43c.34.03.67.1,1,.19,1.08.42,8.24,1.5,16.08,1.5,5.1,0,72.25-1.17,80.1.45,21.45-.08,27.78-3.13,29.29-3.66,2.3-.83,1.68-4.9,1.65-5.38v-.64c-.13-2.28-.43-4.55-.91-6.78-.11-.6-.26-1.23-.43-1.88-.52-2.04-1.15-4.04-1.91-6l-.14-.35c-.23-.6-.48-1.21-.73-1.83-.75-1.87-1.52-3.77-2.29-5.63l-1.26-3c-.8-1.91-1.59-3.74-2.33-5.43-.54-1.28-1.06-2.48-1.53-3.56-.81-1.85-1.49-3.4-2-4.5s-3.44-.46-3.44-.46c0,0-4.34-.75-40,.36h-1.15l-2.75.08h-1.16l-1.56.05h-.37c-7.12.22-13.28.36-18.6.44h-.33c-12.16.19-19.84.09-24.56-.06h-.13c-5.13-.17-6.68-.41-6.68-.41,0,0,0,.15-.11.39-.17.73-.59,2.4-1.19,4.62-.29,1-.61,2.21-1,3.46s-.81,2.75-1.27,4.22-.9,2.81-1.39,4.24c-.55,1.6-1.14,3.18-1.75,4.7-.21.53-.43,1.07-.65,1.58l-.71,1.7c-.79,1.93-1.46,3.72-2,5.37-.36,1-.66,1.93-.94,2.82-.6,2-1.06,3.72-1.4,5.24-.24,1.07-.42,2-.54,2.88-.57,3.59-.91,5.28-.91,5.28Z"/><path class="cls-8" d="m43.58,820.43s.61-10.3,6.54-23.27c4.28-9.38,7.26-23.07,7.31-23.21l100.09-.53s6,12.48,10.74,24.43c2.89,7.34,3.48,14.23,4,19.21"/><path class="cls-7" d="m.85,1198.85c42.47,2.53,83.47.53,125.49.61h146.34"/></svg>