<svg id="Layer_1" data-name="Layer 1" xmlns="http://www.w3.org/2000/svg" viewBox="0 0 192 192"><defs><style>.cls-1{fill:#472692;}.cls-2{fill:none;stroke:#181331;stroke-linecap:round;stroke-linejoin:round;stroke-width:3.00px;}</style></defs><path class="cls-1" d="M75.39,110h14.5a0,0,0,0,1,0,0v0a14,14,0,0,1-14,14h-.5a0,0,0,0,1,0,0V110A0,0,0,0,1,75.39,110Z"></path><rect class="cls-2" x="56.22" y="108.75" width="17.67" height="39"></rect><path class="cls-1" d="M148,74.14a14.11,14.11,0,1,1,0,28.22"></path><path class="cls-2" d="M134.76,52.37c.15-.08.57-.3.71-.39,6.69-4.1,11.42-7.73,11.42-7.73v88s-12.59-9.67-25.78-15.3c-2.48-1.06-5.14-2-7.82-2.9A119.85,119.85,0,0,0,76,108.25H49.89a20,20,0,0,1-20-20h0a20,20,0,0,1,20-20H76a120.13,120.13,0,0,0,38.22-6.1c2.36-.8,4.69-1.67,6.89-2.6.61-.26,1.38-.62,2-.9"></path><line class="cls-2" x1="88.39" y1="68.25" x2="88.39" y2="108.25"></line></svg>