<svg id="Layer_2" data-name="Layer 2" xmlns="http://www.w3.org/2000/svg" viewBox="0 0 192 192"><defs><style>.cls-1,.cls-2{fill:none;stroke-linecap:round;stroke-linejoin:round;stroke-width:4.20px;}.cls-1{stroke:#080808;}.cls-2{stroke:#472692;}</style></defs><line class="cls-1" x1="132.54" y1="168.33" x2="59.18" y2="168.33"></line><line class="cls-1" x1="82.17" y1="168.33" x2="82.17" y2="140.35"></line><line class="cls-1" x1="109.55" y1="140.35" x2="109.55" y2="168.33"></line><polygon class="cls-2" points="134.48 61.86 116.09 43.46 62.04 97.51 57.24 120.71 80.43 115.91 134.48 61.86"></polygon><line class="cls-2" x1="118.55" y1="77.79" x2="100.16" y2="59.4"></line><path class="cls-1" d="M142.67,23.9h15.55a10,10,0,0,1,10,10v96.45a10,10,0,0,1-10,10H33.51a10,10,0,0,1-10-10V33.9a10,10,0,0,1,10-10h86.08"></path></svg>