<svg id="Layer_2" data-name="Layer 2" xmlns="http://www.w3.org/2000/svg" viewBox="0 0 192 192"><defs><style>.cls-1,.cls-2{fill:none;stroke-linecap:round;stroke-linejoin:round;stroke-width:4.20px;}.cls-1{stroke:#080808;}.cls-2{stroke:#472692;}</style></defs><path class="cls-1" d="M134,71.37h24.33a10,10,0,0,1,10,10v77a10,10,0,0,1-10,10H33.52a10,10,0,0,1-10-10v-77a10,10,0,0,1,10-10H58"></path><polyline class="cls-1" points="158.33 71.37 95.93 128 33.52 71.37"></polyline><line class="cls-1" x1="65.32" y1="131.42" x2="27.44" y2="165.79"></line><line class="cls-1" x1="164.56" y1="165.79" x2="126.5" y2="131.26"></line><path class="cls-1" d="M119.33,23.67H124a10,10,0,0,1,10,10V93.55"></path><path class="cls-1" d="M58,93.55V33.67a10,10,0,0,1,10-10H96"></path><line class="cls-2" x1="79.56" y1="49.12" x2="112.44" y2="49.12"></line><line class="cls-2" x1="79.56" y1="70.25" x2="112.44" y2="70.25"></line><line class="cls-2" x1="79.56" y1="91.38" x2="112.44" y2="91.38"></line></svg>