<svg id="Layer_1" data-name="Layer 1" xmlns="http://www.w3.org/2000/svg" xmlns:xlink="http://www.w3.org/1999/xlink" viewBox="0 0 192 192"><defs><style>.cls-1,.cls-2{fill:none;}.cls-2{stroke:#181331;stroke-linecap:round;stroke-linejoin:round;stroke-width:3.00px;}.cls-3{fill:#472692;}.cls-4{clip-path:url(#clip-path);}</style><clipPath id="clip-path"><path class="cls-1" d="M75,139.47s-8.16,8.15-9.58,12.43-6.93,16.38-6.93,16.38l-42.15-.45L15.89,56.1,92.17,18.91l83.7,35.33.24,114-39.14.81s-7.13-7-9-11.07-7.74-15.49-12.43-19.57S75,139.47,75,139.47Z"></path></clipPath></defs><path class="cls-2" d="M129.14,166.18a33.69,33.69,0,0,0-67.3,0"></path><circle class="cls-3" cx="95.49" cy="110.42" r="18.28"></circle><g class="cls-4"><path class="cls-2" d="M62.41,65.27A56.94,56.94,0,0,0,57,69.84L35.53,57.48,19.66,85,41.07,97.34a54.31,54.31,0,0,0,0,26.17L19.66,135.87l15.87,27.5L57,151a55.87,55.87,0,0,0,22.67,13.11v24.7h31.75v-24.7A55.9,55.9,0,0,0,134,151l21.42,12.36,15.87-27.5-21.41-12.36a54.31,54.31,0,0,0,0-26.17L171.32,85,155.45,57.48,134,69.84a55.92,55.92,0,0,0-22.66-13.12V32H79.62V56.72a54.22,54.22,0,0,0-5.66,2"></path><circle class="cls-2" cx="95.49" cy="110.42" r="42.13"></circle></g></svg>