<svg id="Layer_1" data-name="Layer 1" xmlns="http://www.w3.org/2000/svg" xmlns:xlink="http://www.w3.org/1999/xlink" viewBox="0 0 192 192"><defs><style>.cls-1,.cls-3,.cls-5{fill:none;}.cls-2{fill:#472692;}.cls-3,.cls-5{stroke:#181331;stroke-width:3.00px;}.cls-3{stroke-linecap:round;stroke-linejoin:round;}.cls-4{clip-path:url(#clip-path);}.cls-5{stroke-miterlimit:10;}.cls-6{clip-path:url(#clip-path-2);}</style><clipPath id="clip-path"><path class="cls-1" d="M68.26,112.66a49.19,49.19,0,0,1-19.47,25.27L28.55,122.85l3.59-36.36,22-23.81L68.31,67s8.23,12.5,8.33,12.91S88.76,99.13,88.76,99.13,72.66,99.37,68.26,112.66Z"></path></clipPath><clipPath id="clip-path-2"><path class="cls-1" d="M123.74,112.66a49.19,49.19,0,0,0,19.47,25.27l20.24-15.08-3.59-36.36-22-23.81L123.69,67s-8.23,12.5-8.33,12.91-12.12,19.21-12.12,19.21S119.34,99.37,123.74,112.66Z"></path></clipPath></defs><circle class="cls-2" cx="96.04" cy="69.95" r="18.86"></circle><path class="cls-3" d="M130.75,131.14a34.75,34.75,0,0,0-69.42,0"></path><g class="cls-4"><circle class="cls-5" cx="58.42" cy="82.06" r="10.85"></circle><path class="cls-3" d="M78.4,121.69a20,20,0,1,0-40,0"></path></g><g class="cls-6"><circle class="cls-5" cx="133.58" cy="82.06" r="10.85"></circle><path class="cls-3" d="M113.6,121.69a20,20,0,1,1,40,0"></path></g><polyline class="cls-3" points="21.53 46.57 21.53 20.02 48.08 20.02"></polyline><polyline class="cls-3" points="170.47 46.62 170.47 20.07 143.93 20.07"></polyline><polyline class="cls-3" points="170.49 142.45 170.49 169 143.94 169"></polyline><polyline class="cls-3" points="21.51 142.45 21.51 169 48.06 169"></polyline></svg>