<?xml version="1.0" encoding="UTF-8"?><svg id="Layer_1" xmlns="http://www.w3.org/2000/svg" viewBox="0 0 1154.39 1031.93"><defs><style>.cls-1,.cls-2,.cls-3,.cls-4{fill:none;}.cls-1,.cls-5,.cls-6,.cls-7{stroke-width:0px;}.cls-2,.cls-8,.cls-9,.cls-10,.cls-11,.cls-12,.cls-13,.cls-14,.cls-15,.cls-16,.cls-17,.cls-18,.cls-19,.cls-20,.cls-21,.cls-22,.cls-23,.cls-24,.cls-25,.cls-26,.cls-27,.cls-28,.cls-29,.cls-30,.cls-31,.cls-32,.cls-33,.cls-34,.cls-3,.cls-4{stroke-linejoin:round;}.cls-2,.cls-8,.cls-9,.cls-10,.cls-20,.cls-30,.cls-31,.cls-34,.cls-3,.cls-4{stroke-width:1.7px;}.cls-2,.cls-8,.cls-9,.cls-11,.cls-12,.cls-13,.cls-14,.cls-15,.cls-16,.cls-17,.cls-18,.cls-19,.cls-20,.cls-21,.cls-22,.cls-23,.cls-24,.cls-25,.cls-26,.cls-27,.cls-28,.cls-29,.cls-31,.cls-32,.cls-33,.cls-34,.cls-3{stroke:#020202;}.cls-8,.cls-11,.cls-12,.cls-13,.cls-14,.cls-15,.cls-16,.cls-17,.cls-18,.cls-19,.cls-20,.cls-21,.cls-22,.cls-23,.cls-24,.cls-25,.cls-26,.cls-27,.cls-28,.cls-29,.cls-30,.cls-6{fill:#fff;}.cls-9,.cls-10,.cls-32,.cls-33,.cls-34,.cls-7{fill:#020202;}.cls-10,.cls-11,.cls-12,.cls-13,.cls-14,.cls-15,.cls-16,.cls-17,.cls-18,.cls-19,.cls-20,.cls-21,.cls-22,.cls-23,.cls-24,.cls-25,.cls-26,.cls-27,.cls-28,.cls-29,.cls-30,.cls-31,.cls-32,.cls-33,.cls-34,.cls-3,.cls-4{stroke-linecap:round;}.cls-10,.cls-30,.cls-4{stroke:#fff;}.cls-11{stroke-width:1.7px;}.cls-12{stroke-width:1.7px;}.cls-13{stroke-width:1.7px;}.cls-14{stroke-width:1.7px;}.cls-15{stroke-width:1.7px;}.cls-16{stroke-width:1.7px;}.cls-17{stroke-width:1.7px;}.cls-18{stroke-width:1.7px;}.cls-19{stroke-width:1.7px;}.cls-21{stroke-width:1.7px;}.cls-22{stroke-width:1.7px;}.cls-23{stroke-width:1.7px;}.cls-24{stroke-width:1.7px;}.cls-25{stroke-width:1.7px;}.cls-26{stroke-width:1.7px;}.cls-27{stroke-width:1.7px;}.cls-28{stroke-width:1.7px;}.cls-29{stroke-width:1.7px;}.cls-31{fill:#ffd800;}.cls-32{stroke-width:1.7px;}.cls-33{stroke-width:1.7px;}.cls-5{fill:#d1ff61;}</style></defs><g id="funnel_marketing"><path class="cls-20" d="m340.32,310.81c.53-1.87-.58-3.77-1.64-5.4-1.19-1.83-2.37-3.66-3.56-5.48-.08-.13-.17-.26-.3-.34-.26-.16-.59-.05-.87.06-1.05.4-2.13.81-3.01,1.51s-1.56,1.75-1.53,2.88c.02.68.29,1.32.57,1.94,1.07,2.34,2.42,4.54,3.76,6.74.82,1.34,2.03,2.34,3.59,1.48,1.23-.67,2.6-2.03,2.98-3.39h.01Z"/><path class="cls-34" d="m312.06,318.69c4.65,6.19,8.69,9.45,10.94,12.13,5.61,6.67,8.7,11.47,14.5,16.98.23.22.48.45.79.51.28.06.57-.02.84-.11,5.27-1.7,9.32-5.86,13.14-9.86.21-.22.44-.48.44-.79,0-.24-3.19-5.1-3.34-5.29-7.93-10.2-10.6-16.87-17.44-27.62l-19.87,14.05h0Z"/><path class="cls-20" d="m376.74,239.46c.59-1.24,2.74-4.01,3.96-4.66,1.21-.65,2.56-1,3.91-1.25,1.21-.22,2.44-.36,3.66-.22,3.24.35,6.13,2.73,7.26,5.79.43,1.18,1.53,4.11.41,7.25-1,2.81-2.8,5.04-5.64,5.95-1.68.54-3.49.55-5.26.55,0,0-8.4-13.22-8.31-13.42h.01Z"/><path class="cls-34" d="m354.61,213.26c-.44-1.19-.85-2.42-.85-3.69s.48-2.6,1.5-3.35c1.16-.86,2.4-.41,3.71.21s3.68,3.34,4.71,4.35c5.63,5.48,13.28,17.38,16.77,21.58,4.09,4.92,27.77,40.37,32.95,46.46,0,0,.92,2.57-3.08,3.81-4,1.23-6.7-2.46-6.7-2.46,0,0-1.03-.85-7.35-9.14-5.34-7.01-10.04-14.6-10.04-14.6l-8.56-11.69-17.47-23.84-5.59-7.63h0Z"/><path class="cls-20" d="m288.52,303.52c-.88.01-2.83.72-3.08,2.46-.12.87.46,2.17.92,2.91,1.36,2.21,2.89,4.31,4.51,6.33,1.08,1.35,2.51,3.05,4.15,3.62,1.63.57,3.56-.34,4.13-1.98l-10.62-13.35h-.01Z"/><path class="cls-31" d="m353.98,211.28c6.12,8.41,12.44,14.47,17.95,23.3,7.21,11.56,14.16,20.04,21.97,30.47,2.89,3.86,8.47,13.95,11.96,17.18-9.51.82-15.16-1.47-23.49-.13-4.26.68-9.76,2.9-13.91,4.04-3.68,1.02-13.72,5.57-17.25,6.96-7.1,2.81-7.41,3.04-13.45,7.43l-20.62-30.47c6.19-7.88,10.92-9.42,17.22-17.67,3.89-5.09,9.24-14.29,11.86-20.14,2.69-6,6.86-11.67,7.76-20.97"/><path class="cls-34" d="m339.47,299.33c-9.77,8.26-19.6,16.57-30.57,23.14-.79.47-1.63.95-2.56.99-1.11.04-2.14-.57-3.05-1.21-4.09-2.92-7.24-6.95-10.24-10.98-2.63-3.54-5.19-7.12-7.68-10.75-.86-1.25-1.75-2.79-1.19-4.21.28-.69.86-1.2,1.42-1.69,10.45-9.07,20.94-18.17,32.48-25.79,3.05,3.31,4.79,5.93,7.18,8.88,8.01,9.88,14.1,21.08,14.2,21.61h0Z"/><path class="cls-4" d="m313.15,319.85c7.08-5.04,12.35-8.85,19.34-14.66"/><path class="cls-3" d="m399.22,160.2c-.32.35-5.53,19.75-7.01,25.57,4.8-1.81,6.12-2.44,9.42-3.66.03.79-1.38,7.28-1.55,8.04-1.59,6.89-2.19,9.49-3.78,16.38"/><path class="cls-3" d="m456.5,194.17c-8.05,2.32-16.1,4.67-24.14,7.04,4.71,1.35,9.31,3.08,13.89,4.81-11.1,2.49-21.96,6.07-32.36,10.68"/><path class="cls-3" d="m422.32,244.76c7.81-1.13,15.62-2.24,23.44-3.31-3.52,2.98-6.19,6.79-8.03,9.11,10.49-2.16,19.16-2.89,29.87-2.98"/><path class="cls-9" d="m673.95,104.22c.95-1.72,3.41-4.12,4.64-3.83,3.81.89,10.78,4.41,11.91,6.66,1.49,2.98-9.72,23.26-20.53,44.49-10.81,21.23-13.3,30.84-16.84,31.74-3.54.9-15.69-5.06-14.93-7.5s25.75-49.75,29.27-58.26c2.2-5.31,4.82-10.3,6.48-13.29h0Z"/><path class="cls-9" d="m633.58,105.9c.66-1.15,2.09-1.65,3.5-1.23,3.84,1.14,11.11,3.51,12.36,5.37,1.71,2.55-6.97,17.79-15.18,33.83-8.2,16.04-9.64,23.55-12.91,23.93-3.28.38-15.42-5.61-14.93-7.5.49-1.9,19.63-37.57,22.15-44.08,1.64-4.22,3.74-8.11,5.01-10.33h0Z"/><path class="cls-9" d="m565.66,83.7c.58-.98,1.72-1.42,2.8-1.06,3.59,1.17,11.44,3.88,12.84,5.66,1.83,2.32-5.52,14.9-12.35,28.21-6.83,13.31-7.7,19.69-10.84,19.8s-15.27-5.9-14.93-7.5c.34-1.61,16.39-31.13,18.38-36.58,1.28-3.49,3.01-6.68,4.1-8.52h0Z"/><path class="cls-9" d="m589.7,114.88c.61-1.05,1.86-1.5,3-1.06,3.59,1.37,11.04,4.31,12.54,5.79,2,1.97-3.28,10.44-7.98,19.52-4.7,9.08-4.71,13.75-7.64,13.43s-14.83-5.54-14.93-7.5c-.11-2.12,6.62-12.36,7.8-16.18.89-2.9,5.2-10.5,7.21-13.98v-.02Z"/><path class="cls-3" d="m576.61,61.6c3.09,3.87,15.93,26.55,19.38,30.97,1.65,2.11,4.3,3.2,6.94,2.76,5.46-.91,10.99-.82,16.41-1.78,4.67-.83,36.33-3.82,43.68-5.47,3.51-.78,25.82-3.27,33.94-3.3"/><path class="cls-9" d="m696.71,80c-1.29.43,1.55,9.54,1.55,9.54,0,0,1.37-.22,3.19-2.38,1.62-1.93,2.89-4.2,2.89-4.2,0,0-6.35-3.38-7.64-2.95h.01Z"/><path class="cls-9" d="m344,149.07l2.42-5.16c.89-1.89.36-4.14-1.28-5.44l-3.46-2.74c-1.22-.97-1.82-2.5-1.65-4.05.19-1.63.26-3.26.22-4.88-.04-1.56.76-3.01,2.06-3.87l3.64-2.39c1.75-1.14,2.48-3.34,1.77-5.3l-1.94-5.36c-.71-1.96-2.68-3.18-4.75-2.94l-4.32.5c-1.55.18-3.09-.44-4.05-1.66s-2.11-2.48-3.3-3.61c-1.13-1.07-1.64-2.64-1.32-4.16l.9-4.32c.43-2.04-.61-4.11-2.5-5l-5.16-2.42c-1.89-.89-4.14-.36-5.44,1.28l-2.74,3.45c-.97,1.22-2.5,1.83-4.05,1.65-1.63-.19-3.26-.26-4.89-.22-1.56.04-3.02-.76-3.87-2.06l-2.38-3.63c-1.14-1.75-3.34-2.48-5.3-1.77l-5.36,1.94c-1.96.71-3.18,2.68-2.94,4.75l.49,4.31c.18,1.55-.44,3.09-1.66,4.06s-2.48,2.11-3.61,3.3c-1.08,1.13-2.64,1.64-4.17,1.33l-4.31-.9c-2.04-.43-4.11.61-5,2.5l-2.42,5.16c-.89,1.89-.36,4.14,1.28,5.44l3.45,2.74c1.22.97,1.83,2.5,1.65,4.05-.19,1.63-.26,3.27-.22,4.89s-.76,3.02-2.06,3.87l-3.63,2.38c-1.75,1.14-2.48,3.34-1.77,5.3l1.94,5.36c.71,1.96,2.68,3.18,4.75,2.94l4.31-.49c1.55-.18,3.09.44,4.06,1.66s2.11,2.48,3.3,3.61c1.13,1.07,1.64,2.64,1.33,4.17l-.9,4.31c-.43,2.04.61,4.11,2.5,5l5.16,2.42c1.89.89,4.14.36,5.44-1.28l2.74-3.45c.97-1.22,2.5-1.83,4.05-1.65,1.63.19,3.26.26,4.88.22s3.01.76,3.87,2.06l2.38,3.64c1.14,1.75,3.34,2.48,5.3,1.77l5.36-1.94c1.96-.71,3.18-2.68,2.94-4.75l-.5-4.32c-.18-1.55.44-3.09,1.66-4.05s2.48-2.11,3.61-3.29c1.07-1.13,2.64-1.64,4.16-1.32l4.32.9c2.04.43,4.11-.61,5-2.5v-.04Zm-45.6-7.28c-7.93-3.72-9.85-13.26-5.9-21.14,3.71-7.41,10.17-8.71,17.75-5.34,8.02,3.57,12.61,11.07,8.91,18.97-3.66,7.8-12.94,11.17-20.76,7.51h0Z"/><path class="cls-9" d="m541.21,341.88l2.42-5.16c.89-1.89.36-4.14-1.28-5.44l-3.46-2.74c-1.22-.97-1.82-2.5-1.65-4.05.19-1.63.26-3.26.22-4.88-.04-1.56.76-3.01,2.06-3.87l3.64-2.39c1.75-1.14,2.48-3.34,1.77-5.3l-1.94-5.36c-.71-1.96-2.68-3.18-4.75-2.94l-4.32.5c-1.55.18-3.09-.44-4.05-1.66s-2.11-2.48-3.3-3.61c-1.13-1.07-1.64-2.64-1.32-4.16l.9-4.32c.43-2.04-.61-4.11-2.5-5l-5.16-2.42c-1.89-.89-4.14-.36-5.44,1.28l-2.74,3.45c-.97,1.22-2.5,1.83-4.05,1.65-1.63-.19-3.26-.26-4.89-.22s-3.02-.76-3.87-2.06l-2.38-3.63c-1.14-1.75-3.34-2.48-5.3-1.77l-5.36,1.94c-1.96.71-3.18,2.68-2.94,4.75l.49,4.31c.18,1.55-.44,3.09-1.66,4.06s-2.48,2.11-3.61,3.3c-1.08,1.13-2.64,1.64-4.17,1.33l-4.31-.9c-2.04-.43-4.11.61-5,2.5l-2.42,5.16c-.89,1.89-.36,4.14,1.28,5.44l3.45,2.74c1.22.97,1.83,2.5,1.65,4.05-.19,1.63-.26,3.27-.22,4.89s-.76,3.02-2.06,3.87l-3.63,2.38c-1.75,1.14-2.48,3.34-1.77,5.3l1.94,5.36c.71,1.96,2.68,3.18,4.75,2.94l4.31-.49c1.55-.18,3.09.44,4.06,1.66s2.11,2.48,3.3,3.61c1.13,1.07,1.64,2.64,1.33,4.17l-.9,4.31c-.43,2.04.61,4.11,2.5,5l5.16,2.42c1.89.89,4.14.36,5.44-1.28l2.74-3.45c.97-1.22,2.5-1.83,4.05-1.65,1.63.19,3.26.26,4.88.22s3.01.76,3.87,2.06l2.38,3.64c1.14,1.75,3.34,2.48,5.3,1.77l5.36-1.94c1.96-.71,3.18-2.68,2.94-4.75l-.5-4.32c-.18-1.55.44-3.09,1.66-4.05s2.48-2.11,3.61-3.29c1.07-1.13,2.64-1.64,4.16-1.32l4.32.9c2.04.43,4.11-.61,5-2.5v-.04Zm-45.6-7.28c-7.93-3.72-9.85-13.26-5.9-21.14,3.71-7.41,10.17-8.71,17.75-5.34,8.02,3.57,12.61,11.07,8.91,18.97s-12.94,11.17-20.76,7.51h0Z"/><path class="cls-8" d="m741.6,295.33h0c20.38-4.61,32.73-23.56,25.5-46.12h0c-5.86-21.95-26.34-31.19-46.12-25.5h0c-19.78,5.69-33.45,25.27-25.5,46.12h0c5.69,19.78,24.03,31.9,46.12,25.5Z"/><path class="cls-9" d="m748.81,247.67c.77,2.69.95,5.19-.51,7.83,0,0-4.11,7.25-4.84,8.96-1.77,4.13-7.15,12.11-7.15,12.11,0,0-12.24-6.53-20.35-11.25-6.32-3.68-7.79-9.43-4.87-14.71,1.46-2.64,3.57-4.78,6.25-5.55s5.11-.63,7.74.83l2.94,1.93,1.65-3.44c2.91-5.28,8.33-5.92,13.61-3,2.64,1.46,4.77,3.6,5.54,6.28h0Z"/><path class="cls-8" d="m443.26,112.92h0c15.78,2.2,29.7-8,30.61-26.05h0c1.73-17.24-10.4-29.35-26.05-30.61h0c-15.65-1.26-30.67,9.03-30.61,26.05h0c-1.26,15.65,8.56,29.23,26.05,30.61Z"/><polyline class="cls-2" points="429.16 83.96 446.2 93.52 459.27 69.46"/><path class="cls-8" d="m229.37,266.66c-4.66-4.68-10.6-8.06-17-9.68-3.28-.83-6.66-1.21-9.9-2.17-5.7-1.7-10.88-5.33-14.51-10.05-6.48-8.42-7.78-16.95-6.72-22.42,1.31-6.77,2.99-10.52,6.3-15.01,3.05-4.14,10.52-10.84,19.69-12.97,3.74-.87,13.03.63,15.44,1.74,10.15,4.72,17.1,13.23,19.04,24.25.86,4.91.39,10.1,2.17,14.75,1.76,4.59,5.6,8.26,6.81,13.02l-21.32,18.52v.02Z"/><path class="cls-3" d="m234.9,259.73c-4.04-5.88-9.41-11.23-14.3-16.42-1.89-2-3.79-3.43-5.93-5.17-1.08-.88-2.34-1.67-3.74-1.74-.98-.04-1.95.28-2.82.72-1.14.58-2.19,1.41-2.84,2.5s-.89,2.49-.42,3.68c.69,1.77,2.75,2.71,4.64,2.61s3.64-1.05,5.2-2.12c2.73-1.86,12.76-10.13,14.8-12.63.83-1.02,1.75-2.72,1.96-4.02.3-1.83-.25-2.87-1.08-3.89-1.04-1.29-3.02-1.54-4.55-.9-1.97.82-3.28,3.05-2.93,5.15.25,1.5,1.21,2.77,2.15,3.97,5.79,7.45,10.85,14.91,16.87,22.06"/><path class="cls-9" d="m232.32,270.02c-.21,1.14-.04,2.39.63,3.33.68.94,1.91,1.52,3.04,1.25-.36,1.08-.08,2.34.69,3.17s2.02,1.18,3.12.88c.31-.08.66-.21.94-.06.2.11.31.32.44.51.52.78,1.44,1.23,2.37,1.38s1.88.05,2.82-.05c2.93-.32,5.88-.64,8.74-1.34.8-.2,2.19-1.02,2.76-1.62.55-.57.77-1.22,1.13-1.92,2.12-4.2,2.5-5.82,3.13-8.77,1.25-5.89-.5-5.76-1.49-6.52-.24-.18-.35-.23-.42-.35-.04-.08.61-1.72-.26-2.58-.7-.69-2.01-1.67-2.87-1.2.87-1.29.97-2.49,0-3.7s-2.76-1.69-4.2-1.12c.58-1.15.33-2.64-.56-3.57-.88-.93-2.44-1.51-3.55-.87-2.44,1.42-6,4.88-13.24,11.3-1.51,1.34-7.35,5.72-7.39,8.27-.02,1.03.69,1.83,1.48,2.53.18.16,2.57,1.52,2.65,1.06h.04Z"/><path class="cls-4" d="m232.32,270.02c1.99-1.52,16.42-14.59,20.59-18.72"/><path class="cls-4" d="m235.99,274.6c5.4-4.48,15.47-13.84,21.11-18.47"/><path class="cls-4" d="m240.75,278.58c6.17-5.66,14.19-12.5,19.9-18.33"/><path class="cls-8" d="m651.85,229.72l-5.64,29.11c-.63,3.25-3.77,5.37-7.02,4.74-26.86-3.65-53.22-12.44-81.2-15.74l-19.46,12.87,9.89-51.03c.63-3.25,3.77-5.37,7.02-4.74,29.56,2.81,60.19,8.95,91.67,17.77,3.25.63,5.37,3.77,4.74,7.02h0Z"/><circle class="cls-9" cx="576.35" cy="230.2" r="5.48"/><circle class="cls-9" cx="597.31" cy="234.26" r="5.48"/><circle class="cls-9" cx="618.27" cy="238.32" r="5.48"/><path class="cls-34" d="m526.3,755.58c.01,1.6-.11,3.21-.4,4.83-.97,5.42-2.42,10.97-5.72,15.39-1.5,2-5.91,7.26-11.92,10.9-1.87,1.14-7.43,4.26-17.61,4.25-7.74,0-15.62-2.53-21.49-7.57-5.88-5.03-10.07-11.87-12.6-19.18-1.7-4.92-1.46-10.39-.42-15.49,1.37-6.71,4.39-12.56,9.22-17.42,3.28-3.3,7.16-6,11.25-8.27,4.01-2.23,9.22-2.9,13.74-2.9,7.53,0,15.52,1.83,21.01,6.89,4.3,3.97,8.1,6.89,11.05,13.39,2.2,4.84,3.85,9.92,3.9,15.18h-.01Z"/><path class="cls-20" d="m474.04,777.7c-2.68-1.98-4.99-4.44-6.8-7.24-.9-1.39-1.88-2.79-2.3-4.4-1.89-7.22-1.57-7.69-1.76-10.15-.24-3.06.3-6.12,1.32-9.01,1.39-3.93,2.24-6.7,5.31-9.56,1.26-1.18,4.94-4.03,7.41-5.37,1.27-.68,2.68-1.85,4.04-2.32,2.89-1.01,6.02-1.54,9.08-1.54,3.36,0,6.72.61,9.86,1.82,3.19,1.23,6.14,3.33,8.73,5.52,4.3,3.64,7.72,8.18,8.64,13.74.32,1.95,1.77,12.44-4.6,21.76-3.19,4.67-7.25,8.61-12.58,10.5-2.36.84-8.7,1.51-10.05,1.59-3.92.24-10.67-1.86-16.3-5.36"/><path class="cls-34" d="m494.52,761.93c.2-1.01-.32-1.82-.95-2.48-.63-.65-1.82-.97-3.17-1.76-1.53-.89-2.63-1.01-3.46-1.45-1.87-.87-2.75-2.4-3.62-3.92-.41-.71-.53-1.67-.48-2.6.11-1.94.45-3.7,1.78-4.81,1.24-1.03,2.76-2.25,4.83-2.24v-3.84h2.82v3.88c1.02.15,1.88.53,2.72.87,1.18.47,1.69,1.33,2.25,2.05,1.12,1.44,1.2,3.16,1.45,5.3,0,0-1.55-.14-2.07-.14-.55,0-2.19.14-2.19.14,0-.66-.17-1.24-.2-1.79-.05-.94-.37-1.39-.73-1.83-.79-.94-1.64-1.16-2.78-1.16s-2.12.21-2.64.92-.95,1.49-.95,2.62c0,1.02.48,1.71.94,2.46.44.71,1.67,1.28,3.2,1.75s2.38,1.08,3.54,1.53c2.05.8,2.81,2.59,3.52,3.7.46.71.6,1.72.48,2.76-.25,2.05-.53,3.68-1.82,4.83-1.35,1.19-3.71,1.84-5.08,2.19,0,0-.06,1.29-.06,1.66,0,.49.06,1.77.06,1.77,0,0-1.47-.14-1.96-.12-.21,0-.84.12-.84.12,0,0,.02-1.89.04-2.52,0-.22-.04-.9-.04-.9-1.35-.05-2.41-.29-3.26-.9-.88-.63-1.52-.94-2.11-1.6-.65-.74-1.35-1.71-1.53-2.73-.17-.96-.41-1.77-.34-2.87,0,0,1.69-.17,2.26-.17.51,0,2.03.17,2.03.17,0,.82,0,1.34.15,2.05.11.52.63,1.02.97,1.39.3.33.66.59,1.06.79.59.28,1.33.4,2.13.48,1.43.15,2.32-.38,3.02-1.02.43-.4.73-.88.9-1.45.1-.34.07-.73.15-1.13h-.02Z"/><path class="cls-8" d="m234.07,368.6s30.62,173.11,195.48,302.65l8.24,70.66s23.55,16.49,52.99,17.66c29.44-1.18,52.99-17.66,52.99-17.66l8.24-70.66c164.87-129.54,195.48-302.65,195.48-302.65H234.07Z"/><ellipse class="cls-9" cx="490.79" cy="368.6" rx="256.72" ry="40.04"/><path class="cls-3" d="m442.68,675.6s21.41,8.93,60.87,4.38"/><path class="cls-34" d="m448.78,866.05c-19.47-11.15-39.47-23.95-59.82-37.83-.6-.38-.78-1.17-.4-1.78l3.96-6.26c.38-.6,1.17-.78,1.78-.4,21.45,11.91,41.51,24.46,59.82,37.83.6.38.78,1.17.4,1.78l-3.96,6.26c-.38.6-1.17.78-1.78.4Z"/><path class="cls-34" d="m441.01,1030.28c-22.42.99-46.16.86-70.78,0-.71,0-1.29-.58-1.29-1.29v-7.41c0-.71.58-1.29,1.29-1.29,24.49-1.4,48.16-1.51,70.78,0,.71,0,1.29.58,1.29,1.29v7.41c0,.71-.58,1.29-1.29,1.29h0Z"/><path class="cls-34" d="m441.01,1015.85c-22.42.99-46.16.86-70.78,0-.71,0-1.29-.58-1.29-1.29v-7.41c0-.71.58-1.29,1.29-1.29,24.49-1.4,48.16-1.51,70.78,0,.71,0,1.29.58,1.29,1.29v7.41c0,.71-.58,1.29-1.29,1.29h0Z"/><path class="cls-34" d="m432.23,1001.42c-22.42.99-46.16.86-70.78,0-.71,0-1.29-.58-1.29-1.29v-7.41c0-.71.58-1.29,1.29-1.29,24.49-1.4,48.16-1.51,70.78,0,.71,0,1.29.58,1.29,1.29v7.41c0,.71-.58,1.29-1.29,1.29Z"/><path class="cls-34" d="m441.01,986.99c-22.42.99-46.16.86-70.78,0-.71,0-1.29-.58-1.29-1.29v-7.41c0-.71.58-1.29,1.29-1.29,24.49-1.4,48.16-1.51,70.78,0,.71,0,1.29.58,1.29,1.29v7.41c0,.71-.58,1.29-1.29,1.29h0Z"/><path class="cls-34" d="m445.41,972.56c-22.42.99-46.16.86-70.78,0-.71,0-1.29-.58-1.29-1.29v-7.41c0-.71.58-1.29,1.29-1.29,24.49-1.4,48.16-1.51,70.78,0,.71,0,1.29.58,1.29,1.29v7.41c0,.71-.58,1.29-1.29,1.29h0Z"/><path class="cls-34" d="m439.26,958.13c-22.42.99-46.16.86-70.78,0-.71,0-1.29-.58-1.29-1.29v-7.41c0-.71.58-1.29,1.29-1.29,24.49-1.4,48.16-1.51,70.78,0,.71,0,1.29.58,1.29,1.29v7.41c0,.71-.58,1.29-1.29,1.29h0Z"/><path class="cls-34" d="m526.79,1030.28c-22.42.99-46.16.86-70.78,0-.71,0-1.29-.58-1.29-1.29v-7.41c0-.71.58-1.29,1.29-1.29,24.49-1.4,48.16-1.51,70.78,0,.71,0,1.29.58,1.29,1.29v7.41c0,.71-.58,1.29-1.29,1.29h0Z"/><path class="cls-34" d="m524.15,1015.85c-22.42.99-46.16.86-70.78,0-.71,0-1.29-.58-1.29-1.29v-7.41c0-.71.58-1.29,1.29-1.29,24.49-1.4,48.16-1.51,70.78,0,.71,0,1.29.58,1.29,1.29v7.41c0,.71-.58,1.29-1.29,1.29h0Z"/><path class="cls-34" d="m529.42,1001.42c-22.42.99-46.16.86-70.78,0-.71,0-1.29-.58-1.29-1.29v-7.41c0-.71.58-1.29,1.29-1.29,24.49-1.4,48.16-1.51,70.78,0,.71,0,1.29.58,1.29,1.29v7.41c0,.71-.58,1.29-1.29,1.29Z"/><path class="cls-34" d="m612.65,1030.37c-22.42.99-46.16.86-70.78,0-.71,0-1.29-.58-1.29-1.29v-7.41c0-.71.58-1.29,1.29-1.29,24.49-1.4,48.16-1.51,70.78,0,.71,0,1.29.58,1.29,1.29v7.41c0,.71-.58,1.29-1.29,1.29h0Z"/><path class="cls-34" d="m621.44,1015.94c-22.42.99-46.16.86-70.78,0-.71,0-1.29-.58-1.29-1.29v-7.41c0-.71.58-1.29,1.29-1.29,24.49-1.4,48.16-1.51,70.78,0,.71,0,1.29.58,1.29,1.29v7.41c0,.71-.58,1.29-1.29,1.29Z"/><path class="cls-34" d="m612.65,1001.52c-22.42.99-46.16.86-70.78,0-.71,0-1.29-.58-1.29-1.29v-7.41c0-.71.58-1.29,1.29-1.29,24.49-1.4,48.16-1.51,70.78,0,.71,0,1.29.58,1.29,1.29v7.41c0,.71-.58,1.29-1.29,1.29h0Z"/><path class="cls-34" d="m607.38,987.09c-22.42.99-46.16.86-70.78,0-.71,0-1.29-.58-1.29-1.29v-7.41c0-.71.58-1.29,1.29-1.29,24.49-1.4,48.16-1.51,70.78,0,.71,0,1.29.58,1.29,1.29v7.41c0,.71-.58,1.29-1.29,1.29h0Z"/><path class="cls-34" d="m612.65,972.66c-22.42.99-46.16.86-70.78,0-.71,0-1.29-.58-1.29-1.29v-7.41c0-.71.58-1.29,1.29-1.29,24.49-1.4,48.16-1.51,70.78,0,.71,0,1.29.58,1.29,1.29v7.41c0,.71-.58,1.29-1.29,1.29h0Z"/><path class="cls-34" d="m621.44,958.23c-22.42.99-46.16.86-70.78,0-.71,0-1.29-.58-1.29-1.29v-7.41c0-.71.58-1.29,1.29-1.29,24.49-1.4,48.16-1.51,70.78,0,.71,0,1.29.58,1.29,1.29v7.41c0,.71-.58,1.29-1.29,1.29Z"/><path class="cls-34" d="m612.65,943.8c-22.42.99-46.16.86-70.78,0-.71,0-1.29-.58-1.29-1.29v-7.41c0-.71.58-1.29,1.29-1.29,24.49-1.4,48.16-1.51,70.78,0,.71,0,1.29.58,1.29,1.29v7.41c0,.71-.58,1.29-1.29,1.29h0Z"/><path class="cls-34" d="m603.87,929.37c-22.42.99-46.16.86-70.78,0-.71,0-1.29-.58-1.29-1.29v-7.41c0-.71.58-1.29,1.29-1.29,24.49-1.4,48.16-1.51,70.78,0,.71,0,1.29.58,1.29,1.29v7.41c0,.71-.58,1.29-1.29,1.29h0Z"/><path class="cls-34" d="m564.39,848c-18.56,7.14-38.55,13.72-59.49,19.93-.6.2-1.24-.12-1.44-.72l-2.09-6.23c-.2-.6.12-1.24.72-1.44,20.19-8.07,40.05-14.83,59.49-19.93.6-.2,1.24.12,1.44.72l2.09,6.23c.2.6-.12,1.24-.72,1.44Z"/><path class="cls-34" d="m579.73,855.79c-.32.39-8.67,11.24-8.99,11.63-6.78,8.12-5.44,5.87-12.15,14.04-1.16,1.41-5.01,6.5-6.32,7.77-3.27,3.19-8.14,10.03-9.75,11.95-7,8.37-7.85,8.73-15.23,16.78-5.75,6.28-7.91,10.16-12.82,16.03-1.56,1.87-9.88,11.11-14.08,16.87-4.79,6.56-11.23,13.52-11.34,13.42-.06-.05-1.39-1.16-2.01-1.68-1.25-1.04-2.2-2.1-3.45-3.15-1.74-1.45-3.77-2.89-5.51-4.34-2.09-1.74-3.47-2.69-5.55-4.44-2.3-1.92-4.96-4.61-7.26-6.53-2.37-1.98-4.79-3.54-7.16-5.52s-4.92-4.31-7.23-6.24c-1.09-.91-2.18-1.82-3.26-2.73-1.26-1.05-2.63-1.87-3.79-3.02-1.26-1.26-2.54-2.49-4-3.51-1.3-.91-2.53-1.93-3.72-2.98-.97-.85-1.89-1.93-2.98-2.61.42-.47.65-1.03,1.09-1.5.63-.68,1.25-1.36,1.88-2.05,1.25-1.37,2.49-2.75,3.72-4.13,2.46-2.77,4.82-6,7.22-8.83,4.79-5.65,9.52-10.99,14.04-16.86,1.45-1.88,2.98-3.4,4.38-5.31,1.11-1.52,5.69-6.79,6.2-7.41,2.08-2.49,4.16-4.98,6.24-7.47,4.13-4.95,7.96-10.19,12.1-15.14,3.86-4.62,8.04-8.95,11.9-13.58,3.31-3.96,5.45-7.37,9.43-11.78,2.58-2.86,5.58-6.49,8.06-9.45,1.35-1.62,4.26-4.78,4.43-4.99.1-.11,3.6,2.89,4.34,3.57,1.49,1.37,7.05,6.29,8.65,7.53,5,3.88,3.54,2.49,8.36,6.59,1.05.9,3.76,3.3,4.83,4.19,1.13.94,2.91,2.87,4.04,3.81,2.22,1.86,3.79,2.73,6.01,4.58,3.89,3.25,7.24,5.51,11.06,8.84s8.34,7.37,8.65,7.64h-.03Z"/><path class="cls-10" d="m533.79,826.99c-.07.08.97.6,1.02.63.58.36,1.04.88,1.5,1.38,4.73,5.1,8.14,6.82,13.35,11.43,1.67,1.48,5.87,5.05,7.71,6.32,1.16.8,2.17,1.77,3.26,2.68-.42.5-.98,1.09-1.23,1.7-.29.71-.53,1.45-.73,2.19-.39,1.45-.64,2.94-.72,4.43-.02.39.25,1.9.4,2.25.62,1.52.64,2.45,2.12,4.43.46.61,1.06,1.16,1.65,1.65-.67.8-1.38,1.58-2.02,2.41-2.9,3.83-6.59,7.43-9.72,11.18-4.72,5.65-9.05,11.45-13.76,17.09-2.49,2.97-5.14,5.69-7.62,8.68-2.6,3.13-5.16,6.29-7.72,9.46-5.08,6.3-10.14,12.63-15.4,18.79-2.2,2.57-4.43,5.11-6.69,7.62-.57.64-2.76,3.32-2.92,3.49-.43.48-.89-.2-1.36-.51-.6-.39-1.24-.73-1.91-1-1.15-.48-2.37-.58-3.59-.77-.58-.09-1.16-.18-1.74-.16-.53.02-1.06.12-1.58.26-.67.18-2.09.34-3.71,1.47-.46.33-.93.64-1.38.99-.34.27-1.41,1.3-1.61,1.53-1.3-.66-2.12-1.54-3.22-2.46-1.45-1.21-2.97-2.72-4.43-3.94-1.43-1.2-8.23-6.46-9.67-7.65-1.25-1.03-9.42-8.5-9.52-8.39,1.3-1.56,2.11-3.39,2.39-5.4.08-.58.16-1.17.17-1.75,0-.54-.05-1.08-.12-1.61-.08-.54-.18-1.08-.31-1.61-.3-1.19-.79-2.28-1.32-3.43-.54-1.16-1.45-1.94-2.28-2.86.68-1.07,1.99-2.03,5.36-6.21,3.86-4.78,5.64-7.18,7.48-9.42,5.03-6.1,8.34-9.37,13.37-15.47,4.98-6.03,9.53-11.94,14.54-17.94,4.6-5.5,9.57-11.18,14.17-16.68,3.05-3.64,4.58-5.01,7.62-8.65.67-.8,2.85-3.88,3.52-4.68,1.18.99,2.43,1.68,3.93,2.01.42.09.83.26,1.25.37,1.09.28,2.23.17,3.35.06,1.3-.13,2.62-.26,3.86-.67,1.78-.58,3.09-1.85,4.27-3.25h-.01Z"/><path class="cls-6" d="m521.38,869.83c.79.66,1.54,1.38,2.24,2.15.57.62,1.1,1.28,1.59,1.96.21.29,2.07,3.45,2.9,6.29.43,1.48.86,2.96,1.19,4.46.2.91.36,1.82.39,2.75.03.88-.07,1.76-.21,2.63-.17,1.09-.41,2.16-.72,3.21-.46,1.54-1.08,3.04-1.88,4.44-.4.7-.85,1.36-1.34,2-.46.59-.83,1.21-1.32,1.78-.93,1.12-2.22,2.17-3.35,3.09-1.56,1.27-2.97,2.11-4.87,3.11-1.87.98-4.06,1.34-6.12,1.77-1.94.41-6.47.36-9.31-.68-1.19-.44-2.35-.98-3.51-1.48-.76-.33-1.52-.67-2.22-1.1-1.39-.85-2.62-2.05-3.74-3.21s-2.15-2.5-3.11-3.83c-.42-.58-.74-1.23-1.07-1.87-.31-.6-.52-1.21-.77-1.82-.51-1.24-.94-2.5-1.24-3.81-.59-2.6-.5-5.97-.3-7.93.21-2.08,1.21-4.08,1.97-6.04.71-1.83,2.64-4.68,4.56-6.59,1.59-1.58,3.43-2.93,5.42-3.97,1.94-1.01,3.99-2.07,6.18-2.15,1.14-.04,4.33-.51,6.5-.29,2.19.22,4.28.48,6.38,1.6,2,1.07,4.05,2.06,5.79,3.52h-.03Z"/><path class="cls-34" d="m513.75,887.93c-.57-.71-1.42-.82-2.23-.77-.81.06-1.7.69-3.01,1.16-1.48.54-2.19,1.22-2.96,1.53-1.66.78-3.21.51-4.75.23-.72-.13-1.44-.59-2.05-1.15-1.27-1.18-2.27-2.42-2.27-3.96,0-1.43.04-3.17,1.22-4.57l-2.62-2.19,1.61-1.93,2.65,2.21c.68-.62,1.44-.98,2.14-1.36,1-.54,1.87-.4,2.68-.37,1.62.06,2.84.99,4.44,2.03,0,0-.98.98-1.28,1.34-.31.37-1.16,1.58-1.16,1.58-.45-.38-.94-.59-1.33-.89-.67-.5-1.16-.54-1.66-.54-1.09,0-1.73.45-2.38,1.23-.64.77-1.06,1.57-.88,2.33.19.79.47,1.5,1.25,2.15.7.58,1.44.65,2.22.76.73.11,1.83-.41,3.02-1.18,1.14-.74,2.09-1.01,3.07-1.54,1.72-.94,3.37-.44,4.54-.29.75.1,1.52.57,2.16,1.25,1.26,1.34,2.21,2.46,2.26,4,.05,1.6-.86,3.58-1.41,4.72,0,0,.85.78,1.1.99.34.28,1.24.97,1.24.97,0,0-.94.92-1.2,1.27-.12.15-.4.64-.4.64,0,0-1.28-1.09-1.7-1.47-.15-.13-.63-.48-.63-.48-.81.89-1.58,1.48-2.48,1.71s-1.51.5-2.3.53c-.87.02-1.94-.05-2.74-.51-.75-.43-1.45-.73-2.16-1.41,0,0,.85-1.25,1.17-1.64.29-.35,1.27-1.29,1.27-1.29.56.47.92.76,1.49,1.07.42.22,1.06.15,1.5.13.4-.02.78-.11,1.14-.28.53-.24,1.03-.68,1.55-1.18.92-.89,1.07-1.8,1.03-2.65-.03-.53-.19-1.01-.48-1.44-.18-.26-.46-.46-.68-.74h.01Z"/><path class="cls-34" d="m585.34,875.33c-.41.29-11.24,8.67-11.65,8.96-8.62,6.13-6.75,4.3-15.32,10.5-1.48,1.07-6.49,5.01-8.08,5.91-3.97,2.25-10.42,7.63-12.46,9.08-8.89,6.32-9.52,6.79-18.7,12.7-7.16,4.61-10.53,7.48-16.76,11.92-1.99,1.41-12.38,8.24-17.9,12.74-6.29,5.13-14.29,10.22-14.38,10.1-.05-.06-1.05-1.48-1.52-2.14-.94-1.33-1.6-2.59-2.54-3.92-1.31-1.85-6.79-8.34-8.37-10.56-1.74-2.44-3.73-6.46-5.46-8.91-1.79-2.52-3.73-4.64-5.52-7.16-1.74-2.45-3.66-5.42-5.4-7.87-.82-1.16-1.64-2.31-2.46-3.47-.95-1.34-2.07-2.47-2.9-3.89-.9-1.54-1.83-3.05-2.98-4.41-1.03-1.21-1.96-2.51-2.84-3.82-.72-1.07-1.34-2.34-2.22-3.29.52-.35.89-.83,1.43-1.17.78-.5,1.56-1,2.34-1.51,1.55-1.01,3.1-2.03,4.65-3.05,3.08-2.05,6.19-4.58,9.22-6.71,6.07-4.25,12-8.21,17.86-12.75,1.88-1.45,3.74-2.53,5.58-4.02,1.46-1.18,7.23-5.12,7.88-5.59,2.64-1.88,5.29-3.76,7.93-5.64,5.26-3.74,10.85-8.36,16.1-12.1,4.91-3.49,9.49-6.09,14.4-9.58,4.21-2.99,7.14-5.74,12.11-9,3.23-2.12,7.05-4.86,10.19-7.1,1.72-1.22,5.34-3.55,5.55-3.7.12-.09,2.75,3.71,3.3,4.55,1.09,1.7,5.23,7.87,6.45,9.48,3.85,5.02,2.79,3.31,6.41,8.5.79,1.13,2.8,4.15,3.61,5.28l2.55,3.59c1.68,2.36,3.35,4.72,5.03,7.08,2.93,4.13,5.6,7.17,8.45,11.35,2.83,4.16,6.19,9.25,6.43,9.59v.03Z"/><path class="cls-20" d="m548.21,835.81c-.09.06.79.82.83.87.47.49.78,1.12,1.1,1.71,3.28,6.14,6.14,8.66,10.01,14.44,1.24,1.85,4.39,6.38,5.85,8.07.92,1.07,1.65,2.27,2.47,3.42-.53.38-1.23.81-1.62,1.33-.46.62-.88,1.27-1.26,1.93-.75,1.3-1.36,2.68-1.82,4.11-.12.37-.24,1.9-.19,2.28.21,1.62,0,2.53.92,4.82.29.71.73,1.39,1.18,2.01-.85.61-1.74,1.18-2.56,1.82-3.78,2.97-8.26,5.52-12.24,8.34-6,4.26-11.66,8.78-17.65,13.04-3.16,2.25-6.42,4.2-9.57,6.46-3.31,2.37-6.59,4.77-9.87,7.19-6.52,4.8-13.02,9.64-19.67,14.26-2.78,1.93-5.58,3.82-8.41,5.67-.72.47-3.52,2.51-3.71,2.64-.54.35-.81-.42-1.19-.84-.48-.53-1.02-1.02-1.59-1.46-.99-.75-2.14-1.16-3.28-1.65-.53-.23-1.07-.47-1.64-.6-.52-.12-1.06-.15-1.6-.15-.69,0-2.11-.2-3.96.48-.53.2-1.07.39-1.59.61-.39.17-1.7.9-1.95,1.08-1.09-.96-1.66-2.03-2.49-3.2-1.09-1.54-2.19-3.39-3.28-4.93-1.08-1.52-6.32-8.34-7.41-9.85-.95-1.31-6.96-10.62-7.08-10.53,1.66-1.18,2.9-2.75,3.68-4.62.23-.54.45-1.09.61-1.65.14-.52.23-1.06.29-1.59.06-.54.1-1.09.11-1.64.02-1.23-.19-2.41-.41-3.65s-.91-2.24-1.48-3.35c.93-.86,2.44-1.46,6.76-4.64,4.95-3.64,7.28-5.52,9.63-7.21,6.41-4.62,10.45-6.95,16.86-11.57,6.35-4.57,12.25-9.13,18.62-13.66,5.84-4.15,12.09-8.38,17.94-12.54,3.87-2.75,5.7-3.68,9.57-6.43.85-.6,3.74-3.03,4.59-3.63.89,1.26,1.93,2.24,3.29,2.94.38.2.73.46,1.11.67.98.54,2.11.73,3.22.9,1.29.2,2.6.41,3.91.33,1.86-.11,3.46-1,4.95-2.06l.02.03Z"/><path class="cls-34" d="m479.29,908.71c.44.9.56,2.51.56,3.03-.01.77-.15,1.54-.4,2.27-.73,2.1-2.55,3.85-4.73,4.28-.63.13-1.28.14-1.93.13-.7-.02-1.42-.08-2.08-.3-1.61-.53-2.77-1.93-3.65-3.38-.39-.64-.75-1.32-.93-2.05-.28-1.14-.2-2.59.26-3.68.54-1.27,1.58-2.26,2.71-3.06.94-.67,1.86-1.05,3.08-1.08,1.38-.03,2.87-.06,4.1.56.3.15.55.36.84.53.36.21,1.53,1.43,2.17,2.76h0Z"/><path class="cls-34" d="m548.55,858.15c.52.74,1.02,1.44,1.08,2.37.05.77.24,1.52.17,2.27s-.41,1.47-.59,2.23c-.29,1.24-1.26,2.05-2.3,2.79s-2.22,1.03-3.39,1.25c-2.06.39-3.93-.54-5.44-1.93-.63-.57-1.08-1.58-1.3-1.95-1.04-1.75-.98-2.32-.74-4.02.26-1.81,1.24-3.51,2.84-4.65.48-.34,1.65-.99,2.17-1.1,2.12-.46,3.62-.28,5.44.83.78.47,1.48,1.11,2.04,1.91h.02Z"/><path class="cls-34" d="m525.33,874.1c.6.84,1.14,1.73,1.62,2.64.39.75.74,1.52,1.04,2.3.13.33,1.13,3.86,1.2,6.82.04,1.54.08,3.08.01,4.62-.04.93-.11,1.86-.32,2.76-.2.86-.52,1.69-.87,2.49-.44,1.01-.95,1.99-1.52,2.93-.84,1.38-1.81,2.67-2.95,3.82-.56.57-1.17,1.1-1.8,1.59-.59.45-1.11.95-1.72,1.39-1.19.84-2.7,1.54-4.02,2.14-1.83.83-3.41,1.29-5.5,1.77-2.06.48-4.27.27-6.37.16-1.98-.1-6.35-1.29-8.83-3.02-1.04-.73-2.02-1.54-3.02-2.33-.65-.51-1.3-1.03-1.87-1.63-1.13-1.17-2.01-2.64-2.81-4.05-.81-1.44-1.45-2.96-2.04-4.5-.26-.67-.41-1.38-.56-2.08-.14-.66-.2-1.31-.28-1.96-.18-1.33-.28-2.65-.23-4,.09-2.66,1.03-5.9,1.72-7.75.73-1.96,2.21-3.64,3.44-5.34,1.15-1.59,3.74-3.86,6.08-5.22,1.94-1.13,4.06-1.96,6.25-2.46,2.13-.49,4.38-.99,6.52-.51,1.12.25,4.32.61,6.36,1.37,2.06.77,4.02,1.56,5.76,3.17,1.66,1.54,3.39,3.02,4.71,4.87h0Z"/><path class="cls-20" d="m513.36,889.67c-.38-.83-1.17-1.16-1.97-1.31-.8-.14-1.82.23-3.21.36-1.57.14-2.43.63-3.25.73-1.8.33-3.23-.33-4.65-.98-.66-.31-1.25-.93-1.69-1.64-.92-1.47-1.58-2.92-1.19-4.41.37-1.38.84-3.05,2.35-4.11l-1.98-2.79,2.05-1.45,2,2.81c.82-.42,1.64-.58,2.42-.77,1.1-.27,1.91.09,2.68.33,1.55.47,2.5,1.68,3.78,3.1,0,0-1.2.7-1.57.97-.4.28-1.52,1.23-1.52,1.23-.34-.48-.76-.81-1.07-1.2-.52-.66-.98-.82-1.47-.95-1.06-.28-1.79,0-2.61.59-.82.58-1.43,1.24-1.44,2.03-.02.81.08,1.57.66,2.39.53.74,1.23.99,1.95,1.3.68.29,1.87.07,3.23-.38,1.29-.43,2.28-.44,3.36-.71,1.9-.48,3.37.43,4.46.87.7.28,1.32.93,1.77,1.76.88,1.62,1.51,2.94,1.17,4.44-.36,1.56-1.74,3.25-2.56,4.21,0,0,.62.97.82,1.23.26.35.96,1.26.96,1.26,0,0-1.14.66-1.49.92-.15.12-.55.52-.55.52,0,0-.96-1.38-1.27-1.85-.11-.17-.49-.63-.49-.63-1.01.66-1.9,1.03-2.83,1.03s-1.59.1-2.35-.07c-.85-.2-1.86-.54-2.52-1.19-.62-.61-1.21-1.07-1.73-1.91,0,0,1.14-1,1.55-1.29.37-.26,1.56-.92,1.56-.92.42.6.69.97,1.17,1.41.35.32.99.41,1.42.51.39.08.78.09,1.18.02.58-.1,1.17-.4,1.8-.75,1.11-.63,1.49-1.47,1.67-2.3.11-.52.08-1.02-.1-1.51-.11-.3-.32-.56-.47-.89h-.03Z"/></g><polyline class="cls-3" points="1101.53 1031.07 962.74 456.07 820.45 1031.07"/><polyline class="cls-3" points="948.74 1031.07 809.95 456.07 667.66 1031.07"/><line class="cls-3" x1="983.73" y1="543.54" x2="830.65" y2="543.54"/><line class="cls-3" x1="1010.56" y1="653.76" x2="857.48" y2="653.76"/><line class="cls-3" x1="1037.38" y1="763.98" x2="884.3" y2="763.98"/><line class="cls-3" x1="1064.21" y1="874.2" x2="911.13" y2="874.2"/><circle class="cls-34" cx="244.34" cy="1000.41" r="18.37"/><path class="cls-20" d="m245.57,1001.66c3.64.04,7.26-.03,10.9-.13,2.06-.06,4.14-.05,6.18.22-.56,7.66-5.91,14.45-13.76,16.45-9.83,2.52-19.84-3.42-22.35-13.25-.29-1.11-.45-2.23-.52-3.34,6.52-.07,13.04-.04,19.55.03v.02Z"/><circle id="C" class="cls-34" cx="244.34" cy="1000.41" r="12.37"/><path class="cls-34" d="m248.93,982.75c2.93.9,5.79,1.78,8.43,2.58,12.01,3.66,26.67,8.81,23.15,17.11-3.37,7.94-32.11,15.9-32.11,15.9,0,0-.17,0-.47-.01.31-11.86.47-23.73,1-35.58Z"/><path class="cls-20" d="m246.95,1012.54c4.05-.99,9.51-2.5,14.14-4.49,9.74-4.2,11.95-8.6,13.51-11.37s2.95,2.41,2.95,2.41c0,0,3.94,5.22-6.16,11.41-4.3,2.64-14.81,5.75-14.81,5.75l-9.5,2.33"/><path class="cls-34" d="m280.12,996.78s-2.99-5.79-7.6-3.16c-4.61,2.63-2.27,9.04-7.18,16.2-3.01,4.39-8.77,6.43-8.77,6.43,0,0,14.6-3.56,19.35-4.85,4.75-1.29,5.81-7.59,5.44-10.49-.29-2.27-1.24-4.12-1.24-4.12h0Z"/><circle id="C-2" class="cls-20" cx="205.18" cy="979.84" r="15.33"/><path class="cls-6" d="m238.59,983.36l-19.16-9.67-28.84,10.87s2.73,9.18,5.06,14.88c2.33,5.69,16.76,6.88,28.62,1.46,11.86-5.41,14.32-17.54,14.32-17.54h0Z"/><path class="cls-34" d="m188.16,1006.64c-1.66-10.71,2.43-22.08,2.43-22.08,0,0,15.61,20.14,24.69,8.73,1.86-2.34-4.45-11.09-4.45-11.09l8.6-8.51s15.97,4.96,29.21,9.02c-.56,12.06-.69,23.64-1.01,35.71-6.08-.15-23.12-.71-29.81-.91-8.53-.25-27.83,1.62-27.83,1.62,0,0-.54-4.22-1.82-12.49h0Z"/><path class="cls-20" d="m248.47,1018.21l-49.23,12.6c-5.12,1.31-10.16-2.36-10.5-7.63l-.15-2.46c-.08-1.33.78-2.53,2.06-2.89,4.36-1.22,15.43-3.57,34.96-3.22,5.39.1,15.1-.6,22.96-2.27"/><line class="cls-4" x1="224.23" y1="985.9" x2="230.87" y2="978.33"/><line class="cls-4" x1="231.51" y1="988.66" x2="238.37" y2="980.38"/><line class="cls-4" x1="239.76" y1="990.01" x2="245.42" y2="982.92"/><circle id="C-3" class="cls-34" cx="111.41" cy="661.53" r="43.97"/><path class="cls-34" d="m162.41,705.81s1.68-6.87-.89-17.85-6.61-20.08-6.61-20.08c0,0-9.27-3.77-42.97-8.33-36.43-4.93-44.04-4.37-44.04-4.37-.07.12-4.23,9.47-8.95,17.19-8.01,13.11-7.93,19.88-7.93,19.88,0,0,22.87,10.17,54.47,13.96,22.78,2.73,56.92-.4,56.92-.4h0Z"/><circle id="C-4" class="cls-34" cx="130.67" cy="709.07" r="31.94"/><path class="cls-34" d="m142.5,846.67l52.85-14.43s-6.77-29.35-9.28-39.08c-2.42-9.36-8.41-28.47-10.94-37.8-3.73-13.76-13.65-54.68-13.65-54.68l-61.63,16.78s23.9,75.95,31.37,98.56c3.2,9.68,11.27,30.64,11.27,30.64h.01Z"/><circle id="C-5" class="cls-34" cx="168.92" cy="839.44" r="27.4"/><polyline class="cls-20" points="219 973.2 206.86 925.74 177.95 935.14 190.59 984.56"/><circle class="cls-1" cx="205.18" cy="979.84" r="15.33"/><path class="cls-34" d="m183.86,969.47l5.1-1.31,23.29-8.48,4.97,2.25c4.69-.96,7.55-4.94,8.57-5.96,1.48-1.48.21-3.65-.73-8.3-1.25-6.16-6.16-22.85-7.51-28.2-.87-3.43-2.83-13.61-3.71-17.25-3.13-13.06-9.82-38.84-12.36-45.98-3.22-9.05-6.15-24.01-6.15-24.01l-52.87,14.4s1.57,6.33,5.53,21.92c3.6,14.17,8.35,31.26,10.68,39.18,4.12,14,6.61,22.07,9.28,31.37,3.28,11.4,4.02,18.91,4.02,18.91,1.2,8.59,5.17,11.49,7.55,11.64,1.43.09,2.95-.09,4.32-.19h.02Z"/><path class="cls-34" d="m187.07,979.47s7.25-.48,9.75-1.12c3.49-.89,11.88-4.73,15.37-5.62,2.46-.63,8.2-3.74,8.2-3.74l-2.87-11.23-9.21,2.36-24.57,6.29,3.34,13.07h-.01Z"/><circle class="cls-34" cx="121.07" cy="1012.11" r="18.37"/><path class="cls-20" d="m121.96,1013.62c3.52.92,7.05,1.74,10.6,2.52,2.02.45,4.03.95,5.95,1.71-2.4,7.29-9.24,12.58-17.34,12.62-10.15.05-18.42-8.13-18.47-18.27,0-1.15.11-2.27.3-3.37,6.34,1.52,12.66,3.13,18.96,4.78h0Z"/><circle id="C-6" class="cls-34" cx="121.07" cy="1012.11" r="12.37"/><path class="cls-34" d="m129.8,996.09c2.62,1.58,5.19,3.13,7.55,4.55,10.76,6.46,23.74,15.02,18.3,22.21-5.2,6.88-35.01,7.64-35.01,7.64,0,0-.16-.05-.45-.12,3.18-11.43,6.21-22.9,9.61-34.27h0Z"/><path class="cls-20" d="m120.66,1024.51c4.17.03,9.84-.12,14.81-.93,10.46-1.71,13.67-5.44,15.86-7.75,2.19-2.31,2.28,3.06,2.28,3.06,0,0,2.56,6.02-8.75,9.57-4.81,1.51-15.76,1.98-15.76,1.98l-9.78-.04"/><path class="cls-34" d="m156.66,1017.27s-1.49-6.34-6.6-4.91c-5.11,1.43-4.4,8.22-10.9,13.97-3.98,3.53-10.07,4.11-10.07,4.11,0,0,15.03.09,19.95-.01s7.48-5.95,7.82-8.86c.27-2.28-.2-4.3-.2-4.3h0Z"/><circle id="C-7" class="cls-20" cx="88.07" cy="982.65" r="15.33"/><path class="cls-6" d="m119.63,994.17l-16.24-14.03-30.61,3.55s.42,9.57,1.3,15.66c.88,6.09,14.59,10.74,27.41,8.37s18.14-13.54,18.14-13.54h0Z"/><path class="cls-34" d="m65.06,1004.52c.99-10.79,7.72-20.83,7.72-20.83,0,0,10.26,23.33,21.83,14.46,2.38-1.82-1.63-11.84-1.63-11.84l10.41-6.17s14.29,8.68,26.14,15.84c-3.47,11.56-6.41,22.77-9.64,34.4-5.86-1.62-22.25-6.3-28.7-8.12-8.22-2.32-27.39-5.18-27.39-5.18,0,0,.5-4.22,1.26-12.56h0Z"/><path class="cls-20" d="m120.76,1030.37l-50.81.27c-5.28.03-9.29-4.76-8.33-9.95l.45-2.42c.24-1.31,1.37-2.27,2.7-2.31,4.53-.12,15.83.28,34.7,5.36,5.21,1.4,14.79,3.08,22.82,3.37"/><line class="cls-4" x1="105.08" y1="993.15" x2="113.36" y2="987.42"/><line class="cls-4" x1="111.48" y1="997.59" x2="120.14" y2="991.22"/><line class="cls-4" x1="119.15" y1="1000.91" x2="126.36" y2="995.4"/><circle class="cls-34" cx="86.96" cy="837.65" r="27.4"/><circle id="C-8" class="cls-34" cx="81.49" cy="701.9" r="31.94"/><path class="cls-34" d="m59.58,838.25l54.77-1.17s.56-30.11.48-40.16c-.07-9.67-1.25-29.66-1.44-39.33-.28-14.25.03-56.36.03-56.36l-63.86,1.33s4.76,79.48,6.51,103.23c.75,10.17,3.5,32.46,3.5,32.46h.01Z"/><path class="cls-4" d="m113.59,763.99c-.28-14.25-.31-47.46-.31-47.46l6.87-7.01"/><circle id="C-9" class="cls-34" cx="86.96" cy="837.65" r="15.36"/><polyline class="cls-20" points="103.09 979.57 102.82 930.57 72.5 932.68 72.78 983.69"/><circle class="cls-1" cx="88.07" cy="982.65" r="15.33"/><path class="cls-34" d="m69.9,967.42l5.27-.03,24.66-2.57,4.28,3.39c4.79.21,8.52-2.96,9.76-3.71,1.79-1.08,1.09-3.49,1.3-8.23.28-6.28-.43-23.67-.44-29.17,0-3.54.55-13.89.59-17.64.13-13.43-.1-40.06-.83-47.61-.93-9.56-.14-24.78-.14-24.78l-54.78,1.14s-.01,6.52.04,22.61c.05,14.62.51,32.35.85,40.6.6,14.58,1.05,23.02,1.39,32.69.41,11.85-.68,19.32-.68,19.32-.92,8.63,2.23,12.4,4.5,13.13,1.37.44,2.89.63,4.23.87h0Z"/><path class="cls-34" d="m70.59,977.9s7.14,1.29,9.73,1.28c3.6-.02,12.67-1.7,16.28-1.72,2.53-.01,8.86-1.64,8.86-1.64l-.06-11.6-9.51.05-25.37.14.07,13.49h0Z"/><circle class="cls-20" cx="188.82" cy="641.46" r="15.92"/><circle class="cls-20" cx="158.76" cy="556.24" r="15.92"/><circle id="C-10" class="cls-6" cx="158.76" cy="556.24" r="9.81"/><path class="cls-6" d="m143.75,561.55l30.06,85.22,30.02-10.62s-12.53-38.77-15.44-48.1c-3.91-12.52-14.61-37.12-14.61-37.12"/><path class="cls-20" d="m203.83,636.15s-12.85-38.37-15.44-48.1c-5.19-19.44-14.61-37.12-14.61-37.12"/><line class="cls-3" x1="143.75" y1="561.55" x2="173.81" y2="646.77"/><ellipse class="cls-18" cx="239.71" cy="541.86" rx="3.44" ry="3.34" transform="translate(-305.59 310.1) rotate(-43.11)"/><ellipse id="C-11" class="cls-33" cx="241.67" cy="535.38" rx="2.99" ry="3.07" transform="translate(-128.35 79.17) rotate(-14.75)"/><path class="cls-34" d="m244.64,539.91c-1.46-.29-2.67,1.55-2.95,2.97s1.54,2.57,3,2.86,2.29-1.35,2.23-2.8c-.06-1.42-.83-2.74-2.28-3.03h0Z"/><path class="cls-7" d="m241.84,544.2c-.82-2.58-3.08-8.05-3.08-8.05l5.78-1.52s1.71,5.13,2.39,8.32c-1.73.42-3.36.86-5.09,1.25h0Z"/><path class="cls-34" d="m241.84,544.2c-.82-2.58-3.08-8.05-3.08-8.05"/><path class="cls-34" d="m244.54,534.63s1.71,5.13,2.39,8.32"/><circle id="C-12" class="cls-20" cx="234.8" cy="562.19" r="8.63"/><circle class="cls-20" cx="248.31" cy="551.87" r="3.78"/><path class="cls-6" d="m242.12,566.76l9.35-12.83-5.93-4.65s-1.8.24-3.01-1.52c-1.2-1.74-.53-3.51-.53-3.51l1.39-10.83s.14-1.67-2.35-1.92c-2.44-.24-3.5,1.68-3.5,1.68,0,0-.23-1.98-1.76-2.06-2.36-.13-2.97,2.55-2.97,2.55,0,0-.47-1.27-1.65-1.25-1.23.02-1.92,1.88-1.92,1.88,0,0-3.1,9.58-3.29,14.71-.24,6.42.3,14.33.3,14.33,0,0,4.24-.92,8.34.08,4.43,1.08,7.53,3.33,7.53,3.33h0Z"/><path class="cls-20" d="m242.52,540.28l.88-6.86s.09-1.75-2.06-2.21c-2.4-.51-3.79,1.97-3.79,1.97,0,0,0-1.88-1.76-2.06-2.06-.21-2.97,2.55-2.97,2.55,0,0-.47-1.27-1.65-1.25-1.23.02-1.92,1.88-1.92,1.88,0,0-3.1,9.58-3.29,14.71-.24,6.42.3,14.33.3,14.33"/><line class="cls-3" x1="242.12" y1="566.76" x2="251.48" y2="553.94"/><line class="cls-3" x1="235.08" y1="536.78" x2="237.55" y2="533.19"/><line class="cls-3" x1="231.34" y1="536.62" x2="232.82" y2="533.68"/><path class="cls-3" d="m245.54,549.28s-1.77.47-3.01-1.52c-1.12-1.79.14-4.38.14-4.38"/><ellipse id="C-13" class="cls-21" cx="249.94" cy="530.76" rx="2.67" ry="2.6" transform="translate(-271.41 261.74) rotate(-37.49)"/><path class="cls-20" d="m248.62,528.48c1.44-.84,3.02-1.84,3.86-2.1,2.24-.68,3.68,1.29,2.73,2.98-.4.71-2.02,2.12-3.67,3.4"/><ellipse id="C-14" class="cls-16" cx="245.59" cy="534.31" rx="3.01" ry="2.93" transform="translate(-293.13 298.56) rotate(-41.68)"/><path class="cls-6" d="m251.5,532.79c-1.98,1.75-2.73,2.61-4.05,3.83-1.25-1.5-2.56-2.95-3.83-4.44,1.95-1.56,2.86-2.19,4.78-3.55.75.96,2.74,3.71,3.1,4.16h0Z"/><path class="cls-3" d="m251.5,532.79c-1.98,1.75-2.73,2.61-4.05,3.83"/><path class="cls-3" d="m243.62,532.18c1.95-1.56,2.86-2.19,4.78-3.55"/><ellipse id="C-15" class="cls-6" cx="239.73" cy="541.77" rx="1.76" ry="1.72" transform="translate(-323.68 358.59) rotate(-48.12)"/><path class="cls-6" d="m247.8,536.29c-1.9,2.35-5.28,7.36-5.28,7.36l-5.29-4.07s3.69-4.7,6.25-7.29c1.45,1.36,2.88,2.63,4.31,4h.01Z"/><path class="cls-3" d="m247.8,536.29c-1.9,2.35-5.28,7.36-5.28,7.36"/><path class="cls-3" d="m237.23,539.58s3.69-4.7,6.25-7.29"/><circle id="C-16" class="cls-20" cx="253.44" cy="545.3" r="2.94"/><path class="cls-20" d="m250.69,544.26c.99-3.04,2.41-6.72,4.87-6.17,2,.45,1.38,4.75.69,8.06"/><circle id="C-17" class="cls-6" cx="248.31" cy="551.87" r="2.03"/><path class="cls-6" d="m251.18,543.42c1.15,1.02,4.3,3.32,4.64,3.61-.5.81-1.4,2.31-1.69,2.77-1.32,2.12-2.65,4.14-2.65,4.14l-5.93-4.65s1.79-1.95,4.44-4.66c.07-.07,1.13-1.12,1.2-1.2h-.01Z"/><path class="cls-3" d="m245.54,549.28s1.77-2,4.12-4.34c.57-.57,1.46-1.44,1.52-1.52"/><path class="cls-3" d="m255.82,547.03c-.5.81-1.4,2.31-1.69,2.77-1.32,2.12-2.65,4.14-2.65,4.14"/><circle id="C-18" class="cls-30" cx="188.82" cy="641.46" r="8.95"/><path class="cls-20" d="m202.69,649.28s14.63-25.93,19.51-34.57c4.82-8.55,24.97-44.08,24.97-44.08,0,0-9.03-7.2-15.63-12.05-5.15-3.78-12.11-3.6-12.11-3.6,0,0-4.55,9.07-12.48,19.36-5.57,7.23-14.43,25.18-18.41,32.9-3.27,6.35-7.96,12.41-10.35,17.4-2.22,4.64-3.81,10.18-4.11,10.78"/><circle id="C-19" class="cls-1" cx="111.41" cy="661.53" r="43.97"/><circle class="cls-20" cx="61.2" cy="555.94" r="15.92"/><path class="cls-6" d="m166.68,542.43s-14.83-9.01-30.09-11.64c-12.66-2.18-32.2-4.13-47.42-1.49-21.9,3.79-35.97,12.88-35.97,12.88,0,0,4.34,55.62,4.07,71.12-.1,5.81.23,11.99-.24,18.1-.78,10.19-2.14,20.18.67,27.83,1.99,5.4,8.03,4.58,8.03,4.58,0,0,56.98-6.2,71.67-4.59,7.46.82,14.57,1.34,19.76,1.65,6.92.42,12.25-1,10.77-10.74-.02-.11-.38-2.66-.39-2.77-1.06-7.52-3.1-24.97-2.45-36.04.7-12.05-.98-28.09-.81-38.42"/><path class="cls-3" d="m54.51,573.65c1.2,9,.52,16.3.92,22.28.51,7.56,1.91,13.04,1.84,17.36s.47,15.57-.6,20.62c-2.16,10.17-.62,21.5,1.04,25.31,2.29,5.28,8.03,4.58,8.03,4.58,0,0,56.98-6.2,71.67-4.59,7.46.82,14.57,1.34,19.76,1.65,6.92.42,12.25-1,10.77-10.74-.02-.11-.38-2.66-.39-2.77-1.06-7.52-3.1-24.97-2.45-36.04.7-12.05-.98-28.09-.81-38.42"/><path class="cls-3" d="m166.68,542.43s-14.83-9.01-30.09-11.64c-12.66-2.18-32.2-4.13-47.42-1.49-21.9,3.79-35.97,12.88-35.97,12.88"/><path class="cls-3" d="m140.88,659.87s-12.7-3.22-16.85-4.32c-6.16-1.64-15.28-5.17-15.28-5.17"/><path class="cls-34" d="m137.28,538.48l-.87-11.46s.9-5.85-15.19-6.54c-22.01-.94-22.42,4.94-22.42,4.94v12.87s-1.02,5.18,15.12,5.88c17.03.73,23.35-5.68,23.35-5.68h.01Z"/><circle id="C-20" class="cls-1" cx="118.28" cy="540.32" r="19.48"/><circle class="cls-20" cx="117.17" cy="506.17" r="10.54"/><path id="C-21" class="cls-20" d="m106.96,528.06c0,4.23,5.7,4.73,11.52,4.73s9.89-1.37,9.57-4.73c-.56-5.8-4.72-10.54-10.54-10.54s-10.54,4.72-10.54,10.54h0Z"/><polyline class="cls-6" points="128.05 528.55 127.76 506.17 106.63 506.37 106.97 528.46"/><line class="cls-3" x1="106.63" y1="506.37" x2="106.97" y2="528.46"/><line class="cls-3" x1="128.05" y1="528.55" x2="127.76" y2="506.17"/><path class="cls-9" d="m238.98,647.35l3.27-6.99c1.2-2.56.48-5.61-1.73-7.37l-4.68-3.72c-1.65-1.31-2.47-3.38-2.23-5.48.26-2.21.36-4.41.3-6.61-.05-2.1,1.02-4.08,2.78-5.23l4.93-3.23c2.36-1.55,3.35-4.52,2.39-7.18l-2.62-7.26c-.96-2.66-3.62-4.31-6.43-3.99l-5.85.67c-2.09.24-4.18-.59-5.49-2.24-1.36-1.72-2.85-3.36-4.46-4.89-1.53-1.45-2.22-3.57-1.79-5.64l1.22-5.84c.58-2.77-.82-5.57-3.38-6.77l-6.99-3.27c-2.56-1.2-5.61-.48-7.37,1.73l-3.71,4.67c-1.31,1.65-3.39,2.47-5.48,2.23-2.21-.26-4.42-.36-6.61-.3-2.11.05-4.08-1.02-5.24-2.79l-3.22-4.92c-1.55-2.36-4.52-3.35-7.18-2.39l-7.25,2.62c-2.66.96-4.31,3.62-3.99,6.43l.67,5.84c.24,2.09-.59,4.18-2.24,5.49s-3.36,2.85-4.89,4.46c-1.46,1.53-3.58,2.22-5.64,1.79l-5.83-1.21c-2.77-.58-5.57.82-6.77,3.38l-3.27,6.99c-1.2,2.56-.48,5.61,1.73,7.37l4.66,3.7c1.65,1.31,2.47,3.39,2.23,5.48-.26,2.21-.36,4.42-.3,6.62s-1.02,4.08-2.79,5.24l-4.91,3.22c-2.36,1.55-3.35,4.52-2.39,7.18l2.62,7.25c.96,2.66,3.62,4.31,6.43,3.99l5.84-.67c2.09-.24,4.18.59,5.49,2.24,1.36,1.72,2.85,3.36,4.46,4.89,1.53,1.45,2.22,3.58,1.79,5.64l-1.22,5.84c-.58,2.77.82,5.57,3.38,6.77l6.99,3.27c2.56,1.2,5.61.48,7.37-1.73l3.71-4.67c1.31-1.65,3.39-2.47,5.48-2.23,2.21.26,4.42.35,6.61.3s4.08,1.02,5.23,2.78l3.23,4.92c1.55,2.36,4.52,3.35,7.18,2.39l7.25-2.62c2.66-.96,4.31-3.62,3.99-6.43l-.67-5.85c-.24-2.09.59-4.18,2.24-5.49,1.72-1.36,3.35-2.85,4.89-4.46,1.45-1.53,3.57-2.22,5.64-1.79l5.85,1.22c2.77.58,5.57-.82,6.77-3.38v.03Zm-61.73-9.86c-10.73-5.03-13.33-17.95-7.98-28.61,5.03-10.02,13.77-11.79,24.02-7.23,10.86,4.83,17.07,14.99,12.06,25.68-4.95,10.56-17.52,15.12-28.1,10.16h0Z"/><circle class="cls-20" cx="61.46" cy="646.3" r="15.92"/><circle class="cls-1" cx="61.2" cy="555.94" r="15.92"/><circle id="C-22" class="cls-6" cx="61.2" cy="555.94" r="9.81"/><path class="cls-6" d="m77.12,555.91l.26,90.36-31.84.06s-1.2-40.72-1.58-50.49c-.51-13.11,1.32-39.87,1.32-39.87"/><path class="cls-20" d="m45.54,646.33s-1.29-40.43-1.58-50.49c-.46-15.95,1.32-39.87,1.32-39.87"/><line class="cls-3" x1="77.12" y1="555.91" x2="77.38" y2="646.27"/><g id="Artwork_2958"><ellipse id="C-23" class="cls-27" cx="172.72" cy="671.95" rx="1.72" ry="1.68" transform="translate(-192.94 82.33) rotate(-17.39)"/><path class="cls-20" d="m173.34,673.53c.98-.45,1.9-.87,2.35-1.22,1.19-.93.69-2.43-.56-2.55-.52-.05-1.67.24-2.97.64"/><ellipse id="C-24" class="cls-23" cx="167.49" cy="673.5" rx="1.95" ry="1.89" transform="translate(-152.71 57.77) rotate(-13.51)"/><path class="cls-6" d="m172.17,670.39c-1.66.41-4.05,1.03-5.18,1.28.33,1.22.62,2.45.94,3.67,1.55-.46,3.87-1.25,5.3-1.77-.23-.75-.96-2.82-1.06-3.18Z"/><path class="cls-3" d="m172.17,670.39c-1.66.41-4.05,1.03-5.18,1.28"/><path class="cls-3" d="m167.93,675.34c1.55-.46,3.87-1.25,5.3-1.77"/><ellipse id="C-25" class="cls-26" cx="162.83" cy="674.18" rx="2.22" ry="2.16" transform="translate(-107.26 35.36) rotate(-9.34)"/><path class="cls-6" d="m167.12,671.65c-1.94.22-4.73.44-4.73.44l.7,4.26s2.4-.48,4.7-.98c-.23-1.26-.43-2.47-.67-3.73h0Z"/><path class="cls-3" d="m167.12,671.65c-1.94.22-4.73.44-4.73.44"/><path class="cls-3" d="m163.1,676.35s2.4-.48,4.7-.98"/><ellipse id="C-26" class="cls-28" cx="175.3" cy="667.3" rx="2.1" ry="2.05" transform="translate(-193.57 84.24) rotate(-17.6)"/><path class="cls-20" d="m176.2,669.11c1.19-.56,2.31-1.07,2.86-1.5,1.45-1.14.83-2.96-.69-3.11-.64-.06-2.04.3-3.62.79"/><ellipse id="C-27" class="cls-29" cx="169.08" cy="669.08" rx="2.37" ry="2.31" transform="translate(-153.97 59.25) rotate(-13.73)"/><path class="cls-6" d="m174.75,665.29c-2.02.5-4.93,1.28-6.31,1.59.41,1.48.77,2.98,1.17,4.47,1.88-.57,4.72-1.55,6.46-2.18-.29-.91-1.18-3.44-1.31-3.87h-.01Z"/><path class="cls-3" d="m174.75,665.29c-2.02.5-4.93,1.28-6.31,1.59"/><path class="cls-3" d="m169.61,671.35c1.88-.57,4.72-1.55,6.46-2.18"/><ellipse id="C-28" class="cls-17" cx="163.22" cy="670.04" rx="2.71" ry="2.64" transform="translate(-108.9 36.37) rotate(-9.55)"/><path class="cls-6" d="m168.6,666.84c-2.37.27-5.76.56-5.76.56l.87,5.2s2.92-.6,5.73-1.21c-.29-1.54-.53-3.01-.84-4.54h0Z"/><path class="cls-3" d="m168.6,666.84c-2.37.27-5.76.56-5.76.56"/><path class="cls-3" d="m163.72,672.59s2.92-.6,5.73-1.21"/><ellipse id="C-29" class="cls-28" cx="175.97" cy="662.37" rx="2.25" ry="2.19" transform="translate(-192.04 84.21) rotate(-17.6)"/><path class="cls-20" d="m176.92,664.31c1.28-.59,2.47-1.14,3.06-1.6,1.55-1.22.89-3.17-.74-3.33-.68-.07-2.18.32-3.87.84"/><ellipse id="C-30" class="cls-29" cx="169.32" cy="664.28" rx="2.54" ry="2.47" transform="translate(-152.83 59.17) rotate(-13.73)"/><path class="cls-6" d="m175.38,660.22c-2.16.54-5.28,1.37-6.75,1.7.44,1.59.82,3.19,1.25,4.78,2.02-.61,5.05-1.65,6.91-2.34-.31-.98-1.26-3.68-1.4-4.14h-.01Z"/><path class="cls-3" d="m175.38,660.22c-2.16.54-5.28,1.37-6.75,1.7"/><path class="cls-3" d="m169.88,666.7c2.02-.61,5.05-1.65,6.91-2.34"/><ellipse id="C-31" class="cls-17" cx="163.05" cy="665.29" rx="2.9" ry="2.82" transform="translate(-108.12 36.27) rotate(-9.55)"/><path class="cls-6" d="m168.8,661.88c-2.53.29-6.16.6-6.16.6l.94,5.56s3.12-.64,6.13-1.3c-.31-1.64-.57-3.22-.9-4.86h-.01Z"/><path class="cls-3" d="m168.8,661.88c-2.53.29-6.16.6-6.16.6"/><path class="cls-3" d="m163.57,668.03s3.12-.64,6.13-1.3"/><circle id="C-32" class="cls-20" cx="161.12" cy="651.39" r="2.94"/><path class="cls-20" d="m162.62,653.92c2.83-1.5,6.2-3.53,5.23-5.87-.78-1.89-4.92-.54-8.06.71"/><circle id="C-33" class="cls-20" cx="153.82" cy="655.41" r="3.78"/><path class="cls-6" d="m162.62,653.92c-.83-1.3-2.59-4.77-2.82-5.15-.88.37-2.5,1.02-3,1.23-2.3.96-4.51,1.96-4.51,1.96l3.65,6.6s3.18-2.84,5.75-4.18c.09-.05.84-.4.93-.45h0Z"/><path class="cls-3" d="m155.93,658.55s3.18-2.84,5.75-4.18c.09-.05.84-.4.93-.45"/><path class="cls-3" d="m159.79,648.77c-.88.37-2.5,1.02-3,1.23-2.3.96-4.51,1.96-4.51,1.96"/><circle id="C-34" class="cls-20" cx="175.02" cy="657.33" r="2.28"/><path class="cls-20" d="m175.79,659.48c1.34-.51,2.59-.98,3.22-1.41,1.66-1.13,1.12-3.21-.52-3.51-.69-.13-2.23.15-3.98.55"/><circle id="C-35" class="cls-20" cx="168.17" cy="659.31" r="2.58"/><path class="cls-6" d="m174.36,655.14c-2.2.53-5.36,1.35-6.86,1.67.45,1.66.83,3.33,1.26,5,2.05-.6,5.13-1.65,7.02-2.33-.31-1.02-1.28-3.85-1.42-4.34h0Z"/><path class="cls-3" d="m174.36,655.14c-2.2.53-5.36,1.35-6.86,1.67"/><path class="cls-3" d="m168.76,661.81c2.05-.6,5.13-1.65,7.02-2.33"/><circle id="C-36" class="cls-20" cx="161.97" cy="660.68" r="2.94"/><path class="cls-6" d="m167.5,656.82c-2.55.46-6.2,1-6.2,1l1.35,5.72s3.12-.86,6.11-1.73c-.44-1.69-.81-3.31-1.26-5h0Z"/><path class="cls-3" d="m167.5,656.82c-2.55.46-6.2,1-6.2,1"/><path class="cls-3" d="m162.65,663.54s3.12-.86,6.11-1.73"/><circle id="C-37" class="cls-20" cx="147.29" cy="664.43" r="8.63"/><path class="cls-6" d="m143.02,656.92s3.81-2.31,4.84-2.82c2.29-1.13,4.2-2.04,4.2-2.04l3.42,6.75,5.81-.99s1.85,4.23,2.35,9.95c.55,6.23-.44,8.51-.44,8.51,0,0-1.49.41-8.02-.99-2.07-.44-10.28-2.56-10.28-2.56l-1.89-15.8h0Z"/><path class="cls-3" d="m163.21,676.29s-1.49.41-8.02-.99c-2.07-.44-10.28-2.56-10.28-2.56"/><line class="cls-3" x1="155.49" y1="658.81" x2="161.3" y2="657.82"/><path class="cls-3" d="m142.64,657.15s4.19-2.54,5.22-3.05c2.29-1.13,4.2-2.04,4.2-2.04"/></g><circle id="C-38" class="cls-30" cx="61.46" cy="646.3" r="8.95"/><path class="cls-20" d="m64.58,630.69s29.2,5.84,38.93,7.78c9.62,1.92,49.7,9.85,49.7,9.85,0,0-.44,11.54-1.07,19.7-.49,6.37-5.17,11.52-5.17,11.52,0,0-9.85-2.47-22.81-3.18-9.11-.5-28.5-5.5-36.95-7.52-6.95-1.66-14.6-2.07-19.94-3.52-4.96-1.35-10.2-3.75-10.85-3.92"/><g id="Artwork_2873"><path class="cls-34" d="m180.95,497.67c-.82-13.83-14.52-64.44-28.14-79.11-23.56-25.39-68.25-12.01-79.05,7.41-12.57,22.59-7.79,48-8.34,62.36s-5.46,18.37-2.95,27.37,3.44,21.19,34.72,25.22c31.28,4.03,61.68,3.68,75.64-13.47,7.89-9.7,8.57-22.07,8.11-29.77h.01Z"/><circle class="cls-20" cx="115.76" cy="506.22" r="10.54"/><circle id="C-39" class="cls-20" cx="117.18" cy="528.07" r="10.54"/><polyline class="cls-6" points="127.73 528.03 126.33 505.69 105.24 506.94 106.67 528.98"/><line class="cls-3" x1="105.24" y1="506.94" x2="106.67" y2="528.98"/><line class="cls-3" x1="127.73" y1="528.03" x2="126.33" y2="505.69"/><path class="cls-20" d="m142.83,416.1c10.93,6.57,14.78,15.12,15.21,27.86.52,15.37,4.98,23.36-1.68,43.41-5.96,17.94-14.89,24.27-27.34,25.29-12.44,1.02-33.74-16.06-40.04-32.68s-11.49-16.13-12.36-33.57,10.58-29.51,36.76-33.9c10.62-1.78,22.92-.34,29.45,3.58h0Z"/><path class="cls-3" d="m134.93,477.16s5.4-.23,5.29-3.44c-.04-1.25-3.11-10.72-3.42-12.23"/><path class="cls-3" d="m142.91,483.83s-1.36,3.72-6.31,3.85c-4.57.12-7.98-4.3-7.98-4.3"/><ellipse class="cls-32" cx="149.27" cy="464.88" rx="1.93" ry="2.94" transform="translate(-29.77 10.63) rotate(-3.71)"/><ellipse class="cls-32" cx="116.95" cy="467.33" rx="1.66" ry="2.53" transform="translate(-29.99 8.55) rotate(-3.71)"/><path class="cls-7" d="m159.02,453.5c.54-1.08-2.47-3.99-6.82-4.59-4.34-.61-9.75.44-8.76,1.9,1,1.46,7.61,1.39,10.03,2.29,2.42.9,5.09,1.31,5.54.41h.01Z"/><path class="cls-7" d="m104.81,457.34c-.42-.67,1.94-4.27,6.17-5.44,4.23-1.16,9.73-.82,8.93.75-.8,1.57-7.37,2.36-9.66,3.56-2.29,1.21-5.02,1.78-5.44,1.12h0Z"/><path class="cls-20" d="m87.53,465.88s-6.04-7.4-12.92-2.48c-8.26,5.91,4.34,23.96,11.3,21,.96-.41,1.92-1.23,2.69-2,1.03-1.04,1.5-2.5,1.3-3.94l-.34-2.48"/><path class="cls-20" d="m81,470l4,3.54s-1.69.39-2.4,3.16"/><path class="cls-20" d="m164.27,445.78s-4.14.46-8.25-3.64c-8.84-8.82-10.43-20.98-10.43-20.98,0,0-5.58,7.01-19.61,18.87-22.99,19.42-59.92,27.18-59.92,27.18,0,0-11.75-67.92,66.72-60.93,32.05,2.85,31.49,39.51,31.49,39.51h0Z"/><path class="cls-34" d="m62.48,515.69c2.5,9,3.44,21.19,34.72,25.22,31.28,4.03,61.68,3.68,75.64-13.47,7.89-9.7,8.57-22.07,8.11-29.77-.7-10.87-3.38-21.84-5.98-32.36-.28-1.12-.56-2.25-.97-3.33-.66-1.73-1.65-3.31-2.52-4.95-1-1.9-1.85-3.97-2.07-6.13-.21-2.01.2-3.43-.51-5.34-1.51-4.04-2.95-8.09-4.69-12.05-2.79-6.32-6.05-12.97-11.03-17.88-12.18-12.05-28.35-13.46-44.49-11.71-1.61.17-3.24.36-4.72,1.01-.83.37-1.59.88-2.4,1.3-1.11.59-2.3,1.01-3.48,1.43-8.91,3.17-20.16,9.09-24.32,18.3-12.57,22.59-7.79,48-8.34,62.36s-5.46,18.37-2.95,27.37h0Zm37.19-70.86c8.81-12.24,33.8-23.79,33.8-23.79,0,0,27.77,22.46,32.36,40.78,4.58,18.31-3.31,36.12-3.31,36.12-9.49,17.6-23.82,21.6-34.49,21.26-12.24-.39-20.75-9.43-28.44-23.25-6.6-11.85-8.73-38.87.08-51.11h0Z"/><path class="cls-34" d="m113.61,529.81c-19,.13-25.86-7.04-36.4-10.05s-19.17,2.6-21.67,7.4-4.16,15.79-4.16,15.79c0,0,8.14,2.49,22.26,3.79,14.12,1.29,25.32,17.37,49.8,20.25,23.23,2.73,35.59-4.49,44.77-11.95,6.53-5.31,10.79-10.8,13.63-16.8,6.5-13.71-1.3-45.85-1.3-45.85,0,0-21.17,37.12-66.94,37.42h.01Z"/><path class="cls-4" d="m111.87,414.76c-13.24,4.38-27.74,19.52-29.31,30.96"/><path class="cls-4" d="m168.84,506.8s-5.52,27.46-51.29,27.77c-19,.13-29.8-11.8-40.33-14.81"/><path class="cls-4" d="m146.73,535.44s-7.61,8.02-22.64,11.11c-16.68,3.44-29.07-2.84-29.07-2.84"/><path class="cls-4" d="m170.67,535.04s-10.37,13.16-26.88,18.22-35.88-6.05-35.88-6.05"/><path class="cls-4" d="m133.47,421.04s16.5,12.95,26.7,29.88c5.32,8.84,7.6,22.8,6.97,29.55-1.12,11.98-6,22.54-11.53,27.19-16.05,13.51-28.75,11.47-28.75,11.47"/></g><g id="Artwork_2803"><circle class="cls-20" cx="952.8" cy="118.31" r="10.54"/><circle id="C-40" class="cls-20" cx="952.81" cy="140.2" r="10.54"/><polyline class="cls-6" points="942.28 140.85 942.22 118.47 963.35 118.34 963.35 140.43"/><line class="cls-3" x1="963.35" y1="118.34" x2="963.35" y2="140.43"/><line class="cls-3" x1="942.28" y1="140.85" x2="942.22" y2="118.47"/><path class="cls-20" d="m963.34,118.14s2.1-3.13,5.01-5.2c6.89-4.89,11.97-10.12,16.97-17.69,9.49-14.37,10.71-29.93,8.32-44.89-3.04-19.01-15.65-24.32-44.77-27.28-11.82-1.2-23.35-6.14-30.26-1.35-11.56,8.01-11.7,18.13-11.26,32.19.53,16.95-9.1,31.06-1.15,49.73,6.95,16.33,22.71,22.74,41.64,20.44"/><path class="cls-34" d="m954.24,119.64c.06.01,2.25.2,5.19-.07,4.51-.42,4.42-2.36,7.69-5.49.58-.55,1.05-.97,1.23-1.13,6.38-5.54,16.7-11.77,21.7-19.35,9.49-14.37,12.12-22.9,12.06-41.69-.06-19.26-24.12-25.87-53.24-28.83-7.18-.73-8.03-2.39-15.77-.62-11.49-.35-15.96-.28-22.14,4.01-6.78,4.7,1.44,4.48,3.72,4.28,4-.35,6.99,1.96,11.38,9.21,7.04,11.62,2.5,27.58,1.93,32.4-1.02,8.68,3.81,10.73,6.1,11.99.46.25.91.55,1.35.86-1.03,1.21-1.67,2.07-1.51,2.59,1.14,3.76,4.52,1.05,6.15,6.47,0,0-2.01,5.33,0,11.22,1.48,4.34,4.75,8.63,6.22,9.81,2.3,1.85,5.2,3.75,7.93,4.35h.01Z"/><path class="cls-34" d="m953.07,91.49l14.79-20.36-7.23,5.97s4.65-9.09.39-16.45c-4.26-7.36-1.26-19.57-1.26-19.57,0,0-4.72,6.28-11.51,5.96l-6.79-.32,10.44-9.74s-12.51,9.16-25.88,8.14c-14.05-1.07-14.24-3.27-14.24-3.27,0,0,7.26-1.71,10.62-4.56,4.37-3.72,4.17-6.97,4.17-6.97,0,0-10.24,8.69-25.65,1.01-8.09-4.03-16.37-20.92-16.37-20.92,0,0,15.08,4.05,38.54-4.9,19.42-7.4,28.92-5.29,39.61,1.4,6.08,3.8,7.19,4.65,7.19,4.65l6.08-4.65-1.79,7.65s14.15.67,22.29,10.43c8.14,9.76,6.03,35.68,3.12,43.35s-37.82,22.46-37.82,22.46l-8.69.67v.02Z"/><path class="cls-30" d="m903.05,88.52s-4-.78-3.58-3.8c.1-.71.51-1.62,1.85-3.32,1.32-1.68,2.21-2.64,2.93-4.7,0,0,1.43,3.59,1.43,6.86s-2.64,4.96-2.64,4.96h0Z"/><path class="cls-3" d="m904.25,76.7c-.72,2.06-.79,3.02-2.3,4.73-1.89,2.15-2.39,2.58-2.49,3.29-.42,3.02,3.58,4.14,3.58,4.14l.15-3.46"/><ellipse class="cls-34" cx="909.83" cy="76.25" rx="1.83" ry="2.79"/><path class="cls-7" d="m918.58,66.38c.2-.33.24-1.55-.73-2.32-2.29-1.81-6.39-2.45-8.88-1.76-1.41.39-1.74.74-2.19,1.37-.57.8-.4,2.59.52,3.37h0c.47.39,1.65-.14,2.08-.34,1.05-.5,1.63-.59,3.45-.71,2.55-.17,4.74,2.03,5.75.39Z"/><path class="cls-20" d="m926.07,81.95s7.75-10.98,15.67-6.05c9.51,5.91-3.06,26.68-10.93,23.91-.98-.35-1.95-1.02-2.75-1.69-1.25-1.05-1.94-2.64-1.81-4.27l.21-2.75"/><path class="cls-20" d="m935.19,83.62l-4.15,4.18s1.89.3,2.87,3.31"/><path class="cls-7" d="m912.38,90.32s-3.34,1.73-6.63.88c-2.07-.53-4.83-.88-5.18,2.09-.24,2.03,2.79,4.87,7.21,2.93,4.18-1.84,4.6-5.9,4.6-5.9h0Z"/></g><ellipse id="C-41" class="cls-25" cx="856.57" cy="132.58" rx="2.36" ry="2.43" transform="translate(718.47 988.28) rotate(-89.63)"/><path class="cls-20" d="m856.41,130.25c-1.51.19-3.78.32-4.54.6-2,.73-1.97,2.96-.35,3.66.68.3,3.21.43,5.11.45"/><ellipse id="C-42" class="cls-19" cx="863.07" cy="132.8" rx="2.67" ry="2.74" transform="translate(666.67 983.65) rotate(-85.75)"/><path class="cls-6" d="m856.7,134.97c2.4.17,4.64.35,6.27.5.07-1.78.22-3.55.31-5.32-2.27-.05-4.5.02-6.64.1,0,1.11.07,4.2.06,4.72h0Z"/><path class="cls-3" d="m856.7,134.97c2.4.17,4.64.35,6.27.5"/><path class="cls-3" d="m863.28,130.14c-2.27-.05-4.5.02-6.64.1"/><ellipse id="C-43" class="cls-14" cx="868.47" cy="139.54" rx="3.04" ry="3.13" transform="translate(133.81 623.26) rotate(-42.49)"/><path class="cls-6" d="m861.01,134.54c1.75,2.12,4.93,6.67,4.93,6.67l4.77-3.76s-3.4-4.27-5.76-6.61c-1.31,1.25-2.64,2.42-3.94,3.69h0Z"/><path class="cls-3" d="m861.01,134.54c1.75,2.12,4.93,6.67,4.93,6.67"/><path class="cls-3" d="m870.71,137.46s-3.4-4.27-5.76-6.61"/><ellipse id="C-44" class="cls-25" cx="853.35" cy="135.39" rx="2.36" ry="2.43" transform="translate(712.46 987.84) rotate(-89.63)"/><path class="cls-20" d="m853.18,133.06c-1.51.19-3.78.32-4.54.6-2,.73-1.97,2.96-.35,3.66.68.3,3.21.43,5.11.45"/><ellipse id="C-45" class="cls-19" cx="859.84" cy="135.61" rx="2.67" ry="2.74" transform="translate(660.88 983.04) rotate(-85.75)"/><path class="cls-6" d="m853.47,137.78c2.4.17,4.64.35,6.27.5.07-1.78.22-3.55.31-5.32-2.27-.05-4.5.02-6.64.1,0,1.11.07,4.2.06,4.72h0Z"/><path class="cls-3" d="m853.47,137.78c2.4.17,4.64.35,6.27.5"/><path class="cls-3" d="m860.05,132.95c-2.27-.05-4.5.02-6.64.1"/><ellipse id="C-46" class="cls-14" cx="865.25" cy="142.35" rx="3.04" ry="3.13" transform="translate(131.06 621.82) rotate(-42.49)"/><path class="cls-6" d="m857.79,137.35c1.75,2.12,4.93,6.67,4.93,6.67l4.77-3.76s-3.4-4.27-5.76-6.61c-1.31,1.25-2.64,2.42-3.94,3.69h0Z"/><path class="cls-3" d="m857.79,137.35c1.75,2.12,4.93,6.67,4.93,6.67"/><path class="cls-3" d="m867.48,140.27s-3.4-4.27-5.76-6.61"/><ellipse id="C-47" class="cls-25" cx="850.78" cy="139.46" rx="2.36" ry="2.43" transform="translate(705.83 989.33) rotate(-89.63)"/><path class="cls-20" d="m850.61,137.14c-1.51.19-3.78.32-4.54.6-2,.73-1.97,2.96-.35,3.66.68.3,3.21.43,5.11.45"/><ellipse id="C-48" class="cls-19" cx="857.27" cy="139.7" rx="2.67" ry="2.74" transform="translate(654.43 984.25) rotate(-85.75)"/><path class="cls-6" d="m850.91,141.85c2.4.17,4.64.35,6.27.5.07-1.78.22-3.55.31-5.32-2.27-.05-4.5.02-6.64.1,0,1.11.07,4.2.06,4.72h0Z"/><path class="cls-3" d="m850.91,141.85c2.4.17,4.64.35,6.27.5"/><path class="cls-3" d="m857.48,137.03c-2.27-.05-4.5.02-6.64.1"/><ellipse id="C-49" class="cls-14" cx="862.68" cy="146.43" rx="3.04" ry="3.13" transform="translate(127.64 621.16) rotate(-42.49)"/><path class="cls-6" d="m855.22,141.43c1.75,2.12,4.93,6.67,4.93,6.67l4.77-3.76s-3.4-4.27-5.76-6.61c-1.31,1.25-2.64,2.42-3.94,3.69h0Z"/><path class="cls-3" d="m855.22,141.43c1.75,2.12,4.93,6.67,4.93,6.67"/><path class="cls-3" d="m859.15,137.75c2.36,2.34,5.76,6.61,5.76,6.61"/><circle id="C-50" class="cls-3" cx="861.74" cy="157.08" r="3.78"/><circle id="C-51" class="cls-20" cx="875.87" cy="162.67" r="8.63"/><path class="cls-6" d="m860.14,148.11l2.11,3.07,2.4,3.5-6.21,4.28s2.99,4.21,6.88,7.12c2.42,1.82,7.72,4.76,7.72,4.76,0,0,1.21-5.72,3.84-8.17,3.08-2.86,6.9-3.43,6.9-3.43,0,0-4.5-8.64-5.94-11.04-1.68-2.79-6.92-10.47-6.92-10.47,0,0-3.53,3.66-4.96,5-3.2,2.99-5.82,5.38-5.82,5.38h0Z"/><polyline class="cls-3" points="860.14 148.11 862.25 151.17 864.65 154.67"/><path class="cls-3" d="m883.79,159.23s-4.73-9.04-6.77-12.47c-2.24-3.76-6.09-9.04-6.09-9.04"/><path class="cls-3" d="m858.45,158.95s2.49,3.49,6.88,7.12c3.87,3.21,7.72,4.76,7.72,4.76"/><circle id="C-52" class="cls-20" cx="857.01" cy="150.21" r="2.94"/><path class="cls-20" d="m859.27,148.33c-1.94-2.55-4.48-5.55-6.63-4.22-1.74,1.08.25,4.94,2,7.84"/><circle id="C-53" class="cls-6" cx="861.74" cy="157.08" r="2.03"/><path class="cls-6" d="m859.38,148.47c-1.21.95-4.49,3.05-4.85,3.32.45.84,1.26,2.39,1.52,2.86,1.19,2.2,2.4,4.3,2.4,4.3l6.21-4.28s-1.67-2.06-4.15-4.92c-.07-.08-1.06-1.18-1.12-1.27h-.01Z"/><path class="cls-3" d="m864.65,154.67s-1.65-2.11-3.84-4.58c-.53-.6-1.36-1.52-1.42-1.61"/><path class="cls-3" d="m854.53,151.79c.45.84,1.26,2.39,1.52,2.86,1.19,2.2,2.4,4.3,2.4,4.3"/><circle class="cls-20" cx="937.32" cy="229.31" r="13.67"/><path class="cls-6" d="m945.63,218.45l-22.45-21.76-15.11-15.64-24.78-22.84s-2.76.71-6.86,4.27c-4,3.47-6.42,6.55-6.42,6.55,0,0,6.31,8.9,17.23,22.2,7.29,8.88,13.96,17.81,20.42,26.09,9.08,11.63,20.41,22.07,20.58,22.22"/><path class="cls-3" d="m870.02,169.03s7.33,10.13,16.5,21.31c8.56,10.43,17.53,22.65,25.56,32.4,7.44,9.04,16.02,16.66,16.17,16.8"/><path class="cls-3" d="m945.63,218.45s-9.56-9.74-12.84-12.88c-2.69-2.56-10.86-10.03-10.86-10.03,0,0-9.69-10.43-13.07-13.76-6.19-6.1-25.56-23.57-25.56-23.57"/><circle id="C-54" class="cls-30" cx="937.32" cy="229.31" r="6.55"/><circle class="cls-1" cx="937.32" cy="229.31" r="13.67"/><circle class="cls-34" cx="1001.93" cy="165.35" r="15.92"/><circle id="C-55" class="cls-34" cx="1001.93" cy="165.35" r="9.81"/><path class="cls-6" d="m1013.39,176.4l-64.97,60.89-20.56-17.86s27.41-30.12,33.93-37.41c8.75-9.78,28.68-27.73,28.68-27.73"/><path class="cls-3" d="m927.86,219.43s27.54-29.63,33.93-37.41c12.78-15.54,28.68-27.73,28.68-27.73"/><line class="cls-3" x1="1013.39" y1="176.4" x2="948.42" y2="237.29"/><path class="cls-34" d="m992.71,152.37s-7.66,4.61-15.3,10.68c-9.04,7.18-21.98,15.52-26.88,20.3,1.43,3.25,8.71,14.19,13.76,19.81,9.74,10.86,14.65,13.25,14.96,13.71l34.14-40.48"/><circle id="C-56" class="cls-34" cx="954.6" cy="282.29" r="43.97"/><path class="cls-6" d="m998.57,282.29l11.73-130.47s-13.52-5.82-22.22-7.81c-5.79-1.33-12.85-2.51-20.26-2.95-4-.24-8.21-.37-12.61-.38-2.75,0-5.56.09-8.38.26-4.65.28-9.33.78-13.87,1.39-18.88,2.55-31.68,8.61-31.68,8.61l9.33,131.34h87.96Z"/><path class="cls-34" d="m1011.85,282.29v-20.35l-.88-19.21.51-23.29-.15-24.94-.1-17.19-.15-24.45s-7.14-4.75-22.99-8.85c-6.37-1.65-15.56-2.88-22.97-3.32-4-.24-5.5,0-9.9-.01-2.75,0-8.37.08-11.19.26-4.65.28-6.52.79-11.05,1.4-18.88,2.55-31.12,7.55-31.12,7.55l-2,75.21-1.37,28.48v15.39l.73,13.32s11.17,1.21,20.98,1.07c15.62-.22,43.83,1.74,54.77,1.84,12.02.11,36.89-2.91,36.89-2.91h-.01Z"/><polyline class="cls-10" points="1011.47 219.44 1011.32 194.5 1011.22 177.31"/><g id="lamp"><path class="cls-31" d="m781.33,38.29h-.04c-.33.15-.66.28-.98.42-36.59,15.65-54.03,58.22-38.96,95.05,1.11,2.71,2.36,5.32,3.75,7.83,7.55,13.65,19.01,24.1,32.38,30.5,7.98,3.82,15.38,8.63,22.07,14.26.53.44,1.06.89,1.57,1.35,2.21,1.93,4.34,3.95,6.38,6.05.68.71,1.36,1.42,2.02,2.14,1.04,1.14,2.07,2.29,3.06,3.48.29.33.56.67.84,1,.32.38.63.77.94,1.15,3.36,4.19,6.41,8.63,9.12,13.3.22.36.42.72.63,1.08l9.58,16.85,23.59-9.7,23.52-9.67-5.36-19.92-.52-1.94c-1.23-4.55-2.11-9.16-2.66-13.8-.06-.49-.11-.97-.16-1.46-.05-.48-.1-.95-.14-1.43,0-.03,0-.05-.01-.08-.04-.47-.08-.94-.11-1.41-.04-.52-.07-1.03-.1-1.55s-.05-1.03-.08-1.55c-.02-.43-.03-.86-.04-1.29-.01-.36-.02-.74-.02-1.11,0-.34,0-.69-.01-1.03v-1.08c0-.4,0-.8.01-1.2.01-1.2.05-2.4.13-3.6.01-.4.04-.8.07-1.2.02-.4.05-.79.08-1.2.71-9.19,2.71-18.3,5.96-27.05,5.24-14.14,6.15-29.92,1.84-45.2-.76-2.71-1.69-5.41-2.79-8.08-15.37-37.4-58.16-55.26-95.56-39.9h0Z"/><polygon class="cls-34" points="853.52 202.49 845.43 205.82 817.74 153.87 836.67 146.09 853.52 202.49"/><path class="cls-3" d="m838.79,102.94s-1.6,11.23-1.6,15c0,2.85.93,8.5.92,11.34-.01,4.22-1.45,16.81-1.45,16.81l-18.93,7.78s-6.74-7.53-10.39-10.89c-4.18-3.86-18.99-19.56-18.99-19.56"/><path class="cls-3" d="m785.9,116.08c2.9,1.31,5.43,3.98,9.07,2.48,5.5-2.26,2.53-9.48,8.03-11.74,5.5-2.26,8.47,4.96,13.98,2.7s2.54-9.49,8.05-11.75c2.75-1.13,4.87.11,6.99,1.35"/><path class="cls-7" d="m839.73,232.99l37-15.21.98,2.4c3.46,8.43-.57,18.08-8.99,21.55l-6.46,2.66c-8.43,3.46-18.08-.57-21.55-8.99l-.98-2.4h0Z"/><path class="cls-7" d="m807.51,193.76c-2.05-2.1-4.18-4.12-6.38-6.05h0c2.21,1.92,4.34,3.94,6.38,6.05Z"/><path class="cls-5" d="m871.88,158.53c-.03.4-.06.8-.09,1.2.02-.4.05-.79.08-1.2h.01Z"/><path class="cls-20" d="m878.44,220.89s-10.26,2.99-13.58,4.27c-6.22,2.41-24.2,11.26-24.2,11.26-5.63,2.31-12.07-.37-14.38-6l-5.88-14.31s15.75-11.98,35.12-18.12c5.66-1.79,23.05-5.79,23.05-5.79l5.88,14.31c2.31,5.63-.37,12.07-6,14.38h-.01Z"/><line class="cls-3" x1="823.78" y1="224.36" x2="881.95" y2="200.45"/></g><g id="Artwork_2958-2"><ellipse id="C-57" class="cls-13" cx="752.36" cy="156.52" rx="1.68" ry="1.72" transform="translate(13.14 366.51) rotate(-27.61)"/><path class="cls-20" d="m750.8,157.17c-.37-1.01-.73-1.96-.8-2.53-.19-1.5,1.23-2.2,2.2-1.41.41.33,1.01,1.35,1.65,2.55"/><ellipse id="C-58" class="cls-22" cx="754.97" cy="161.37" rx="1.89" ry="1.95" transform="translate(26.85 418) rotate(-31.48)"/><path class="cls-6" d="m753.85,155.78c.88,1.46,2.13,3.59,2.76,4.57-1.1.62-2.17,1.29-3.26,1.93-.77-1.42-1.85-3.63-2.5-5,.7-.36,2.67-1.32,3-1.5Z"/><path class="cls-3" d="m753.85,155.78c.88,1.46,2.13,3.59,2.76,4.57"/><path class="cls-3" d="m753.35,162.28c-.77-1.42-1.85-3.63-2.5-5"/><ellipse id="C-59" class="cls-11" cx="757.8" cy="165.11" rx="2.16" ry="2.22" transform="translate(45.84 472.74) rotate(-35.66)"/><path class="cls-6" d="m756.53,160.23c1.22,1.53,3.03,3.65,3.03,3.65l-3.51,2.52s-1.35-2.04-2.63-4.01c1.06-.73,2.05-1.44,3.11-2.16h0Z"/><path class="cls-3" d="m756.53,160.23c1.22,1.53,3.03,3.65,3.03,3.65"/><path class="cls-3" d="m756.05,166.4s-1.35-2.04-2.63-4.01"/><ellipse id="C-60" class="cls-15" cx="753.82" cy="151.26" rx="2.05" ry="2.1" transform="translate(14.92 363.75) rotate(-27.39)"/><path class="cls-20" d="m751.91,152.02c-.45-1.24-.88-2.39-.96-3.08-.22-1.83,1.51-2.68,2.69-1.71.5.41,1.23,1.66,2,3.12"/><ellipse id="C-61" class="cls-24" cx="756.95" cy="156.97" rx="2.31" ry="2.37" transform="translate(28.48 415.71) rotate(-31.27)"/><path class="cls-6" d="m755.63,150.34c1.07,1.79,2.58,4.39,3.34,5.59-1.34.76-2.65,1.56-3.99,2.33-.93-1.73-2.24-4.43-3.02-6.11.85-.44,3.27-1.59,3.67-1.81Z"/><path class="cls-3" d="m755.63,150.34c1.07,1.79,2.58,4.39,3.34,5.59"/><path class="cls-3" d="m754.99,158.26c-.93-1.73-2.24-4.43-3.02-6.11"/><ellipse id="C-62" class="cls-12" cx="760.42" cy="161.78" rx="2.64" ry="2.71" transform="translate(47.08 470.9) rotate(-35.44)"/><path class="cls-6" d="m758.88,155.79c1.48,1.87,3.68,4.47,3.68,4.47l-4.29,3.06s-1.64-2.49-3.19-4.91c1.29-.88,2.5-1.75,3.81-2.62h-.01Z"/><path class="cls-3" d="m758.88,155.79c1.48,1.87,3.68,4.47,3.68,4.47"/><path class="cls-3" d="m758.27,163.31s-1.64-2.49-3.19-4.91"/><ellipse id="C-63" class="cls-15" cx="756.84" cy="147.31" rx="2.19" ry="2.25" transform="translate(17.08 364.7) rotate(-27.39)"/><path class="cls-20" d="m754.8,148.11c-.48-1.32-.94-2.56-1.03-3.3-.24-1.96,1.61-2.87,2.88-1.83.53.44,1.32,1.77,2.14,3.33"/><ellipse id="C-64" class="cls-24" cx="760.19" cy="153.42" rx="2.47" ry="2.54" transform="translate(30.8 416.88) rotate(-31.27)"/><path class="cls-6" d="m758.78,146.31c1.15,1.91,2.76,4.7,3.57,5.98-1.44.81-2.84,1.67-4.26,2.5-1-1.85-2.4-4.74-3.23-6.54.91-.47,3.49-1.7,3.92-1.94Z"/><path class="cls-3" d="m758.78,146.31c1.15,1.91,2.76,4.7,3.57,5.98"/><path class="cls-3" d="m758.09,154.79c-1-1.85-2.4-4.74-3.23-6.54"/><ellipse id="C-65" class="cls-12" cx="763.89" cy="158.54" rx="2.82" ry="2.9" transform="translate(49.6 472.32) rotate(-35.44)"/><path class="cls-6" d="m762.25,152.14c1.58,2,3.94,4.78,3.94,4.78l-4.59,3.27s-1.75-2.66-3.41-5.25c1.38-.94,2.68-1.87,4.07-2.8h-.01Z"/><path class="cls-3" d="m762.25,152.14c1.58,2,3.94,4.78,3.94,4.78"/><path class="cls-3" d="m761.6,160.19s-1.75-2.66-3.41-5.25"/><circle id="C-66" class="cls-20" cx="775.1" cy="150.16" r="2.94"/><path class="cls-20" d="m772.25,150.89c-.93-3.06-1.89-6.88.45-7.85,1.89-.78,3.86,3.09,5.19,6.2"/><circle id="C-67" class="cls-20" cx="777.42" cy="158.16" r="3.78"/><path class="cls-6" d="m772.25,150.89c1.5-.33,5.21-1.54,5.64-1.65.36.88,1.05,2.49,1.25,2.99.95,2.31,1.8,4.58,1.8,4.58l-7.25,2.08s-.24-4.26-1.11-7.02c-.03-.1-.31-.88-.34-.98h.01Z"/><path class="cls-3" d="m773.71,158.89s-.24-4.26-1.11-7.02c-.03-.1-.31-.88-.34-.98"/><path class="cls-3" d="m777.9,149.24c.36.88,1.05,2.49,1.25,2.99.95,2.31,1.8,4.58,1.8,4.58"/><circle id="C-68" class="cls-20" cx="761.07" cy="144.52" r="2.28"/><path class="cls-20" d="m759.01,145.5c-.58-1.3-1.14-2.52-1.28-3.27-.37-1.97,1.48-3.06,2.85-2.12.58.4,1.47,1.69,2.43,3.2"/><circle id="C-69" class="cls-20" cx="764.52" cy="150.77" r="2.58"/><path class="cls-6" d="m763.08,143.44c1.18,1.93,2.84,4.74,3.67,6.04-1.49.86-2.94,1.77-4.43,2.64-1.02-1.88-2.46-4.8-3.31-6.62.94-.5,3.63-1.81,4.07-2.06h0Z"/><path class="cls-3" d="m763.08,143.44c1.18,1.93,2.84,4.74,3.67,6.04"/><path class="cls-3" d="m762.33,152.12c-1.02-1.88-2.46-4.8-3.31-6.62"/><circle id="C-70" class="cls-20" cx="767.93" cy="156.12" r="2.94"/><path class="cls-6" d="m766.75,149.48c1.48,2.12,3.68,5.09,3.68,5.09l-5,3.09s-1.6-2.81-3.1-5.55c1.5-.89,2.91-1.77,4.43-2.64h-.01Z"/><path class="cls-3" d="m766.75,149.48c1.48,2.12,3.68,5.09,3.68,5.09"/><path class="cls-3" d="m765.43,157.67s-1.6-2.81-3.1-5.55"/><circle id="C-71" class="cls-20" cx="775.66" cy="169.15" r="8.63"/><path class="cls-6" d="m783.98,166.87s-1.06-4.33-1.42-5.42c-.81-2.42-1.53-4.42-1.53-4.42l-7.2,2.35-3.41-4.8s-4.3,1.69-8.7,5.37c-4.79,4.02-5.71,6.33-5.71,6.33,0,0,.77,1.35,6.38,4.97,1.77,1.15,9.08,5.46,9.08,5.46l12.51-9.84h0Z"/><path class="cls-3" d="m756.02,166.28s.77,1.35,6.38,4.97c1.77,1.15,9.08,5.46,9.08,5.46"/><line class="cls-3" x1="773.84" y1="159.38" x2="770.43" y2="154.58"/><path class="cls-3" d="m784.09,167.3s-1.16-4.76-1.53-5.85c-.81-2.42-1.53-4.42-1.53-4.42"/></g><circle class="cls-20" cx="841.69" cy="230.76" r="13.67"/><path class="cls-6" d="m849.16,219.31l-24.01-20.02-16.24-14.47-26.41-20.93s-2.7.91-6.52,4.77c-3.73,3.76-5.91,7.01-5.91,7.01,0,0,6.95,8.4,18.84,20.85,7.93,8.31,15.25,16.72,22.31,24.49,9.93,10.92,22,20.49,22.18,20.63"/><path class="cls-3" d="m770.08,175.67s8.06,9.56,18.05,20.02c9.32,9.76,19.18,21.28,27.9,30.41,8.09,8.46,17.21,15.42,17.38,15.55"/><path class="cls-3" d="m849.16,219.31s-10.26-9-13.77-11.88c-2.87-2.36-11.58-9.19-11.58-9.19,0,0-10.44-9.68-14.06-12.75-6.63-5.62-27.25-21.6-27.25-21.6"/><circle id="C-72" class="cls-30" cx="841.69" cy="230.76" r="6.55"/><circle class="cls-1" cx="841.69" cy="230.76" r="13.67"/><circle class="cls-34" cx="904.98" cy="165.5" r="15.92"/><circle id="C-73" class="cls-34" cx="904.98" cy="165.5" r="9.81"/><path class="cls-6" d="m891.55,156.61l-57.96,63.13,18.07,20.38s29.84-27.72,37.06-34.31c9.69-8.85,27.43-28.97,27.43-28.97"/><path class="cls-3" d="m851.66,240.12s29.35-27.84,37.06-34.31c15.41-12.94,27.43-28.97,27.43-28.97"/><line class="cls-3" x1="893.81" y1="154.16" x2="833.59" y2="219.74"/><path class="cls-34" d="m917.94,174.76s-5.77,8.35-12.29,16.72c-3.17,4.06-9.86,10.79-13.08,14.76-3.77,4.64-4.81,8.12-7.23,10.64-3.26-1.4-12.11-8.36-17.79-13.35-5.01-4.4-8.23-7.81-10.31-10.24-2.47-2.89-3.3-4.41-3.56-4.58l40.12-34.56"/><path class="cls-10" d="m911.12,184.17c-1.53,2.12-3.37,4.6-5.47,7.3-3.17,4.06-9.86,10.79-13.08,14.76-3.77,4.64-4.81,8.12-7.23,10.64-1.35-.58-3.65-2.1-6.28-4.04"/><circle id="C-74" class="cls-20" cx="984.36" cy="463.12" r="17.84"/><circle class="cls-20" cx="984.96" cy="611.5" r="14.44"/><polyline class="cls-6" points="1002.21 463.06 1004.02 511.49 999.71 594.28 999.54 602.71 999.35 612.74 970.57 612.83 970.3 602.8 970.08 594.37 966.51 509.27 966.52 463.17"/><path class="cls-20" d="m986.78,575.24c4.65-.01,9.31.06,13.95-.01l.22-4.03c-10.69-.69-21.24,1.25-31.88-.03l.19,4.33c5.77.75,11.74-.23,17.52-.25h0Z"/><path class="cls-20" d="m1000.32,582.81l.29-5.38c-4.72.07-9.45-.01-14.17.02-5.66.04-11.44.89-17.08.25l.19,4.3c10.27-.08,20.53,1.22,30.78.8h-.01Z"/><path class="cls-20" d="m976.01,588.98c2.97-.25,5.93-.46,8.9-.64,3.77-.22,7.53-.24,11.31-.27,1.28,0,2.55-.09,3.83-.15l.16-2.88c-10.19.4-20.37-.87-30.57-.81l.2,4.53c1.9.68,4.29.38,6.18.22h-.01Z"/><path class="cls-20" d="m970.14,596.68c4.53.14,9.05-.07,13.59-.48,3.36-.3,6.73-.65,10.09-.88,1.93-.13,3.98-.16,5.88-.63v-.41l.24-4.22c-1.69.08-3.37.23-5.02.23-3.76,0-7.5.12-11.26.34-2.85.16-5.69.44-8.53.63-1.65.11-3.5.19-5.19-.19l.14,3.29.06,2.31h0Z"/><path class="cls-20" d="m970.32,603.53c4.98.43,10.04-.53,14.99-1.1,4.72-.55,9.49-.47,14.25-.18l.1-5.3c-1.64.33-3.33.44-5,.54-3.35.21-6.7.57-10.05.86-4.82.41-9.61.67-14.4.54l.1,3.92.02.73h0Z"/><path class="cls-20" d="m992.16,610.83c-3.27.15-6.55.06-9.82.19-3.96.17-7.86.85-11.77,1.45v.35l28.78-.09.05-2.51c-2.4.3-4.82.49-7.24.6h0Z"/><path class="cls-20" d="m981.92,608.83c3.27-.17,6.55-.06,9.82-.19,2.57-.11,5.15-.3,7.7-.63l.07-3.53c-4.87-.29-9.75-.35-14.6.23-4.81.58-9.7,1.42-14.53,1.06l.12,4.52c3.79-.58,7.58-1.24,11.41-1.44v-.02Z"/><path class="cls-20" d="m970.57,612.83l-.27-10.02-.22-8.44s-3.04-66-3.56-85.1c-.36-13.04,0-46.1,0-46.1"/><path class="cls-3" d="m1002.21,463.06s2,32.34,1.81,41.68c-.44,22.81-4.31,89.54-4.31,89.54l-.16,8.44-.2,10.02"/><circle class="cls-20" cx="984.08" cy="339.07" r="21.76"/><polygon class="cls-6" points="1005.84 339.59 1003.8 428.27 1002.2 463.04 966.51 463.15 964.53 421.8 962.31 339.13 1005.84 339.59"/><path class="cls-20" d="m966.51,463.15s-1.55-29.83-1.95-40.1c-.11-2.79-.03-10.48-.15-14.55-.77-25.23-2.1-69.36-2.1-69.36"/><path class="cls-20" d="m1005.84,339.59s-1.17,58.92-1.82,80.62c-.13,4.36-.5,21.12-.63,25.48-.12,4.14-1.19,17.34-1.19,17.34"/><circle id="C-75" class="cls-20" cx="979.66" cy="324.35" r="31.2"/><path class="cls-20" d="m948.46,324.43s-.94,19.61-1.44,26.14c-.69,9.07-2.66,27.23-3.16,36.26-.5,9.14-.91,37.66-.91,37.66h63.96s1.12-7,1.61-24.5c.65-22.99,2.36-75.59,2.36-75.59"/><circle class="cls-34" cx="946.68" cy="637.6" r="16.13"/><path class="cls-20" d="m934.88,648.58c2.88,3.09,6.96,5.07,11.52,5.15,8.9.16,16.25-6.94,16.4-15.84.05-2.9-.68-5.62-1.97-7.99-9.28,5.36-11.29,8.85-25.95,18.69h0Z"/><circle id="C-76" class="cls-34" cx="946.68" cy="637.6" r="7.44"/><path class="cls-34" d="m948.1,653.75l-27.1-.09c-4.38-.01-7.33-4.55-5.48-8.52.02-.05.04-.1.07-.14,1.59-3.37-2.13-7.91,5.23-15.11,6.18-6.05,13.82-3.41,17.42-6.15"/><path class="cls-4" d="m915.59,645c1.59-3.37-2.13-7.91,5.23-15.11,6.18-6.05,13.82-3.41,17.42-6.15"/><path class="cls-20" d="m948.08,653.69h-18.53l-8.57-.03c-4.36-.01-7.31-4.54-5.47-8.49.02-.05.04-.09.07-.14,0,0,5.49.48,7.12.44,2.87-.08,10.78-.44,10.78-.44h11.77"/><path class="cls-34" d="m938.24,623.74c13.95-10.77,29.76-22.72,29.76-22.72,0,0,12.94,2.13,14.69,14.62,1.43,10.19,17.23-11.53,17.23-11.53,0,0,2.82-2.43,4.32,6.4.42,2.5.42,8.01.61,12.14.2,4.43,1.08,8.28,1.23,11.59.21,4.54-.34,8.1-.24,10.86v.02c.24,6.61-44.89-.02-44.89-.02l-15.72-.07"/><path class="cls-4" d="m938.24,623.74c13.95-10.77,29.76-22.72,29.76-22.72"/><line class="cls-4" x1="951.68" y1="613.93" x2="957.4" y2="619.59"/><line class="cls-4" x1="958.93" y1="607.9" x2="965.23" y2="613.93"/><path class="cls-20" d="m945.92,645.1s10.63-.69,13.58-.69c5.56,0,19.13.54,24.23.95,14.81,1.21,22.12-.26,22.12-.26v.02c.24,6.61.24,8.64.24,8.64h-57.33"/><circle id="C-77" class="cls-1" cx="984.96" cy="611.5" r="14.44"/><circle id="C-78" class="cls-20" cx="932.96" cy="463.12" r="17.84"/><circle class="cls-20" cx="933.56" cy="611.5" r="14.44"/><polyline class="cls-6" points="950.81 463.06 952.62 511.49 948.31 594.28 948.15 602.71 947.95 612.74 919.17 612.83 918.9 602.8 918.68 594.37 915.11 509.27 915.12 463.17"/><path class="cls-20" d="m935.38,575.24c4.65-.01,9.31.06,13.95-.01l.22-4.03c-10.69-.69-21.24,1.25-31.88-.03l.19,4.33c5.77.75,11.74-.23,17.52-.25h0Z"/><path class="cls-20" d="m948.93,582.81l.29-5.38c-4.72.07-9.45-.01-14.17.02-5.66.04-11.44.89-17.08.25l.19,4.3c10.27-.08,20.53,1.22,30.78.8h-.01Z"/><path class="cls-20" d="m924.61,588.98c2.97-.25,5.93-.46,8.9-.64,3.77-.22,7.53-.24,11.31-.27,1.28,0,2.55-.09,3.83-.15l.16-2.88c-10.19.4-20.37-.87-30.57-.81l.2,4.53c1.9.68,4.29.38,6.18.22h-.01Z"/><path class="cls-20" d="m918.74,596.68c4.53.14,9.05-.07,13.59-.48,3.36-.3,6.73-.65,10.09-.88,1.93-.13,3.98-.16,5.88-.63v-.41l.24-4.22c-1.69.08-3.37.23-5.02.23-3.76,0-7.5.12-11.26.34-2.85.16-5.69.44-8.53.63-1.65.11-3.5.19-5.19-.19l.14,3.29.06,2.31h0Z"/><path class="cls-20" d="m918.92,603.53c4.98.43,10.04-.53,14.99-1.1,4.72-.55,9.49-.47,14.25-.18l.1-5.3c-1.64.33-3.33.44-5,.54-3.35.21-6.7.57-10.05.86-4.82.41-9.61.67-14.4.54l.1,3.92.02.73h0Z"/><path class="cls-20" d="m940.76,610.83c-3.27.15-6.55.06-9.82.19-3.96.17-7.86.85-11.77,1.45v.35l28.78-.09.05-2.51c-2.4.3-4.82.49-7.24.6h0Z"/><path class="cls-20" d="m930.52,608.83c3.27-.17,6.55-.06,9.82-.19,2.57-.11,5.15-.3,7.7-.63l.07-3.53c-4.87-.29-9.75-.35-14.6.23-4.81.58-9.7,1.42-14.53,1.06l.12,4.52c3.79-.58,7.58-1.24,11.41-1.44v-.02Z"/><path class="cls-20" d="m919.17,612.83l-.27-10.02-.22-8.44s-3.04-66-3.56-85.1c-.36-13.04,0-46.1,0-46.1"/><path class="cls-3" d="m950.81,463.06s2,32.34,1.81,41.68c-.44,22.81-4.31,89.54-4.31,89.54l-.16,8.44-.2,10.02"/><circle class="cls-20" cx="932.68" cy="339.07" r="21.76"/><polygon class="cls-6" points="954.44 339.59 952.4 428.27 950.8 463.04 915.11 463.15 913.13 421.8 910.91 339.13 954.44 339.59"/><path class="cls-20" d="m915.11,463.15s-1.55-29.83-1.95-40.1c-.11-2.79-.03-10.48-.15-14.55-.77-25.23-2.1-69.36-2.1-69.36"/><path class="cls-20" d="m954.44,339.59s-1.17,58.92-1.82,80.62c-.13,4.36-.5,21.12-.63,25.48-.12,4.14-1.19,17.34-1.19,17.34"/><circle id="C-79" class="cls-20" cx="928.26" cy="324.35" r="31.2"/><path class="cls-20" d="m897.06,324.43s-.94,19.61-1.44,26.14c-.69,9.07-2.66,27.23-3.16,36.26-.5,9.14-.91,37.66-.91,37.66h63.96s1.12-7,1.61-24.5c.65-22.99,2.36-75.59,2.36-75.59"/><circle class="cls-34" cx="895.28" cy="637.6" r="16.13"/><path class="cls-20" d="m883.49,648.58c2.88,3.09,6.96,5.07,11.52,5.15,8.9.16,16.25-6.94,16.4-15.84.05-2.9-.68-5.62-1.97-7.99-9.28,5.36-11.29,8.85-25.95,18.69h0Z"/><circle id="C-80" class="cls-34" cx="895.28" cy="637.6" r="7.44"/><path class="cls-34" d="m896.71,653.75l-27.1-.09c-4.38-.01-7.33-4.55-5.48-8.52.02-.05.04-.1.07-.14,1.59-3.37-2.13-7.91,5.23-15.11,6.18-6.05,13.82-3.41,17.42-6.15"/><path class="cls-20" d="m896.68,653.69h-18.53l-8.57-.03c-4.36-.01-7.31-4.54-5.47-8.49.02-.05.04-.09.07-.14,0,0,5.49.48,7.12.44,2.87-.08,10.78-.44,10.78-.44h11.77"/><path class="cls-34" d="m886.84,623.74c13.95-10.77,29.76-22.72,29.76-22.72,0,0,12.94,2.13,14.69,14.62,1.43,10.19,17.23-11.53,17.23-11.53,0,0,2.82-2.43,4.32,6.4.42,2.5.42,8.01.61,12.14.2,4.43,1.08,8.28,1.23,11.59.21,4.54-.34,8.1-.24,10.86v.02c.24,6.61-44.89-.02-44.89-.02l-15.72-.07"/><line class="cls-4" x1="900.28" y1="613.93" x2="906" y2="619.59"/><line class="cls-4" x1="907.53" y1="607.9" x2="913.83" y2="613.93"/><path class="cls-20" d="m894.52,645.1s10.63-.69,13.58-.69c5.56,0,19.13.54,24.23.95,14.81,1.21,22.12-.26,22.12-.26v.02c.24,6.61.24,8.64.24,8.64h-57.33"/><circle id="C-81" class="cls-1" cx="933.56" cy="611.5" r="14.44"/><path id="C-82" class="cls-1" d="m998.57,282.29c0,24.28-19.69,43.97-43.97,43.97s-43.97-19.69-43.97-43.97,19.69-43.97,43.97-43.97,43.97,19.69,43.97,43.97h0Z"/><path class="cls-6" d="m1010.68,321.03s-.62.05-.89.16c-.95.37-7.23,1.31-14.12,1.31-4.48,0-63.42-1.02-70.31.4-18.83-.08-24.39-2.75-25.71-3.22-2.02-.72-1.47-4.3-1.45-4.72,0-.18,0-.36.02-.56.09-1.64.31-3.65.8-5.95.1-.53.23-1.08.38-1.65.41-1.64.96-3.42,1.68-5.29.04-.1.08-.21.12-.31.21-.53.42-1.07.64-1.6.66-1.64,1.34-3.31,2.01-4.95.37-.9.74-1.79,1.11-2.65.7-1.68,1.39-3.28,2.04-4.76.47-1.12.93-2.17,1.34-3.12.71-1.63,1.31-2.99,1.74-3.95.44-1,3.03-.41,3.03-.41,0,0,3.81-.66,35.11.31h.46c.19,0,.37,0,.55.02.79.02,1.59.05,2.41.07.35,0,.69.02,1.02.03.47.02.92.03,1.37.05h.32c6.25.19,11.65.32,16.32.39h.29c10.67.17,17.42.08,21.56-.06h.1c4.5-.15,5.86-.36,5.86-.36,0,.02.03.13.09.35.15.64.52,2.1,1.04,4.05.25.92.54,1.94.85,3.03.34,1.17.71,2.42,1.11,3.71.38,1.22.79,2.47,1.22,3.72.48,1.41,1,2.8,1.53,4.13.18.47.38.93.57,1.38.21.51.43,1.01.62,1.49.7,1.7,1.28,3.26,1.78,4.72.31.87.58,1.69.82,2.47.53,1.74.93,3.26,1.22,4.6.21.94.37,1.78.48,2.53.51,3.14.8,4.62.8,4.62l.07.02Z"/><path class="cls-3" d="m1010.68,321.03s-.53-9.05-5.73-20.43c-3.76-8.23-6.38-20.25-6.43-20.38l-87.89-.46s-5.29,10.95-9.43,21.45c-2.54,6.44-3.05,12.49-3.47,16.86"/><path class="cls-3" d="m.85,1028c28.53.05,68.07.25,99.21.94,51,1.14,135.13-.15,154.37.5,19.25.65,129.58,1.62,182.2,1.62,36.7,0,161.89-.16,215.17-1.62,95.91-2.64,227.05,0,258.29,0h243.45"/></svg>