<?xml version="1.0" encoding="utf-8"?>
<!-- Generator: Adobe Illustrator 27.9.0, SVG Export Plug-In . SVG Version: 6.00 Build 0)  -->
<svg version="1.1" id="Layer_2_00000052816198569367251940000011323722092137200010_"
	 xmlns="http://www.w3.org/2000/svg" xmlns:xlink="http://www.w3.org/1999/xlink" x="0px" y="0px" viewBox="0 0 1296 968.2"
	 style="enable-background:new 0 0 1296 968.2;" xml:space="preserve">
<style type="text/css">
	.st0{fill:#020202;stroke:#020202;stroke-width:1.7;stroke-linecap:round;stroke-linejoin:round;}
	.st1{fill:none;}
	.st2{fill:none;stroke:#020202;stroke-width:1.7;stroke-linecap:round;stroke-linejoin:round;}
	.st3{fill:#FFFFFF;stroke:#020202;stroke-width:1.7;stroke-linecap:round;stroke-linejoin:round;}
	.st4{fill:#FFFFFF;}
	.st5{fill:#020202;}
	.st6{fill:#FFFFFF;stroke:#FFFFFF;stroke-width:1.7;stroke-linecap:round;stroke-linejoin:round;}
	.st7{fill:none;stroke:#FFFFFF;stroke-width:1.7;stroke-linecap:round;stroke-linejoin:round;}
	.st8{fill:#FFD800;stroke:#020202;stroke-width:1.7;stroke-miterlimit:10;}
	.st9{fill:#FFFFFF;stroke:#020202;stroke-width:1.7;stroke-linejoin:round;}
	.st10{fill:none;stroke:#020202;stroke-width:1.7;stroke-linejoin:round;}
</style>
<circle id="C" class="st0" cx="1154.5" cy="929.6" r="18.4"/>
<path class="st0" d="M1168.4,941.7l-22.3,21.4c-3.6,3.4-9.6,2.1-11.2-2.7c0-0.1,0-0.1-0.1-0.2c-1.4-4-1.2-12.1,0-21.1
	c0.7-5.4,1-9.1,1.8-14.2"/>
<path class="st0" d="M1168.4,941.7l-15.2,14.7l-7.1,6.8c-3.6,3.4-9.6,2.1-11.2-2.6c0-0.1,0-0.1-0.1-0.2c0,0,4.9-3.9,6.2-5.3
	c2.3-2.3,8.5-8.9,8.5-8.9l9.6-9.3L1168.4,941.7L1168.4,941.7z"/>
<circle id="C-2" class="st1" cx="1158.9" cy="871.1" r="17.5"/>
<path class="st0" d="M1137.2,924.7c2.9-19.9,6.4-42.2,6.4-42.2s12.3-8.5,23.6,0.3c9.2,7.2,5-23.1,5-23.1s0.4-4.2,8.6,1.8
	c2.3,1.7,6.7,6.2,10.1,9.5c3.7,3.5,7.4,5.9,10.2,8.5c3.8,3.6,6.1,6.9,8.4,9.1l0,0c5.4,5.2-36.8,35.5-36.8,35.5l-12.9,12.4"/>
<line class="st2" x1="1140.5" y1="906" x2="1149.6" y2="906.1"/>
<line class="st2" x1="1141.6" y1="895.3" x2="1151.6" y2="895.3"/>
<path class="st0" d="M1216.6,895.6l-47,45.4l-9.2-4.8c0,0,8.2-9,10.6-11.3c4.6-4.4,16.1-14.7,20.6-18.4
	c13.1-10.7,17.9-17.7,17.9-17.7l0,0C1215,893.9,1216.6,895.6,1216.6,895.6L1216.6,895.6z"/>
<path class="st2" d="M1193.2,873.2c0,0-5.4,6.3-6.6,14.8c-0.8,5.7-1.8,12.6,5,18.4"/>
<circle class="st3" cx="1158.9" cy="871.1" r="17.5"/>
<circle id="C-3" class="st3" cx="1044.2" cy="752" r="31.2"/>
<polyline class="st3" points="1146.7,883.6 1063.5,797.2 1089.9,774.8 1171.1,858.6 "/>
<path class="st3" d="M1021.4,773.3c0,0,28.7,33.8,35.6,42.3c4.7,5.9,43.8,56,76.6,111.3c0,0,11.7,0.1,23.4-7.2
	c5.8-3.6,20.4-13.9,29.9-21.2c14.8-11.3,24.3-19.9,24.3-19.9c-0.9-1-86.5-90.9-87.4-91.9c-6.3-7-27.3-25.7-38.9-37.7
	c-12.8-13.2-18-18.5-18-18.5"/>
<circle id="C-4" class="st3" cx="1054.7" cy="598.8" r="36.4"/>
<path class="st4" d="M1091.1,600.6c0,0-8,90.3-10.7,117.3c-1.2,11.6-5,36.8-5,36.8l-62.4-3.1c0,0,0.4-34.3,0.8-45.8
	c0.4-11,2.4-33.7,2.9-44.7c0.5-9.8,1-31.1,1.4-46.5c0.1-3.9,0.2-7.4,0.2-10.2c0.1-4.6,0.2-7.5,0.2-7.5L1091.1,600.6z"/>
<path class="st3" d="M1012.9,751.7c0,0,0.4-34.3,0.8-45.8c0.4-11,2.4-33.7,2.9-44.7c0.8-16.2,1.8-64.2,1.8-64.2"/>
<path class="st3" d="M1091.1,600.6c0,0-8,90.3-10.7,117.3c-1.2,11.6-5,36.8-5,36.8"/>
<circle id="C-5" class="st0" cx="1048.4" cy="949.3" r="18.4"/>
<path class="st0" d="M1049.9,967.8l-30.9-0.2c-5,0-8.3-5.2-6.2-9.7c0-0.1,0.1-0.1,0.1-0.2c1.8-3.8,7.6-9.5,14.7-15.2
	c4.2-3.4,7.1-5.9,11.2-9"/>
<path class="st0" d="M1049.9,967.7l-21.1-0.1l-9.8-0.1c-5,0-8.3-5.2-6.2-9.7c0-0.1,0.1-0.1,0.1-0.2c0,0,6.2,0.6,8.1,0.5
	c3.3-0.1,12.3-0.5,12.3-0.5l13.4,0L1049.9,967.7L1049.9,967.7z"/>
<circle id="C-6" class="st1" cx="1092.3" cy="910.5" r="17.5"/>
<path class="st0" d="M1039.4,933.8c15.9-12.2,34-25.8,34-25.8s14.7,2.5,16.7,16.7c1.6,11.6,19.7-13.1,19.7-13.1s3.2-2.8,4.9,7.3
	c0.5,2.8,0.4,9.1,0.7,13.8c0.2,5.1,1.2,9.4,1.4,13.2c0.2,5.2-0.4,9.2-0.3,12.4v0c0.2,7.5-51.1-0.2-51.1-0.2l-17.9-0.1"/>
<line class="st2" x1="1054.7" y1="922.7" x2="1061.2" y2="929.1"/>
<line class="st2" x1="1063" y1="915.8" x2="1070.2" y2="922.7"/>
<path class="st0" d="M1116.6,968.2l-65.3-0.2l-3.2-9.9c0,0,12.1-0.8,15.5-0.7c6.3,0,21.8,0.7,27.6,1.2c16.9,1.4,25.2-0.2,25.2-0.2v0
	C1116.6,965.9,1116.6,968.2,1116.6,968.2L1116.6,968.2z"/>
<path class="st2" d="M1115.4,935.9c0,0-8.3,0.7-15.1,6.1c-4.6,3.6-10.1,7.8-9.2,16.6"/>
<circle class="st3" cx="1092.3" cy="910.5" r="17.5"/>
<circle id="C-7" class="st3" cx="1098.6" cy="745.2" r="31.2"/>
<polyline class="st3" points="1074.8,910.4 1079.4,790.5 1113.9,794 1109.8,910.6 "/>
<path class="st3" d="M1067.4,743.6c0,0-4.5,44.1-5.9,55c-1,7.5-10,70.4-27.2,132.4c0,0,8,8.5,21.4,11.9c6.6,1.7,24.2,5.1,36,6.9
	c18.4,2.8,31.2,3.7,31.2,3.7c0.1-1.3,5.6-125.3,5.7-126.7c0.7-9.4-0.4-37.5,0.2-54.1c0.6-18.3,0.9-25.7,0.9-25.7"/>
<circle id="C-8" class="st3" cx="1109.7" cy="592" r="36.4"/>
<path class="st4" d="M1146,594c0,0-8.3,90.3-11.1,117.3c-1.2,11.6-5.2,36.8-5.2,36.8l-62.4-3.3c0,0,0.5-34.3,1-45.8
	c0.4-11,2.5-33.7,3-44.7c0.5-9.8,1.1-31.1,1.5-46.5c0.1-3.9,0.2-7.4,0.3-10.2c0.1-4.6,0.2-7.5,0.2-7.5L1146,594L1146,594z"/>
<path class="st3" d="M1067.3,744.8c0,0,0.5-34.3,1-45.8c0.4-11,2.5-33.7,3.1-44.7c0.8-16.2,2-64.2,2-64.2"/>
<path class="st3" d="M1146,594c0,0-8.3,90.3-11.1,117.3c-1.2,11.6-5.2,36.8-5.2,36.8"/>
<circle id="C-9" class="st3" cx="1077" cy="551.1" r="50.1"/>
<path class="st4" d="M1018.5,602.2c0,0-2.1-9.2,1-21.7c3.1-12.5,7.4-25.4,7.4-25.4s7.9-2,49.4-6.3c41.7-4.3,49.8-6.7,49.8-6.7
	c0.1,0.1,5.1,13.2,10.3,22c8.9,15,9,22.3,9,22.3s-29.1,16.8-65.2,20.7c-15,1.6-40.1-0.6-51.3-1.9
	C1019.2,604.1,1018.5,602.2,1018.5,602.2L1018.5,602.2z"/>
<path class="st3" d="M1126.3,542.2c0.1,0.1,4.8,13.3,10.3,22c7.6,12.1,9,22.3,9,22.3"/>
<path class="st3" d="M1018.5,602.2c0,0-2.1-9.2,1-21.7c3.1-12.5,7.4-25.4,7.4-25.4"/>
<g id="Artwork_2863">
	<circle class="st3" cx="1081.9" cy="365.5" r="12"/>
	<circle id="C-10" class="st3" cx="1079.8" cy="390.3" r="12"/>
	<polyline class="st4" points="1067.8,390 1069.9,364.6 1093.9,366.5 1091.7,391.6 	"/>
	<line class="st2" x1="1093.9" y1="366.5" x2="1091.7" y2="391.6"/>
	<line class="st2" x1="1067.8" y1="390" x2="1069.9" y2="364.6"/>
	<path class="st5" d="M1047.6,323.7c0,0-8.2-40.8-7.6-50.1c0.6-9.4,3.6-19.9,15.2-26.3c18.3-10.2,30.7,1.2,30.7,1.2s6.9-5,16.3-5.8
		s17.5,6.3,24.2,8.1s16.6,3.3,16.6,3.3l-6.6,6.4c0,0,8.4,6.5,12.4,11.3s10.8,7,10.8,7l-12.9,4.7l7.2,8.7l-7,1.8l4.5,3.6
		c0,0-16.7,24.3-23.6,31.6S1047.6,323.7,1047.6,323.7L1047.6,323.7z"/>
	<path class="st3" d="M1053.1,262.2c-12.6,7.2-17.2,16.9-17.9,31.4c-0.9,17.5-8.3,31.2-0.7,50.7c7.3,18.6,22.3,23.9,36.5,25.3
		c14.2,1.4,37.6-9.6,45.1-28.3c7.6-18.8,10.4-23.2,11.7-43.1s-11.4-33.8-41.1-39.4C1074.6,256.5,1060.6,257.9,1053.1,262.2
		L1053.1,262.2z"/>
	<path class="st2" d="M1060.7,331.9c0,0-6.1-0.4-5.9-4c0.1-1.4,1.2-2.7,3.8-4.9c1.3-1.1,3.7-3.4,4.1-5.1"/>
	<path class="st0" d="M1071.3,337.6c0,0-2,9.8-9.2,9.7c-5.6-0.1-10.7-9.1-10.7-9.1l6-0.1c0,0,4.6,0,6.5,0
		C1065.7,338.1,1071.3,337.6,1071.3,337.6L1071.3,337.6z"/>
	
		<ellipse transform="matrix(8.437344e-02 -0.9964 0.9964 8.437344e-02 640.042 1331.8434)" class="st0" cx="1044.7" cy="317.7" rx="3.3" ry="2.2"/>
	
		<ellipse transform="matrix(8.437344e-02 -0.9964 0.9964 8.437344e-02 670.1924 1371.7124)" class="st0" cx="1081.5" cy="321.2" rx="2.9" ry="1.9"/>
	<path class="st5" d="M1031.8,304.3c-0.6-1.2,2.9-4.5,7.9-5.1c5-0.6,11.1,0.7,9.9,2.4c-1.2,1.6-8.7,1.4-11.5,2.4
		C1035.3,304.9,1032.3,305.3,1031.8,304.3L1031.8,304.3z"/>
	<path class="st5" d="M1095.5,310c0.5-0.8-2.1-4.9-6.9-6.3s-11.1-1.2-10.2,0.7c0.9,1.8,8.3,2.8,10.9,4.3
		C1091.9,310.1,1095,310.8,1095.5,310L1095.5,310z"/>
	<path class="st3" d="M1115,320.2c0,0,7.1-8.3,14.8-2.5c9.3,6.9-5.5,27.2-13.3,23.7c-1.1-0.5-2.2-1.4-3-2.3
		c-1.2-1.2-1.7-2.9-1.4-4.5l0.4-2.8"/>
	<path class="st3" d="M1122.3,325l-4.6,3.9c0,0,1.9,0.5,2.7,3.7"/>
	<path class="st0" d="M1112.1,384.5c0,0-4.4-12.6-3.6-21.8c0.4-4.4,4.2-14.7,6.9-14s4.8,10.5,4,15.5S1115.1,378,1112.1,384.5
		L1112.1,384.5z"/>
	<circle class="st0" cx="1116.3" cy="337.7" r="1.1"/>
	<line class="st2" x1="1115.3" y1="348.7" x2="1116.2" y2="338.8"/>
	<path class="st5" d="M1030.6,276.8c0,0,7.1,7.9,17.1,5.2c4.4-1.2,8.5-5.3,8.5-5.3c1.1,3.6,2.6,7.7,5.1,13
		c5.5,12.1,21.1,20.8,21.1,20.8s-4.9-11.2-5.9-13.7c-0.9-2.2-2.1-9.6-0.9-9.4c2.1,0.3,4.2,10.4,7.4,16.3c3.6,6.8,7.5,10.4,11,14.3
		c4.8,5.3,13.5,15.8,13.5,15.8s1.3-3.8,0.9-7.4c-0.2-2.1-3.2-7.5-3.2-7.5l-6.1-15.8c0,0,3.5,9.7,9.3,13.8c8.3,5.8,15.9,6,15.9,6
		s15.1-51.3-18.2-65.8s-53.8-3.5-63.4,3.5C1036,265.6,1030.6,276.8,1030.6,276.8L1030.6,276.8z"/>
</g>
<g id="Artwork_2969">
	<circle class="st3" cx="957.3" cy="298" r="3.3"/>
	<circle id="C-11" class="st3" cx="953.7" cy="306.8" r="4.3"/>
	<path class="st4" d="M954.3,296.6c1.6,0.8,5.7,2.3,6.2,2.5c-0.5,1.7-0.9,3.1-1,3.7c-0.8,2.7-1.6,5.2-1.6,5.2l-7.9-3.3
		c0,0,0.7-1.7,2.5-5.4C952.5,299.3,954.2,296.7,954.3,296.6L954.3,296.6z"/>
	<path class="st3" d="M949.9,304.8c0,0,0.7-2.2,2.4-5.1c1.3-2.3,2-2.9,2-3"/>
	<path class="st3" d="M960.5,299.1c-0.4,1.6-0.9,3.3-1.1,3.9c-0.8,2.7-1.5,5-1.5,5"/>
	<circle id="C-12" class="st3" cx="941.4" cy="309.6" r="9.8"/>
	<path class="st4" d="M952.4,313.6c2.2-1.9,4-3.5,4-3.5l-5.6-6.6l3.6-5.7c0,0,2.9-4.7,3.8-7.5c0.3-0.9,1.2-2.6-0.6-4.1
		c-2-1.6-3.9-0.5-3.9-0.5s-0.1-1.7-2.2-2.8s-4.1,1.2-4.1,1.2s-0.4-1.5-2.2-1.7c-1.4-0.2-2.7,0.8-3.4,2.7c0,0-0.8-1.3-2.8-1.1
		c-1.3,0.1-2.4,1.5-3.3,4.1c-0.8,2.2-1.6,5-2.2,8.4c-0.4,2.4-1.9,12-1.9,12c0.5-1.1,3.4,0.2,8,4.4c2.8,2.5,8.3,4.1,8.3,4.1
		S951.4,314.4,952.4,313.6L952.4,313.6z"/>
	<path class="st3" d="M946.9,317.7c0,0,4.5-3.2,5.5-4.1c2.2-1.9,4-3.5,4-3.5"/>
	<path class="st3" d="M950.9,303.5l3.6-5.7c0,0,2.9-4.7,3.8-7.5c0.3-0.9,1.2-2.6-0.6-4.1c-2-1.6-3.9-0.5-3.9-0.5s-0.1-1.7-2.2-2.8
		s-4.1,1.2-4.1,1.2s-0.4-1.5-2.2-1.7c-1.4-0.2-2.7,0.8-3.4,2.7c0,0-0.8-1.3-2.8-1.1c-1.3,0.1-2.4,1.5-3.3,4.1
		c-0.8,2.2-1.6,5-2.2,8.4c-0.4,2.4-1.9,12-1.9,12"/>
	<path class="st3" d="M954,298.7c0,0-3.9,2.1-4.7-0.4c-0.9-2.9,4.6-12.6,4.6-12.6"/>
	<path class="st3" d="M949.4,295.9c0,0-2.3,3.7-4.5,1.1c-1.6-1.8,2.8-13,2.8-13"/>
	<path class="st3" d="M941.9,285.1c0,0-2.7,7.2-2.4,9.2c0.3,2,2.1,2.4,3.2,1.9s1.9-1.4,1.9-1.4"/>
	<path class="st3" d="M939.5,293.2c0,0-1.2,2.3-3.1,1.8c-1.9-0.5-1.8-3.3-1.8-3.3"/>
	<path class="st3" d="M942,306.9c0,0,1.8-2.6,4.1-3.2c3-0.9,4.8-0.1,4.8-0.1"/>
	<circle id="C-13" class="st4" cx="957.3" cy="298" r="1.6"/>
	<path class="st3" d="M956.8,301.3c-3.6-0.4-8-1.1-7.6-3.8c0.3-2.3,4.6-2.9,8.5-2.9"/>
</g>
<circle class="st3" cx="926.5" cy="411.7" r="15.6"/>
<circle class="st3" cx="1030" cy="412.7" r="18.1"/>
<circle id="C-14" class="st1" cx="1030" cy="412.7" r="11.2"/>
<path class="st4" d="M1030.3,430.8l-101.4-3.7l-2-31c0,0,46.3-2,57.4-2.5c14.9-0.8,45.4,1,45.4,1"/>
<path class="st2" d="M927,396.1c0,0,46-1.5,57.4-2.5c22.8-2.1,45.4,1,45.4,1"/>
<line class="st2" x1="1030.3" y1="430.8" x2="928.9" y2="427.1"/>
<path class="st4" d="M942.1,411.3l3.1-35.5l3-24.6l2.4-38.3c0,0-2.6-1.9-8.7-3c-5.9-1-10.4-1-10.4-1s-3.3,12-7.3,31.2
	c-2.6,12.8-5.8,25.1-8.4,36.8c-3.8,16.4-4.9,33.9-4.9,34.2"/>
<path class="st4" d="M942.1,411.3l3.1-35.5l3-24.6l2.4-38.3c0,0-2.6-1.9-8.7-3c-5.9-1-10.4-1-10.4-1s-3.3,12-7.3,31.2
	c-2.6,12.8-5.8,25.1-8.4,36.8c-3.8,16.4-4.9,33.9-4.9,34.2"/>
<path class="st2" d="M931.5,308.9c0,0-3.7,13.8-7,29.9c-3.1,15.1-7.5,31.8-10.3,45.9c-2.7,13.1-3.2,26.1-3.3,26.4"/>
<path class="st2" d="M942.1,411.3c0,0,1.8-15.4,2.2-20.6c0.3-4.2,1.1-16.8,1.1-16.8s2.3-16.1,2.8-21.4c1-9.9,2.5-39.5,2.5-39.5"/>
<circle id="C-15" class="st6" cx="926.5" cy="411.7" r="7.5"/>
<circle class="st3" cx="1144.4" cy="423" r="18.1"/>
<circle id="C-16" class="st1" cx="1077" cy="551.1" r="50.1"/>
<path class="st4" d="M1021.8,543.5l0-24.8l0.6-122.5c0,0,10-4.7,30.2-6.2c6.8-0.5,14.4-0.7,22.9-0.5c4.6,0.1,9.3,0.4,14.3,0.8
	c3.1,0.3,6.3,0.6,9.5,1.1c5.2,0.8,10.5,1.8,15.6,2.9c21.2,4.7,34.8,11.4,34.8,11.4l-12.9,118.5l-4.2,29L1021.8,543.5L1021.8,543.5z"
	/>
<path class="st2" d="M1091.8,390.7c6.2,0.5,18.1,2.5,23.2,3.7c21.2,4.7,37.9,12.7,37.9,12.7"/>
<path class="st2" d="M1022.5,396.2c0,0,10-4.7,30.2-6.2c6.8-0.5,9.3-0.8,15.2-0.8"/>
<polyline class="st2" points="1145.9,441.1 1136.9,524.2 1132.6,553.2 "/>
<polyline class="st2" points="1021.8,543.5 1021.9,518.7 1021.3,435.4 "/>
<path class="st5" d="M1066.1,457.9l8.1-7.5l10.1-9.3l21.2-17.1c0,0,2.4,2.2,5.4,6.8c3.7,5.6,7.2,11.6,9.2,16
	c5,10.9,8.4,19.7,11.3,23.3c5.8,7.3,11.2,1.6,11.2,1.6l-4.1,41.7l-120.1-10.4c0,0-5.6-30.7,1-44.7c2.2-4.8,6.4-13.6,10.2-19.6
	c7.2-11.5,14.5-20,14.5-20l11.7,20.9L1066.1,457.9L1066.1,457.9z"/>
<polyline class="st3" points="1045.3,390.8 1045.3,400.2 1045.1,414 1044.1,421 "/>
<polyline class="st3" points="1113.3,394 1109.4,404.9 1106.5,419.2 1105.1,425.6 "/>
<path class="st5" d="M997.9,551.4l20.5-48.3l85.3,7.3l34.8,3l12.1,53.1c0,0-8.1,2.8-25.8-2.2c-16.8-4.7-37.8,4.6-54.1-2.2
	c-11.2-4.7-26-7.9-35.5-6.8c-10.3,1.2-20.3,3.5-24,2.1C1007.4,556,997.9,551.4,997.9,551.4L997.9,551.4z"/>
<ellipse id="C-17" transform="matrix(0.9104 -0.4137 0.4137 0.9104 -143.8783 521.2227)" class="st3" cx="1131.4" cy="592.8" rx="2.1" ry="2.1"/>
<path class="st3" d="M1132.1,594.7c-1.3,0.4-2.1,0.5-2.8,0.5c-1.9,0.1-2.6-1.7-1.6-2.8c0.4-0.5,1.3-0.9,2.8-1.6"/>
<ellipse id="C-18" transform="matrix(0.9281 -0.3723 0.3723 0.9281 -138.2359 465.7169)" class="st3" cx="1136.7" cy="590.8" rx="2.4" ry="2.3"/>
<path class="st4" d="M1130.8,590.8c2-0.8,3.8-1.6,5.1-2.2c0.5,1.5,1.1,2.9,1.7,4.3c-1.9,0.6-3.8,1.3-5.6,1.8
	C1131.7,593.8,1130.9,591.2,1130.8,590.8L1130.8,590.8z"/>
<path class="st2" d="M1130.8,590.8c2-0.8,3.8-1.6,5.1-2.2"/>
<path class="st2" d="M1137.6,593c-1.9,0.6-3.8,1.3-5.6,1.8"/>
<ellipse id="C-19" transform="matrix(0.9389 -0.3443 0.3443 0.9389 -132.8303 429.2754)" class="st3" cx="1142.2" cy="588.6" rx="2.7" ry="2.7"/>
<path class="st4" d="M1136,588.6c2.2-1,5.3-2.4,5.3-2.4l1.8,5c0,0-2.9,0.9-5.6,1.8C1137,591.5,1136.4,590.1,1136,588.6L1136,588.6z"
	/>
<path class="st2" d="M1136,588.6c2.2-1,5.3-2.4,5.3-2.4"/>
<path class="st2" d="M1143.1,591.2c0,0-2.9,0.9-5.6,1.8"/>
<ellipse id="C-20" transform="matrix(0.8617 -0.5074 0.5074 0.8617 -141.949 652.7537)" class="st3" cx="1126.6" cy="586.8" rx="2.5" ry="2.5"/>
<path class="st3" d="M1125.1,584.8c-1.2,1-3.2,2.3-3.7,3c-1.4,1.7-0.2,3.7,1.7,3.5c0.8-0.1,3.1-1.3,4.8-2.3"/>
<ellipse id="C-21" transform="matrix(0.8941 -0.4479 0.4479 0.8941 -141.3958 569.0733)" class="st3" cx="1132.5" cy="583.5" rx="2.9" ry="2.8"/>
<path class="st4" d="M1127.8,588.9c2.2-1.1,4.5-2.3,6-3.1c-0.9-1.6-1.7-3.3-2.6-4.9c-2.1,1.2-4.2,2.6-6.1,3.8
	C1125.8,585.7,1127.5,588.5,1127.8,588.9z"/>
<path class="st2" d="M1127.8,588.9c2.2-1.1,4.5-2.3,6-3.1"/>
<path class="st2" d="M1131.3,580.9c-2.1,1.2-4.2,2.6-6.1,3.8"/>
<ellipse id="C-22" transform="matrix(0.964 -0.2661 0.2661 0.964 -113.6661 324.0971)" class="st3" cx="1139.3" cy="581.6" rx="3.3" ry="3.2"/>
<path class="st4" d="M1133.3,586.1c2.8-0.6,6.8-1.4,6.8-1.4l-1.7-6.1c0,0-3.4,1.1-6.7,2.2C1132.3,582.5,1132.8,584.3,1133.3,586.1
	L1133.3,586.1z"/>
<path class="st2" d="M1133.3,586.1c2.8-0.6,6.8-1.4,6.8-1.4"/>
<path class="st2" d="M1138.5,578.6c0,0-3.4,1.1-6.7,2.2"/>
<circle id="C-23" class="st3" cx="1121.2" cy="575.8" r="2.8"/>
<path class="st3" d="M1122.6,578.1c-1.5,0.9-2.9,1.7-3.7,2c-2.3,0.7-3.9-1.3-2.9-3.1c0.4-0.7,1.8-2,3.5-3.3"/>
<circle id="C-24" class="st3" cx="1128.5" cy="571.4" r="3.1"/>
<path class="st4" d="M1119.8,573.4c2.3-1.5,5.6-3.6,7.1-4.7c1.1,1.8,2.2,3.5,3.3,5.2c-2.2,1.3-5.7,3.2-7.8,4.2
	C1121.8,577.1,1120.1,573.9,1119.8,573.4L1119.8,573.4z"/>
<path class="st2" d="M1119.8,573.4c2.3-1.5,5.6-3.6,7.1-4.7"/>
<path class="st2" d="M1130.2,574c-2.2,1.3-5.7,3.2-7.8,4.2"/>
<circle id="C-25" class="st3" cx="1136.2" cy="571.4" r="3.5"/>
<path class="st4" d="M1128.7,568.3c3.1-0.1,7.6-0.5,7.6-0.5l-0.1,7.1c0,0-3.9-0.2-7.6-0.4C1128.6,572.4,1128.6,570.4,1128.7,568.3
	L1128.7,568.3z"/>
<path class="st2" d="M1128.7,568.3c3.1-0.1,7.6-0.5,7.6-0.5"/>
<path class="st2" d="M1136.1,574.9c0,0-3.9-0.2-7.6-0.4"/>
<ellipse id="C-26" transform="matrix(0.8142 -0.5806 0.5806 0.8142 -129.2167 759.4435)" class="st3" cx="1122" cy="581.6" rx="2.7" ry="2.6"/>
<path class="st3" d="M1120.2,579.6c-1.2,1.2-3.2,2.8-3.7,3.5c-1.3,2,0.2,4,2.1,3.5c0.8-0.2,3.2-1.7,4.9-2.9"/>
<ellipse id="C-27" transform="matrix(0.8516 -0.5241 0.5241 0.8516 -135.4419 676.891)" class="st3" cx="1127.9" cy="577.7" rx="3.1" ry="3"/>
<path class="st4" d="M1123.6,583.7c2.3-1.4,4.4-2.7,6-3.6c-1.1-1.7-2.1-3.3-3.2-5c-2.1,1.4-4.1,3-5.9,4.4
	C1121.2,580.5,1123.3,583.2,1123.6,583.7L1123.6,583.7z"/>
<path class="st2" d="M1123.6,583.7c2.3-1.4,4.4-2.7,6-3.6"/>
<path class="st2" d="M1126.4,575c-2.1,1.4-4.1,3-5.9,4.4"/>
<ellipse id="C-28" transform="matrix(0.9755 -0.22 0.22 0.9755 -98.8967 264.36)" class="st3" cx="1137.4" cy="576.2" rx="3.5" ry="3.4"/>
<path class="st4" d="M1128.4,580.5c3-0.5,9.7-1.1,9.7-1.1l-1.5-6.6c0,0-6.1,1-9.6,2C1127.5,576.7,1127.9,578.6,1128.4,580.5
	L1128.4,580.5z"/>
<path class="st2" d="M1128.4,580.5c3-0.5,9.7-1.1,9.7-1.1"/>
<path class="st2" d="M1136.7,572.8c0,0-6.1,1-9.6,2"/>
<circle id="C-29" class="st3" cx="1159.2" cy="579.4" r="9.8"/>
<path class="st4" d="M1160.4,569.7c0,0-4.2-0.7-5.5-0.7c-4.4-0.3-8.1-0.6-8.1-0.6l-10.5-0.5l1.5,6.6c0,0,1.1,5.6,3.3,11.7
	c0.8,2.1,2.1,5,2.1,5s5.8,0.8,11.6,0c2.5-0.3,8.1-2.7,8.1-2.7s-3.2-4.1-3.9-8.5C1158.1,575.5,1160.4,569.7,1160.4,569.7
	L1160.4,569.7z"/>
<path class="st2" d="M1143.1,591.2c0,0,2.7,0.6,8,0.4c5.6-0.2,11.5-3,11.5-3"/>
<path class="st2" d="M1160.4,569.7c0,0-3.3-0.8-8.4-1c-3.1-0.2-15.8-0.8-15.8-0.8"/>
<circle class="st3" cx="1218.6" cy="495.2" r="15.6"/>
<circle class="st1" cx="1144.4" cy="423" r="18.1"/>
<ellipse id="C-30" transform="matrix(0.9423 -0.3346 0.3346 0.9423 -75.587 407.3222)" class="st4" cx="1144.4" cy="423" rx="11.2" ry="11.2"/>
<path class="st4" d="M1131.4,435.7l74.6,68.7l23.3-20.5c0,0-31.5-34.1-39-42.3c-10.1-11-32.9-31.3-32.9-31.3"/>
<path class="st2" d="M1229.3,483.9c0,0-31.7-33.5-39-42.3c-14.7-17.6-32.9-31.3-32.9-31.3"/>
<line class="st2" x1="1131.4" y1="435.7" x2="1206" y2="504.5"/>
<path class="st4" d="M1204.5,488.6l-18.9,30.2l-13.8,20.6l-19.5,33c0,0,1.4,2.9,6.4,6.6c4.8,3.6,8.8,5.6,8.8,5.6s8.4-9.2,20.6-24.5
	c8.2-10.2,16.5-19.8,24.2-29c10.8-12.9,19.7-28,19.8-28.2"/>
<path class="st2" d="M1167.5,584.6c0,0,9.5-10.6,19.8-23.5c9.6-12,21-24.9,30-36.2c8.3-10.5,14.7-21.8,14.8-22"/>
<path class="st2" d="M1204.5,488.6c0,0-8.6,13-11.3,17.4c-2.2,3.6-8.6,14.5-8.6,14.5s-9.3,13.3-12.2,17.8
	c-5.3,8.3-20.1,34.1-20.1,34.1"/>
<circle id="C-31" class="st6" cx="1218.6" cy="495.2" r="7.5"/>
<g id="rocket_transport_hrtir">
	<path class="st3" d="M650.8,553.9c1.8,103.3-6.9,140.8-10.3,211.2c-0.2,4.8-0.9,10.3-5,12.9c-3,1.9-6.8,1.4-10.3,1.1
		c-13.8-1.4-28.5-0.3-40.4,6.8c-17.7,10.5-26.2,34.3-19,53.6c2.2,5.8,5.3,13.1,0.9,17.5c-2.3,2.3-6,2.7-9.2,3.2
		c-21.5,3.4-39.8,22-42.8,43.6c-15-1.6-31.2-1-43.8,7.3s-19.8,26.3-11.9,39.2c5.6,9.2,16.3,15.3,27,16.1c74.4,5.4,160.1-2,230.9-2.2
		c59-0.1,99.5,5.9,161.4-4.1c6.8-1.1,12.5-5.4,15.1-11.7c4.9-11.7-2.3-23.7-7.6-31.6c-8.4-12.5-24.2-19.7-39.1-17.7
		c3.2-17.8-2.5-36.9-14.8-50c-12.4-13.1-31.2-19.9-49.1-17.7c4.5-13.5-1.1-29-11.5-38.7s-24.9-14.1-39.1-14.9
		c-9-73.7-2.6-139.8-2.6-225.2"/>
	<path class="st2" d="M672.6,813c-9.2,0.7-17.8,5.1-25.2,10.6c-6.7,5-13,12.3-12.2,20.6"/>
	<path class="st2" d="M696.6,895.2c24.5-11.7,55.4-8.8,77.2,7.4"/>
	<path class="st2" d="M561.3,897c-13.4,12.4-16.3,34.6-6.6,50"/>
	<path class="st0" d="M657.7,513.8c-12.9,4.5-19.9,23.1-20.6,26.5c-3.2,15.2,1.8,31.1,9.3,44.7s17.4,25.8,25.4,39.1
		c8,13.3,14.1,28.6,12.8,44.1c0.7-6.8,2.8-13.5,6-19.5c4.4-8.3,11-15.3,17.1-22.5c18.2-21.4,39.6-43,35.9-74.6
		c-1.7-14.5-18.4-36.7-23.8-37.8L657.7,513.8L657.7,513.8z"/>
	<path class="st7" d="M718.4,539.3c1.8,8.3,4.2,23.6,2.5,31.9c-1.9,9.2-3,9.8-9.8,19.3"/>
	<path class="st7" d="M662.8,562c0,16.6,9.7,17.2,15.1,28.7c5.9,12.7,7,16.4,7.6,26.7"/>
	<path class="st8" d="M606.7,497.8c-0.8,3.9-1,7.8-0.6,11.7c0.1,1.2,0.3,2.5,0.9,3.5c0.8,1.4,2.4,2.1,3.9,2.7
		c3.6,1.3,7.4,1.7,11.2,2c13.5,1,27.1,0.7,40.6,0.3c29.9-0.8,60.7,0.4,90.6-0.8c3.4-0.1,7-0.4,9.7-2.5c4-3.1,3.5-11.2,3.5-16.3
		L606.7,497.8L606.7,497.8z"/>
	<path class="st8" d="M644.8,434.3c-40,31.3-79,65.5-120.7,94.6c-9.6,6.8-19.3,13.5-29.6,19.2c-6.2,3.5-14.5,6.3-19.9,2.2
		c-0.3-0.2-0.6-0.5-1-0.8c-3.3-3.3-3.6-8.4-3.3-13c0.6-13.4,5-26.2,8.2-39.3c14.5-60,60.3-105.8,83-145.5l32.5,32.2L644.8,434.3
		L644.8,434.3z"/>
	<path class="st0" d="M644.8,434.3c-40,31.3-79,65.5-120.7,94.6c-9.6,6.8-19.3,13.5-29.6,19.2c-6.2,3.5-14.5,6.3-19.9,2.2
		c5.5-23.4,17.1-45.3,29.9-65.8c23.8-38.4,52.7-74.8,89.5-100.6L644.8,434.3L644.8,434.3z"/>
	<path class="st8" d="M722.5,434.3c40,31.3,79,65.5,120.7,94.6c9.6,6.8,19.3,13.5,29.6,19.2c6.2,3.5,14.5,6.3,19.9,2.2
		c0.3-0.2,0.6-0.5,0.9-0.8c3.3-3.3,3.6-8.4,3.3-13c-0.6-13.4-4.1-26.5-8.2-39.3c-17.1-53.6-50-97.2-83-145.5l-32.5,32.2L722.5,434.3
		L722.5,434.3z"/>
	<path class="st0" d="M722.5,434.3c40,31.3,79,65.5,120.7,94.6c9.6,6.8,19.3,13.5,29.6,19.2c6.2,3.5,14.5,6.3,19.9,2.2
		c-5.5-23.4-18.4-44.5-29.9-65.8c-22-40.9-52.8-74.8-89.5-100.6L722.5,434.3L722.5,434.3z"/>
	<path class="st8" d="M815.6,357.2c-7.7,58.4-11.2,90.2-40,141.7L598.4,499c-30.2-55.1-58-154.3-45.1-228.8
		c10.4-59.7,21.5-104.6,45.8-150.9c13.2-25.1,28.8-49.7,46.6-74.7c7.4-10.5,30.8-37.2,41.3-44.5c30.8,35,62.7,73.9,85.8,112.3
		c13.6,22.5,24.2,44.9,29.8,66.1C818.7,238.7,823.2,300.2,815.6,357.2L815.6,357.2z"/>
	<path class="st0" d="M687,0c30.8,35,62.7,73.9,85.8,112.3c-12.5,6.4-25.3,12.1-38.8,16.2c-44.1,13.6-93,9.8-134.9-9.3
		c13.2-25.1,28.8-49.7,46.6-74.7C653.1,34.1,676.4,7.3,687,0L687,0z"/>
	<path class="st0" d="M670.6,417c-0.4,18.8-0.6,37,0.2,55.7c0.8,18.8,5.8,37.8,14.7,54.4c2.2-2,5.5-11.4,6.3-14.2
		c9.3-29.3,11.9-50,11-80.8c-0.4-15.4-1.1-29.8-4-45c-0.8-3.9-2.4-11.8-3.3-15.6c-0.7-2.8-2.2-8.7-5.4-10.4
		c-4.3-2.3-8.9,0.6-11.2,3.6c-4.7,6.4-5.4,16.1-6,23.7C672.1,397.7,670.8,407.7,670.6,417L670.6,417z"/>
	<path class="st2" d="M662.2,189.4c-10.9,5.4-19.9,14.3-26.1,24.8c-3.5,6-6.2,12.5-7.2,19.4c-1.7,11.2,0.3,26.1,4.9,36.5
		c8.7,20.1,27.4,30.2,39.4,32.3c12,2,23.2,1,34.7-3.2c6.5-2.3,14-6.2,19-10.9c3.4-3.2,7.8-8,10.2-12.1c6.9-11.7,9.4-24.3,8.9-37.9
		s-6.1-27.2-16.2-36.2c-7.6-6.8-12.1-10.8-24.3-16c-8.5-3.6-21.9-2.5-26.8-1.8C673,185,667.4,186.8,662.2,189.4L662.2,189.4z"/>
	<path class="st0" d="M667.2,201.9c-8.5,4.2-15.5,11.2-20.3,19.3c-2.7,4.7-4.8,9.8-5.6,15.1c-1.3,8.7,0.3,20.3,3.8,28.4
		c6.8,15.6,22.4,22.1,31.8,23.7c9.4,1.6,17,2.2,26-1c5-1.8,10.9-4.9,14.8-8.5c2.7-2.5,6.1-6.3,8-9.4c5.4-9.1,7.3-18.9,6.9-29.5
		c-0.4-10.6-4-22.4-11.9-29.5c-5.9-5.3-9.1-7.6-19.7-11.2c-6.8-2.3-17.1-2-20.9-1.4C675.5,198.5,671.2,199.8,667.2,201.9
		L667.2,201.9z"/>
	<path class="st4" d="M661.8,224.8c-1.7,1.3-3.1,3.2-4.1,5.1c-1.1,2.1-1.9,4.7-0.7,6.7c1,1.7,3.1,2.4,5,2.4c2.9,0.1,5.8-1.1,7.9-3.2
		s3.1-5.1,3-8c-0.1-2.5-1.5-5.2-4.2-5.3C666.3,222.4,663.6,223.5,661.8,224.8L661.8,224.8z"/>
	<path class="st4" d="M683.9,214c-0.3,1-0.6,3,1.3,5.2c0.5,0.6,1.8,1.2,3.9,1.2c2.2,0,3.5-1.1,4.1-2.4c1.4-3-0.1-5.3-0.7-6.1
		C690.3,209,684.8,210.9,683.9,214L683.9,214z"/>
</g>
<circle class="st0" cx="20.9" cy="946.8" r="20.9"/>
<path class="st3" d="M22,948.5c4.1,0.9,8.1,1.7,12.2,2.4c2.3,0.4,4.6,0.9,6.8,1.7c-2.4,8.4-10,14.7-19.2,15.1
	c-11.6,0.5-21.3-8.5-21.8-20.1c-0.1-1.3,0-2.6,0.2-3.8C7.5,945.3,14.8,946.9,22,948.5L22,948.5z"/>
<circle id="C-32" class="st0" cx="20.9" cy="946.8" r="14.1"/>
<path class="st0" d="M30.2,928.2c3.1,1.7,6,3.4,8.8,4.9c12.5,6.9,27.6,16.2,21.7,24.6c-5.6,8-39.6,10.1-39.6,10.1s-0.2-0.1-0.5-0.1
	C23.8,954.5,26.8,941.3,30.2,928.2L30.2,928.2z"/>
<path class="st3" d="M21,960.9c4.8-0.1,11.2-0.5,16.8-1.7c11.9-2.4,15.4-6.7,17.8-9.5s2.7,3.4,2.7,3.4s3.1,6.8-9.6,11.2
	c-5.4,1.9-17.9,2.9-17.9,2.9l-11.1,0.3"/>
<path class="st0" d="M61.7,951.2c0,0-1.9-7.2-7.7-5.3c-5.8,1.8-4.7,9.5-11.9,16.3c-4.4,4.2-11.3,5.1-11.3,5.1s17.1-0.5,22.7-0.8
	s8.3-7.1,8.6-10.4C62.3,953.5,61.7,951.2,61.7,951.2L61.7,951.2z"/>
<circle id="C-33" class="st3" cx="54.7" cy="909.4" r="17.5"/>
<path class="st4" d="M41.4,945.2l16.1-18.4l-3.9-34.9c0,0-10.9,0.4-17.9,1.4s-12.3,16.6-9.7,31.2C28.7,939.1,41.4,945.2,41.4,945.2
	L41.4,945.2z"/>
<path class="st0" d="M29.9,883c12.3,1.2,23.7,8.9,23.7,8.9S27,903.5,37,916.7c2.1,2.7,13.5-1.8,13.5-1.8l7,11.9
	c0,0-10,16.2-18.2,29.7c-13.1-4-25.9-7.4-39.1-11.2c1.9-6.7,7.3-25.3,9.4-32.7c2.7-9.3,6.1-31.2,6.1-31.2S20.4,882.1,29.9,883
	L29.9,883z"/>
<path class="st3" d="M0.1,946.3l0-57.9c0-6,5.5-10.6,11.4-9.4l2.8,0.5c1.5,0.3,2.6,1.6,2.6,3.1c0.1,5.2-0.4,18-6.3,39.5
	c-1.6,5.9-3.6,16.8-4,26"/>
<line class="st7" x1="42.6" y1="928.7" x2="49.1" y2="938.2"/>
<line class="st7" x1="37.5" y1="935.9" x2="44.7" y2="945.8"/>
<circle id="C-34" class="st0" cx="216.8" cy="754.2" r="36.4"/>
<path class="st0" d="M188.7,909l62.4-0.1c0,0,1.3-34.3,1.5-45.7c0.1-11-0.7-33.8-0.7-44.8c0-16.2,1.3-64.2,1.3-64.2l-72.8,0
	c0,0,3.6,90.6,5,117.7C186,883.6,188.7,909,188.7,909L188.7,909z"/>
<circle id="C-35" class="st0" cx="219.9" cy="908.9" r="31.2"/>
<polyline class="st3" points="58.1,926.5 113.9,926.5 111.7,891.9 53.6,891.9 "/>
<circle class="st1" cx="54.7" cy="909.4" r="17.5"/>
<path class="st0" d="M72.1,888.8v6l2.8,28.1l-3.9,4.8c-0.3,5.4,3.3,9.7,4.2,11.1c1.2,2.1,4,1.3,9.4,1.5c7.1,0.4,27-0.3,33.2-0.3
	c4,0,15.8,0.7,20.1,0.8c15.3,0.2,45.6,0.1,54.2-0.7c10.9-1,28.2,0,28.2,0l-1-62.4c0,0-7.4-0.1-25.8-0.1c-16.6,0-36.9,0.4-46.2,0.7
	c-16.6,0.6-26.2,1.1-37.2,1.4c-13.5,0.4-22-0.9-22-0.9c-9.8-1.1-14.1,2.5-15,5.1C72.6,885.5,72.4,887.2,72.1,888.8L72.1,888.8z"/>
<path class="st0" d="M60.2,889.5c0,0-1.5,8.1-1.5,11.1c0,4.1,1.9,14.4,1.9,18.6c0,2.9,1.8,10.1,1.8,10.1h13.2v-10.8v-28.9
	L60.2,889.5L60.2,889.5z"/>
<circle id="C-36" class="st0" cx="226.3" cy="702" r="33.3"/>
<path class="st0" d="M253.1,753.6l6.5-49.5l-66.5-2.1c0,0-6.1,17.7-8.3,24.2c-5.2,15.2-4.4,28.6-4.4,28.6L253.1,753.6L253.1,753.6z"
	/>
<circle class="st0" cx="405.4" cy="946.7" r="20.9"/>
<path class="st3" d="M406.5,948.4c4,1,8,1.9,12.1,2.8c2.3,0.5,4.6,1.1,6.8,1.9c-2.7,8.3-10.4,14.4-19.7,14.5
	c-11.6,0.2-21-9.1-21.2-20.7c0-1.3,0.1-2.6,0.3-3.8C392.1,944.8,399.3,946.6,406.5,948.4L406.5,948.4z"/>
<circle id="C-37" class="st0" cx="405.4" cy="946.7" r="14.1"/>
<path class="st0" d="M415.2,928.4c3,1.8,5.9,3.5,8.6,5.1c12.3,7.3,27.2,16.9,21,25.2c-5.9,7.9-39.8,9-39.8,9s-0.2-0.1-0.5-0.1
	C408.1,954.4,411.5,941.3,415.2,928.4z"/>
<path class="st3" d="M405.1,960.8c4.8,0,11.2-0.2,16.9-1.2c11.9-2,15.5-6.3,18-9c2.5-2.7,2.6,3.5,2.6,3.5s3,6.8-9.9,11
	c-5.5,1.8-17.9,2.4-17.9,2.4l-11.1,0"/>
<path class="st0" d="M446,952.3c0,0-1.8-7.2-7.6-5.5c-5.8,1.7-4.9,9.4-12.3,16c-4.5,4.1-11.4,4.8-11.4,4.8s17.1,0,22.7-0.2
	c5.6-0.2,8.5-6.8,8.8-10.2C446.6,954.6,446,952.3,446,952.3L446,952.3z"/>
<ellipse id="C-38" transform="matrix(7.088892e-02 -0.9975 0.9975 7.088892e-02 -569.5951 1215.3286)" class="st3" cx="367.6" cy="913.4" rx="17.5" ry="17.5"/>
<path class="st4" d="M403.6,926.3L385,910.4l-34.8,4.3c0,0,0.5,10.9,1.6,17.8s16.7,12.1,31.3,9.3
	C397.7,939.1,403.6,926.3,403.6,926.3L403.6,926.3z"/>
<path class="st0" d="M341.6,938.5c1-12.3,8.6-23.8,8.6-23.8s11.9,26.5,25,16.3c2.7-2.1-2-13.5-2-13.5l11.8-7.1
	c0,0,16.3,9.8,29.9,17.8c-3.8,13.2-7.1,26-10.7,39.3c-6.7-1.8-25.4-7-32.8-9c-9.4-2.6-31.2-5.7-31.2-5.7S340.7,948,341.6,938.5
	L341.6,938.5z"/>
<path class="st3" d="M405.2,967.5l-57.9,0.7c-6,0.1-10.6-5.3-9.6-11.3l0.5-2.8c0.3-1.5,1.5-2.6,3.1-2.7c5.2-0.2,18,0.2,39.6,5.8
	c6,1.6,16.9,3.4,26,3.7"/>
<line class="st7" x1="387" y1="925.2" x2="396.4" y2="918.6"/>
<line class="st7" x1="394.4" y1="930.2" x2="404.2" y2="922.9"/>
<line class="st7" x1="403.1" y1="934" x2="411.3" y2="927.6"/>
<circle id="C-39" class="st0" cx="216.8" cy="754.2" r="36.4"/>
<path class="st0" d="M372,779.5l-1.2-62.4c0,0-34.3-0.7-45.8-0.6c-11,0.1-33.8,1.4-44.8,1.6c-16.2,0.3-64.2-0.2-64.2-0.2l1.4,72.8
	c0,0,26.7-1.6,55.5-3.3c10.6-0.6,21.5-1.3,31.4-1.9c12.7-0.8,23.8-1.5,30.8-2C346.6,782.6,372,779.5,372,779.5L372,779.5z"/>
<ellipse id="C-40" transform="matrix(7.088897e-02 -0.9975 0.9975 7.088897e-02 -401.3121 1065.7155)" class="st0" cx="371.4" cy="748.3" rx="31.2" ry="31.2"/>
<polyline class="st3" points="384.9,910.4 386.3,854.6 351.7,856 350.2,914.1 "/>
<ellipse transform="matrix(7.088892e-02 -0.9975 0.9975 7.088892e-02 -569.5022 1215.4283)" class="st1" cx="367.7" cy="913.4" rx="17.5" ry="17.5"/>
<path class="st0" d="M347.5,895.4l6,0.2l28.2-2.1l4.8,4c5.4,0.4,9.8-3.1,11.2-3.9c2.1-1.2,1.4-3.9,1.8-9.3c0.5-7.1,0.3-27,0.5-33.2
	c0.1-4,1.1-15.8,1.3-20.1c0.6-15.3,1.3-45.6,0.7-54.2c-0.7-10.9,0.7-28.2,0.7-28.2l-62.4-0.6c0,0-0.2,7.4-0.7,25.7
	c-0.4,16.7-0.5,36.8-0.4,46.3c0.2,16.6,0.4,26.2,0.5,37.3c0.1,13.5-1.4,22-1.4,22c-1.4,9.8,2.1,14.2,4.7,15.1
	C344.3,894.9,346,895.2,347.5,895.4L347.5,895.4z"/>
<path class="st0" d="M347.9,907.4c0,0,8.1,1.7,11,1.8c4.1,0.1,14.5-1.5,18.6-1.4c2.9,0.1,10.1-1.6,10.1-1.6L388,893l-10.8-0.3
	l-28.9-0.7L347.9,907.4L347.9,907.4z"/>
<g id="Artwork_2813">
	<circle class="st3" cx="299.8" cy="535.4" r="12"/>
	<circle id="C-41" class="st3" cx="290" cy="558.3" r="12"/>
	<polyline class="st4" points="300.8,563.7 310.8,540.3 288.7,530.7 278.9,553.9 	"/>
	<line class="st2" x1="288.7" y1="530.7" x2="278.9" y2="553.9"/>
	<line class="st2" x1="300.8" y1="563.7" x2="310.8" y2="540.3"/>
	<path class="st3" d="M288.8,530.5c0,0-1.1-4.7-3.1-8c-4.7-7.9-7.5-15.4-9.1-25.2c-3.1-18.5,2.5-34.6,11.5-48.5
		c11.4-17.7,27.8-25.6,58.1-15.7c12.3,4,24.7,12.4,29.4,20.2c8,13.1,3.7,23.3-3,37.1c-8,16.7-4.6,35-20.8,50.2
		c-14.2,13.2-32.7,12.7-50.6,2"/>
	<path class="st0" d="M279.9,443.8c11.4-17.7,32-22.7,62.4-12.8c12.3,4,28.6,14.5,33.4,22.4c4.7,7.7,4.9,12.2,4.5,15.5
		c-3.2-1.6-7.8-9.4-21.4-5.1c-2.4,0.8-10-2.5-12.2-3.7c-8.1-4.4-16.2-3.2-18.9,3.7c-1.8,4.7,0.9,15.5-0.7,20.6
		c-2.8,9.1-11.1,13.5-13.9,13.7c-2.8,0.2-5.6,1.5-8.4,1.9c-7.1,1-9.2,8.1-11.6,13.8c-1.3,3-2.1,6.5-4.2,9c-0.6,0.8-1.3,1.4-2.1,1.9
		c-0.4-0.8-0.7-1.6-1-2.3c-3.9-8.4-7.5-15.4-9.1-25.2C273.5,478.7,270.9,457.7,279.9,443.8L279.9,443.8z"/>
	<path class="st3" d="M317.3,496.5c0,0-2.3-11.3-12.4-9.9c-12.1,1.7-8.7,28,0.4,28.7c1.4,0.1,2.9-0.2,4.1-0.7c1.4-0.5,2.5-1.5,3-2.9
		l1.1-3.2"/>
	<path class="st3" d="M308,497.3l2.3,6c0,0-2-0.5-4.3,2"/>
	<path class="st6" d="M361.6,527.3c0,0,7.1,1.8,8-1.5c0.2-0.8-0.3-1.8-1.8-4.5c-0.8-1.4-2.2-4.3-2-6.7c0,0-3,3-4.5,6.2
		S361.6,527.3,361.6,527.3L361.6,527.3z"/>
	<path class="st2" d="M361.6,527.3c0,0,7.1,1.8,8-1.5c0.2-0.8-0.3-1.8-1.8-4.5c-0.8-1.4-2.2-4.3-2-6.7"/>
	<path class="st2" d="M351.1,533.8c-3.7-4.1-2.4-10.7-2.4-10.7"/>
	<path class="st5" d="M350.1,491.7c-0.1-0.5,0.3-2,1.9-2.2c3.8-0.5,9.4,1.6,12.4,4.2c1.7,1.5,2,2.1,2.3,3.2c0.4,1.3-0.5,3.3-2,3.6
		l0,0c-0.8,0.1-2.1-1.3-2.6-1.9c-1.2-1.3-1.9-1.8-4.3-3.3C354.6,493.2,350.8,494.3,350.1,491.7L350.1,491.7z"/>
	<ellipse transform="matrix(0.4047 -0.9145 0.9145 0.4047 -254.4693 627.3561)" class="st0" cx="354.6" cy="509.1" rx="3" ry="2"/>
	<path class="st0" d="M400.5,470.9c0,0,1-1.8,1-8.1c0-3.4-0.5-7.2-2-11c-1.8-4.3-4.9-8.5-10.3-11.9s-11.4-7.8-22-9.1
		c-8.8-1-18.5-1-25.1,1.2c-11.2,3.6-18.6,3.3-24.3,6.5c-11,6.2-0.7,5.3,8.4,10.9c15.7,9.6,18.1,10.8,22.5,14.2
		c3.2,2.4,14.6,7.2,19.1,10.2c6.6,4.5,11.4,7.5,15.9,7.6C396.9,481.9,400.5,470.9,400.5,470.9L400.5,470.9z"/>
	<path class="st2" d="M342.4,514l13.7,6.1c4.3,1.7,7.4-0.1,9-2.6l6-10.7c0,0-4.7-2.9-10.3-5.5c-5-2.3-13.5-5.4-17-6.7
		c-0.8-0.3-1.7,0.2-2,1l-2.9,9C337.1,510,339.7,512.7,342.4,514L342.4,514z"/>
	<line class="st2" x1="339.6" y1="501.7" x2="318.2" y2="493"/>
</g>
<circle id="C-42" class="st3" cx="158.2" cy="755.3" r="2.5"/>
<path class="st3" d="M160.7,755.1c0.1,1.6,0.1,3.1,0,3.9c-0.4,2.2-2.8,2.6-3.8,1c-0.4-0.7-0.8-2.3-1.2-4.3"/>
<circle id="C-43" class="st3" cx="157.2" cy="747.4" r="2.9"/>
<path class="st4" d="M155.6,755.6c-0.4-2.5-1-6.1-1.3-7.7c1.9-0.3,3.8-0.6,5.6-0.9c0.3,2.3,0.6,6,0.7,8.2
	C159.5,755.2,156.2,755.5,155.6,755.6z"/>
<path class="st2" d="M155.6,755.6c-0.4-2.5-1-6.1-1.3-7.7"/>
<path class="st2" d="M160,746.9c0.3,2.3,0.6,6,0.7,8.2"/>
<circle id="C-44" class="st3" cx="157.2" cy="740.4" r="3.3"/>
<path class="st4" d="M154.3,747.3c-0.1-2.9-0.4-7-0.4-7l6.5,0.1c0,0-0.2,3.6-0.5,7C158.1,747.4,156.2,747.4,154.3,747.3L154.3,747.3
	z"/>
<path class="st2" d="M154.3,747.3c-0.1-2.9-0.4-7-0.4-7"/>
<path class="st2" d="M160.5,740.4c0,0-0.2,3.6-0.5,7"/>
<ellipse id="C-45" transform="matrix(0.9961 -8.854660e-02 8.854660e-02 0.9961 -66.4713 16.3905)" class="st3" cx="151.5" cy="757.4" rx="2.9" ry="3"/>
<path class="st3" d="M148.7,758c0.4,1.8,0.8,3.5,1.2,4.4c1.1,2.4,3.9,2.1,4.5,0c0.3-0.9,0.2-2.9,0-5.2"/>
<ellipse id="C-46" transform="matrix(0.9998 -2.111691e-02 2.111691e-02 0.9998 -15.7632 3.3551)" class="st3" cx="151" cy="748.1" rx="3.3" ry="3.4"/>
<path class="st4" d="M154.5,757.1c-0.1-2.9-0.2-7.2-0.3-9.2c-2.2,0.1-4.4,0.2-6.5,0.2c0.2,2.8,0.7,7,1,9.6
	C150,757.6,153.8,757.2,154.5,757.1L154.5,757.1z"/>
<path class="st2" d="M154.5,757.1c-0.1-2.9-0.2-7.2-0.3-9.2"/>
<path class="st2" d="M147.7,748.2c0.2,2.8,0.7,7,1,9.6"/>
<ellipse id="C-47" transform="matrix(9.115407e-02 -0.9958 0.9958 9.115407e-02 -598.72 823.4473)" class="st3" cx="151.8" cy="739.7" rx="3.8" ry="3.7"/>
<path class="st4" d="M154.2,748.3c0.5-3.3,1.3-8.1,1.3-8.1l-7.4-0.7c0,0-0.2,4.2-0.4,8.3C149.9,748,152,748.2,154.2,748.3z"/>
<path class="st2" d="M154.2,748.3c0.5-3.3,1.3-8.1,1.3-8.1"/>
<path class="st2" d="M148.1,739.5c0,0-0.2,4.2-0.4,8.3"/>
<ellipse id="C-48" transform="matrix(7.853848e-03 -1 1 7.853848e-03 -610.7961 895.8376)" class="st3" cx="146.1" cy="755.7" rx="2.8" ry="2.7"/>
<path class="st3" d="M143.3,755.9c0.2,1.7,0.4,3.4,0.7,4.2c0.8,2.3,3.4,2.3,4.2,0.4c0.3-0.8,0.5-2.7,0.5-4.9"/>
<ellipse id="C-49" transform="matrix(7.532680e-02 -0.9972 0.9972 7.532680e-02 -609.5092 836.4851)" class="st3" cx="146.3" cy="746.9" rx="3.1" ry="3.1"/>
<path class="st4" d="M148.8,755.7c0.2-2.8,0.4-6.7,0.6-8.6c-2-0.1-4.1-0.2-6.1-0.4c-0.1,2.6,0,6.6,0.1,9
	C144.6,755.8,148.2,755.7,148.8,755.7L148.8,755.7z"/>
<path class="st2" d="M148.8,755.7c0.2-2.8,0.4-6.7,0.6-8.6"/>
<path class="st2" d="M143.2,746.7c-0.1,2.6,0,6.6,0.1,9"/>
<ellipse id="C-50" transform="matrix(0.1246 -0.9922 0.9922 0.1246 -604.5111 793.3372)" class="st3" cx="147.4" cy="739.3" rx="3.6" ry="3.5"/>
<path class="st4" d="M149.3,747.2c0.6-3.1,1.5-7.5,1.5-7.5l-6.9-0.9c0,0-0.4,3.9-0.6,7.7C145.3,746.8,147.3,747,149.3,747.2
	L149.3,747.2z"/>
<path class="st2" d="M149.3,747.2c0.6-3.1,1.5-7.5,1.5-7.5"/>
<path class="st2" d="M143.9,738.8c0,0-0.4,3.9-0.6,7.7"/>
<ellipse id="C-51" transform="matrix(3.490598e-03 -1 1 3.490598e-03 -614.7918 890.5287)" class="st3" cx="139.4" cy="753.7" rx="2.6" ry="2.5"/>
<path class="st3" d="M136.9,753.9c0.2,1.6,0.5,2.5,0.8,3.3c0.8,2.1,3.2,2.1,3.9,0.4c0.3-0.7,0.3-1.9,0.3-3.9"/>
<ellipse id="C-52" transform="matrix(0.9991 -4.170128e-02 4.170128e-02 0.9991 -31.0213 6.446)" class="st3" cx="139" cy="746.8" rx="2.8" ry="2.9"/>
<path class="st4" d="M141.9,753.4c-0.1-2.6-0.1-5-0.1-6.8c-1.9,0.1-3.8,0.2-5.7,0.3c0.2,2.4,0.5,4.8,0.8,7.1
	C138.1,753.9,141.3,753.4,141.9,753.4L141.9,753.4z"/>
<path class="st2" d="M141.9,753.4c-0.1-2.6-0.1-5-0.1-6.8"/>
<path class="st2" d="M136.1,746.9c0.2,2.4,0.5,4.8,0.8,7.1"/>
<ellipse id="C-53" transform="matrix(0.1613 -0.9869 0.9869 0.1613 -612.4193 758.7332)" class="st3" cx="140.2" cy="739.7" rx="3.3" ry="3.2"/>
<path class="st4" d="M141.7,747.2c0.6-2.9,1.6-6.9,1.6-6.9l-6.4-1.1c0,0-0.5,3.6-0.9,7.2C138,746.6,139.8,746.9,141.7,747.2
	L141.7,747.2z"/>
<path class="st2" d="M141.7,747.2c0.6-2.9,1.6-6.9,1.6-6.9"/>
<path class="st2" d="M137,739.2c0,0-0.5,3.6-0.9,7.2"/>
<circle class="st3" cx="162.6" cy="729.2" r="4.2"/>
<circle id="C-54" class="st3" cx="152.2" cy="719.9" r="9.8"/>
<path class="st4" d="M161.4,716.6c0,0,2.9,4.5,3.4,5.8c1.2,2.8,1.7,5.6,1.7,5.6l-7.1,4l1,8.6c0,0-6.1,0.3-13,0.2
	c-6.4-0.2-10.4-1.8-10.4-1.8s0.3-2.4,1.8-8.8c0.6-2.5,3.8-12.6,3.8-12.6L161.4,716.6L161.4,716.6z"/>
<path class="st2" d="M153.4,725.1c0,0,0.3,2.3,1.8,4.1s4.3,2.8,4.3,2.8"/>
<path class="st2" d="M137.1,738.8c0,0,0.3-2.2,1.8-8.8c0.6-2.5,3.8-12.6,3.8-12.6"/>
<path class="st2" d="M161.4,716.6c0,0,1.6,2.3,3,5.4c1.3,2.8,2.1,5.8,2.1,5.9"/>
<path class="st2" d="M141.5,739.5c0,0,5.5,0.4,7.5,0.7c4.2,0.5,8.3,0.7,8.3,0.7"/>
<circle id="C-55" class="st3" cx="163.9" cy="738.2" r="3.2"/>
<path class="st3" d="M160.9,739.5c1,3.1,3.9,8.8,6.8,7.9c2.1-0.7,0.1-6.7-0.9-10.3"/>
<circle id="C-56" class="st1" cx="162.6" cy="729.2" r="4.2"/>
<path class="st4" d="M160.7,738.8c1.6-0.3,5.9-0.8,6.4-0.9c0-1.1-0.1-3-0.1-3.6c-0.1-2.7-0.2-5.4-0.2-5.4l-8.2,1.2
	c0,0,0.6,2.8,1.6,6.9C160.3,737.1,160.7,738.7,160.7,738.8L160.7,738.8z"/>
<path class="st2" d="M158.6,730.1c0,0,0.6,2.9,1.5,6.4c0.2,0.8,0.6,2.2,0.6,2.3"/>
<path class="st2" d="M167.1,737.9c0-1.1-0.1-3-0.1-3.6c-0.1-2.7-0.2-5.4-0.2-5.4"/>
<circle class="st3" cx="180.1" cy="620.7" r="15.6"/>
<circle class="st4" cx="276.6" cy="583" r="18.1"/>
<circle id="C-57" class="st4" cx="276.6" cy="583" r="11.2"/>
<path class="st4" d="M283.6,599.7l-95.4,34.4l-13.5-28c0,0,42.3-19.2,52.4-23.8c13.6-6.3,42.5-16.1,42.5-16.1"/>
<path class="st2" d="M174.7,606.1c0,0,42.2-18.6,52.4-23.8c20.4-10.5,42.5-16.1,42.5-16.1"/>
<line class="st2" x1="283.6" y1="599.7" x2="188.1" y2="634.1"/>
<path class="st3" d="M269.6,566.2c0,0-6.2,1.6-19.4,5.1c-12.7,3.4-28.3,7.8-35.5,10.6c0,4,2.8,15.4,5.5,23.6
	c5.3,15.8,9.4,20.5,9.5,21.1c0,0,18.8-10.5,25.6-12.8c12.9-4.3,28.4-14.2,28.4-14.2"/>
<path class="st4" d="M194.2,627.5l-11.6,33.7l-7.3,23.7l-13.4,36c0,0-3.2,0.7-9.2-0.8c-5.9-1.5-9.9-3.3-9.9-3.3s1.8-12.3,6-31.4
	c2.8-12.8,5-25.3,7.3-37c3.2-16.5,9.3-33,9.4-33.2"/>
<path class="st2" d="M142.9,716.7c0,0,2.2-14.1,5.8-30.2c3.3-15,6.1-32,9.2-46.1c2.9-13,7.7-25.2,7.8-25.4"/>
<path class="st2" d="M194.2,627.5c0,0-4.7,14.8-6.4,19.7c-1.4,4-5.9,15.8-5.9,15.8s-4.5,15.6-6.2,20.7c-3.1,9.4-13.8,37.1-13.8,37.1
	"/>
<circle id="C-58" class="st6" cx="180.1" cy="620.7" r="7.5"/>
<path class="st3" d="M261.1,726.6c0,0,10.8-24.1,14.2-32.1c4.7-11.1,13.3-30,18.3-44.6c2-5.8,9.1-22.7,9.1-22.7
	c2.8-6.3,6.8-19.4,7-26.1c0.2-6.1,0-14.8-1.9-20.6s-3.5-11-7.6-15.8c-1.1-1.3-18.6-9.1-21.7-9.5c-0.1,0-0.2,0-0.3,0
	c-8.1-1.1-15.2,2.3-22,6c-6.8,3.8-17,16.3-20.3,23.8c0,0-21.3,44-27.7,59c-3,7.1-11,28.7-11,28.7l-9.9,22.4L261.1,726.6L261.1,726.6
	z"/>
<circle id="C-59" class="st1" cx="226.3" cy="702" r="33.3"/>
<path class="st2" d="M267.4,712.4c0,0-6.4-3.2-16.3-7.3c-10.2-4.1-25.4-9.7-31.5-13.1c-8.4-4.6-25.7-12.3-25.7-12.3"/>
<ellipse transform="matrix(0.1602 -0.9871 0.9871 0.1602 -350.1769 896.6163)" class="st3" cx="351.8" cy="654.1" rx="15.6" ry="15.6"/>
<circle class="st4" cx="276.6" cy="583" r="18.1"/>
<circle id="C-60" class="st4" cx="276.6" cy="583" r="11.2"/>
<path class="st4" d="M288.7,569.5l71.8,71.7L341,665.3c0,0-35.4-30.1-43.9-37.2c-11.5-9.6-32.7-31.6-32.7-31.6"/>
<path class="st2" d="M341,665.2c0,0-34.8-30.2-43.9-37.2c-18.2-14-32.7-31.6-32.7-31.6"/>
<line class="st2" x1="288.7" y1="569.5" x2="360.5" y2="641.2"/>
<path class="st3" d="M264.4,596.4c0,0,4.1,5,12.9,15.4c8.5,10.1,19.1,22.2,24.8,27.6c3.6-1.8,12.8-9.1,19-15
	c12-11.5,14.5-17.2,15-17.6c0,0-17.5-12.5-22.5-17.7c-9.4-9.8-24.9-19.6-24.9-19.6"/>
<g id="match_lucki">
	<path class="st9" d="M444.5,682.6l-1.5-3.4c-0.8-1.7,0.8-4.1,3.4-5.2c40.5-19.9,78.5-32.6,120.3-51.5c2.5-1.1,3.9,0.6,4.6,2.3l0,0
		c0.7,1.7,1.5,3.4-1,4.6c-30.1,13.1-87.9,48.6-119.7,54.3C448,684.8,445.3,684.4,444.5,682.6L444.5,682.6z"/>
	<path class="st10" d="M570.1,620.8c-5.2,4.7-11.1,12.2-18,13.9c1.5-1.8,0.4-2.2-1.8-1.7c-7,3.7-11.5,4.8-18.5,8.5
		c-0.8,0.4-1.7,0.9-2.1,1.7c-0.3,0.6-0.3,1.2-0.5,1.8c-0.4,1-1.6,1.7-2.6,2.2c-5.6,3-12.6,3.2-17.5,7.2c-2.5,2-5,4.6-8.2,4.8
		c-0.9,0-1.8-0.1-2.7-0.2c-3.7-0.3-7.7,1.3-10.4,3.9c-0.7-1.1-2.4-1.2-3.8-0.8s-2.6,1.3-4,2c-4.7,2.1-10.7,2.1-15.5,3.8
		c-3.7,1.3-10,5.3-12,3.4"/>
	<path class="st10" d="M443.7,680.7c6.3-2.1,24.3-9.4,30.9-9c0.3,0,1.3,0.1,1.6,0.4"/>
	<path class="st5" d="M587.5,617.5l-1.7,1C586.3,618.2,586.9,617.8,587.5,617.5z"/>
	<path class="st5" d="M587.6,617.8c-0.6,0.3-1.3,0.5-1.9,0.6L587.6,617.8z"/>
	<path class="st5" d="M564.9,627.7c-3.7-8.2-5.3-22,5.7-34.2c3.5-3.9,9.1-7.5,16.3-9c5.9-1.2,14.3,2.8,22,5.9
		c21.4,8.5,29.5,1.2,29.5,1.2s-3.4,6.6-14.5,15.1c-7.9,6-12.2,10.2-12.4,16c-0.2,8.3,8.1,6.2,8.1,6.2s-7.4,8.7-23.4,15.6
		C579.9,651.4,568.3,635.5,564.9,627.7L564.9,627.7z"/>
	<path class="st9" d="M564.2,626c2.5,5.7,8.6,12.9,19.9,13c6.5,0,13.1-7.4,19.5-16c5-6.7,12.8-17.3,12.8-17.3s-8.5-1.1-16,2.9
		c-4.9,2.7-11.7,3.8-14.6-1.2c-2.5-4.4,5.8-8.5,5.8-8.5s-11.8-4.2-20.6,3.2C561.9,609.8,561.8,620.6,564.2,626L564.2,626z"/>
	<path class="st5" d="M564.4,626.7c1.3,2.9,4.2,6.4,10,6.4c5.1,0,9.7-3.3,12.7-8.1c2.8-4.5,4.3-8.8,4.3-8.8s-4.1,2.5-10.5-0.6
		c-6.5-3.1-9-3.4-12.9-1.3C563.3,616.9,562.3,622,564.4,626.7L564.4,626.7z"/>
	<path class="st5" d="M621.4,622.3c5.2,4.6,12.4-12.9,19-14.2c-8.8-1.1-15.5,3.7-19.2,7.5C619.5,617.5,619.5,620.6,621.4,622.3
		L621.4,622.3z"/>
</g>
<ellipse id="C-61" transform="matrix(0.2312 -0.9729 0.9729 0.2312 -287.8945 991.4609)" class="st3" cx="483.4" cy="677.9" rx="2.1" ry="2.1"/>
<path class="st3" d="M483.2,680c1.3,0.1,2.1,0.1,2.8,0c1.8-0.2,2.3-2.1,1-3c-0.5-0.4-1.5-0.6-3.1-1"/>
<ellipse id="C-62" transform="matrix(0.1872 -0.9823 0.9823 0.1872 -276.6584 1019.7141)" class="st3" cx="477.9" cy="677" rx="2.3" ry="2.4"/>
<path class="st4" d="M483.7,675.9c-2.1-0.4-4-0.9-5.5-1.2c-0.2,1.5-0.5,3.1-0.8,4.6c2,0.3,4,0.5,5.8,0.7
	C483.4,679.1,483.6,676.4,483.7,675.9z"/>
<path class="st2" d="M483.7,675.9c-2.1-0.4-4-0.9-5.5-1.2"/>
<path class="st2" d="M477.5,679.4c2,0.3,4,0.5,5.8,0.7"/>
<ellipse id="C-63" transform="matrix(0.1576 -0.9875 0.9875 0.1576 -269.9575 1035.6594)" class="st3" cx="472.1" cy="676.1" rx="2.7" ry="2.7"/>
<path class="st4" d="M478.2,674.8c-2.3-0.5-5.7-1.3-5.7-1.3l-0.8,5.2c0,0,3,0.4,5.9,0.7C477.7,677.8,478,676.3,478.2,674.8
	L478.2,674.8z"/>
<path class="st2" d="M478.2,674.8c-2.3-0.5-5.7-1.3-5.7-1.3"/>
<path class="st2" d="M471.7,678.7c0,0,3,0.4,5.9,0.7"/>
<ellipse id="C-64" transform="matrix(0.3325 -0.9431 0.9431 0.3325 -307.8936 907.3785)" class="st3" cx="487.1" cy="671.2" rx="2.5" ry="2.5"/>
<path class="st3" d="M488.1,669c1.4,0.7,3.9,1.8,4.6,2.3c1.7,1.4,0.9,3.6-1,3.7c-0.8,0-3.6-0.8-5.5-1.5"/>
<ellipse id="C-65" transform="matrix(0.2681 -0.9634 0.9634 0.2681 -292.8954 952.7607)" class="st3" cx="480.6" cy="669.1" rx="2.8" ry="2.9"/>
<path class="st4" d="M486.3,673.6c-2.4-0.7-4.9-1.4-6.5-1.9c0.5-1.8,1-3.6,1.6-5.3c2.2,0.8,4.6,1.8,6.7,2.6
	C487.6,670,486.4,673,486.3,673.6z"/>
<path class="st2" d="M486.3,673.6c-2.4-0.7-4.9-1.4-6.5-1.9"/>
<path class="st2" d="M481.3,666.4c2.2,0.8,4.6,1.8,6.7,2.6"/>
<ellipse id="C-66" transform="matrix(7.602295e-02 -0.9971 0.9971 7.602295e-02 -229.1291 1089.9861)" class="st3" cx="473.6" cy="668.6" rx="3.2" ry="3.3"/>
<path class="st4" d="M480.3,671.8c-2.9-0.1-7,0-7,0l0.5-6.3c0,0,3.6,0.4,7,0.8C480.6,668.2,480.5,670,480.3,671.8L480.3,671.8z"/>
<path class="st2" d="M480.3,671.8c-2.9-0.1-7,0-7,0"/>
<path class="st2" d="M473.8,665.5c0,0,3.6,0.4,7,0.8"/>
<circle id="C-67" class="st3" cx="490.3" cy="659.4" r="2.8"/>
<path class="st3" d="M489.3,662c1.6,0.6,3.1,1.1,4,1.2c2.4,0.3,3.5-2.1,2.3-3.6c-0.5-0.7-2.2-1.6-4.1-2.6"/>
<circle id="C-68" class="st3" cx="482.2" cy="656.5" r="3.1"/>
<path class="st4" d="M491.2,656.8c-2.5-1-6.2-2.5-7.9-3.2c-0.7,1.9-1.5,3.8-2.3,5.8c2.4,0.8,6.2,2,8.5,2.7
	C489.9,660.8,491,657.4,491.2,656.8L491.2,656.8z"/>
<path class="st2" d="M491.2,656.8c-2.5-1-6.2-2.5-7.9-3.2"/>
<path class="st2" d="M481,659.4c2.4,0.8,6.2,2,8.5,2.7"/>
<circle id="C-69" class="st3" cx="474.7" cy="657.9" r="3.5"/>
<path class="st4" d="M481.5,653.5c-3.1,0.5-7.5,1-7.5,1l1.4,6.9c0,0,3.8-0.9,7.4-1.9C482.3,657.5,481.9,655.5,481.5,653.5
	L481.5,653.5z"/>
<path class="st2" d="M481.5,653.5c-3.1,0.5-7.5,1-7.5,1"/>
<path class="st2" d="M475.4,661.4c0,0,3.8-0.9,7.4-1.9"/>
<ellipse id="C-70" transform="matrix(0.4134 -0.9105 0.9105 0.4134 -317.9458 836.8452)" class="st3" cx="490.5" cy="665.2" rx="2.6" ry="2.7"/>
<path class="st3" d="M491.9,663c1.4,0.9,3.7,2.1,4.3,2.7c1.7,1.7,0.6,3.9-1.4,3.9c-0.8,0-3.4-1.1-5.4-1.9"/>
<ellipse id="C-71" transform="matrix(0.351 -0.9364 0.9364 0.351 -306.278 883.1435)" class="st3" cx="484" cy="662.5" rx="3" ry="3.1"/>
<path class="st4" d="M489.4,667.6c-2.5-1-4.9-1.8-6.6-2.4c0.8-1.8,1.4-3.7,2.2-5.5c2.3,1,4.5,2.1,6.7,3.2
	C491.2,664,489.6,667.1,489.4,667.6L489.4,667.6z"/>
<path class="st2" d="M489.4,667.6c-2.5-1-4.9-1.8-6.6-2.4"/>
<path class="st2" d="M485,659.7c2.3,1,4.5,2.1,6.7,3.2"/>
<ellipse id="C-72" transform="matrix(2.879398e-02 -0.9996 0.9996 2.879398e-02 -201.8506 1118.0106)" class="st3" cx="474.4" cy="662.9" rx="3.4" ry="3.5"/>
<path class="st4" d="M484,665.4c-3.1,0.1-9.8,0.8-9.8,0.8l0.2-6.8c0,0,6.1-0.2,9.8,0.1C484.2,661.5,484.1,663.4,484,665.4L484,665.4
	z"/>
<path class="st2" d="M484,665.4c-3.1,0.1-9.8,0.8-9.8,0.8"/>
<path class="st2" d="M474.5,659.4c0,0,6.1-0.2,9.8,0.1"/>
<circle id="C-73" class="st3" cx="453.7" cy="670.2" r="9.8"/>
<path class="st4" d="M450.6,660.9c0,0,4-1.4,5.3-1.8c4.3-1.1,7.8-2.1,7.8-2.1l10.2-2.5l-0.2,6.8c0,0,0,5.7-1,12.1
	c-0.4,2.2-1,5.3-1,5.3s-5.5,1.9-11.4,2.3c-2.5,0.2-8.5-1.1-8.5-1.1s2.4-4.6,2.2-9.1C453.9,666.2,450.6,660.9,450.6,660.9
	L450.6,660.9z"/>
<path class="st2" d="M471.7,678.7c0,0-2.5,1.1-7.8,1.9c-5.5,0.9-11.8-0.7-11.8-0.7"/>
<path class="st2" d="M450.6,660.9c0,0,3.1-1.4,8-2.6c3-0.8,15.3-3.8,15.3-3.8"/>
<path class="st4" d="M356.9,639.4l34.8,7.5l24.4,4.5l37.3,9.1c0,0,1.1,3.1,0.3,9.2c-0.8,6-2.2,10.2-2.2,10.2s-12.4-0.4-31.9-2.3
	c-13-1.3-25.7-2-37.6-2.9c-16.8-1.3-33.8-5.4-34.1-5.5"/>
<path class="st2" d="M451.5,679.8c0,0-14.2-0.5-30.6-2.2c-15.3-1.5-32.5-2.3-46.9-3.8c-13.3-1.3-25.9-4.7-26.1-4.7"/>
<path class="st2" d="M356.9,639.4c0,0,15.3,2.9,20.3,4c4.1,0.9,16.4,4,16.4,4s16,2.6,21.3,3.7c9.7,2,38.5,9.3,38.5,9.3"/>
<circle id="C-74" class="st6" cx="351.8" cy="654.1" r="7.5"/>
<path class="st5" d="M152.6,315.1L152.6,315.1c-3.7,0-6.8-3-6.8-6.8c3.7-24.2-0.9-72.2,0-103.5c0-3.7,3-6.8,6.8-6.8l0,0
	c3.7,0,6.8,3,6.8,6.8c-1.9,25.8,4.7,75.1,0,103.5C159.4,312,156.4,315.1,152.6,315.1z"/>
<path class="st5" d="M154.3,357.6c-6.9,0-11.6-5.6-11.6-11.6s4.7-8.1,11.6-8.1s9.8,2.1,9.8,8.1S161.2,357.6,154.3,357.6z"/>
<g id="abstract_bg">
	<path class="st9" d="M548.2,79.5c0,0-14-19.3-16.3-25.2c-2.4-5.9,1.8-7.5,4.6-5.9C539.3,50,548.5,75.3,548.2,79.5L548.2,79.5z"/>
	<path class="st9" d="M517,106.9c0,0-19.9-13.1-24.2-17.8c-4.3-4.7-1-7.6,2.2-7.1C498.3,82.4,515.7,102.9,517,106.9L517,106.9z"/>
	<path class="st9" d="M498.1,129.5c0,0-16.7-2.6-20.8-4.3c-4.2-1.8-2.9-4.6-0.7-5.3S496.1,127.2,498.1,129.5z"/>
	<path class="st2" d="M243.7,101c0,0-3-4.1-8-3.3c-5,0.9-4.1,10-4.1,10s-3.6-1.7-7.6,0c-4,1.7-3,9.1-3,9.1s-2.3,0.5-6.3,3.3
		c-4,2.7-1.1,10.4-1.1,10.4s-7.2-1.3-9.1,1.7c-2,3,0,8.7,0,8.7"/>
	<path class="st9" d="M814.4,619.2c0,0,12.8,1.8,9.6,8.2c-3.2,6.4-14.7,1.8-14.7,1.8s6,5.7,4.6,10.3s-12.3,4.4-12.3,4.4
		s4.2,0.8,3.4,6.4c-0.8,5.6-10.1,1.7-10.1,1.7"/>
	<path class="st9" d="M476.4,264.6c0,0,0.8-3.9,5.3-8.6s10.6-8.6,10.6-8.6l-10.9-11.6c0,0-8.7,3.7-11.8,7.8s-3.8,13.6-3.8,13.6
		L476.4,264.6L476.4,264.6z"/>
	<path class="st9" d="M258.4,405.6c0,0-5.7,2.1-9.4,7.6c-3.7,5.5-3.1,11.4-3.1,11.4l-7.3-0.9c0,0-1-9.4,4.4-16s11.1-8.2,11.1-8.2
		L258.4,405.6L258.4,405.6z"/>
	<path class="st9" d="M1063.3,56.9c0,0,9,1.4,16.1,8.4c7.1,7,7.9,15.9,7.9,15.9l10.4-3.5c0,0-1.3-14.1-11.1-22.2s-18.6-8.8-18.6-8.8
		L1063.3,56.9L1063.3,56.9z"/>
	<path class="st9" d="M240.1,700.6c0,0,4.5-7.6,3.6-9.7c-0.8-2.1-21.3-9.6-23.5-8.6c-2.2,1-3.7,8.8-3.3,10.6
		S240.1,700.6,240.1,700.6L240.1,700.6z"/>
	<path class="st9" d="M1286.9,467.4c0,0-0.3,10.3-2.6,18.1c-2.3,7.8-6.3,17.7-6.3,17.7"/>
	<path class="st9" d="M1294.6,470.9c0,0-1.3,16-4.2,22.5s-6.1,19-6.1,19"/>
	<path class="st9" d="M1296,497c0,0,0.3,8.7-1.3,12.4c-1.7,3.6-2.7,8-2.7,8"/>
	<path class="st9" d="M487.9,411.7c0,0-4,2.4-6.4,6.8c-2.4,4.4-2.5,9.4-2.5,9.4"/>
	<path class="st9" d="M479.7,405.3c0,0-4.1,4.6-5.7,7.4s-3.7,8.4-3.7,8.4"/>
	<path class="st0" d="M565.8,533.8C565.8,533.8,565.8,533.8,565.8,533.8c0.6,0.1,1.1-0.1,1.6-0.2c0.5-0.1,1.1-0.3,1.7-0.4
		c0.6-0.1,1.6-0.6,2,0c0.2,0.3,0.3,0.7,0.5,1c0.3,0.8,0.6,1.6,1,2.3c0.1-0.5,0.7-1.7,1-2.5c0.1-0.2,0.2-0.5,0.2-0.7s0.1-0.5,0.3-0.7
		c0.4-0.5,1.2-0.3,1.7-0.3c0.5,0,1,0,1.4,0c0.1,0,1.3,0.2,1-0.2c0,0,0,0,0,0c-0.7-0.6-1.5-1.2-2.2-1.7c-0.2-0.2-0.4-0.3-0.6-0.5
		s-0.5-0.2-0.6-0.5c0,0,0-0.1,0-0.1c-0.1-0.5,0.2-1.1,0.3-1.6c0.1-0.5,0.3-0.9,0.4-1.4c0.1-0.2,0.4-1.1,0.2-1.3
		c-0.2-0.3-1.3,0.7-1.5,0.9c-0.5,0.4-1,0.8-1.5,1.3c-0.2,0.1-0.4,0.3-0.6,0.3c-0.1,0-0.2,0-0.3,0c-0.2,0-0.4,0-0.6,0
		c-0.2-0.1-0.4-0.2-0.6-0.2c-0.4-0.2-0.8-0.3-1.2-0.5c-0.3-0.1-0.8-0.1-1.1-0.4c0,0,0,0-0.1,0c-0.1,0-0.1,0.1-0.1,0.1
		c-0.1,0.3,0.2,0.7,0.4,1c0.2,0.4,0.3,0.7,0.5,1.1c0.1,0.3,0.3,0.5,0.4,0.8c0.1,0.4,0.1,0.6-0.2,0.9c-0.4,0.3-0.8,0.7-1.1,1
		c-0.4,0.4-0.9,0.8-1.3,1.2C566.4,532.8,565.8,533.2,565.8,533.8C565.8,533.7,565.8,533.7,565.8,533.8L565.8,533.8z"/>
	<path class="st9" d="M856,315.4C856,315.4,856,315.4,856,315.4c0.5-0.8,0.9-2.7,0.9-3.5c0.1-0.9-0.2-2.6,1-2.9
		c0.5-0.1,1.1-0.2,1.7-0.2c1.3-0.1,2.6-0.2,3.8-0.3c-0.6-0.4-2.1-1.9-3-2.5c-0.3-0.2-0.6-0.4-0.9-0.7s-0.6-0.4-0.8-0.7
		c-0.5-0.8,0.2-1.9,0.4-2.6c0.2-0.7,0.4-1.4,0.7-2c0-0.1,0.9-1.7,0.1-1.5c0,0-0.1,0-0.1,0c-1.2,0.8-2.3,1.5-3.5,2.3
		c-0.3,0.2-0.6,0.5-1,0.7s-0.6,0.6-1,0.6c0,0-0.1,0-0.2,0c-0.7-0.1-1.5-0.8-2.1-1.2c-0.6-0.4-1.2-0.8-1.8-1.2
		c-0.3-0.2-1.4-1-1.8-0.9c-0.6,0.2,0.4,2.1,0.6,2.5c0.3,0.9,0.7,1.8,1.1,2.8c0.1,0.3,0.2,0.7,0.2,1c0,0.1,0,0.3-0.1,0.4
		c-0.1,0.3-0.2,0.6-0.3,0.9c-0.2,0.2-0.5,0.5-0.6,0.7c-0.4,0.5-0.8,1-1.2,1.4c-0.4,0.4-0.5,1-1,1.3c0,0-0.1,0-0.1,0.1
		c0,0.1,0,0.2,0.1,0.3c0.4,0.2,1.1,0,1.6,0c0.6-0.1,1.2-0.1,1.8-0.2c0.4,0,0.9-0.1,1.3-0.2c0.6,0,0.9,0.1,1.2,0.7
		c0.3,0.7,0.6,1.4,0.9,2.1C854.2,313.1,855.2,315,856,315.4C855.9,315.4,856,315.4,856,315.4L856,315.4z"/>
</g>
</svg>
