<?xml version="1.0" encoding="utf-8"?>
<!-- Generator: Adobe Illustrator 27.9.0, SVG Export Plug-In . SVG Version: 6.00 Build 0)  -->
<svg version="1.1" id="Layer_1" xmlns="http://www.w3.org/2000/svg" xmlns:xlink="http://www.w3.org/1999/xlink" x="0px" y="0px"
	 viewBox="0 0 1202.8 851.8" style="enable-background:new 0 0 1202.8 851.8;" xml:space="preserve">
<style type="text/css">
	.st0{fill:#020202;stroke:#020202;stroke-width:1.7;stroke-linejoin:round;}
	.st1{fill:#FFFFFF;stroke:#020202;stroke-width:1.7;stroke-linejoin:round;}
	.st2{fill:#FFD800;stroke:#020202;stroke-width:1.7;stroke-linecap:round;stroke-miterlimit:10;}
	.st3{fill:#020202;}
	.st4{fill:none;stroke:#020202;stroke-width:1.7;stroke-linecap:round;stroke-linejoin:round;}
	.st5{fill:none;stroke:#020202;stroke-width:1.7;stroke-linejoin:round;}
	.st6{fill:#FFFFFF;stroke:#020202;stroke-width:1.7;stroke-linecap:round;stroke-linejoin:round;}
	.st7{fill:#FFFFFF;}
	.st8{fill:#020202;stroke:#020202;stroke-width:1.7;stroke-linecap:round;stroke-linejoin:round;}
	.st9{fill:none;stroke:#FFFFFF;stroke-width:1.7;stroke-linecap:round;stroke-linejoin:round;}
	.st10{fill:none;}
	.st11{fill:#FFFFFF;stroke:#020202;stroke-width:1.7;stroke-linecap:round;stroke-linejoin:round;stroke-miterlimit:4;}
	.st12{fill:#FFFFFF;stroke:#FFFFFF;stroke-width:1.7;stroke-linecap:round;stroke-linejoin:round;}
</style>
<polygon class="st0" points="678.1,827.6 589.4,498.8 587,499.5 584.5,498.8 492.2,826.6 497.1,828 584.4,518.1 584.4,856.6 
	589.5,856.6 589.5,518.9 673.1,828.9 "/>
<path class="st0" d="M506.3,831.6c-8.5,0.3-17.2,0.7-20,0c-0.7,0-1.2-0.6-1.2-1.2v-7.4c0-0.7,0.6-1.2,1.2-1.2c7.9-0.6,15.5-1,20,0
	c0.7,0,1.2,0.6,1.2,1.2v7.4C507.5,831,507,831.6,506.3,831.6z"/>
<path class="st0" d="M597,861.7c-8.5,0.3-17.2,0.7-20.1,0c-0.7,0-1.2-0.6-1.2-1.2V853c0-0.7,0.6-1.2,1.2-1.2c7.9-0.6,15.5-1,20.1,0
	c0.7,0,1.2,0.6,1.2,1.2v7.4C598.2,861.1,597.7,861.7,597,861.7z"/>
<path class="st0" d="M686,835.5c-8.5,0.3-17.2,0.7-20,0c-0.7,0-1.2-0.6-1.2-1.2v-7.4c0-0.7,0.6-1.2,1.2-1.2c7.9-0.6,15.5-1,20,0
	c0.7,0,1.2,0.6,1.2,1.2v7.4C687.2,834.9,686.7,835.5,686,835.5z"/>
<path class="st0" d="M637,521.1c-25.3,4.1-61.4,2-97.8-0.4c-2.7-0.2-5-2.3-5.3-5c-0.8-6.3-1-12.1,0.7-16.2h106.2
	c1.6,5.8,1.9,11.4,0.9,17C641.2,518.9,639.3,520.7,637,521.1L637,521.1z"/>
<path class="st0" d="M613.2,58.2c-14.5,1-30.6-2.9-49.7-0.4c-1,0.1-1.8,1-1.8,2c-0.4,9.6-2.8,16.3,0,24.8H615
	c-0.2-8.5,1.7-16.9,0.4-24.7C615.2,58.9,614.3,58.1,613.2,58.2L613.2,58.2z"/>
<path class="st0" d="M597,31.2c-4.9-0.7-11.4,0.2-17.1,0.3c-1.1,0-2,0.9-2.1,2c-1.2,13,0,32.1,0.2,51.1h20.7
	c0-19.3,0.9-38.6,0.1-51.4C598.8,32.2,598,31.3,597,31.2L597,31.2z"/>
<path class="st1" d="M873.9,480.4H302.9c-0.1-114-12.3-237.8,0-376.8h570.9C874.9,229.7,882.6,357.3,873.9,480.4z"/>
<path class="st1" d="M895.1,103.6c-213.6,1.2-491.4,4.6-613.3,0c-2,0-3.5-1.6-3.5-3.5c-0.8-4.7-1.1-8.9,0-11.9c0-2,1.6-3.5,3.5-3.5
	c224.5-5.4,499-2.3,613.3,0c2,0,3.6,1.6,3.6,3.5c0.9,4.7,1.1,8.8,0,11.9C898.6,102,897,103.6,895.1,103.6z"/>
<path class="st1" d="M894.3,499.5c-231.8,0-450.3,3.8-611.9,0c-2.4,0-4.3-1.9-4.3-4.3c0.1-3.7-1.3-7.5,0-10.5c0-2.4,1.9-4.3,4.3-4.3
	c214.8-5.7,420-6.4,611.9,0c2.4,0,4.3,1.9,4.3,4.3c0.7,4.1,0.8,7.9,0,10.5C898.6,497.6,896.7,499.5,894.3,499.5z"/>
<path class="st0" d="M382.1,195.4c-17.5,13.3-25.1,34.2-25,54.4c0.1,24.6,10.6,49.5,30.5,64c17,12.4,39.4,17.1,60.2,13
	s39.5-16.8,51.4-34.2c12.1-17.7,17.1-40.2,12.6-61.2c-4.4-20.9-18.5-39.8-37.6-49.3c-4.3-2.1-8.8-3.8-13.5-5.1
	c-26.3-7.2-56-0.8-76.9,16.8L382.1,195.4L382.1,195.4z"/>
<path class="st2" d="M373.8,236.7c-5.5,22,3.3,46.6,20.9,60.8s43.1,17.6,64.1,9.2c12.1-4.8,22.8-13.4,29.7-24.5
	c9.6-15.4,11.3-35.5,4.5-52.3c-6.8-16.8-22-30-39.7-34.4c-6.6-1.6-13.5-2.1-20.2-1.9c-12.7,0.4-28.7,1.4-38.4,10.2
	S377,223.8,373.8,236.7L373.8,236.7z"/>
<path class="st0" d="M388.2,254.8c0.4,16.3,10,32.1,24.2,39.9c17.6,9.7,41.4,6.4,55.8-7.7s18.1-37.8,8.9-55.7
	c-6-11.6-16.9-20.6-29.5-24.1C417.6,198.8,387.5,223.9,388.2,254.8L388.2,254.8z"/>
<path class="st2" d="M407.1,268.5c7.2,13.4,24.7,20,39.1,15.1s24.1-20.7,22.4-35.8c-0.5-4.4-1.8-8.8-4.1-12.6
	c-4.6-7.5-12.9-12.4-21.6-13.7C417.6,218.1,394.1,244.3,407.1,268.5z"/>
<path class="st0" d="M436.8,266.7c2.5,0.1,5-0.2,7.3-1.3c5.1-2.6,7.3-8.9,7.4-14.7c0-2.2-0.2-4.4-1.2-6.3
	c-4.5-9.2-21.8-8.7-27.3-0.8C415.8,253.8,426.2,266.1,436.8,266.7z"/>
<path class="st3" d="M512.2,165.7c0-0.7,0-1.4,0.3-2.1c0.2-0.6,0.7-1.1,1.1-1.6c7.5-8.2,15.6-15.9,24.3-22.8c-0.7,8.7-1,17.5-1,26.2
	c8.8,0.2,17.6,0.4,26.3,0.5c-7.5,8-15.2,15.9-23.1,23.5c-0.6,0.6-1.3,1.2-2.1,1.5c-0.6,0.2-1.3,0.2-1.9,0.1
	c-8.1-0.6-16.4-4.2-24.6-2.8C512.8,188.2,512.2,168.4,512.2,165.7L512.2,165.7z"/>
<path class="st4" d="M534.8,168.8c-32.2,26.1-63.4,53.7-93.2,82.5"/>
<path class="st0" d="M357,392.9c-0.3,3.6,2.1,7.3,5.5,8.5c1.5,0.6,3.2,0.7,4.7,0.5c1.9-0.2,3.8-0.8,5.3-2c3.3-2.6,4.4-10.1,1.5-13.2
	C367.6,379.7,357.7,384.7,357,392.9z"/>
<path class="st4" d="M391.6,393.1c29.9,0,75.5-2.2,102.6-0.4"/>
<path class="st1" d="M357,430c-0.3,3.6,2,8.2,5.4,9.4c1.5,0.6,3.2,0.7,4.7,0.5c1.9-0.2,3.8-0.8,5.3-2c3.3-2.6,4.4-10.1,1.5-13.2
	C367.5,417.6,357.6,421.8,357,430z"/>
<path class="st4" d="M391.5,431.1c29.9,0,148.7,0.1,175.8,1.8"/>
<path class="st0" d="M609.5,392.9c-0.3,3.6,2.1,7.3,5.5,8.5c1.5,0.6,3.2,0.7,4.7,0.5c1.9-0.2,3.8-0.8,5.3-2
	c3.3-2.6,4.4-10.1,1.5-13.2C620.1,379.7,610.1,384.7,609.5,392.9z"/>
<path class="st4" d="M644.1,393.1c29.9,0,75.5-2.2,102.6-0.4"/>
<path class="st1" d="M609.5,430c-0.3,3.6,2,8.2,5.4,9.4c1.5,0.6,3.2,0.7,4.7,0.5c1.9-0.2,3.8-0.8,5.3-2c3.3-2.6,4.4-10.1,1.5-13.2
	C620,417.6,610.1,421.8,609.5,430z"/>
<path class="st4" d="M644,431.1c29.9,0,148.7,0.1,175.8,1.8"/>
<path class="st2" d="M707.8,214.2c-1.9,3.9-4.6,7.4-8.3,10.2c-9.7,7.3-19.1,10.1-31.2,9.2c-11.1-0.8-20-6.9-22.6-9.7
	c-4.9-5.2-8.9-11.2-11.2-18c-2.3-6.7-2.8-14.1-0.8-21c3.8-13.2,9.8-18.7,13.8-22.1c9.2-8,20.9-9.1,26.5-8.5
	c4.2,0.4,9.7,0.3,16.3,3.7c4,2,8.4,5.3,13.2,10.7c5.2,5.8,8.1,17.8,8.2,23.6C712,200,711,207.7,707.8,214.2L707.8,214.2z"/>
<path class="st4" d="M690.2,157.9c-14.6,29.3-22.4,41.9-36.7,71.4"/>
<path class="st4" d="M665.5,154.7c1.9,10.6,4,27.9,5.8,39.6c7.7,5.7,17.1,9.7,36.4,20"/>
<path class="st0" d="M707.8,214.2c-4.1-2.4-10.8-5.6-16.7-8.6c-9.8-4.9-19.7-11.3-19.7-11.3s13.3-25.3,19.1-36.3
	c4,2,8.4,5.3,13.2,10.7c5.2,5.8,8.1,17.8,8.2,23.6C712,200,711,207.7,707.8,214.2L707.8,214.2z"/>
<path class="st4" d="M726.3,173.8c29.9,0,75.5-2.2,102.6-0.4"/>
<path class="st4" d="M798,190.1c11.5,0,22.2,0.1,30.9,0.7"/>
<path class="st4" d="M726.3,191.2c16.5,0,37.8-0.7,58.1-1"/>
<path class="st4" d="M726.3,208.7c29.9,0,75.5-2.2,102.6-0.4"/>
<path class="st2" d="M692.4,264.8c3.9,1.9,7.4,4.6,10.2,8.3c7.3,9.7,10.1,19.1,9.2,31.2c-0.8,11.1-6.9,20-9.7,22.5
	c-5.2,4.9-11.2,8.9-18,11.2c-6.7,2.3-14.1,2.8-20.9,0.8c-13.2-3.8-18.7-9.8-22.1-13.8c-8.1-9.2-9.1-20.9-8.6-26.5
	c0.4-4.2,0.3-9.7,3.7-16.3c2-4,5.3-8.4,10.7-13.2c5.8-5.2,17.8-8.1,23.6-8.2C678.2,260.5,685.9,261.6,692.4,264.8L692.4,264.8z"/>
<path class="st4" d="M636.2,282.3c29.3,14.6,41.9,22.4,71.4,36.7"/>
<path class="st4" d="M632.9,307.1c10.6-2,27.9-4,39.6-5.8c5.7-7.7,9.7-17.1,20-36.4"/>
<path class="st0" d="M692.4,264.8c-2.4,4.1-5.6,10.8-8.6,16.7c-4.9,9.8-11.3,19.7-11.3,19.7s-25.3-13.3-36.3-19.1
	c2-4,5.3-8.4,10.7-13.2c5.8-5.2,17.8-8.1,23.6-8.2C678.2,260.5,685.9,261.6,692.4,264.8L692.4,264.8z"/>
<path class="st4" d="M761.2,283.8c23.7-0.5,48.8-1,66.2,0.1"/>
<path class="st4" d="M724.8,284.3c8,0,17.2-0.2,26.8-0.3"/>
<path class="st4" d="M796.4,300.7c11.5,0,22.2,0.1,30.9,0.7"/>
<path class="st4" d="M724.8,301.8c16.5,0,37.8-0.7,58.1-1"/>
<path class="st4" d="M724.8,319.2c29.9,0,75.5-2.2,102.6-0.4"/>
<path class="st5" d="M1153.8,836c-262.1-1-523.8-10-786.4-0.6c-6.1,0.2-12.2,0.4-18.3,0.7c-115.9-1.2-233.6,6.8-349.1,3.7"/>
<g id="Artwork_2826">
	<circle class="st6" cx="1042.5" cy="238.1" r="12"/>
	<circle id="C" class="st6" cx="1042.6" cy="263" r="12"/>
	<polyline class="st7" points="1030.6,263.8 1030.4,238.3 1054.5,238.1 1054.6,263.2 	"/>
	<line class="st4" x1="1054.5" y1="238.1" x2="1054.6" y2="263.2"/>
	<line class="st4" x1="1030.6" y1="263.8" x2="1030.4" y2="238.3"/>
	<path class="st8" d="M992.5,189.2c0,0-9.5-4.9-9.3-8.5c0.2-3.6,2-4.3,2-4.3s-4.3-1.3-4.1-5.6c0.2-4.2,3.1-6.8,3.1-6.8
		s-4.5-0.8-5.1-6.1s3.1-8.8,3.1-8.8s-3.4-6.4-1.2-10.1c2.2-3.7,8-3.6,8-3.6s-1.9-5.8,1.6-9.7c3.5-4,3.8-2.4,5-2.2s-1.3-8.6,1.9-11.1
		s6.4-1.1,6.4-1.1s0.2-4.3,5.2-6.7s12.8,3.1,12.6,3.6s1.1-4.8,5.9-5.2s10.7,6.3,10.7,6.3s-0.3-7.1,4.8-6.3c5.2,0.7,5.2,7.4,5.2,7.4
		s3.8-8.2,10.8-6.7c7,1.5,8.8,6.5,8.8,6.5s6.6-3.4,10.3-0.5s2.8,9.4,2.8,9.4s6.2,0.8,7.9,5s-1.3,8.5-1.3,8.5s4.1,1.8,5.5,5.9
		c1.4,4.1-1.3,9-1.3,9s6.3,2.8,7.2,9.2s-7.4,8.6-7.4,8.6s4.5,2.8,3.4,8.1s-6.4,10.1-6.4,10.1s2.3,4.3-0.7,8.4s-53,18.7-69.1,14.7
		C1003.1,202.5,992.5,189.2,992.5,189.2L992.5,189.2z"/>
	<path class="st6" d="M1007.1,136.6c-11.9,8.3-15.7,18.3-15.2,32.8c0.5,17.5-5.6,31.8,3.6,50.6c8.8,17.9,24.3,21.9,38.5,22.2
		c14.2,0.2,36.6-12.7,42.6-32c5.9-19.3,8.4-24,8.1-43.9c-0.3-19.9-14.2-32.8-44.3-35.8C1028.1,129.1,1014.2,131.7,1007.1,136.6
		L1007.1,136.6z"/>
	<path class="st4" d="M1020.6,205.4c0,0-6.2,0.1-6.3-3.5c0-1.4,0.9-2.8,3.3-5.2c1.2-1.2,3.4-3.7,3.6-5.4"/>
	<path class="st4" d="M1011.8,212.5c0,0,1.8,4.1,7.4,3.9c5.2-0.2,8.8-5.5,8.8-5.5"/>
	<ellipse class="st8" cx="1003.4" cy="192.5" rx="2.2" ry="3.3"/>
	<ellipse class="st8" cx="1040.3" cy="192.9" rx="1.9" ry="2.9"/>
	<path class="st3" d="M1052.6,180.5c0.6-0.2,1.4-1.3,0.1-2.4c-2.2-1.8-8.2-4.4-12.8-4.1c-2.6,0.1-4.8,0.7-6.3,1.2
		c-1.5,0.5-1.9,2.5-0.7,3.6l0,0c0.6,0.5,1.5,0.7,2.3,0.4c1.4-0.5,3.8-1.2,7.1-1C1046.7,178.6,1049.3,181.9,1052.6,180.5
		L1052.6,180.5z"/>
	<path class="st3" d="M992.6,179.8c-0.4-0.2-1.1-1.3,0-2.4c1.8-1.8,6.7-4.5,10.4-4.4c2.1,0.1,3.8,0.6,5.1,1.1
		c1.2,0.5,1.5,2.5,0.5,3.5l0,0c-0.5,0.5-1.2,0.8-1.8,0.5c-1.1-0.5-3.1-1.2-5.7-0.8C997.4,177.8,995.2,181.1,992.6,179.8L992.6,179.8
		z"/>
	<path class="st8" d="M988.6,182.7c0,0,1.4,0,3-4.9c1.5-5-3.1-11-3.1-11s6.1-1.4,7-3.9s-3.6-7.2-3.6-7.2s3.2,1.8,8.3,0
		c5.1-1.8,4.7-12.7,4.7-12.7s1.3,3.4,5.2,5s7.9-3.3,7.9-3.3s-3,4.7,0,7s7-0.5,7-0.5s-3.5,8.7,0,10.1s8.5-3.6,8.5-3.6s-0.3,4,3.9,4.4
		s5.2-8,3-8.5s-2.3-2.1-2.3-2.1s0.8-1.7,4-2.6c3.2-1,4.1-5.1,4.1-5.1s-1.3,5.5,3.4,7.9c4.7,2.3,8.7-0.1,8.7-0.1s-1.8,5.1,1.7,7.2
		s8.1-0.5,8.1-0.5s-4.3,3.7-1.9,8c2.3,4.3,6.2,6.5,6.2,6.5s-3,5.8-2.2,9.7s3.4,6.8,3.4,6.8l6.4-0.8c0,0,14.4-20.5,4.6-40.8
		c-9.8-20.3-21.6-27-51.9-25.3c-19.6,1.1-32.5,8.2-39.5,17.4c-7,9.2-10.9,15.3-9.2,24.5C985.8,173.2,988.5,182.7,988.6,182.7
		L988.6,182.7z"/>
	<path class="st6" d="M1073.3,189.2c0,0,6.3-8.9,14.5-3.8c9.8,6.1-3.2,27.6-11.3,24.7c-0.9-0.3-1.9-1-2.8-1.7
		c-1.5-1.3-2.3-3.2-2.2-5.2l0.2-2.4"/>
	<path class="st6" d="M1081.1,193.4l-4.3,4.3c0,0,1.9,0.3,3,3.4"/>
</g>
<circle class="st8" cx="893.6" cy="819.1" r="20.9"/>
<path class="st6" d="M892.6,820.8c-4,1.1-8,2-12.1,2.9c-2.3,0.5-4.6,1.1-6.8,2c2.8,8.3,10.6,14.3,19.8,14.3c11.6,0,21-9.3,21-20.9
	c0-1.3-0.1-2.6-0.3-3.8C906.9,817.1,899.7,818.9,892.6,820.8L892.6,820.8z"/>
<circle id="C-2" class="st8" cx="893.6" cy="819.1" r="14.1"/>
<path class="st8" d="M883.6,800.9c-3,1.8-5.9,3.6-8.6,5.2c-12.2,7.4-27,17.2-20.8,25.3c5.9,7.8,39.9,8.6,39.9,8.6s0.2-0.1,0.5-0.1
	C890.9,826.9,887.5,813.8,883.6,800.9L883.6,800.9z"/>
<path class="st6" d="M894.1,833.2c-4.8,0-11.2-0.1-16.9-1c-11.9-1.9-15.6-6.2-18.1-8.8s-2.6,3.5-2.6,3.5s-2.9,6.9,10,10.9
	c5.5,1.7,18,2.2,18,2.2l11.1-0.1"/>
<path class="st8" d="M853,825.1c0,0,1.7-7.2,7.5-5.6s5,9.3,12.4,15.9c4.6,4,11.5,4.7,11.5,4.7s-17.1,0.1-22.7,0s-8.5-6.8-8.9-10.1
	C852.5,827.4,853,825.1,853,825.1L853,825.1z"/>
<circle id="C-3" class="st6" cx="931.1" cy="785.5" r="17.5"/>
<path class="st7" d="M895.2,798.7l18.5-16l34.9,4c0,0-0.4,10.9-1.4,17.8s-16.6,12.3-31.2,9.6S895.2,798.7,895.2,798.7L895.2,798.7z"
	/>
<path class="st8" d="M957.3,810.3c-1.2-12.3-8.8-23.7-8.8-23.7s-11.6,26.6-24.8,16.5c-2.7-2.1,1.8-13.5,1.8-13.5l-11.9-7
	c0,0-16.3,9.9-29.7,18.1c4,13.2,7.3,25.9,11.1,39.2c6.7-1.9,25.3-7.2,32.7-9.3c9.3-2.7,31.2-6,31.2-6S958.2,819.8,957.3,810.3
	L957.3,810.3z"/>
<path class="st6" d="M894,839.9l57.9,0.2c6,0,10.6-5.4,9.5-11.3l-0.5-2.8c-0.3-1.5-1.6-2.6-3.1-2.6c-5.2-0.1-18,0.4-39.5,6.2
	c-5.9,1.6-16.8,3.6-26,3.9"/>
<line class="st9" x1="911.7" y1="797.5" x2="902.3" y2="791"/>
<line class="st9" x1="904.5" y1="802.6" x2="894.6" y2="795.3"/>
<line class="st9" x1="895.7" y1="806.4" x2="887.5" y2="800.1"/>
<circle id="C-4" class="st6" cx="1087.4" cy="785.7" r="17.5"/>
<path class="st6" d="M1104.8,785.4c0,0,10.9,15,16.3,24.1c6.6,11.2,8.9,13.2,10.1,19.4c1.2,6.5-3.4,11.7-10.1,11.7l-43.9-0.5
	c-5.8-0.1-8-0.6-8-6.4l0.6-47.2"/>
<path class="st8" d="M1131.2,828.9c-1.2-6.2-3.5-8.2-10.1-19.4c-5.4-9.1-9-13.9-9-13.9l-5.6-7.9l-28.2-0.3
	c-0.9,8.2-0.7,16.4-8.7,22.7l-0.3,23.6c-0.1,5.8,2.2,6.3,8,6.4l43.9,0.5C1127.8,840.6,1132.4,835.4,1131.2,828.9L1131.2,828.9z"/>
<path class="st6" d="M1129.3,823.1c-7.9,7.3-7.9,11.6-28.9,12.2c-12.4,0.3-21.2-4.1-30.9-7.6l-0.1,5.9c-0.1,5.8,2.2,6.3,8,6.4
	l43.9,0.5c6.6,0.1,11.3-5.1,10.1-11.7C1130.8,826.6,1130.2,824.9,1129.3,823.1L1129.3,823.1z"/>
<path class="st8" d="M1071.2,838.1c0,0,5,2.5,11.7-3.8c5.7-5.3,9.6-7.7,14.9-7.6c7.5,0.1,11.2,4.4,15.6,7.2
	c9.7,6.3,16.2,2.7,16.2,2.7s-3,3.3-5.8,3.6c-4.1,0.4-30.5-0.4-43.2-0.3C1071.9,840,1071.2,838.1,1071.2,838.1L1071.2,838.1z"/>
<line class="st9" x1="1087.1" y1="796.7" x2="1100.2" y2="796.8"/>
<line class="st9" x1="1088.1" y1="803.4" x2="1101.2" y2="803.6"/>
<line class="st9" x1="1090.4" y1="810.8" x2="1103.6" y2="810.9"/>
<circle id="C-5" class="st8" cx="1045.7" cy="424.2" r="55.7"/>
<path class="st8" d="M983,482.3c0,0-2.4-8.6,0.4-22.6s7.5-25.7,7.5-25.7s11.6-5.2,54-12.3c45.9-7.7,55.5-7.3,55.5-7.3
	c0.1,0.2,5.7,11.8,12,21.4c10.7,16.2,10.8,24.8,10.8,24.8s-28.5,13.8-68.3,19.9C1026.3,484.8,983,482.3,983,482.3L983,482.3z"/>
<circle id="C-6" class="st8" cx="1019.2" cy="477.9" r="36.4"/>
<path class="st8" d="M1005.4,634.6l-60.2-16.6c0,0,7.8-33.4,10.7-44.5c2.8-10.7,9.7-32.4,12.6-43c4.3-15.7,15.7-62.2,15.7-62.2
	l70.2,19.3c0,0-27.4,86.5-36,112.2C1014.7,610.8,1005.4,634.6,1005.4,634.6L1005.4,634.6z"/>
<circle id="C-7" class="st8" cx="975.3" cy="626.3" r="31.2"/>
<polyline class="st6" points="915.5,777.6 930.3,723.8 963,735.1 948.5,787.1 "/>
<circle class="st10" cx="931.1" cy="785.5" r="17.5"/>
<path class="st8" d="M955.6,774.1l-5.8-1.6l-26.3-10.2l-5.7,2.5c-5.3-1.2-8.5-5.8-9.6-7c-1.7-1.7-0.2-4.2,1-9.4
	c1.6-7,7.5-25.9,9.2-31.9c1.1-3.9,3.5-15.4,4.6-19.6c3.8-14.8,12-44,15.1-52.1c3.9-10.2,7.5-27.2,7.5-27.2l59.9,17.5
	c0,0-1.9,7.2-6.8,24.8c-4.4,16.1-10.2,35.4-13,44.4c-5,15.9-8,25-11.2,35.5c-4,12.9-5,21.4-5,21.4c-1.6,9.8-6.1,13-8.8,13.1
	C958.9,774.5,957.2,774.3,955.6,774.1L955.6,774.1z"/>
<path class="st8" d="M951.7,785.4c0,0-8.2-0.7-11.1-1.5c-4-1.1-13.4-5.6-17.4-6.7c-2.8-0.8-9.3-4.4-9.3-4.4l3.5-12.7l10.4,2.9
	l27.9,7.7L951.7,785.4L951.7,785.4z"/>
<circle id="C-8" class="st8" cx="1088.8" cy="620.4" r="31.2"/>
<polyline class="st6" points="1104.8,785.4 1105.1,726.5 1070.6,728.3 1069.9,786.4 "/>
<path class="st8" d="M1059.7,763.7c1.9,0.2,9.1,4.2,9.1,4.2l38.9-3c0,0,4.9-0.3,6.8-1.8c1.9-1.6,5.1-6.3,5-10
	c-0.2-7.9-0.4-24.3,0.3-50.4c0.6-24,0.2-82.5,0.2-82.5l-62.4,0.3l0.4,130.2C1058,750.7,1057.6,763.5,1059.7,763.7L1059.7,763.7z"/>
<path class="st8" d="M1068,778.9c0,0,9.1,1.1,12.2,1.2c4.2,0.1,13.5-0.3,17.7-0.4c2.7-0.1,9.9-0.3,9.9-0.3l0.1-13.2l-26.3-0.3
	l-13.4-0.2L1068,778.9L1068,778.9z"/>
<circle class="st10" cx="1087.4" cy="785.7" r="17.5"/>
<circle id="C-9" class="st8" cx="1087.6" cy="465.7" r="36.4"/>
<path class="st8" d="M1057.6,620.5l62.4-0.3c0,0,2.9-41,3-65.6c0-6.7,0.6-28.5,0.4-41.5c-0.2-13,0.8-21.9,1-30.1
	c0.2-9.7-0.4-17-0.4-17l-72.8-0.8l1.6,39.9L1057.6,620.5L1057.6,620.5z"/>
<polyline class="st9" points="1044.5,475 1051.9,482.1 1052.4,511.5 "/>
<ellipse id="C-10" transform="matrix(0.8722 -0.4891 0.4891 0.8722 -87.1708 604.5894)" class="st6" cx="1113.6" cy="469.1" rx="2.1" ry="2.1"/>
<path class="st6" d="M1114.4,471.1c-1.2,0.5-2,0.6-2.7,0.7c-1.8,0.3-2.8-1.4-1.8-2.7c0.4-0.5,1.2-1,2.7-1.8"/>
<ellipse id="C-11" transform="matrix(0.8934 -0.4493 0.4493 0.8934 -90.4119 552.4368)" class="st6" cx="1118.7" cy="466.7" rx="2.4" ry="2.3"/>
<path class="st7" d="M1112.8,467.3c1.9-0.9,3.7-1.9,4.9-2.6c0.7,1.4,1.4,2.8,2,4.2c-1.8,0.8-3.7,1.6-5.4,2.2
	C1114,470.2,1113,467.7,1112.8,467.3z"/>
<path class="st4" d="M1112.8,467.3c1.9-0.9,3.7-1.9,4.9-2.6"/>
<path class="st4" d="M1119.8,468.9c-1.8,0.8-3.7,1.6-5.4,2.2"/>
<ellipse id="C-12" transform="matrix(0.9065 -0.4223 0.4223 0.9065 -90.8355 518.1082)" class="st6" cx="1124.1" cy="464.1" rx="2.7" ry="2.7"/>
<path class="st7" d="M1117.8,464.6c2.1-1.1,5.1-2.8,5.1-2.8l2.2,4.8c0,0-2.8,1.2-5.5,2.3C1119.1,467.5,1118.4,466.1,1117.8,464.6z"
	/>
<path class="st4" d="M1117.8,464.6c2.1-1.1,5.1-2.8,5.1-2.8"/>
<path class="st4" d="M1125.2,466.6c0,0-2.8,1.2-5.5,2.3"/>
<ellipse id="C-13" transform="matrix(0.8158 -0.5783 0.5783 0.8158 -63.9794 726.2937)" class="st6" cx="1108.3" cy="463.6" rx="2.5" ry="2.5"/>
<path class="st6" d="M1106.7,461.8c-1.2,1.1-3,2.6-3.5,3.2c-1.2,1.8,0.1,3.7,1.9,3.3c0.8-0.2,3-1.6,4.6-2.7"/>
<ellipse id="C-14" transform="matrix(0.8531 -0.5218 0.5218 0.8531 -76.2596 648.759)" class="st6" cx="1114" cy="459.8" rx="2.9" ry="2.8"/>
<path class="st7" d="M1109.7,465.7c2.1-1.3,4.3-2.7,5.8-3.6c-1-1.5-2-3.1-3-4.7c-1.9,1.3-3.9,2.9-5.7,4.3
	C1107.5,462.7,1109.4,465.3,1109.7,465.7L1109.7,465.7z"/>
<path class="st4" d="M1109.7,465.7c2.1-1.3,4.3-2.7,5.8-3.6"/>
<path class="st4" d="M1112.5,457.4c-1.9,1.3-3.9,2.9-5.7,4.3"/>
<ellipse id="C-15" transform="matrix(0.9381 -0.3463 0.3463 0.9381 -89.1237 416.3372)" class="st6" cx="1120.6" cy="457.6" rx="3.3" ry="3.2"/>
<path class="st7" d="M1115,462.4c2.7-0.8,6.7-2,6.7-2l-2.2-6c0,0-3.3,1.4-6.5,2.7C1113.7,459,1114.3,460.6,1115,462.4L1115,462.4z"
	/>
<path class="st4" d="M1115,462.4c2.7-0.8,6.7-2,6.7-2"/>
<path class="st4" d="M1119.5,454.5c0,0-3.3,1.4-6.5,2.7"/>
<circle id="C-16" class="st6" cx="1102" cy="453.2" r="2.8"/>
<path class="st6" d="M1103.6,455.4c-1.4,1-2.7,2-3.6,2.3c-2.2,0.9-4-1-3.2-2.9c0.3-0.8,1.6-2.1,3.2-3.6"/>
<circle id="C-17" class="st6" cx="1109" cy="448.2" r="3.1"/>
<path class="st7" d="M1100.4,450.9c2.1-1.7,5.3-4.1,6.7-5.2c1.2,1.7,2.5,3.3,3.8,4.9c-2.1,1.5-5.4,3.6-7.4,4.9
	C1102.7,454.4,1100.8,451.4,1100.4,450.9z"/>
<path class="st4" d="M1100.4,450.9c2.1-1.7,5.3-4.1,6.7-5.2"/>
<path class="st4" d="M1110.9,450.6c-2.1,1.5-5.4,3.6-7.4,4.9"/>
<circle id="C-18" class="st6" cx="1116.6" cy="447.5" r="3.5"/>
<path class="st7" d="M1108.8,445.1c3.1-0.4,7.5-1.1,7.5-1.1l0.5,7.1c0,0-3.9,0.2-7.6,0.2C1109.1,449.2,1108.9,447.2,1108.8,445.1
	L1108.8,445.1z"/>
<path class="st4" d="M1108.8,445.1c3.1-0.4,7.5-1.1,7.5-1.1"/>
<path class="st4" d="M1116.8,451c0,0-3.9,0.2-7.6,0.2"/>
<ellipse id="C-19" transform="matrix(0.7623 -0.6472 0.6472 0.7623 -34.721 823.0922)" class="st11" cx="1103.3" cy="458.8" rx="2.7" ry="2.6"/>
<path class="st6" d="M1101.4,457.1c-1.1,1.2-3,3-3.4,3.8c-1.2,2.1,0.5,3.9,2.4,3.3c0.8-0.2,3-2,4.7-3.3"/>
<ellipse id="C-20" transform="matrix(0.8044 -0.5941 0.5941 0.8044 -53.0506 747.7032)" class="st6" cx="1108.9" cy="454.4" rx="3.1" ry="3"/>
<path class="st7" d="M1105.1,460.8c2.2-1.6,4.2-3.1,5.7-4.1c-1.2-1.6-2.4-3.2-3.6-4.7c-2,1.6-3.8,3.3-5.5,4.9
	C1102.4,457.8,1104.7,460.4,1105.1,460.8L1105.1,460.8z"/>
<path class="st4" d="M1105.1,460.8c2.2-1.6,4.2-3.1,5.7-4.1"/>
<path class="st4" d="M1107.1,452c-2,1.6-3.8,3.3-5.5,4.9"/>
<ellipse id="C-21" transform="matrix(0.9535 -0.3015 0.3015 0.9535 -84.2785 358.2249)" class="st6" cx="1118.2" cy="452.1" rx="3.5" ry="3.4"/>
<path class="st7" d="M1109.6,457.3c3-0.8,9.6-1.9,9.6-1.9l-2.1-6.5c0,0-5.9,1.5-9.4,2.8C1108.4,453.5,1109,455.4,1109.6,457.3
	L1109.6,457.3z"/>
<path class="st4" d="M1109.6,457.3c3-0.8,9.6-1.9,9.6-1.9"/>
<path class="st4" d="M1117.2,448.9c0,0-5.9,1.5-9.4,2.8"/>
<circle id="C-22" class="st6" cx="1140.2" cy="453.6" r="9.8"/>
<path class="st7" d="M1140.5,443.7c0,0-4.2-0.3-5.6-0.3c-4.4,0.1-8.1,0.1-8.1,0.1l-10.5,0.4l2.1,6.5c0,0,1.5,5.5,4.3,11.4
	c1,2,2.5,4.8,2.5,4.8s5.8,0.3,11.6-0.9c2.5-0.5,7.8-3.4,7.8-3.4s-3.5-3.8-4.7-8.1C1138.8,449.7,1140.5,443.7,1140.5,443.7
	L1140.5,443.7z"/>
<path class="st4" d="M1125.2,466.6c0,0,2.7,0.3,8-0.3c5.6-0.7,11.2-3.9,11.2-3.9"/>
<path class="st4" d="M1140.5,443.7c0,0-3.4-0.5-8.4-0.3c-3.1,0.1-15.8,0.6-15.8,0.6"/>
<circle id="C-23" class="st6" cx="849.1" cy="302.2" r="2.5"/>
<path class="st6" d="M850.8,300.3c-1.2-1-2.4-2-3.1-2.3c-2-1-3.7,0.7-3.1,2.4c0.2,0.7,1.4,2.1,2.7,3.5"/>
<circle id="C-24" class="st6" cx="854.7" cy="307.8" r="2.9"/>
<path class="st7" d="M847.3,304.1c1.7,1.8,4.2,4.5,5.4,5.7c1.4-1.3,2.8-2.6,4.1-3.9c-1.7-1.7-4.4-4.1-6.1-5.5
	C849.9,301.2,847.7,303.7,847.3,304.1L847.3,304.1z"/>
<path class="st4" d="M847.3,304.1c1.7,1.8,4.2,4.5,5.4,5.7"/>
<path class="st4" d="M856.8,305.8c-1.7-1.7-4.4-4.1-6.1-5.5"/>
<circle id="C-25" class="st6" cx="860.4" cy="312" r="3.3"/>
<path class="st7" d="M853.1,310.1c2.2,1.8,5.3,4.5,5.3,4.5l3.8-5.3c0,0-3-2-5.9-3.9C855.3,307.1,854.2,308.5,853.1,310.1
	L853.1,310.1z"/>
<path class="st4" d="M853.1,310.1c2.2,1.8,5.3,4.5,5.3,4.5"/>
<path class="st4" d="M862.3,309.4c0,0-3-2-5.9-3.9"/>
<ellipse id="C-26" transform="matrix(0.674 -0.7387 0.7387 0.674 48.7007 722.8455)" class="st6" cx="843.4" cy="306.2" rx="2.9" ry="3"/>
<path class="st6" d="M841.2,308.1c-1.2-1.4-2.3-2.8-2.8-3.6c-1.2-2.3,0.7-4.3,2.7-3.6c0.9,0.3,2.4,1.6,4.2,3.2"/>
<ellipse id="C-27" transform="matrix(0.6225 -0.7826 0.7826 0.6225 76.5966 783.426)" class="st6" cx="850.4" cy="312.3" rx="3.3" ry="3.4"/>
<path class="st7" d="M845.3,304c2.3,1.8,5.6,4.6,7.2,5.8c-1.4,1.7-2.8,3.4-4.2,5.1c-2.1-1.8-5.2-4.8-7-6.7
	C842.3,307.3,844.9,304.5,845.3,304L845.3,304z"/>
<path class="st4" d="M845.3,304c2.3,1.8,5.6,4.6,7.2,5.8"/>
<path class="st4" d="M848.4,314.9c-2.1-1.8-5.2-4.8-7-6.7"/>
<ellipse id="C-28" transform="matrix(0.5308 -0.8475 0.8475 0.5308 133.9693 875.2995)" class="st6" cx="857.5" cy="316.7" rx="3.7" ry="3.8"/>
<path class="st7" d="M852.2,309.6c2.9,1.6,7.2,3.9,7.2,3.9l-4,6.3c0,0-3.5-2.4-6.8-4.7C849.9,313.3,851,311.5,852.2,309.6
	L852.2,309.6z"/>
<path class="st4" d="M852.2,309.6c2.9,1.6,7.2,3.9,7.2,3.9"/>
<path class="st4" d="M855.5,319.8c0,0-3.5-2.4-6.8-4.7"/>
<ellipse id="C-29" transform="matrix(0.5997 -0.8002 0.8002 0.5997 87.4082 798.0831)" class="st6" cx="841.4" cy="311.7" rx="2.7" ry="2.8"/>
<path class="st6" d="M839.6,313.6c-1.2-1.2-2.4-2.3-2.9-3.1c-1.3-2.1,0.3-4.1,2.2-3.6c0.8,0.2,2.4,1.3,4.2,2.6"/>
<ellipse id="C-30" transform="matrix(0.5442 -0.839 0.839 0.5442 121.0517 856.1976)" class="st6" cx="848.5" cy="316.7" rx="3.1" ry="3.2"/>
<path class="st7" d="M843,309.4c2.3,1.5,5.6,3.8,7.2,4.8c-1.2,1.7-2.3,3.4-3.4,5.1c-2.1-1.5-5.2-4-7.1-5.6
	C840.5,312.7,842.7,309.9,843,309.4L843,309.4z"/>
<path class="st4" d="M843,309.4c2.3,1.5,5.6,3.8,7.2,4.8"/>
<path class="st4" d="M846.8,319.3c-2.1-1.5-5.2-4-7.1-5.6"/>
<ellipse id="C-31" transform="matrix(0.502 -0.8649 0.8649 0.502 148.8042 899.2551)" class="st6" cx="855.2" cy="320.4" rx="3.5" ry="3.6"/>
<path class="st7" d="M850.1,314.1c2.8,1.4,6.9,3.4,6.9,3.4l-3.5,6c0,0-3.3-2.1-6.5-4.2C848,317.6,849,315.9,850.1,314.1L850.1,314.1
	z"/>
<path class="st4" d="M850.1,314.1c2.8,1.4,6.9,3.4,6.9,3.4"/>
<path class="st4" d="M853.5,323.5c0,0-3.3-2.1-6.5-4.2"/>
<ellipse id="C-32" transform="matrix(0.6032 -0.7976 0.7976 0.6032 79.1533 795.4208)" class="st6" cx="839" cy="318.2" rx="2.5" ry="2.6"/>
<path class="st6" d="M837.3,320c-1.2-1.1-1.7-1.9-2.2-2.7c-1.2-1.9,0.3-3.8,2.1-3.3c0.8,0.2,1.7,0.9,3.3,2.1"/>
<ellipse id="C-33" transform="matrix(0.6385 -0.7696 0.7696 0.6385 56.8448 766.3044)" class="st6" cx="844.1" cy="322.6" rx="2.8" ry="2.9"/>
<path class="st7" d="M840.7,316.3c2,1.7,3.9,3.1,5.3,4.2c-1.3,1.4-2.5,2.9-3.7,4.3c-1.8-1.6-3.6-3.3-5.2-5
	C838,319,840.3,316.7,840.7,316.3L840.7,316.3z"/>
<path class="st4" d="M840.7,316.3c2,1.7,3.9,3.1,5.3,4.2"/>
<path class="st4" d="M842.3,324.8c-1.8-1.6-3.6-3.3-5.2-5"/>
<ellipse id="C-34" transform="matrix(0.4696 -0.8829 0.8829 0.4696 163.3624 923.7769)" class="st6" cx="850.5" cy="325.9" rx="3.2" ry="3.3"/>
<path class="st7" d="M845.6,320.2c2.7,1.2,6.5,2.9,6.5,2.9l-3.1,5.7c0,0-3.2-1.8-6.2-3.7C843.8,323.5,844.6,321.9,845.6,320.2
	L845.6,320.2z"/>
<path class="st4" d="M845.6,320.2c2.7,1.2,6.5,2.9,6.5,2.9"/>
<path class="st4" d="M849,328.8c0,0-3.2-1.8-6.2-3.7"/>
<circle class="st6" cx="872.6" cy="314.5" r="4.2"/>
<circle id="C-35" class="st6" cx="873.6" cy="328.4" r="9.8"/>
<path class="st7" d="M881.8,323.1c0,0-1.8-5-2.5-6.2c-1.5-2.7-3.4-4.7-3.4-4.7l-7.5,3.2l-6.2-6c0,0-4,4.7-8,10.3
	c-3.7,5.2-4.8,9.4-4.8,9.4s2.1,1.2,8.1,3.9c2.3,1,12.4,4.6,12.4,4.6L881.8,323.1L881.8,323.1z"/>
<path class="st4" d="M870.2,324.3c0,0-1.7-1.6-2.2-3.9c-0.4-2.2,0.4-5.1,0.4-5.1"/>
<path class="st4" d="M849.4,329c0,0,1.9,1.1,8.1,3.9c2.3,1,12.4,4.6,12.4,4.6"/>
<path class="st4" d="M881.8,323.1c0,0-0.9-2.7-2.4-5.7c-1.4-2.7-3.3-5.2-3.4-5.3"/>
<path class="st4" d="M851.5,325c0,0,3-4.6,4-6.3c2.2-3.7,4.4-7,4.4-7"/>
<circle id="C-36" class="st6" cx="866.1" cy="308" r="3.2"/>
<path class="st6" d="M863.3,309.6c-1.8-2.6-4.7-8.4-2.1-10.2c1.8-1.3,5.4,4,7.7,6.9"/>
<circle id="C-37" class="st10" cx="872.6" cy="314.5" r="4.2"/>
<path class="st7" d="M863.8,310.2c1.3-1.1,4.2-4.2,4.6-4.5c0.8,0.7,2.3,1.8,2.8,2.2c2.1,1.7,4.1,3.5,4.1,3.5l-5.9,5.8
	c0,0-1.9-2.2-4.5-5.5C864.8,311.6,863.8,310.3,863.8,310.2L863.8,310.2z"/>
<path class="st4" d="M869.4,317.2c0,0-1.9-2.2-4.2-5.1c-0.5-0.7-1.4-1.8-1.4-1.9"/>
<path class="st4" d="M868.3,305.7c0.8,0.7,2.3,1.8,2.8,2.2c2.1,1.7,4.1,3.5,4.1,3.5"/>
<circle class="st6" cx="960.3" cy="391.9" r="18.1"/>
<circle class="st6" cx="980.7" cy="291" r="18.1"/>
<circle id="C-38" class="st7" cx="980.7" cy="291" r="11.2"/>
<path class="st7" d="M998.5,294.7l-20.4,100.9l-35.6-7.2c0,0,8-45.7,9.8-56.7c2.4-14.8,10.6-44.2,10.6-44.2"/>
<path class="st7" d="M997.5,294.7l-20.4,100.9l-35.6-7.2c0,0,8-45.7,9.8-56.7c2.4-14.8,10.6-44.2,10.6-44.2"/>
<path class="st6" d="M942.5,388.3c0,0,8.4-45.3,9.8-56.7c2.8-22.8,10.6-44.2,10.6-44.2"/>
<line class="st4" x1="998.5" y1="294.7" x2="978.1" y2="395.5"/>
<circle id="C-39" class="st12" cx="960.3" cy="391.9" r="10.2"/>
<path class="st6" d="M949.5,406.5c0,0-27.3-20.1-36.4-26.8s-46.5-34.2-46.5-34.2s6-11.7,10.6-19.8c3.6-6.3,10.9-9.4,10.9-9.4
	s9,7.3,22,14.3c9.2,4.9,26.7,19.5,34.5,25.6c6.4,5.1,14.1,9.2,18.9,13.3c4.5,3.8,8.7,8.8,9.3,9.3"/>
<path class="st6" d="M904.6,327.4c0,0-6,7.7-10.5,13.2s-10.6,17.2-10.6,17.2"/>
<circle class="st6" cx="1184.6" cy="356.2" r="18.1"/>
<circle class="st6" cx="1105.5" cy="290.3" r="18.1"/>
<circle id="C-40" class="st7" cx="1105.5" cy="290.3" r="11.2"/>
<path class="st7" d="M1093.9,304.3l79.1,65.9l23.2-27.9c0,0-34.9-30.6-43.2-38.1c-11.1-10-35.9-27.8-35.9-27.8"/>
<path class="st6" d="M1196.2,342.2c0,0-34.9-30.1-43.2-38.1c-16.4-16-35.9-27.8-35.9-27.8"/>
<line class="st4" x1="1093.9" y1="304.3" x2="1173" y2="370.1"/>
<circle id="C-41" class="st12" cx="1184.6" cy="356.2" r="10.2"/>
<path class="st6" d="M1168.2,348.4c0,0-14.5,30.7-19.3,40.9c-4.8,10.1-24.7,52.2-24.7,52.2s10.9,7.4,18.8,12.4
	c6.2,3.9,14.1,3.1,14.1,3.1s4.4-10.7,12.6-23c5.7-8.7,14.3-29.8,18.2-38.9c3.2-7.5,8-14.8,10.3-20.6c2.1-5.5,3.5-11.9,3.8-12.6"/>
<path class="st6" d="M1132.5,424c0,0,6.8,4.3,16.1,9.2c9.3,4.9,16.8,7.5,16.8,7.5"/>
<circle id="C-42" class="st10" cx="1045.7" cy="424.2" r="55.7"/>
<path class="st7" d="M990.3,420.2c0,0-15-6.8-14.1-24.3c2.5-50.7,0.1-122.4,0.1-122.4s11.6-4.6,31.6-7.7c6.7-1,14.3-1.9,22.8-2.4
	c4.6-0.3,9.3-0.4,14.4-0.4c3.1,0,6.3,0.1,9.5,0.3c5.3,0.3,10.6,0.9,15.8,1.6c21.5,2.9,40,8.1,40,8.1s3.3,102.2,3.3,128.8
	c0,13.4-12.3,20-12.3,20L990.3,420.2L990.3,420.2z"/>
<path class="st4" d="M1111.4,308.5c0,0-0.2,14.1,0.3,32.8c0.2,9.2,1.2,20.1,1.4,29.6c0.3,11.9,0.4,23,0.4,30.7
	c0,13.4-12.3,20-12.3,20l-4.4,0c-8.1-0.1-16.2-0.2-24.3-0.3c-10.7-0.1-21.2-0.5-31.9-0.3c-0.6,0-1.1,0-1.7,0
	c-10.9,0.2-21.7-0.4-32.6-0.6c-3.9,0-7.9-0.1-11.8-0.1c-1.1,0-3.3,0.4-4.3,0c0,0-15-6.8-14.1-24.3c0.5-9.4,0.8-18.3,1-26.5
	c0.3-11.6-0.2-20.7-0.2-29.2c0-17.8,0.1-29.3,0.1-29.3"/>
<path class="st4" d="M976.2,273.5c0,0,11.6-4.6,31.6-7.7c6.7-1,14.3-1.9,22.8-2.4l12,17.9l11.9-18c5.3,0.3,10.6,0.9,15.8,1.6
	c21.5,2.9,39.9,8.1,39.9,8.1"/>
<path class="st4" d="M1070.3,264.7c0,0-5.3,13.7-6.5,17.5c-2.7,8.2-7.3,17.7-7.3,17.7l-13.9-18.7l-14.2,20.3c0,0-6.3-10.6-7.7-18.9
	c-0.8-5-6.1-17.8-6.1-17.8"/>
<path class="st4" d="M1042.6,281.2c0,0,0.1,72.6-0.8,109.1c-0.1,4.2-0.2,7.9-0.4,11c-0.1,3.1-0.3,5.5-0.5,7.2
	c-0.8,8.1,3.7,12.5,3.7,12.5"/>
<path class="st3" d="M1056.4,317.3c0,2-1.7,3.7-3.7,3.7s-3.7-1.7-3.7-3.7s2.1-2.6,4.2-2.6S1056.4,315.2,1056.4,317.3L1056.4,317.3z"
	/>
<path class="st3" d="M1056,353.3c0,2-2.2,2.9-4.3,2.9s-3.2-0.9-3.2-2.9s1.7-3.7,3.7-3.7S1056,351.3,1056,353.3L1056,353.3z"/>
<path class="st3" d="M1056,390.4c0,2-1.7,3.7-3.7,3.7s-3.7-1.7-3.7-3.7s1.9-3,4-3S1056,388.3,1056,390.4z"/>
<circle class="st6" cx="47.6" cy="384.5" r="15.6"/>
<circle class="st6" cx="80.7" cy="286.4" r="18.1"/>
<ellipse id="C-43" transform="matrix(0.9913 -0.1319 0.1319 0.9913 -37.0712 13.1452)" class="st7" cx="80.7" cy="286.4" rx="11.2" ry="11.2"/>
<path class="st7" d="M98,291.8l-36,98.8l-29.1-11.2c0,0,12.5-44.7,15.4-55.4c3.9-14.4,15-42.9,15-42.9"/>
<path class="st4" d="M32.9,379.3c0,0,12.9-44.2,15.4-55.4c5.1-22.3,15-42.9,15-42.9"/>
<line class="st4" x1="95" y1="300" x2="62" y2="390.5"/>
<ellipse id="C-44" transform="matrix(0.6814 -0.7319 0.7319 0.6814 -299.4738 256.1487)" class="st6" cx="144.5" cy="472" rx="1.9" ry="2"/>
<path class="st6" d="M143.3,473.6c1,0.7,4.1,2.8,4.7,3c1.6,0.7,2.8-0.7,2.2-2c-0.2-0.5-3.4-2.9-4.5-4"/>
<ellipse id="C-45" transform="matrix(0.6477 -0.7619 0.7619 0.6477 -307.7133 272.1154)" class="st6" cx="140.4" cy="468.8" rx="2.2" ry="2.2"/>
<path class="st7" d="M145.6,470.5c-1.5-1.2-2.9-2.5-3.9-3.4c-0.9,1.1-1.8,2.2-2.7,3.3c1.5,1.1,3,2.2,4.4,3.2
	C143.9,472.9,145.3,470.9,145.6,470.5L145.6,470.5z"/>
<path class="st4" d="M145.6,470.5c-1.5-1.2-2.9-2.5-3.9-3.4"/>
<path class="st4" d="M139,470.4c1.5,1.1,3,2.2,4.4,3.2"/>
<ellipse id="C-46" transform="matrix(0.7091 -0.7051 0.7051 0.7091 -287.627 230.2914)" class="st11" cx="135.3" cy="463.7" rx="2.5" ry="2.5"/>
<path class="st7" d="M141.8,467.2c-1.5-1.7-4.8-5.2-4.8-5.2l-3.5,3.5c0,0,3.5,3.2,5.5,5C139.8,469.5,140.8,468.2,141.8,467.2
	L141.8,467.2z"/>
<path class="st4" d="M141.8,467.2c-1.5-1.7-4.8-5.2-4.8-5.2"/>
<path class="st4" d="M133.5,465.5c0,0,3.5,3.2,5.5,5"/>
<ellipse id="C-47" transform="matrix(0.6316 -0.7753 0.7753 0.6316 -308.5065 290.6727)" class="st6" cx="151.6" cy="470" rx="2.3" ry="2.4"/>
<path class="st6" d="M150.3,472c1.3,0.8,4.4,2.9,5.2,3.1c2,0.7,3.3-1.1,2.5-2.6c-0.3-0.7-3.5-3.1-5-4.3"/>
<ellipse id="C-48" transform="matrix(0.6373 -0.7706 0.7706 0.6373 -305.8693 281.0632)" class="st6" cx="145.6" cy="465.5" rx="2.6" ry="2.7"/>
<path class="st7" d="M153,468.1c-1.8-1.5-4.5-3.6-5.8-4.7c-1.1,1.4-2.2,2.7-3.3,4.1c1.8,1.3,4.6,3.3,6.4,4.4
	C151,471.1,152.7,468.6,153,468.1L153,468.1z"/>
<path class="st4" d="M153,468.1c-1.8-1.5-4.5-3.6-5.8-4.7"/>
<path class="st4" d="M143.9,467.6c1.8,1.3,4.6,3.3,6.4,4.4"/>
<ellipse id="C-49" transform="matrix(0.5987 -0.8009 0.8009 0.5987 -312.8174 296.5487)" class="st6" cx="139.6" cy="460.5" rx="3" ry="3.1"/>
<path class="st7" d="M147.3,463.5c-2.1-1.7-5.9-5.4-5.9-5.4l-3.6,4.8c0,0,3.5,2.8,6.2,4.7C145,466.1,146.3,465,147.3,463.5
	L147.3,463.5z"/>
<path class="st4" d="M147.3,463.5c-2.1-1.7-5.9-5.4-5.9-5.4"/>
<path class="st4" d="M137.8,462.9c0,0,3.5,2.8,6.2,4.7"/>
<ellipse id="C-50" transform="matrix(0.6209 -0.7839 0.7839 0.6209 -305.0565 298.1878)" class="st6" cx="155.8" cy="464.5" rx="2.5" ry="2.6"/>
<path class="st6" d="M154.4,466.6c2.1,1.7,6.2,4.6,7,4.8c2.1,0.7,3.7-1.5,2.8-3.1c-0.4-0.7-5.4-4.5-6.9-5.8"/>
<ellipse id="C-51" transform="matrix(0.646 -0.7633 0.7633 0.646 -297.9283 276.7501)" class="st6" cx="149.4" cy="459.6" rx="2.8" ry="2.9"/>
<path class="st7" d="M157.2,462.4c-2-1.6-4.8-3.9-6.1-5.1c-1.2,1.5-2.4,2.9-3.6,4.3c1.9,1.5,4.9,3.5,6.8,4.8
	C155.1,465.6,156.9,462.9,157.2,462.4L157.2,462.4z"/>
<path class="st4" d="M157.2,462.4c-2-1.6-4.8-3.9-6.1-5.1"/>
<path class="st4" d="M147.6,461.7c1.9,1.5,4.9,3.5,6.8,4.8"/>
<ellipse id="C-52" transform="matrix(0.6007 -0.7995 0.7995 0.6007 -306.5693 296.7208)" class="st6" cx="143.8" cy="455.3" rx="3.2" ry="3.3"/>
<path class="st7" d="M151,457.3c-2.2-1.9-5.3-4.6-5.3-4.6l-3.9,5.1c0,0,3,2.1,5.9,4C148.8,460.3,149.9,458.8,151,457.3L151,457.3z"
	/>
<path class="st4" d="M151,457.3c-2.2-1.9-5.3-4.6-5.3-4.6"/>
<path class="st4" d="M141.8,457.8c0,0,3,2.1,5.9,4"/>
<circle id="C-53" class="st6" cx="160" cy="457.8" r="2.6"/>
<path class="st6" d="M158.7,460c1.4,0.8,4.7,3,5.5,3.2c2.2,0.7,3.6-1.3,2.8-3c-0.4-0.7-3.7-3.2-5.3-4.5"/>
<circle id="C-54" class="st6" cx="153.4" cy="453.1" r="2.9"/>
<path class="st7" d="M161.5,455.7c-2-1.6-5-3.8-6.4-4.9c-1.1,1.6-2.4,3.1-3.5,4.7c2,1.4,5.1,3.4,7.1,4.6
	C159.3,459,161.1,456.2,161.5,455.7L161.5,455.7z"/>
<path class="st4" d="M161.5,455.7c-2-1.6-5-3.8-6.4-4.9"/>
<path class="st4" d="M151.6,455.5c2,1.4,5.1,3.4,7.1,4.6"/>
<circle id="C-55" class="st6" cx="147.3" cy="449.2" r="3.3"/>
<path class="st7" d="M154.9,450.6c-2.4-1.7-5.8-4.3-5.8-4.3l-3.6,5.7c0,0,3.2,1.9,6.3,3.6C152.8,453.9,153.9,452.3,154.9,450.6
	L154.9,450.6z"/>
<path class="st4" d="M154.9,450.6c-2.4-1.7-5.8-4.3-5.8-4.3"/>
<path class="st4" d="M145.5,452c0,0,3.2,1.9,6.3,3.6"/>
<circle id="C-56" class="st6" cx="128.7" cy="444.7" r="9.8"/>
<path class="st7" d="M133.9,436.4l7.2,4.5l8,5.5c0,0-3.7,7.9-8,12.9c-4.6,5.4-8,5.9-8,5.9s-2.4-1.9-7.7-8.2
	c-1.5-1.8-5.1-6.9-5.1-6.9L133.9,436.4L133.9,436.4z"/>
<polyline class="st4" points="133.9,436.4 141.1,440.9 149.1,446.4 "/>
<path class="st4" d="M133.5,465.5c0,0-2.4-2.5-7.2-7.9c-2.4-2.6-5.9-7.5-5.9-7.5"/>
<line class="st4" x1="148.1" y1="450.5" x2="137" y2="463.2"/>
<path class="st4" d="M128.3,450.5c0,0,1.6,1.4,3.8,1.8c4.6,0.8,8.9-3.2,8.9-3.2"/>
<circle id="C-57" class="st6" cx="146.6" cy="453.2" r="3.3"/>
<path class="st6" d="M145,456.2c3.2,1.8,7.2,3.8,8.8,1.4c1.3-1.9-2.5-5-5.6-7.3"/>
<circle id="C-58" class="st7" cx="138.6" cy="448" r="3.5"/>
<path class="st7" d="M144.8,456c0.9-1.5,3.4-5.2,3.6-5.6c-0.8-0.7-2.4-2-2.9-2.3c-2.2-1.8-4.4-3.5-4.4-3.5l-4.6,7.2
	c0,0,2.7,1.4,6.5,3.4C143.2,455.2,144.7,456,144.8,456z"/>
<path class="st4" d="M136.6,451.8c0,0,2.7,1.5,6,3.1c0.8,0.4,2.1,1,2.2,1.1"/>
<path class="st4" d="M148.5,450.4c-0.8-0.7-2.4-2-2.9-2.3c-2.2-1.8-4.4-3.5-4.4-3.5"/>
<path class="st7" d="M58.9,373.8l27.4,22.8l19.5,15.2l28.9,25.3c0,0-0.5,3.2-4,8.3c-3.4,5-6.6,8.1-6.6,8.1s-10.9-6.1-27.2-16.8
	c-10.9-7.2-21.9-13.6-32-20c-14.3-8.9-27.5-20.4-27.7-20.6"/>
<path class="st4" d="M124.1,453.4c0,0-12.4-7.1-26.1-16.1c-12.9-8.4-27.8-17.1-39.8-25C47,405,37.3,396.2,37.1,396"/>
<path class="st4" d="M58.9,373.8c0,0,12.2,9.6,16.1,13c3.2,2.7,12.7,11.1,12.7,11.1s13,9.7,17.2,13.1c7.7,6.3,29.8,26.1,29.8,26.1"
	/>
<circle id="C-59" class="st12" cx="47.6" cy="384.5" r="7.5"/>
<circle class="st6" cx="134.4" cy="234.3" r="12"/>
<circle id="C-60" class="st6" cx="134.8" cy="259.2" r="12"/>
<polyline class="st7" points="146.8,259.8 146.5,234.3 122.4,234.5 122.8,259.7 "/>
<line class="st4" x1="122.4" y1="234.5" x2="122.8" y2="259.7"/>
<line class="st4" x1="146.8" y1="259.8" x2="146.5" y2="234.3"/>
<circle id="C-61" class="st8" cx="159.4" cy="821.8" r="18.4"/>
<path class="st8" d="M157.8,840.2l30.9-0.1c5,0,8.4-5.2,6.2-9.7c0-0.1,0-0.1-0.1-0.2c-1.8-3.8-7.5-9.5-14.6-15.2
	c-4.2-3.4-7.1-5.9-11.2-9"/>
<path class="st8" d="M157.8,840.2h21.1l9.8,0c5,0,8.3-5.2,6.2-9.7c0-0.1,0-0.1-0.1-0.2c0,0-6.3,0.6-8.1,0.5
	c-3.3-0.1-12.3-0.5-12.3-0.5h-13.4L157.8,840.2L157.8,840.2z"/>
<circle id="C-62" class="st10" cx="115.6" cy="782.9" r="17.5"/>
<path class="st8" d="M168.4,806.3c-15.9-12.3-33.9-25.9-33.9-25.9s-14.7,2.4-16.7,16.7c-1.6,11.6-19.6-13.1-19.6-13.1
	s-3.2-2.8-4.9,7.3c-0.5,2.8-0.5,9.1-0.7,13.8c-0.2,5.1-1.2,9.4-1.4,13.2c-0.2,5.2,0.4,9.2,0.3,12.4v0c-0.3,7.5,51.1,0,51.1,0
	l17.9-0.1"/>
<line class="st4" x1="153.1" y1="795.1" x2="146.6" y2="801.6"/>
<line class="st4" x1="144.9" y1="788.3" x2="137.7" y2="795.1"/>
<path class="st8" d="M91.2,840.5h65.3l3.2-9.9c0,0-12.1-0.8-15.5-0.8c-6.3,0-21.8,0.6-27.6,1.1c-16.9,1.4-25.2-0.3-25.2-0.3v0
	C91.2,838.2,91.2,840.5,91.2,840.5L91.2,840.5z"/>
<path class="st4" d="M92.4,808.2c0,0,8.3,0.8,15,6.1c4.5,3.6,10.1,7.8,9.2,16.7"/>
<circle class="st6" cx="115.6" cy="782.9" r="17.5"/>
<circle id="C-63" class="st6" cx="115.4" cy="617.5" r="31.2"/>
<polyline class="st6" points="133.1,783.4 132.9,663.4 98.3,665.6 98.2,782.3 "/>
<path class="st6" d="M146.6,617c0,0,2.8,44.3,3.8,55.1c0.7,7.5,7.4,70.8,22.2,133.3c0,0-8.3,8.2-21.8,11.1
	c-6.7,1.4-24.4,4.2-36.2,5.6c-18.5,2.1-31.3,2.6-31.3,2.6c0-1.3-0.9-125.4-1-126.9c-0.3-9.4,1.8-37.4,1.8-54.1
	c0-18.3,0.1-25.8,0.1-25.8"/>
<circle id="C-64" class="st6" cx="110" cy="464" r="36.4"/>
<path class="st7" d="M73.6,464.5c0,0,4.9,90.6,6.8,117.6c0.8,11.6,3.8,37,3.8,37l62.5-1c0,0,0.7-34.3,0.7-45.8
	c0-11-1.2-33.8-1.4-44.8c-0.1-9.8,0-31.1,0.2-46.5c0-3.9,0.1-7.4,0.1-10.2c0-4.6,0.1-7.5,0.1-7.5L73.6,464.5z"/>
<path class="st6" d="M146.7,618.2c0,0,0.7-34.3,0.7-45.8c0-11-1.2-33.8-1.4-44.8c-0.2-16.2,0.4-64.2,0.4-64.2"/>
<path class="st6" d="M73.6,464.5c0,0,4.9,90.6,6.8,117.6c0.8,11.6,3.8,37,3.8,37"/>
<circle id="C-65" class="st8" cx="214.8" cy="821.9" r="18.4"/>
<path class="st8" d="M213.2,840.3l30.9-0.1c5,0,8.4-5.2,6.2-9.7c0-0.1,0-0.1-0.1-0.2c-1.8-3.8-7.5-9.5-14.6-15.2
	c-4.2-3.4-7.1-5.9-11.2-9"/>
<path class="st8" d="M213.2,840.2h21.1l9.8,0c5,0,8.3-5.2,6.2-9.7c0-0.1,0-0.1-0.1-0.2c0,0-6.3,0.6-8.1,0.5
	c-3.3-0.1-12.3-0.5-12.3-0.5h-13.4L213.2,840.2L213.2,840.2z"/>
<circle id="C-66" class="st10" cx="171" cy="782.9" r="17.5"/>
<path class="st8" d="M223.8,806.3c-15.9-12.3-33.9-25.9-33.9-25.9s-14.7,2.4-16.7,16.7c-1.6,11.6-19.6-13.1-19.6-13.1
	s-3.2-2.8-4.9,7.3c-0.5,2.8-0.5,9.1-0.7,13.8c-0.2,5.1-1.2,9.4-1.4,13.2c-0.2,5.2,0.4,9.2,0.3,12.4v0c-0.3,7.5,51.1,0,51.1,0
	l17.9-0.1"/>
<line class="st4" x1="208.5" y1="795.2" x2="202" y2="801.6"/>
<line class="st4" x1="200.3" y1="788.3" x2="193.1" y2="795.2"/>
<path class="st8" d="M146.6,840.5h65.3l3.2-9.9c0,0-12.1-0.8-15.5-0.8c-6.3,0-21.8,0.6-27.6,1.1c-16.9,1.4-25.2-0.3-25.2-0.3v0
	C146.6,838.2,146.6,840.5,146.6,840.5L146.6,840.5z"/>
<path class="st4" d="M147.8,808.2c0,0,8.3,0.8,15,6.1c4.5,3.6,10.1,7.8,9.2,16.7"/>
<circle class="st6" cx="171" cy="782.9" r="17.5"/>
<circle id="C-67" class="st6" cx="170.8" cy="617.5" r="31.2"/>
<polyline class="st6" points="188.5,783.4 188.3,663.4 153.7,665.6 153.6,782.3 "/>
<path class="st6" d="M202,617c0,0,2.8,44.3,3.8,55.1c0.7,7.5,7.4,70.8,22.2,133.3c0,0-8.3,8.2-21.8,11.1c-6.7,1.4-24.4,4.2-36.2,5.6
	c-18.5,2.1-31.3,2.6-31.3,2.6c0-1.3-0.9-125.4-1-126.9c-0.3-9.4,1.8-37.4,1.8-54.1c0-18.3,0.1-25.8,0.1-25.8"/>
<circle id="C-68" class="st6" cx="165.4" cy="464" r="36.4"/>
<path class="st7" d="M129,464.6c0,0,4.9,90.6,6.8,117.6c0.8,11.6,3.8,37,3.8,37l62.5-1c0,0,0.7-34.3,0.7-45.8
	c0-11-1.2-33.8-1.4-44.8c-0.1-9.8,0-31.1,0.2-46.5c0-3.9,0.1-7.4,0.1-10.2c0-4.6,0.1-7.5,0.1-7.5L129,464.6z"/>
<path class="st6" d="M202.1,618.2c0,0,0.7-34.3,0.7-45.8c0-11-1.2-33.8-1.4-44.8c-0.2-16.2,0.4-64.2,0.4-64.2"/>
<path class="st6" d="M129,464.6c0,0,4.9,90.6,6.8,117.6c0.8,11.6,3.8,37,3.8,37"/>
<circle id="C-69" class="st10" cx="137" cy="419.7" r="50.1"/>
<path class="st7" d="M201.7,462.6c0,0,0.8-9.4-3.9-21.4s-10.7-24.2-10.7-24.2s-8.1-1-49.8,0.3c-41.9,1.2-50.3,0-50.3,0
	c0,0.2-3.3,13.7-7.3,23.2c-6.9,16.1-6,23.3-6,23.3s31.1,12.8,67.3,11.9c15.1-0.4,39.7-5.9,50.6-8.7
	C201.3,464.6,201.7,462.6,201.7,462.6L201.7,462.6z"/>
<path class="st6" d="M201.7,462.6c0,0,0.8-9.4-3.9-21.4s-10.7-24.2-10.7-24.2L87,417.3c0,0.2-3,13.8-7.3,23.2c-5.9,13-6,23.3-6,23.3
	"/>
<circle class="st6" cx="195.5" cy="285.7" r="18.1"/>
<circle id="C-70" class="st10" cx="137" cy="419.7" r="50.1"/>
<path class="st7" d="M192.6,416.8l2-24.7l9.8-122.1c0,0-9.5-5.5-29.6-8.7c-6.7-1-14.3-1.9-22.8-2.4c-4.5-0.3-9.4-0.4-14.4-0.4
	c-3.1,0-6.3,0.1-9.5,0.3c-5.3,0.3-10.6,0.9-15.8,1.6c-21.5,2.9-35.6,8.4-35.6,8.4l2.9,119.1l1.8,29.3L192.6,416.8L192.6,416.8z"/>
<path class="st4" d="M122.8,259c-3.2,0.3-5.2,0.5-10.4,1.2c-21.5,2.9-38.8,9.4-38.8,9.4"/>
<path class="st4" d="M204.4,269.9c0,0-9.5-5.5-29.6-8.7c-6.7-1-19.6-2.5-28-2.7"/>
<polyline class="st4" points="77.6,304.2 79.7,387.8 81.4,417.1 "/>
<polyline class="st4" points="192.6,416.8 194.7,392.1 202.3,309 "/>
<path class="st3" d="M78.3,330.5l0.6,46.4l120.5-0.2c0,0,8.1-30.2,2.8-44.6c-0.9-2.3-22.8-0.7-56.7-2.7
	C112.9,327.5,78.3,330.5,78.3,330.5L78.3,330.5z"/>
<path class="st6" d="M177.3,261.7c-8.7,26.6-5.2,69.8-5.2,69.8"/>
<path class="st6" d="M89.9,265.3c-2.9,25.7,4.8,69.1,4.8,69.1"/>
<path class="st3" d="M215.8,426.6l-16.3-49.9l-85.6,0.1L78.9,377l-16.6,51.9c0,0,7.9,3.5,25.9,0c17.1-3.3,37.3,7.8,54.1,2.3
	c11.5-3.8,26.6-5.7,36-3.8c10.2,2,19.9,5.2,23.7,4.1S215.8,426.6,215.8,426.6L215.8,426.6z"/>
<circle id="C-71" class="st6" cx="320.5" cy="265" r="3.3"/>
<path class="st6" d="M319.9,261.7c3.6-0.7,8-1.4,8.8,1.3c0.7,2.2-3.9,4-7.6,5.2"/>
<ellipse id="C-72" transform="matrix(0.1602 -0.9871 0.9871 0.1602 -4.1017 535.0212)" class="st7" cx="312.4" cy="269.9" rx="2.3" ry="2.3"/>
<path class="st7" d="M318.8,262.1c0.8,1.5,3.2,5.3,3.5,5.7c-0.9,0.7-2.4,1.9-2.9,2.3c-2.3,1.7-4.5,3.3-4.5,3.3l-4.5-7.3
	c0,0,2.7-1.4,6.6-3.2C317.2,262.8,318.7,262.1,318.8,262.1L318.8,262.1z"/>
<path class="st4" d="M310.5,266.1c0,0,2.7-1.4,6.1-3c0.8-0.4,2.1-1,2.2-1"/>
<path class="st4" d="M322.3,267.8c-0.9,0.7-2.4,1.9-2.9,2.3c-2.3,1.7-4.5,3.3-4.5,3.3"/>
<ellipse id="C-73" transform="matrix(0.3379 -0.9412 0.9412 0.3379 -25.1678 467.7158)" class="st6" cx="319.9" cy="251.7" rx="3" ry="3"/>
<path class="st6" d="M317.2,250.4c0.9-1.7,2-4.3,2.7-5.1c1.7-2,4.3-1,4.5,1.2c0,0.9-0.9,4-1.7,6.2"/>
<ellipse id="C-74" transform="matrix(0.3391 -0.9408 0.9408 0.3391 -34.4553 469.3349)" class="st6" cx="316.8" cy="259.2" rx="3.4" ry="3.3"/>
<path class="st7" d="M322.5,253c-1,2.8-2,5.5-2.6,7.4c-2.1-0.8-4.2-1.6-6.2-2.4c1.1-2.6,2.3-5.1,3.5-7.5
	C318.4,251,321.9,252.7,322.5,253z"/>
<path class="st4" d="M322.5,253c-1,2.8-2,5.5-2.6,7.4"/>
<path class="st4" d="M313.6,258c1.1-2.6,2.3-5.1,3.5-7.5"/>
<ellipse id="C-75" transform="matrix(0.4161 -0.9093 0.9093 0.4161 -62.0813 441.7839)" class="st6" cx="313" cy="269.2" rx="3.9" ry="3.8"/>
<path class="st7" d="M319.9,260.4c-1.3,3.2-3.3,9.9-3.3,9.9l-7.1-2.6c0,0,2.2-5.9,4.2-9.6C315.7,259,317.9,259.4,319.9,260.4
	L319.9,260.4z"/>
<path class="st4" d="M319.9,260.4c-1.3,3.2-3.3,9.9-3.3,9.9"/>
<path class="st4" d="M309.5,267.6c0,0,2.2-5.9,4.2-9.6"/>
<ellipse id="C-76" transform="matrix(0.9239 -0.3827 0.3827 0.9239 -88.7768 139.8705)" class="st6" cx="307.2" cy="293.1" rx="9.8" ry="9.8"/>
<path class="st7" d="M309.5,267.6c0,0,5,0.1,6.1-0.2c3.2-0.7,10.1-1.9,12.3-0.7c3,1.6,3.2,3.9,3.2,3.9s3.7,2.1,4,5.2
	c0,0,3.8,1.8,1.2,7.7c-2.5,5.8-4.2,6-4.7,6c-2.1,0-2.7-1.5-2.9-1.6l-1.7,2.6c-2.7,3.7-11,9.5-15.4,11.5c0,0-2.6-7-4.3-8.9
	c-1.7-1.8-8.9-4.2-8.9-4.2s6.4-13.3,8.4-17.3C308,269.3,309.5,267.6,309.5,267.6L309.5,267.6z"/>
<path class="st4" d="M298.3,288.9c0,0,8.5-18.8,11.2-21.3"/>
<path class="st4" d="M316.9,267.2c3.5-0.7,9-1.5,11-0.4c3,1.6,3.2,3.9,3.2,3.9s3.7,2.1,4,5.2c0,0,3.8,1.8,1.2,7.7
	c-2.5,5.8-4.2,6-4.7,6c-2.1,0-2.7-1.5-2.9-1.6l-1.7,2.6c-2.7,3.7-11,9.5-15.4,11.5"/>
<path class="st4" d="M331,270.7c-3.7,0-7.8,0.8-12.2,2.4"/>
<path class="st4" d="M335.2,276.2c0,0-6-0.6-13.2,3.2"/>
<path class="st4" d="M328.6,287.9c0,0,1.6-1.6,2.9-5.2"/>
<circle class="st6" cx="246.2" cy="376" r="15.6"/>
<path class="st7" d="M235.5,364.7l22.7-27.5l15.1-19.6l25.2-29c0,0,3.2,0.5,8.3,4c5,3.4,8.1,6.6,8.1,6.6s-6,10.9-16.7,27.3
	c-7.1,11-13.6,21.9-19.8,32.1c-8.8,14.3-20.3,27.6-20.5,27.8"/>
<path class="st4" d="M314.9,299.3c0,0-7,12.4-16,26.2c-8.4,12.9-17,27.8-24.9,39.9c-7.3,11.2-16,20.9-16.2,21.1"/>
<path class="st4" d="M235.5,364.7c0,0,9.6-12.2,12.9-16.2c2.7-3.2,11-12.7,11-12.7s9.7-13,13.1-17.2c6.2-7.7,26-29.9,26-29.9"/>
<circle id="C-77" class="st12" cx="246.2" cy="376" r="7.5"/>
<circle class="st10" cx="246.2" cy="376" r="15.6"/>
<circle class="st10" cx="195.5" cy="285.7" r="18.1"/>
<circle id="C-78" class="st10" cx="195.5" cy="285.7" r="11.2"/>
<path class="st7" d="M179.5,294.2l40.9,70l12.6,19.9l26.7-16c0,0-20.6-41.6-25.5-51.6c-6.5-13.4-22.7-39.3-22.7-39.3"/>
<path class="st4" d="M259.7,368.1c0,0-20.9-41.1-25.5-51.6c-9.1-21-22.7-39.3-22.7-39.3"/>
<polyline class="st6" points="233,384.1 220.4,364.3 194.3,320.7 186.6,306.1 "/>
<g id="Artwork_2892">
	<path class="st6" d="M138.8,240.7c19.5,2.4,35.8-4.2,43-21.1c8.2-19.3-1.7-33.9-1.2-51.4c0.1-2.6,0.1-5.1,0.1-7.5
		c-0.1-10.8-1.9-19-11.7-25.8c-0.5-0.4-1.1-0.7-1.7-1.1c-7.5-4.2-20.2-6.3-31.5-5.2c-30.1,3.1-41.1,16.2-44.3,35.8
		c-2.5,15.5-1.2,31.5,8.6,46.4c5.2,7.8,10.4,13.2,17.5,18.3c3,2.1,5,5.6,5,5.6"/>
	<path class="st12" d="M185.1,203.9c0,0,4.1-0.8,3.7-3.9c-0.1-0.7-1.1-1.1-2.5-2.9c-1.4-1.7-1.7-3.3-2.5-5.4c0,0-1.5,3.7-1.5,7.1
		S185.1,203.9,185.1,203.9L185.1,203.9z"/>
	<path class="st4" d="M183.8,191.7c0.7,2.1,0.8,3.1,2.4,4.9c2,2.2,2.5,2.7,2.6,3.4c0.4,3.1-3.7,4.3-3.7,4.3l-0.2-3.6"/>
	<ellipse class="st8" cx="178.1" cy="191.3" rx="1.9" ry="2.9"/>
	<path class="st3" d="M170.7,178.6c0-0.7,3.1-2.3,6.6-1.5c3.5,0.8,5.1,3.3,3.9,4.1s-4-1.3-6.2-1.3S170.7,179.3,170.7,178.6
		L170.7,178.6z"/>
	<ellipse transform="matrix(0.9433 -0.332 0.332 0.9433 -41.9234 38.7978)" class="st3" cx="92.6" cy="142.1" rx="13.5" ry="15.3"/>
	<ellipse class="st3" cx="104.3" cy="164.4" rx="12.8" ry="17.2"/>
	<ellipse class="st3" cx="102.3" cy="193.4" rx="12.8" ry="17.2"/>
	<ellipse class="st3" cx="100.7" cy="225.2" rx="12.8" ry="17.2"/>
	<ellipse class="st3" cx="100.7" cy="247.7" rx="12.8" ry="17.2"/>
	<path class="st3" d="M87.9,271.3c0,9.5,5.8,17.2,12.8,17.2s12.8-7.7,12.8-17.2s-5.8-9.6-12.8-9.6S87.9,261.8,87.9,271.3z"/>
	<path class="st3" d="M87.9,300c0,9.5,8.9,12.2,15.9,12.2s9.7-2.7,9.7-12.2c0-9.5-5.8-17.2-12.8-17.2S87.9,290.5,87.9,300L87.9,300z
		"/>
	<path class="st3" d="M87.9,326.7c0,9.5,8.9,12.2,15.9,12.2s9.7-2.7,9.7-12.2c0-9.5-5.8-17.2-12.8-17.2S87.9,317.3,87.9,326.7
		L87.9,326.7z"/>
	<path class="st3" d="M86.4,353.2c0,9.5,7.2,6.7,14.3,6.7s11.4,2.8,11.4-6.7s-5.8-17.2-12.8-17.2S86.4,343.7,86.4,353.2L86.4,353.2z
		"/>
	<path class="st8" d="M83.9,163c0.3-2.1,0.7-4.1,1.2-6c0.3-1.2,0.6-2.3,1-3.5c1-3.1,2.4-6,4-8.7c2.9-4.6,6.9-8.5,12.3-11.6
		c6.5-3.7,15-6.2,26.3-7.3c12.8-1.3,31.7,1.6,39.1,6.7c7.3,5,9.3,8.9,10.2,12c-3.5-0.2-0.4-2-12.9,4.4c-15,7.7-15.7,23.2-15.1,28.3
		c2,17.1,0.4,16.4-0.3,18.6c-1.2,4-9.8,8.1-12.4,18.5c-6,23.7-14.5,19.2-15,19.9c-1.3-2-4.8-5.1-8-7c-7.8-4.7-13.5-9-18.9-17
		c-2.5-3.8-4.7-7.6-6.5-11.5c-1.4-3-2.5-6.1-3.4-9.2C83.1,180.8,82.5,171.8,83.9,163L83.9,163z"/>
	<path class="st3" d="M127.4,164.4c0,9.5,5.8,17.2,12.8,17.2s12.8-7.7,12.8-17.2s-5.8-17.2-12.8-17.2c-3.5,0-6.8,1.9-9.1,5
		C128.9,155.3,127.4,159.6,127.4,164.4L127.4,164.4z"/>
	<ellipse class="st3" cx="136.7" cy="193.4" rx="12.8" ry="17.2"/>
	<path class="st3" d="M123.9,225.2c0,9.5,5.8,17.2,12.8,17.2s12.8-7.7,12.8-17.2s-5.8-17.2-12.8-17.2c-3.5,0-6.8,1.9-9.1,5
		S123.9,220.5,123.9,225.2L123.9,225.2z"/>
	<ellipse class="st3" cx="136.7" cy="247.7" rx="12.8" ry="17.2"/>
	<path class="st3" d="M123.9,271.3c0,9.5,5.8,17.2,12.8,17.2s12.8-7.7,12.8-17.2s-5.8-9.6-12.8-9.6S123.9,261.8,123.9,271.3z"/>
	<path class="st3" d="M123.9,300c0,9.5,8.9,12.2,15.9,12.2s9.7-2.7,9.7-12.2c0-9.5-5.8-17.2-12.8-17.2S123.9,290.5,123.9,300
		L123.9,300z"/>
	<path class="st3" d="M123.9,326.7c0,9.5,8.9,12.2,15.9,12.2s9.7-2.7,9.7-12.2c0-9.5-5.8-17.2-12.8-17.2S123.9,317.3,123.9,326.7
		L123.9,326.7z"/>
	<path class="st3" d="M122.4,353.2c0,9.5,7.2,6.7,14.3,6.7s11.4,2.8,11.4-6.7s-5.8-17.2-12.8-17.2S122.4,343.7,122.4,353.2
		L122.4,353.2z"/>
	<path class="st8" d="M164.3,132.4c1.1,0.6,14.4,2.5,18.2,13c1.3,3.6,1.2,4.7,1.5,8.5c-31,5.7-32.3,20.4-32.3,24.9
		C151.5,173.3,145.2,144.2,164.3,132.4L164.3,132.4z"/>
	
		<ellipse transform="matrix(0.8959 -0.4442 0.4442 0.8959 -42.9501 75.7794)" class="st3" cx="140.3" cy="129.6" rx="13.5" ry="15.3"/>
	<path class="st6" d="M161.3,197.1c0,0-8-11.3-16.2-6.2c-9.8,6.1,3.2,27.6,11.3,24.7c1-0.4,2-1,2.8-1.7c1.3-1.1,2-2.7,1.9-4.4
		l-0.2-2.8"/>
	<path class="st6" d="M151.9,198.9l4.3,4.3c0,0-2,0.3-3,3.4"/>
</g>
<path class="st1" d="M918.8,189.2c0.9,2.8,4.1,6.4,5.7,8.1c3.9,3.9,7.6,5.6,15.8,6.9c-2.4-3.5-4.6-8-5.1-12.6
	c-0.6-5.4-0.3-6.1,0.1-9.2c7.1-2.8,14.5-7.1,16.6-14.4c0.9-3.2,0.7-6.6-0.1-9.9c-1-4.3-3-8.4-5.7-11.9c-5.3-6.8-12.6-11.5-20.7-14.8
	c-16-6.5-31.9-6.7-48.2-2.9c-4.3,1-9.8,3.1-14.7,6.3c-6.4,4.2-12.3,9.6-15,16.8s-2.4,14.2,0.8,21.2c4.2,9,13.1,15.5,22.6,18.4
	c9.5,2.9,19.4,3.8,29.3,3.2C906.6,194,914.4,193.7,918.8,189.2L918.8,189.2z"/>
<path class="st0" d="M867.8,163.7c1.5,1.3,3.6,1.9,5.6,1.8c1.7-0.1,3.4-0.6,4.7-1.7c5.1-4.5-0.4-11.3-5.9-10.8
	S864,160.3,867.8,163.7L867.8,163.7z"/>
<path class="st0" d="M893,155.7c-0.6,0.6-0.9,1.4-1.2,2.2c-0.3,1-0.5,2.1-0.4,3.2c0.3,2.8,3,5.1,5.8,5.3s6-1,7.5-3.5
	c0.7-1.1,0.7-2.9,0.6-4.2c-0.1-1.7-1.1-3.3-2.5-4.3C900.2,152.6,895.1,153.5,893,155.7L893,155.7z"/>
<path class="st0" d="M919.3,164.4c1.3,1.7,4.2,2.2,4.7,2.2c2.6,0.1,5.6-1.1,6.5-3.4c1.6-4.1-1.3-10.4-6.9-9.8
	C918.8,153.8,916,160,919.3,164.4L919.3,164.4z"/>
<path class="st1" d="M219.2,63.1c-0.9,2.8-4.1,6.4-5.7,8.1c-3.9,3.9-7.6,5.6-15.8,6.9c2.4-3.5,4.6-8,5.1-12.6
	c0.6-5.4,0.4-6.1-0.1-9.1c-7.1-2.8-14.5-7.1-16.6-14.4c-0.9-3.2-0.7-6.6,0-9.9c1-4.3,3-8.4,5.7-11.9c5.4-6.8,12.6-11.5,20.6-14.8
	c16-6.5,31.9-6.7,48.2-2.9c4.3,1,9.8,3.1,14.7,6.3c6.4,4.2,12.3,9.6,15,16.8s2.4,14.2-0.8,21.2c-4.1,9-13,15.5-22.6,18.4
	c-9.5,2.9-19.4,3.8-29.3,3.1C231.4,67.9,223.5,67.6,219.2,63.1L219.2,63.1z"/>
<path class="st0" d="M270.2,37.7c-1.5,1.4-3.6,1.9-5.6,1.8c-1.7-0.1-3.4-0.6-4.7-1.7c-5.1-4.5,0.4-11.3,5.9-10.8
	C271.5,27.4,274,34.2,270.2,37.7L270.2,37.7z"/>
<path class="st0" d="M245,29.7c0.6,0.6,0.9,1.4,1.2,2.1c0.3,1,0.5,2.1,0.4,3.2c-0.3,2.8-3,5.1-5.8,5.3s-6-1-7.5-3.5
	c-0.7-1.1-0.7-2.9-0.6-4.2c0.1-1.7,1.1-3.3,2.5-4.3C237.8,26.6,242.8,27.5,245,29.7L245,29.7z"/>
<path class="st0" d="M218.6,38.3c-1.3,1.7-4.2,2.2-4.7,2.2c-2.6,0.1-5.6-1.1-6.5-3.4c-1.6-4.1,1.3-10.4,6.9-9.8
	C219.1,27.7,222,33.9,218.6,38.3L218.6,38.3z"/>
</svg>
