<svg id="Layer_4" data-name="Layer 4" xmlns="http://www.w3.org/2000/svg" viewBox="0 0 192 192"><defs><style>.cls-1,.cls-2{fill:none;stroke-linecap:round;stroke-linejoin:round;stroke-width:4.20px;}.cls-1{stroke:#080808;}.cls-2{stroke:#472692;}</style></defs><path class="cls-1" d="M168.41,138.56v8a10,10,0,0,1-10,10H33.59a10,10,0,0,1-10-10V66a10,10,0,0,1,10-10H158.41a10,10,0,0,1,10,10v49.22"></path><path class="cls-1" d="M54.85,36.59H74a10,10,0,0,1,10,10V56a0,0,0,0,1,0,0H44.85a0,0,0,0,1,0,0V46.59A10,10,0,0,1,54.85,36.59Z"></path><circle class="cls-2" cx="96" cy="106.28" r="26"></circle><line class="cls-1" x1="132.48" y1="75.67" x2="148.48" y2="75.67"></line></svg>